<?xml version="1.0" encoding="iso-8859-1"?>
<!-- Generator: Adobe Illustrator 19.0.0, SVG Export Plug-In . SVG Version: 6.00 Build 0)  -->
<svg version="1.1" id="Capa_1" xmlns="http://www.w3.org/2000/svg" xmlns:xlink="http://www.w3.org/1999/xlink" x="0px" y="0px"
	 viewBox="0 0 472 472" style="enable-background:new 0 0 472 472;" xml:space="preserve">
<path style="fill:#999999;" d="M188,416h96v31h-96V416z"/>
<path style="fill:#4D4D4D;" d="M188,448l13.712,24h68.576L284,448v-1h-96V448z"/>
<path style="fill:#FCEE21;" d="M230.552,75.688c-74.45,3.477-134.208,62.697-138.36,137.112
	c-2.722,52.792,23.003,103.008,67.44,131.64c13.895,9.052,23.571,23.306,26.856,39.56h99.056
	c3.451-16.398,13.283-30.749,27.328-39.888c41.863-27.219,67.121-73.762,67.128-123.696c0.239-79.741-64.21-144.577-143.951-144.816
	C234.217,75.594,232.384,75.624,230.552,75.688z"/>
<path style="fill:#06AAE9;" d="M283.272,211.688c-2.838-3.387-7.883-3.831-11.27-0.994c-0.001,0.001-0.001,0.001-0.002,0.002
	l-36,30.168l-36-30.168c-3.387-2.839-8.433-2.395-11.272,0.992s-2.395,8.433,0.992,11.272L228,255.04V390c0,4.418,3.582,8,8,8
	s8-3.582,8-8V255.048l38.28-32.088c3.387-2.838,3.831-7.883,0.994-11.27C283.273,211.689,283.273,211.689,283.272,211.688
	L283.272,211.688z"/>
<g>
	<path style="fill:#F8CF26;" d="M44,224H12c-4.418,0-8-3.582-8-8s3.582-8,8-8h32c4.418,0,8,3.582,8,8S48.418,224,44,224z"/>
	<path style="fill:#F8CF26;" d="M100.232,88.232c-2.122,0-4.156-0.844-5.656-2.344L70.344,61.656
		c-3.069-3.178-2.982-8.243,0.196-11.312c3.1-2.994,8.015-2.994,11.116,0l24.232,24.232c3.124,3.125,3.123,8.19-0.002,11.314
		C104.386,87.389,102.353,88.232,100.232,88.232z"/>
	<path style="fill:#F8CF26;" d="M236,48c-4.418,0-8-3.582-8-8V8c0-4.418,3.582-8,8-8s8,3.582,8,8v32C244,44.418,240.418,48,236,48z"
		/>
	<path style="fill:#F8CF26;" d="M371.768,88.232c-4.418-0.001-7.999-3.583-7.998-8.002c0-2.121,0.843-4.154,2.342-5.654
		l24.232-24.232c3.178-3.07,8.242-2.982,11.312,0.196c2.995,3.1,2.995,8.016,0,11.116l-24.232,24.232
		C375.924,87.388,373.89,88.232,371.768,88.232z"/>
	<path style="fill:#F8CF26;" d="M460,224h-32c-4.418,0-8-3.582-8-8s3.582-8,8-8h32c4.418,0,8,3.582,8,8S464.418,224,460,224z"/>
	<path style="fill:#F8CF26;" d="M396,384c-2.122,0-4.156-0.844-5.656-2.344l-24.232-24.232c-3.07-3.178-2.982-8.242,0.196-11.312
		c3.1-2.995,8.016-2.995,11.116,0l24.232,24.232c3.124,3.125,3.123,8.19-0.002,11.314C400.155,383.157,398.121,384,396,384z"/>
	<path style="fill:#F8CF26;" d="M76,384c-4.418-0.001-7.999-3.583-7.998-8.002c0-2.121,0.843-4.154,2.342-5.654l24.232-24.232
		c3.178-3.069,8.243-2.982,11.312,0.196c2.994,3.1,2.994,8.015,0,11.116l-24.232,24.232C80.156,383.156,78.122,384,76,384z"/>
</g>
<path style="fill:#B3B3B3;" d="M188,397.544V416h96v-18.472c0.032-4.551,0.55-9.086,1.544-13.528h-99.056
	C187.463,388.45,187.969,392.989,188,397.544z"/>
<g>
</g>
<g>
</g>
<g>
</g>
<g>
</g>
<g>
</g>
<g>
</g>
<g>
</g>
<g>
</g>
<g>
</g>
<g>
</g>
<g>
</g>
<g>
</g>
<g>
</g>
<g>
</g>
<g>
</g>
</svg>
