<?xml version="1.0" encoding="iso-8859-1"?>
<!-- Generator: Adobe Illustrator 19.0.0, SVG Export Plug-In . SVG Version: 6.00 Build 0)  -->
<svg version="1.1" id="Capa_1" xmlns="http://www.w3.org/2000/svg" xmlns:xlink="http://www.w3.org/1999/xlink" x="0px" y="0px"
	 viewBox="0 0 464.012 464.012" style="enable-background:new 0 0 464.012 464.012;" xml:space="preserve">
<path style="fill:#E6E6E6;" d="M404.014,14.159C355.006,0.895,263.87-6.809,201.222,8.287c-11.424,2.752-22.504,5.952-33.24,9.6
	l-23.968,9.088c-100.16,42.048-160.592,121.568-140,193.992c14.4,50.632,65.216,86.4,132,100.464l40,5.6
	c38.017,2.663,76.216-0.597,113.232-9.664c21.723-5.173,42.85-12.589,63.04-22.128c31.277-14.349,47.963-48.883,39.768-82.304
	l-3.92-15.728c-6.671-22.121-0.383-46.114,16.28-62.12c4.593-4.853,9.943-8.93,15.84-12.072
	C495.806,83.319,462.358,29.927,404.014,14.159L404.014,14.159z M280.302,262.407c-28.728,3.128-53.6-8.56-55.536-26.112
	s19.784-34.312,48.512-37.44s53.6,8.56,55.528,26.112S309.03,259.295,280.302,262.407z"/>
<circle style="fill:#603813;" cx="120.014" cy="264.007" r="24"/>
<circle style="fill:#F8CF26;" cx="64.014" cy="208.007" r="24"/>
<circle style="fill:#6B6D95;" cx="80.014" cy="136.007" r="24"/>
<circle style="fill:#0378A3;" cx="144.014" cy="88.007" r="24"/>
<circle style="fill:#55D08F;" cx="224.014" cy="64.007" r="24"/>
<circle style="fill:#FF3D53;" cx="304.014" cy="56.007" r="24"/>
<path style="fill:#0071BC;" d="M156.014,464.007c-6.711,0.001-12.226-5.295-12.496-12l-4.8-163.568
	c-1.797-42.883-0.026-85.842,5.296-128.432h24c5.328,42.592,7.104,85.553,5.312,128.44l-4.8,163.568
	C168.251,458.723,162.728,464.017,156.014,464.007z"/>
<path style="fill:#808080;" d="M144.014,88.007h24v72h-24V88.007z"/>
<path style="fill:#754C24;" d="M144.014,88.007c-10.047-15.069-12.232-34.05-5.872-51.008l21.872-36.992l13.872,36.992
	c6.36,16.958,4.175,35.939-5.872,51.008H144.014z"/>
<g>
</g>
<g>
</g>
<g>
</g>
<g>
</g>
<g>
</g>
<g>
</g>
<g>
</g>
<g>
</g>
<g>
</g>
<g>
</g>
<g>
</g>
<g>
</g>
<g>
</g>
<g>
</g>
<g>
</g>
</svg>
