<svg height="512pt" viewBox="0 0 511 512" width="512pt" xmlns="http://www.w3.org/2000/svg"><path d="m490.160156 68.066406-6.191406-6.191406c-15.855469-15.855469-41.566406-15.855469-57.421875.003906l-318.925781 318.925782 63.609375 63.613281 318.925781-318.929688c15.859375-15.855469 15.859375-41.566406.003906-57.421875zm0 0" fill="#ffaf00"/><path d="m119.65625 343.410156-2.28125-2.140625h-7.992188l-46.175781 141.65625 108.023438-38.507812v-51.574219h-51.574219zm0 0" fill="#fcddc9"/><path d="m367.746094 41.601562 103.148437 103.144532-34.652343 34.652344-103.144532-103.144532zm0 0" fill="#fff"/><path d="m424.496094 59.828125-14.785156 14.789063-4.476563 4.472656 65.664063 65.660156 19.257812-19.261719c15.859375-15.855469 15.859375-41.566406.003906-57.421875l-8.242187-8.238281c-15.855469-15.859375-41.5625-15.859375-57.421875 0zm0 0" fill="#ff85b4"/><path d="m213.054688 266.449219c-2.679688 0-5.359376-1.023438-7.402344-3.070313-4.070313-4.085937-4.0625-10.703125.023437-14.777344l.171875-.171874c4.085938-4.074219 10.703125-4.066407 14.777344.019531 4.074219 4.089843 4.066406 10.703125-.019531 14.777343l-.175781.171876c-2.039063 2.035156-4.707032 3.050781-7.375 3.050781zm0 0"/><path d="m237.128906 242.371094c-2.675781 0-5.347656-1.019532-7.390625-3.058594-4.078125-4.082031-4.078125-10.695312 0-14.777344l71.765625-71.765625c4.082032-4.082031 10.699219-4.082031 14.78125 0 4.078125 4.078125 4.078125 10.695313 0 14.777344l-71.765625 71.765625c-2.042969 2.039062-4.71875 3.058594-7.390625 3.058594zm0 0"/><path d="m512.5 96.777344c0-13.636719-5.308594-26.457032-14.953125-36.097656l-45.726563-45.726563c-9.640624-9.644531-22.460937-14.953125-36.097656-14.953125-13.636718 0-26.457031 5.3125-36.097656 14.953125l-318.929688 318.925781c0 .003906.003907.003906.003907.003906-1.074219 1.074219-1.925781 2.382813-2.457031 3.878907l-57.136719 160.28125c-1.355469 3.800781-.398438 8.042969 2.453125 10.898437 1.996094 1.992188 4.667968 3.058594 7.390625 3.058594 1.175781 0 2.363281-.199219 3.507812-.605469l160.28125-57.136719c1.496094-.53125 2.804688-1.382812 3.878907-2.457031 0 0 0 .003907.003906.003907l318.925781-318.925782c9.640625-9.644531 14.953125-22.464844 14.953125-36.101562zm-144.75-40.394532 88.367188 88.367188-19.871094 19.875-88.371094-88.367188zm-206.96875 380.667969-117.582031 41.910157-9.660157-9.660157 41.914063-117.582031h33.757813v41.125c0 2.769531 1.097656 5.425781 3.058593 7.386719 1.960938 1.960937 4.617188 3.058593 7.386719 3.058593l41.125.003907zm10.449219-54.65625h-41.125l.003906-41.125c0-2.769531-1.101563-5.429687-3.0625-7.386719-1.957031-1.960937-4.617187-3.0625-7.386719-3.0625h-26.347656l239.785156-239.785156 88.367188 88.367188-239.785156 239.789062v-26.347656c0-5.773438-4.675782-10.449219-10.449219-10.449219zm311.539062-264.292969-11.875 11.871094-88.367187-88.367187 11.871094-11.875c5.699218-5.695313 13.269531-8.832031 21.324218-8.832031 8.054688 0 15.625 3.136718 21.320313 8.832031l45.726562 45.726562c5.695313 5.695313 8.832031 13.265625 8.832031 21.320313 0 8.054687-3.136718 15.628906-8.832031 21.324218zm0 0"/></svg>