<svg id="Layer_1" enable-background="new 0 0 511.326 511.326" height="512" viewBox="0 0 511.326 511.326" width="512" xmlns="http://www.w3.org/2000/svg"><g><g><g id="XMLID_1226_"><path d="m134.157 511.326c13.458 0 24.368-10.91 24.368-24.368v-194.772c0-13.458-10.91-24.368-24.368-24.368s-24.368 10.91-24.368 24.368v194.772c.001 13.458 10.91 24.368 24.368 24.368z" fill="#55696e"/></g><g id="XMLID_1225_"><path d="m75.334 511.326c13.458 0 24.368-10.91 24.368-24.368v-194.772c0-13.458-10.91-24.368-24.368-24.368s-24.368 10.91-24.368 24.368v194.772c0 13.458 10.91 24.368 24.368 24.368z" fill="#748488"/></g><g fill="#ba6746"><path d="m21.957 285.936-20.306 8.509c0 11.215 9.091 20.306 20.306 20.306 11.215 0 20.306-9.091 20.306-20.306z"/><path d="m187.967 287.417-20.307 6.735c0 11.382 9.314 21.048 20.694 20.835 11.036-.206 19.919-9.218 19.919-20.303z"/></g><g><path d="m105.355 292.187 12.601-96.052-12.994-89.689-34.135-8.859s-17.297 0-20.372 0c-26.779 0-48.671 21.449-48.803 47.813v149.284h40.612v-149.184c.019-3.773 3.923-7.302 8.191-7.302h.512v153.989z" fill="#3c5a73"/></g><g><path d="m208.273 145.398c-.133-26.364-22.026-47.813-48.804-47.813-3.075 0-20.372 0-20.372 0l-33.742 8.757v185.844h53.17v-153.988h.944c4.255 0 8.149 3.508 8.191 7.369v149.116h40.613v-149.183c.001-.034 0-.068 0-.102z" fill="#1e405c"/></g><ellipse cx="104.962" cy="42.085" fill="#ba6746" rx="42.085" ry="42.085" transform="matrix(.038 -.999 .999 .038 58.88 145.355)"/><path d="m70.827 97.585 34.135 93.506 34.135-93.506z" fill="#fff"/><path d="m120.739 89.601-14.186 6.765c-1.006.48-2.175.48-3.181 0l-14.186-6.765c-2.452-1.17-5.286.618-5.286 3.335v12.859c0 2.717 2.833 4.505 5.286 3.335l14.186-6.765c1.006-.48 2.175-.48 3.181 0l14.186 6.765c2.452 1.17 5.286-.618 5.286-3.335v-12.859c-.001-2.717-2.834-4.505-5.286-3.335z" fill="#1e405c" stroke="#373c41" stroke-miterlimit="10"/></g><g><g id="XMLID_758_"><g id="XMLID_760_"><path d="m352.034 511.326c-13.17 0-23.846-10.676-23.846-23.846v-190.602c0-13.17 10.676-23.846 23.846-23.846s23.846 10.676 23.846 23.846v190.602c0 13.17-10.677 23.846-23.846 23.846z" fill="#ffb69e"/></g><g id="XMLID_759_"><path d="m410.021 511.326c-13.17 0-23.846-10.676-23.846-23.846v-190.602c0-13.17 10.676-23.846 23.846-23.846s23.846 10.676 23.846 23.846v190.602c0 13.17-10.677 23.846-23.846 23.846z" fill="#ffab8f"/></g></g><g fill="#ffb69e"><circle cx="381.027" cy="52.133" r="41.184"/><path d="m402.355 108.582-.252-2.138h-42.94l-.239 2.911c-1.044 12.717 8.995 23.614 21.754 23.614 13.07 0 23.21-11.407 21.677-24.387z"/><path d="m314.396 169.848-24.188 6.83s-36.348 100.71-36.615 101.44c-3.769 10.307 1.532 21.718 11.839 25.487 10.304 3.767 21.717-1.53 25.487-11.84.277-.757 37.607-104.237 37.607-104.237z"/><path d="m508.461 278.119c-.267-.73-36.154-100.143-36.154-100.143l-24.483-4.657-14.297 14.211s37.332 103.481 37.608 104.237c3.775 10.325 15.195 15.603 25.487 11.84 10.307-3.77 15.608-15.181 11.839-25.488z"/></g><path d="m431.643 182.206c.617 1.747 1.246 3.525 1.884 5.323l38.78-9.553c-4.124-11.61-7.914-22.39-10.907-31.099-9.219-26.829-24.678-40.432-45.947-40.432h-13.349c.516 11.592-10.241 21.465-21.47 21.465-12.035 0-20.946-9.834-21.47-21.465h-12.561c-21.267 0-36.727 13.603-45.946 40.431-2.881 8.385-6.501 18.688-10.447 29.803l38.319 10.85c.638-1.799 1.267-3.576 1.884-5.323l-28.225 147.979c-1.324 6.835 3.944 13.151 10.838 13.151h136.004c6.917 0 12.163-6.31 10.838-13.151z" fill="#ff6473"/></g></g></svg>