<svg id="Layer_1" enable-background="new 0 0 510.11 510.11" height="512" viewBox="0 0 510.11 510.11" width="512" xmlns="http://www.w3.org/2000/svg"><g><g><g><g id="XMLID_1230_"><g><path d="m332.219 510.11c13.426 0 24.31-10.884 24.31-24.31v-194.309c0-13.426-10.884-24.31-24.31-24.31s-24.31 10.884-24.31 24.31v194.309c0 13.426 10.884 24.31 24.31 24.31z" fill="#55696e"/></g></g><g id="XMLID_1228_"><g><path d="m273.535 510.11c13.426 0 24.31-10.884 24.31-24.31v-194.309c0-13.426-10.884-24.31-24.31-24.31s-24.31 10.884-24.31 24.31v194.309c.001 13.426 10.884 24.31 24.31 24.31z" fill="#748488"/></g></g><g fill="#80391b"><path d="m327.592 102.569-.59-5.216h-47.176l-.544 5.589c-1.391 14.277 9.829 26.644 24.174 26.644 14.496 0 25.764-12.614 24.136-27.017z"/><path d="m221.834 165.831-21.806-4.956-34.239-30.243c-8.385-7.406-21.187-6.614-28.594 1.772s-6.613 21.188 1.772 28.594l67.908 59.982c13.052 11.528 33.669 2.236 33.669-15.183v-16.919z"/><path d="m385.901 181.056-20.258 7.822v105.105c0 11.188 9.07 20.258 20.258 20.258s20.258-9.07 20.258-20.258v-105.105z"/></g><g><path d="m248.715 97.353h31.112c-.513 12.702 11.28 23.503 23.591 23.503 13.195 0 22.971-10.76 23.584-23.503h30.468c26.714 0 48.555 21.398 48.688 47.699v.102 43.723h-40.516v-43.657c-.043-3.852-3.927-7.352-8.172-7.352h-.942v153.622h-107.302v-153.621h-.511c-4.257 0-8.153 3.521-8.171 7.285v43.723l-26.314-14.247-14.202-13.756v-15.822c.131-26.301 21.972-47.699 48.687-47.699z" fill="#e64937"/></g><ellipse cx="303.093" cy="41.985" fill="#80391b" rx="41.985" ry="41.985" transform="matrix(.038 -.999 .999 .038 249.507 343.244)"/></g></g><g><g><path d="m152.611 217.346c-2.761 0-5-2.239-5-5v-135.03c0-2.761 2.239-5 5-5s5 2.239 5 5v135.03c0 2.762-2.238 5-5 5z" fill="#6c9baa"/></g><g><path d="m158.813 41.236c-.854 0-1.719-.219-2.51-.679-2.387-1.389-3.196-4.45-1.807-6.836l15.754-27.072c1.388-2.386 4.449-3.196 6.836-1.807s3.196 4.45 1.807 6.836l-15.754 27.072c-.928 1.596-2.604 2.486-4.326 2.486z" fill="#ffda52"/></g><g><path d="m130.646 89.637c-.854 0-1.719-.219-2.51-.679-2.386-1.389-3.195-4.45-1.806-6.836l15.754-27.072c1.389-2.387 4.449-3.196 6.836-1.807 2.386 1.389 3.195 4.45 1.806 6.836l-15.754 27.072c-.928 1.596-2.604 2.486-4.326 2.486z" fill="#ffda52"/></g><g><path d="m146.484 41.194c-1.734 0-3.419-.903-4.343-2.516l-15.568-27.179c-1.372-2.396-.542-5.451 1.854-6.824 2.398-1.374 5.451-.542 6.824 1.854l15.568 27.179c1.372 2.396.542 5.451-1.854 6.824-.784.449-1.639.662-2.481.662z" fill="#ffda52"/></g><g><path d="m174.317 89.787c-1.734 0-3.42-.903-4.344-2.516l-15.567-27.179c-1.373-2.396-.542-5.451 1.854-6.824 2.395-1.374 5.451-.542 6.824 1.854l15.567 27.179c1.373 2.396.542 5.451-1.854 6.824-.784.449-1.638.662-2.48.662z" fill="#ffda52"/></g><g><path d="m140.273 51.858c-.006 0-.012 0-.018 0l-31.322-.108c-2.762-.01-4.992-2.256-4.983-5.017.01-2.761 2.221-5.01 5.017-4.983l31.322.108c2.762.01 4.992 2.256 4.983 5.017-.009 2.756-2.246 4.983-4.999 4.983z" fill="#ffda52"/></g><g><path d="m196.273 52.051c-.006 0-.012 0-.018 0l-31.322-.108c-2.762-.01-4.992-2.256-4.983-5.017.009-2.756 2.247-4.983 5-4.983h.018l31.322.108c2.762.01 4.992 2.256 4.983 5.017-.01 2.755-2.248 4.983-5 4.983z" fill="#ffda52"/></g></g></g></svg>