<svg id="Layer_1" enable-background="new 0 0 510.11 510.11" height="512" viewBox="0 0 510.11 510.11" width="512" xmlns="http://www.w3.org/2000/svg"><g><g><g><g id="XMLID_1011_"><path d="m318.135 510.11c13.426 0 24.31-10.884 24.31-24.31v-194.309c0-13.426-10.884-24.31-24.31-24.31s-24.31 10.884-24.31 24.31v194.309c0 13.426 10.884 24.31 24.31 24.31z" fill="#55696e"/></g><g id="XMLID_1010_"><path d="m259.451 510.11c13.426 0 24.31-10.884 24.31-24.31v-194.309c0-13.426-10.884-24.31-24.31-24.31s-24.31 10.884-24.31 24.31v194.309c.001 13.426 10.884 24.31 24.31 24.31z" fill="#748488"/></g><g fill="#ba6746"><path d="m313.655 107.157-.737-9.804h-47.176l-.758 9.738c-1.104 14.183 10.107 26.301 24.333 26.301 14.2 0 25.402-12.075 24.338-26.235z"/><path d="m207.238 164.351-21.294-3.476-34.239-30.243c-8.385-7.406-21.187-6.614-28.594 1.772s-6.613 21.188 1.772 28.594l67.908 59.982c13.052 11.528 33.669 2.236 33.669-15.183v-16.919z"/><path d="m371.817 179.787-20.258 9.091v105.105c0 11.188 9.07 20.258 20.258 20.258s20.258-9.07 20.258-20.258v-105.105z"/></g><path d="m234.631 97.353h31.112c-.513 12.702 11.28 23.503 23.591 23.503 13.195 0 22.971-10.76 23.584-23.503h30.468c26.714 0 48.555 21.398 48.688 47.699v.102 43.723h-40.516v-43.657c-.043-3.852-3.927-7.352-8.172-7.352h-.942v153.622h-107.302v-153.621h-.511c-4.257 0-8.153 3.521-8.171 7.285v43.723l-26.314-14.247-14.202-13.756v-15.822c.131-26.301 21.972-47.699 48.687-47.699z" fill="#ffda52"/><ellipse cx="289.009" cy="41.985" fill="#ba6746" rx="41.985" ry="41.985" transform="matrix(.038 -.999 .999 .038 235.964 329.17)"/></g></g><g><path d="m159.11 173.327v-43.564l-11.055-6.434-11.055 6.434v43.564c-9.398 4.224-15.945 13.66-15.945 24.632v80.136c0 4.807 3.897 8.704 8.704 8.704h36.592c4.807 0 8.704-3.897 8.704-8.704v-80.136c0-10.972-6.548-20.408-15.945-24.632z" fill="#468423"/><path d="m166.727 247.923v-28.621c0-2.949-2.391-5.34-5.34-5.34h-26.665c-2.949 0-5.34 2.391-5.34 5.34v28.621c0 2.949 2.391 5.34 5.34 5.34h26.665c2.949 0 5.34-2.391 5.34-5.34z" fill="#6eaa50"/><path d="m159.11 129.763v-13.036c0-2.825-2.29-5.114-5.114-5.114h-11.881c-2.825 0-5.114 2.29-5.114 5.114v13.036z" fill="#dcbe82"/></g></g></svg>