<svg id="Layer_1" enable-background="new 0 0 510.798 510.798" height="512" viewBox="0 0 510.798 510.798" width="512" xmlns="http://www.w3.org/2000/svg"><g><g><g><g id="XMLID_998_"><g><path d="m262.418 510.798c13.426 0 24.31-10.884 24.31-24.31v-194.309c0-13.426-10.884-24.31-24.31-24.31s-24.31 10.884-24.31 24.31v194.309c0 13.426 10.884 24.31 24.31 24.31z" fill="#55696e"/></g></g><g id="XMLID_997_"><g><path d="m203.734 510.798c13.426 0 24.31-10.884 24.31-24.31v-194.309c0-13.426-10.884-24.31-24.31-24.31s-24.31 10.884-24.31 24.31v194.309c0 13.426 10.884 24.31 24.31 24.31z" fill="#748488"/></g></g><g><g fill="#80391b"><path d="m130.226 154.532v7.031l-34.239-30.243c-8.385-7.406-21.187-6.614-28.594 1.772s-6.613 21.188 1.772 28.594l67.908 59.982c13.052 11.528 33.669 2.236 33.669-15.183v-51.953z"/><path d="m257.919 105.255-.718-7.214h-47.176l-.511 8.086c-.884 13.987 10.222 25.817 24.237 25.817 14.364.001 25.59-12.397 24.168-26.689z"/></g><g><path d="m428.222 98.041h-93.395l-20.563 15.488 20.563 25.029h93.395c11.188 0 20.258-9.07 20.258-20.258 0-11.189-9.07-20.259-20.258-20.259z" fill="#80391b"/></g></g><path d="m334.827 98.042h-77.626c-.613 12.743-10.389 23.503-23.584 23.503-12.311 0-24.104-10.801-23.591-23.503h-31.112c-26.715 0-48.556 21.398-48.687 47.7v15.822l14.202 13.756 26.314 14.248v-43.724c.019-3.765 3.914-7.285 8.171-7.285h.511v153.621h107.303v-153.622h48.1v-40.516z" fill="#e64937"/><ellipse cx="233.292" cy="42.673" fill="#80391b" rx="41.985" ry="41.985" transform="matrix(.383 -.924 .924 .383 104.589 241.876)"/></g></g><g><g><path d="m254.015 163.117h10v56h-10z" fill="#d1e7ed"/></g><g><path d="m269.681 224.117h-21.333c-2.762 0-5-2.239-5-5s2.238-5 5-5h21.333c2.762 0 5 2.239 5 5s-2.238 5-5 5z" fill="#97c3d1"/></g><path d="m270.715 121.118h-23.399c-2.52 0-4.563 2.042-4.563 4.562v20.954l16.262 10.397 16.261-10.397v-20.954c.001-2.52-2.042-4.562-4.561-4.562z" fill="#ebf4f7"/><g><path d="m242.753 146.634v16.222c0 8.981 7.281 16.262 16.262 16.262s16.262-7.281 16.262-16.262v-16.222z" fill="#ffda52"/></g></g><g><g id="XMLID_989_"><g><path d="m385.294 285.434v201.343c-.041 13.226 10.649 23.981 23.876 24.021h.074c13.193 0 23.907-10.674 23.947-23.875v-195.007z" fill="#5f6e9b"/></g></g><g id="XMLID_988_"><g><path d="m325.516 291.916v194.932c0 13.227 10.72 23.95 23.947 23.95 13.226.001 23.949-10.72 23.951-23.947l.014-194.936v-6.481z" fill="#414b82"/></g></g><path d="m405.086 106.754h-51.466c-15.522 0-28.105 12.583-28.105 28.105v157.056h107.676v-157.056c0-15.522-12.583-28.105-28.105-28.105z" fill="#64afff"/><ellipse cx="367.455" cy="44.709" fill="#ffb69e" rx="44.709" ry="44.709" transform="matrix(.987 -.16 .16 .987 -2.417 59.437)"/><g id="XMLID_980_"><g><path d="m355.78 225.797 16.678-32.946-11.146-21.912-25.61 3.863-10.085 19.922-64.91-6.776c-11.246-1.173-21.314 6.99-22.488 18.237-1.174 11.245 6.991 21.314 18.236 22.488l78.932 8.24c8.481.884 16.575-3.573 20.393-11.116z" fill="#ffb69e"/></g></g><g id="XMLID_976_"><g><path d="m393.678 150.935-21.219 41.916-36.756-18.049 21.445-42.361c5.106-10.088 17.424-14.126 27.512-9.019 10.087 5.108 14.125 17.426 9.018 27.513z" fill="#4699f2"/></g></g></g><g><path d="m114.207 172.726v-43.564l-11.055-9.075-11.055 9.075v43.564c-9.398 4.224-15.945 13.66-15.945 24.632v80.136c0 4.807 3.897 8.704 8.704 8.704h36.592c4.807 0 8.704-3.897 8.704-8.704v-80.136c.001-10.972-6.547-20.408-15.945-24.632z" fill="#468423"/><path d="m121.825 247.095v-28.167c0-3.074-2.492-5.567-5.567-5.567h-26.211c-3.074 0-5.567 2.492-5.567 5.567v28.167c0 3.074 2.492 5.567 5.567 5.567h26.211c3.075 0 5.567-2.493 5.567-5.567z" fill="#6eaa50"/><path d="m114.207 129.162v-13.036c0-2.825-2.29-5.114-5.114-5.114h-11.881c-2.825 0-5.114 2.29-5.114 5.114v13.036z" fill="#dcbe82"/></g></g></svg>