<svg id="Layer_1" enable-background="new 0 0 502.229 502.229" height="512" viewBox="0 0 502.229 502.229" width="512" xmlns="http://www.w3.org/2000/svg"><g><g><g><path d="m42.957 82.562c0-.01.002-.02.002-.03 0-.045-.001-.029-.002.03z" fill="#6c9baa"/><path d="m49.76 38.921c-3.977-2.933-8.979-3.814-13.729-2.404-2.132.633-3.573 2.629-3.573 4.853v34.031c-5.801 0-10.503 3.193-10.503 7.133 0 3.939 4.702 7.132 10.503 7.132.049 0 .098 0 .147-.001 5.582-.052 10.017-4.735 10.017-10.317v-32.882c.557.239 1.08.572 1.553 1 1.185 1.072 1.785 2.65 1.785 4.248v8.414c0 2.654 1.941 5.025 4.583 5.276 3.031.289 5.58-2.087 5.58-5.058v-8.359c-.001-5.102-2.258-10.038-6.363-13.066z" fill="#97c3d1"/></g><g fill="#6c9baa"><g><path d="m406.092 231.465c0-.003.001-.005.001-.008 0-.023 0-.015-.001.008z"/><path d="m440.988 221.297c0-.001 0-.002 0-.003.001-.015.001-.011 0 .003z"/><path d="m440.236 177.751c-1.21-2.219-3.692-3.147-5.913-2.501l-35.065 10.164c-2.173.63-3.667 2.619-3.667 4.881v34.03c-5.801 0-10.502 3.193-10.502 7.132s4.702 7.132 10.502 7.132c.049 0 .098 0 .147-.001 5.582-.052 10.017-4.735 10.017-10.317v-34.159l24.901-7.218v27.272c-.057-.001-.112-.006-.169-.006-5.8 0-10.502 3.193-10.502 7.132s4.702 7.132 10.502 7.132c.052 0 .103 0 .155-.001 5.674-.056 10.178-4.826 10.178-10.5v-37.711c-.001-.853-.175-1.711-.584-2.461z"/></g><g><path d="m102.536 137.582c0-.003.001-.005.001-.008 0-.023-.001-.015-.001.008z"/><path d="m137.432 127.414c0-.001 0-.002 0-.003 0-.015 0-.011 0 .003z"/><path d="m136.68 83.868c-1.21-2.219-3.692-3.147-5.913-2.501l-35.065 10.163c-2.173.63-3.667 2.619-3.667 4.881v34.03c-5.801 0-10.502 3.193-10.502 7.132s4.702 7.132 10.502 7.132c.049 0 .098 0 .147-.001 5.582-.052 10.017-4.735 10.017-10.317v-34.157l24.901-7.218v27.272c-.057-.001-.112-.006-.169-.006-5.8 0-10.502 3.193-10.502 7.132s4.702 7.132 10.502 7.132c.052 0 .103 0 .155-.001 5.674-.056 10.178-4.826 10.178-10.5v-37.711c-.001-.854-.175-1.712-.584-2.462z"/></g></g></g><g id="XMLID_1092_"><path d="m304.265 502.229c-11.777 0-21.324-9.547-21.324-21.324v-170.447c0-11.777 9.547-21.324 21.324-21.324s21.324 9.547 21.324 21.324v170.447c0 11.777-9.547 21.324-21.324 21.324z" fill="#414b82"/></g><g id="XMLID_1093_"><path d="m252.796 502.229c-11.777 0-21.329-9.547-21.329-21.324v-170.447c0-11.777 9.552-21.324 21.329-21.324s21.324 9.547 21.324 21.324v170.447c0 11.777-9.547 21.324-21.324 21.324z" fill="#5f6e9b"/></g><ellipse cx="278.333" cy="108.479" fill="#ffb69e" rx="36.829" ry="36.829" transform="matrix(.16 -.987 .987 .16 126.67 365.842)"/><g fill="#ffb69e"><path d="m206.844 186.513-15.437-9.718-9.4 5.048-59.513-21.828c-8.407-3.083-17.708 1.147-20.934 9.457-3.326 8.569 1.412 18.318 10.042 21.484l66.031 24.218c4.36 1.599 9.245 1.289 13.414-.953l14.929-8.026z"/><path d="m295.567 163.844-.375-5.913h-33.499l-.529 5.286c-1.017 10.162 6.963 18.98 17.176 18.98 9.963 0 17.858-8.41 17.227-18.353z"/><path d="m384.504 111.166-10-67.782c-1.321-8.96-9.658-15.153-18.617-13.831-8.96 1.322-15.152 9.657-13.83 18.618l8.824 59.813-21.691 22.518 6.905 16.206s17.068 5.849 17.208 6.039l26.789-27.809c3.524-3.66 5.154-8.746 4.412-13.772z"/></g><g><path d="m329.19 130.501-26.423 27.43h-7.574c.002.047.01.093.013.14.405 9.05-7.992 16.757-16.757 16.757-9.394 0-16.35-7.678-16.757-16.757-.002-.047.004-.093.002-.14h-25.011c-6.661 0-13.218 1.649-19.086 4.8l-26.19 14.063 14.568 29.4 25.491-13.704v117.967h94.123v-128.942l27.713-28.77z" fill="#64afff"/></g><g><g><path d="m191.787 37.224c-.854 0-1.719-.219-2.51-.679-2.387-1.389-3.195-4.45-1.807-6.836l15.755-27.072c1.389-2.386 4.448-3.196 6.836-1.807 2.387 1.389 3.195 4.45 1.807 6.836l-15.755 27.072c-.928 1.595-2.604 2.486-4.326 2.486z" fill="#ffda52"/></g><g><path d="m163.621 85.624c-.854 0-1.719-.219-2.51-.679-2.387-1.389-3.195-4.45-1.807-6.836l15.754-27.072c1.389-2.386 4.448-3.196 6.836-1.807 2.387 1.389 3.195 4.45 1.807 6.836l-15.754 27.072c-.928 1.596-2.604 2.486-4.326 2.486z" fill="#ffda52"/></g><g><path d="m179.458 37.181c-1.734 0-3.42-.903-4.344-2.516l-15.567-27.179c-1.372-2.396-.542-5.451 1.854-6.824 2.397-1.373 5.451-.543 6.824 1.854l15.567 27.179c1.372 2.396.542 5.451-1.854 6.824-.783.449-1.637.662-2.48.662z" fill="#ffda52"/></g><g><path d="m207.291 85.775c-1.734 0-3.42-.903-4.344-2.516l-15.567-27.179c-1.372-2.396-.542-5.451 1.854-6.824s5.451-.543 6.824 1.854l15.567 27.179c1.372 2.396.542 5.451-1.854 6.824-.783.448-1.637.662-2.48.662z" fill="#ffda52"/></g><g><path d="m173.247 47.845c-.006 0-.012 0-.018 0l-31.321-.108c-2.761-.01-4.992-2.256-4.982-5.017.01-2.755 2.246-4.983 5-4.983h.018l31.321.108c2.761.01 4.992 2.256 4.982 5.017-.009 2.756-2.246 4.983-5 4.983z" fill="#ffda52"/></g><g><path d="m229.247 48.038c-.006 0-.012 0-.018 0l-31.322-.108c-2.761-.01-4.992-2.256-4.982-5.017.01-2.755 2.246-4.983 5-4.983h.018l31.322.108c2.761.01 4.992 2.256 4.982 5.017-.009 2.755-2.246 4.983-5 4.983z" fill="#ffda52"/></g></g><g><g><path d="m89.405 261.156c-.854 0-1.719-.219-2.51-.679l-27.071-15.754c-2.387-1.389-3.195-4.45-1.807-6.836 1.389-2.386 4.449-3.196 6.836-1.807l27.071 15.754c2.387 1.389 3.195 4.45 1.807 6.836-.928 1.595-2.604 2.486-4.326 2.486z" fill="#ffda52"/></g><g><path d="m41.005 232.989c-.854 0-1.719-.219-2.51-.679l-27.071-15.754c-2.387-1.389-3.195-4.45-1.807-6.836 1.389-2.386 4.448-3.196 6.836-1.807l27.071 15.754c2.387 1.389 3.195 4.45 1.807 6.836-.928 1.595-2.604 2.486-4.326 2.486z" fill="#ffda52"/></g><g><path d="m62.386 233.062c-1.734 0-3.42-.903-4.344-2.516-1.372-2.396-.542-5.451 1.854-6.824l27.18-15.568c2.397-1.373 5.451-.543 6.824 1.854 1.372 2.396.542 5.451-1.854 6.824l-27.18 15.568c-.784.449-1.637.662-2.48.662z" fill="#ffda52"/></g><g><path d="m13.793 260.895c-1.734 0-3.42-.903-4.344-2.516-1.372-2.396-.542-5.451 1.854-6.824l27.179-15.567c2.397-1.373 5.451-.543 6.824 1.854 1.372 2.396.542 5.451-1.854 6.824l-27.179 15.567c-.784.449-1.637.662-2.48.662z" fill="#ffda52"/></g><g><path d="m51.717 226.855c-.006 0-.012 0-.018 0-2.761-.01-4.992-2.256-4.982-5.017l.107-31.322c.01-2.761 2.281-4.989 5.018-4.983 2.761.01 4.992 2.256 4.982 5.017l-.107 31.322c-.01 2.756-2.246 4.983-5 4.983z" fill="#ffda52"/></g><g><path d="m51.524 282.855c-.006 0-.012 0-.018 0-2.761-.01-4.992-2.256-4.982-5.017l.108-31.322c.01-2.755 2.246-4.983 5-4.983h.018c2.761.01 4.992 2.256 4.982 5.017l-.108 31.322c-.01 2.756-2.246 4.983-5 4.983z" fill="#ffda52"/></g></g><g><g><path d="m488.286 80.556c-.854 0-1.719-.219-2.51-.679l-27.072-15.754c-2.387-1.389-3.195-4.45-1.807-6.836 1.389-2.386 4.449-3.196 6.836-1.807l27.072 15.754c2.387 1.389 3.195 4.45 1.807 6.836-.928 1.595-2.603 2.486-4.326 2.486z" fill="#ffda52"/></g><g><path d="m439.885 52.389c-.854 0-1.719-.219-2.51-.679l-27.071-15.754c-2.387-1.389-3.195-4.45-1.807-6.836 1.39-2.386 4.448-3.196 6.836-1.807l27.071 15.754c2.387 1.389 3.195 4.45 1.807 6.836-.929 1.596-2.604 2.486-4.326 2.486z" fill="#ffda52"/></g><g><path d="m461.267 52.463c-1.734 0-3.42-.903-4.344-2.516-1.372-2.396-.542-5.451 1.854-6.824l27.179-15.567c2.396-1.373 5.451-.543 6.824 1.854 1.372 2.396.542 5.451-1.854 6.824l-27.179 15.566c-.784.449-1.637.663-2.48.663z" fill="#ffda52"/></g><g><path d="m412.673 80.296c-1.734 0-3.42-.903-4.344-2.516-1.372-2.396-.542-5.451 1.854-6.824l27.18-15.568c2.396-1.373 5.451-.543 6.824 1.854 1.372 2.396.542 5.451-1.854 6.824l-27.18 15.568c-.784.448-1.637.662-2.48.662z" fill="#ffda52"/></g><g><path d="m450.597 46.256c-.006 0-.012 0-.018 0-2.761-.01-4.992-2.256-4.982-5.017l.108-31.322c.01-2.755 2.246-4.983 5-4.983h.018c2.761.01 4.992 2.256 4.982 5.017l-.108 31.322c-.01 2.755-2.246 4.983-5 4.983z" fill="#ffda52"/></g><g><path d="m450.405 102.255c-.006 0-.012 0-.018 0-2.761-.01-4.992-2.256-4.982-5.017l.107-31.322c.01-2.756 2.246-4.983 5-4.983h.018c2.761.01 4.992 2.256 4.982 5.017l-.107 31.322c-.01 2.756-2.247 4.983-5 4.983z" fill="#ffda52"/></g></g></g></svg>