<svg id="Layer_1" enable-background="new 0 0 508.952 508.952" height="512" viewBox="0 0 508.952 508.952" width="512" xmlns="http://www.w3.org/2000/svg"><g><g id="XMLID_1242_"><path d="m279.925 508.952c-13.889 0-25.147-11.259-25.147-25.147v-201.005c0-13.888 11.259-25.147 25.147-25.147s25.147 11.259 25.147 25.147v201.005c0 13.889-11.259 25.147-25.147 25.147z" fill="#55696e"/></g><g id="XMLID_1243_"><path d="m219.219 508.952c-13.889 0-25.147-11.259-25.147-25.147v-201.005c0-13.888 11.259-25.147 25.147-25.147s25.147 11.259 25.147 25.147v201.005c.001 13.889-11.258 25.147-25.147 25.147z" fill="#748488"/></g><g fill="#80391b"><path d="m153.589 102.037h-8.322l-71.519-26.359c-10.021-3.695-21.141 1.437-24.834 11.458-3.694 10.021 1.437 21.141 11.458 24.834l74.756 27.552c2.142.789 4.406 1.193 6.688 1.193h11.773l2.58-19.856z"/><path d="m274.988 106.107-.398-4.07h-48.575l-.379 4.314c-1.273 14.487 10.144 26.952 24.687 26.952 14.641 0 26.091-12.625 24.665-27.196z"/><path d="m460.213 87.631c-3.421-10.119-14.396-15.549-24.515-12.127l-78.48 26.533h-12.206l-5.849 17.291 5.849 21.389h15.387c2.106 0 4.199-.344 6.194-1.019l81.494-27.552c10.118-3.421 15.547-14.397 12.126-24.515z"/></g><path d="m274.589 102.037c.563 13.101-11.596 24.251-24.289 24.251-13.604 0-23.679-11.108-24.286-24.251h-72.426v38.68h40.483v142.083h111v-142.083h39.94v-38.68z" fill="#e64937"/><ellipse cx="249.344" cy="43.432" fill="#80391b" rx="43.432" ry="43.432" transform="matrix(.999 -.033 .033 .999 -1.307 8.322)"/><g><g><g><path d="m426.825 157.642c3.438-20.304 5.849-40.545 7.245-60.642-18.314 7.558-36.984 13.927-55.897 19.104 13.314 15.063 27.55 29.616 42.68 43.578.935.863 2.323.986 3.53.574 1.206-.411 2.229-1.357 2.442-2.614z" fill="#414b82"/></g><g><g><path d="m376.663 151.475c2.401-9.904 4.546-19.813 6.434-29.715.472-2.475.928-4.95 1.369-7.425-16.5 4.761-33.197 8.612-50.014 11.55-2.402.42-4.807.821-7.214 1.204 11.539 16.437 24.038 32.472 37.476 48.024 1.662 1.931 5.427 1.093 6.114-1.362 1.393-4.947 2.722-9.896 3.986-14.847.632-2.477 1.248-4.953 1.849-7.429z" fill="#ff6473"/></g></g><g><g><path d="m73.264 96.156c1.307 20.073 3.628 40.294 6.974 60.581.206 1.256 1.221 2.201 2.419 2.61 1.198.411 2.578.29 3.51-.575 15.087-13.961 29.282-28.513 42.555-43.574-18.766-5.166-37.29-11.514-55.458-19.042z" fill="#414b82"/></g></g><path d="m224.09 131.188c7.564 18.563 16.137 36.948 25.712 55.071 1.183 2.247 4.995 2.257 6.189.015 9.664-18.077 18.327-36.419 25.981-54.944-19.279 1.134-38.61 1.087-57.882-.142z" fill="#414b82"/><path d="m172.911 125.11c5.523 19.28 12.067 38.491 19.629 57.55.933 2.361 4.727 2.786 6.159.688 11.584-16.918 22.194-34.211 31.815-51.795-19.285-.966-38.523-3.113-57.603-6.443z" fill="#ff6473"/><path d="m122.479 113.433c3.432 19.784 7.885 39.607 13.365 59.387.675 2.45 4.416 3.291 6.073 1.362 13.398-15.546 25.858-31.575 37.358-48.005-19.115-3.068-38.084-7.315-56.796-12.744z" fill="#ffda52"/><path d="m275.621 132.429c9.658 17.595 20.305 34.898 31.927 51.827 1.437 2.1 5.255 1.677 6.2-.684 7.653-19.055 14.287-38.266 19.901-57.548-19.224 3.326-38.604 5.46-58.028 6.405z" fill="#ffda52"/><g><path d="m146.045 127.082c-28.869-6.682-57.138-16.075-84.654-28.148-3.648-1.601-5.308-5.856-3.707-9.504 1.6-3.648 5.85-5.31 9.504-3.707 58.939 25.86 121.47 39.051 185.858 39.209s126.984-12.728 186.048-38.299c3.656-1.582 7.903.098 9.486 3.754 1.582 3.656-.098 7.903-3.754 9.486-60.896 26.364-125.432 39.649-191.815 39.487-36.324-.09-72.082-4.204-106.966-12.278z" fill="#d6e8ed"/></g></g></g></g></svg>