<svg id="Layer_1" enable-background="new 0 0 508.873 508.873" height="512" viewBox="0 0 508.873 508.873" width="512" xmlns="http://www.w3.org/2000/svg"><g><g id="XMLID_971_"><path d="m167.795 508.873c-2.873 0-5.793-.529-8.629-1.645-12.115-4.769-18.07-18.457-13.301-30.572l36.893-93.715 26.538-109.052c3.079-12.651 15.831-20.411 28.481-17.332 12.651 3.079 20.411 15.83 17.332 28.481l-26.92 110.616c-.253 1.041-.577 2.064-.97 3.061l-37.482 95.213c-3.652 9.279-12.539 14.945-21.942 14.945z" fill="#5f6e9b"/></g><g><path d="m467.789 491.705-25.635-206.904c-.947-7.643-7.441-13.383-15.143-13.383h-89.105c-7.567 0-13.991 5.546-15.096 13.033l-30.518 206.904c-1.23 8.337 4.532 16.093 12.869 17.323.756.111 1.505.165 2.246.165 7.442 0 13.958-5.453 15.077-13.035l7.487-50.76h101.286l6.246 50.41c1.037 8.363 8.656 14.304 17.019 13.267 8.364-1.036 14.303-8.656 13.267-17.02zm-54.263-189.768 5.324 42.968h-74.107l6.338-42.968zm-79.054 112.592 5.768-39.107h82.39l4.845 39.107z" fill="#ba6746"/></g><g id="XMLID_1149_"><g><path d="m330.283 413.913c-12.682-2.945-20.576-15.614-17.631-28.297l20.651-88.927-72.316-23.847c-12.365-4.078-19.084-17.407-15.006-29.772 4.077-12.365 17.407-19.083 29.772-15.006l92.769 30.592c11.582 3.819 18.339 15.842 15.581 27.722l-25.523 109.904c-2.953 12.715-15.647 20.569-28.297 17.631z" fill="#414b82"/></g></g><g fill="#ffb69e"><path d="m158.699 124.319-18.601 5.886-67.671-45.069c-9.302-6.196-21.868-3.677-28.064 5.625-6.196 9.303-3.677 21.869 5.626 28.064l75.407 50.221c4.816 3.208 10.896 4.265 16.683 2.642l26.788-7.512 3.913-20.932z"/><path d="m285.052 107.804-.238-2.547-36.677.337-.108.594c-2.096 11.485 6.725 22.063 18.4 22.063 11.018 0 19.649-9.477 18.623-20.447z"/><path d="m434.843 8.815c-8.745-6.962-21.478-5.516-28.44 3.229l-49.035 61.594-16.31 9.163 2.134 18.894 16.549 17.039 20.907-11.744c2.281-1.282 4.292-2.993 5.922-5.04l51.502-64.694c6.961-8.746 5.516-21.479-3.229-28.441z"/></g><path d="m359.741 118.733-18.724-35.91-41.318 23.211-14.885-.776c.371 9.867-8.79 18.249-18.358 18.249-10.137 0-17.667-8.164-18.319-17.913l-17.479.16c-6.373.058-12.705 1.02-18.808 2.857l-53.15 15.709 10.168 39.858 34.601-9.703 1.474 136.687 63.764-.687c27.834-.3 50.154-23.107 49.854-50.941l-1.047-97.078z" fill="#64afff"/><path d="m266.634.003c-24.67.266-44.453 20.48-44.187 45.15s20.48 44.453 45.15 44.187 44.453-20.48 44.187-45.15-20.481-44.453-45.15-44.187z" fill="#ffb69e"/><g><g><path d="m424.802 85.795c-1.23-20.556-3.445-40.819-6.616-60.714-16.138 11.494-32.891 21.908-50.15 31.217 16.367 11.673 33.519 22.641 51.408 32.831 1.106.63 2.486.437 3.568-.237 1.083-.672 1.866-1.824 1.79-3.097z" fill="#414b82"/></g><g><g><path d="m374.541 91.099c.106-10.191-.04-20.328-.432-30.401-.098-2.518-.212-5.032-.341-7.542-15.002 8.359-30.4 15.876-46.121 22.531-2.246.951-4.498 1.884-6.757 2.8 14.948 13.412 30.742 26.215 47.34 38.336 2.054 1.507 5.534-.159 5.65-2.706.242-5.133.42-10.255.535-15.364.058-2.555.1-5.106.126-7.654z" fill="#ff6473"/></g></g><g><g><path d="m66.483 105.622c5.8 19.261 12.621 38.438 20.456 57.448.484 1.177 1.686 1.869 2.945 1.997 1.26.13 2.577-.299 3.29-1.352 11.551-17.003 22.098-34.382 31.633-52.048-19.449-.8-38.927-2.807-58.324-6.045z" fill="#414b82"/></g></g><path d="m221.323 105.74c11.555 16.379 24.053 32.357 37.469 47.854 1.659 1.923 5.375 1.072 6.033-1.381 5.339-19.79 9.642-39.614 12.922-59.388-18.527 5.453-37.371 9.766-56.424 12.915z" fill="#414b82"/><path d="m170.092 111.361c9.729 17.538 20.435 34.778 32.101 51.641 1.442 2.089 5.234 1.648 6.155-.718 7.47-19.094 13.908-38.335 19.316-57.635-19.006 3.406-38.232 5.652-57.572 6.712z" fill="#ff6473"/><path d="m118.326 111.356c7.804 18.5 16.613 36.809 26.412 54.843 1.21 2.235 5.044 2.21 6.223-.042 9.547-18.167 18.072-36.593 25.57-55.192-19.313 1.321-38.751 1.46-58.205.391z" fill="#ffda52"/><path d="m271.807 95.329c13.377 14.964 27.652 29.42 42.792 43.292 1.873 1.722 5.498.449 5.886-2.064 3.159-20.29 5.29-40.502 6.411-60.554-17.979 7.576-36.379 14.026-55.089 19.326z" fill="#ffda52"/><g><path d="m144.363 119.339c-29.632 0-59.291-2.776-88.821-8.333-3.915-.737-6.492-4.508-5.755-8.423.736-3.915 4.502-6.492 8.424-5.755 63.252 11.903 127.148 10.653 189.912-3.713 62.765-14.366 120.842-41.036 172.619-79.267 3.205-2.366 7.721-1.687 10.088 1.518 2.366 3.205 1.686 7.722-1.518 10.088-53.382 39.417-113.26 66.913-177.97 81.725-35.408 8.104-71.173 12.16-106.979 12.16z" fill="#d6e8ed"/></g></g></g></svg>