<svg id="Layer_1" enable-background="new 0 0 511.35 511.35" height="512" viewBox="0 0 511.35 511.35" width="512" xmlns="http://www.w3.org/2000/svg"><g><g id="XMLID_1168_"><path d="m96.706 479.707c-.771 0-1.55-.048-2.335-.145-10.255-1.276-17.533-10.624-16.257-20.879l10.903-87.596c.183-1.472.541-2.917 1.065-4.304l24.272-64.217c3.654-9.667 14.452-14.54 24.118-10.887 9.667 3.654 14.541 14.452 10.887 24.118l-23.483 62.128-10.628 85.38c-1.177 9.47-9.24 16.401-18.542 16.402z" fill="#748488"/></g><g id="XMLID_1167_"><path d="m211.641 479.706c-.543 0-1.089-.023-1.64-.071-10.295-.894-17.916-9.965-17.022-20.26l6.932-79.836-36.367-67.709c-4.89-9.104-1.474-20.448 7.631-25.338 9.103-4.89 20.447-1.473 25.337 7.63l39.006 72.624c1.722 3.207 2.472 6.846 2.157 10.472l-7.415 85.394c-.845 9.744-9.018 17.093-18.619 17.094z" fill="#55696e"/></g><g fill="#ba6746"><path d="m82.201 201.547-9.399-15.294-12.52 3.512-31.172-40.863c-5.246-6.877-15.045-8.762-22.161-3.846-7.598 5.25-9.195 15.713-3.657 22.971l38.059 49.891c4.012 5.259 10.803 7.493 17.109 5.724l22.315-6.111z"/><path d="m176.621 174.194-.253-2.914h-36.07l-.271 1.875c-1.605 11.11 7.012 21.061 18.237 21.061 10.806 0 19.293-9.256 18.357-20.022z"/><path d="m258.58 47.059c-8.417-2.811-17.515 1.734-20.325 10.149l-24.473 73.292-11.244 12.193 6.042 17.548 17.118 4.728 14.039-15.224c1.54-1.67 2.708-3.647 3.427-5.802l25.564-76.562c2.81-8.413-1.733-17.513-10.148-20.322z"/></g><g><path d="m225.697 164.97-23.159-22.277-26.146 28.587c.01.146.033-.146.039 0 .437 9.758-8.617 18.268-18.069 18.268-10.13 0-17.63-8.478-18.069-18.268-.003-.071.005.071.003 0h-7.396c-4.616.025-9.207.698-13.651 1.944l-46.448 13.028 7.936 31.142 27.616-7.417v108.487l67.176-.724c12.942-.139 22.788-10.744 22.648-23.685v-98.668z" fill="#ffda52"/></g><path d="m157.318 87.376c-19.58.211-35.282 16.255-35.071 35.835s16.255 35.282 35.835 35.071 35.282-16.255 35.071-35.835c-.21-19.58-16.254-35.282-35.835-35.071z" fill="#ba6746"/><g id="XMLID_1133_"><path d="m478.327 410.594c-1.664 0-3.355-.224-5.036-.692l-79.047-22.041c-6.251-1.743-11.153-6.6-12.952-12.835l-19.742-68.396c-2.866-9.929 2.86-20.301 12.789-23.166 9.928-2.867 20.3 2.86 23.166 12.788l16.847 58.365 68.99 19.237c9.955 2.776 15.774 13.095 12.999 23.049-2.307 8.274-9.825 13.691-18.014 13.691z" fill="#414b82"/></g><g id="XMLID_1132_"><path d="m310.989 479.705c-10.334 0-18.711-8.377-18.711-18.711v-95.577c0-2.178.38-4.339 1.124-6.386l28.936-79.687c3.527-9.714 14.264-14.727 23.975-11.201 9.713 3.527 14.728 14.261 11.201 23.974l-27.812 76.593v92.285c-.001 10.332-8.379 18.71-18.713 18.71z" fill="#5f6e9b"/></g><g fill="#ffb69e"><path d="m387.537 86.413c-19.128-2.922-37.004 10.215-39.926 29.343s10.215 37.004 29.343 39.926 37.004-10.215 39.926-29.343-10.215-37.003-29.343-39.926z"/><path d="m335.625 127.836-10.734-15.081 5.933-63.554c.824-8.833-5.668-16.663-14.501-17.487-8.833-.823-16.662 5.667-17.487 14.5l-6.488 69.499c-.358 3.835.674 7.67 2.908 10.808l14.472 20.332 14.361-4.714z"/><path d="m500.743 65.096c-8.343-3.016-17.552 1.303-20.568 9.646l-20.374 56.355-23.154 15.041-.808 18.544 18.54 8.248 27.447-17.829c2.935-1.906 5.167-4.718 6.356-8.009l22.207-61.427c3.015-8.344-1.303-17.552-9.646-20.569z"/><path d="m394.06 170.671.05-1.456-32.576-4.977-.142.413c-3.57 10.428 3.706 21.41 14.701 22.188 9.488.671 17.637-6.664 17.967-16.168z"/></g><path d="m436.647 146.138-36.861 23.944-5.677-.867c-1.159 7.655-8.555 13.74-16.262 13.74-9.209 0-16.027-7.526-16.426-16.426-.035-.778.019-1.54.111-2.293l-25.908-36.4-25.898 19.017 24.191 33.988-17.534 114.697 87.247 21.836 18.875-123.74 31.872-20.704z" fill="#64afff"/></g></svg>