<svg id="Layer_1" enable-background="new 0 0 509.299 509.299" height="512" viewBox="0 0 509.299 509.299" width="512" xmlns="http://www.w3.org/2000/svg"><g><g id="XMLID_764_"><path d="m369.651 326.693-.415 160.573c-.031 12.122 9.76 21.98 21.882 22.031h.058c12.079.051 21.906-9.71 21.937-21.788l.415-160.704c.031-12.138-9.8-21.995-21.938-21.995-12.094.002-21.907 9.789-21.939 21.883z" fill="#ffb69e"/></g><g id="XMLID_756_"><path d="m337.822 509.299c-.001 0-.001 0-.002 0-12.116-.001-21.938-9.825-21.937-21.941l.015-160.666c.002-12.115 9.825-21.937 21.939-21.937h.002c12.116.001 21.938 9.825 21.937 21.941l-.015 160.666c-.001 12.115-9.824 21.937-21.939 21.937z" fill="#ffb69e"/></g><g id="XMLID_1120_"><path d="m217.979 509.077c-12.884 0-23.328-10.444-23.328-23.328v-186.464c0-12.884 10.444-23.328 23.328-23.328s23.328 10.444 23.328 23.328v186.464c0 12.884-10.444 23.328-23.328 23.328z" fill="#5f6e9b"/></g><g id="XMLID_1118_"><path d="m274.294 509.077c-12.884 0-23.328-10.444-23.328-23.328v-186.464c0-12.884 10.444-23.328 23.328-23.328s23.328 10.444 23.328 23.328v186.464c0 12.884-10.444 23.328-23.328 23.328z" fill="#414b82"/></g><ellipse cx="246.348" cy="78.326" fill="#ffb69e" rx="40.29" ry="40.29" transform="matrix(.987 -.16 .16 .987 -9.366 40.472)"/><g fill="#ffb69e"><path d="m174.299 117.091-28.064-10.329-43.307-54.813c-6.234-7.89-17.985-9.49-25.757-3.11-7.538 6.188-8.761 17.3-2.689 24.985l46.733 59.151c2.05 2.595 4.777 4.572 7.881 5.714l32.098 11.892 12.673-15.598z"/><path d="m262.087 134.06-.292-1.635h-33.165l-.259 3.287c-.78 9.895 7.039 18.355 16.964 18.355 10.595 0 18.614-9.577 16.752-20.007z"/></g><g><path d="m330.628 196.941-31.683-51.054c-5.195-8.371-14.346-13.462-24.198-13.462h-12.952c.002.044.01.086.012.13.401 8.959-7.912 16.589-16.589 16.589-9.3 0-16.187-7.601-16.589-16.589-.002-.044.003-.086.002-.13h-12.668l-41.663-15.334-13.104 33.489 33.456 12.395v136.31h102.971v-87.532l8.293 13.495c3.264 5.311 9.051 8.548 15.285 8.548h9.429v-36.855z" fill="#64afff"/></g><g><g><path d="m83.09 45.947h10.939v61.262h-10.939z" fill="#d1e7ed"/></g><g><path d="m100.229 112.679h-23.338c-3.021 0-5.47-2.449-5.47-5.47s2.449-5.47 5.47-5.47h23.338c3.021 0 5.47 2.449 5.47 5.47s-2.45 5.47-5.47 5.47z" fill="#ebf4f7"/></g><path d="m101.359 0h-25.598c-2.757 0-4.991 2.234-4.991 4.991v22.923l17.79 11.596 17.79-11.596v-22.923c0-2.757-2.235-4.991-4.991-4.991z" fill="#ebf4f7"/><g><path d="m70.77 27.914v17.746c0 9.825 7.965 17.79 17.79 17.79s17.79-7.965 17.79-17.79v-17.746z" fill="#ffda52"/></g></g><path d="m438.611 369.457-31.87-208.801c-1.524-9.987-10.113-17.364-20.215-17.364h-44.051c-10.073 0-18.645 7.335-20.203 17.287l-32.696 208.856c-.272 1.741.23 3.515 1.376 4.854s2.82 2.11 4.583 2.11h137.114c1.759 0 3.43-.768 4.576-2.102 1.145-1.334 1.652-3.102 1.386-4.84z" fill="#ff6473"/><ellipse cx="362.071" cy="87.864" fill="#ffb69e" rx="40.426" ry="40.426" transform="matrix(.099 -.995 .995 .099 238.956 439.515)"/><g id="XMLID_761_"><path d="m309.682 251.371-56.258-33.189c-8.805-5.195-11.731-16.544-6.537-25.349s16.546-11.732 25.35-6.538l42.369 24.996 19.733-24.878 22.753.269 7 21.796-30.501 38.453c-5.736 7.23-15.938 9.143-23.909 4.44z" fill="#ffb69e"/></g><g id="XMLID_24_"><path d="m364.092 208.478 23.213-29.265c6.354-8.01 5.011-19.653-2.999-26.006-8.009-6.353-19.652-5.011-26.007 2.999l-23.96 30.207z" fill="#f24c64"/></g></g></svg>