<svg id="Layer_1" enable-background="new 0 0 510.11 510.11" height="512" viewBox="0 0 510.11 510.11" width="512" xmlns="http://www.w3.org/2000/svg"><g><g><g><g id="XMLID_1007_"><path d="m358.583 510.11c13.426 0 24.31-10.884 24.31-24.31v-194.309c0-13.426-10.884-24.31-24.31-24.31s-24.31 10.884-24.31 24.31v194.309c.001 13.426 10.885 24.31 24.31 24.31z" fill="#55696e"/></g><g id="XMLID_1006_"><path d="m299.9 510.11c13.426 0 24.31-10.884 24.31-24.31v-194.309c0-13.426-10.884-24.31-24.31-24.31s-24.31 10.884-24.31 24.31v194.309c0 13.426 10.884 24.31 24.31 24.31z" fill="#748488"/></g><g fill="#ba6746"><path d="m353.922 104.139-.555-6.786h-47.176l-.572 6.698c-1.208 14.147 9.949 26.298 24.147 26.298 14.164 0 25.309-12.093 24.156-26.21z"/><path d="m249.472 160.99c-.12 0-23.08-.116-23.08-.116l-34.24-30.243c-8.385-7.406-21.187-6.614-28.594 1.772s-6.613 21.188 1.772 28.594l67.908 59.982c13.052 11.527 33.669 2.236 33.669-15.183v-16.919z"/><path d="m392.007 188.878v105.105c0 11.188 9.07 20.258 20.258 20.258s20.258-9.07 20.258-20.258v-105.105l-20.258-3.378z"/></g><path d="m275.08 97.353h31.112c-.513 12.702 11.28 23.503 23.591 23.503 13.195 0 22.971-10.76 23.584-23.503h30.468c26.714 0 48.555 21.398 48.688 47.699 0 .034.001.068.001.102v43.723h-40.516v-43.657c-.043-3.852-3.927-7.352-8.172-7.352h-.942v153.622h-107.304v-153.621h-.511c-4.257 0-8.153 3.521-8.171 7.285v43.723l-26.314-14.247-14.202-13.756v-15.822c.132-26.301 21.973-47.699 48.688-47.699z" fill="#ffda52"/><ellipse cx="329.458" cy="41.985" fill="#ba6746" rx="41.985" ry="41.985" transform="matrix(.383 -.924 .924 .383 164.59 330.297)"/></g></g><g><path d="m188.086 217.055c-2.762 0-5-2.239-5-5v-133c0-2.761 2.238-5 5-5s5 2.239 5 5v133c0 2.761-2.238 5-5 5z" fill="#6c9baa"/></g><g><path d="m199.254 61.368c.161-3.618-2.947-6.519-6.551-6.164-7.598.749-15.559.268-23.799-1.15l.016.016c-6.19-.12-11.509 2.152-16.642 5.586-8.144 5.448-18.74 5.448-26.884 0-5.129-3.431-10.448-5.706-16.642-5.585l.016-.016c-8.239 1.419-16.201 1.899-23.799 1.15-3.604-.355-6.711 2.546-6.551 6.164.203 4.571-.12 9.369-.832 14.335 0 11.957 14.359 21.649 32.073 21.649 9.114 0 18.045-4.936 24.569-9.729 2.738-2.011 6.478-2.011 9.216 0 6.525 4.793 15.455 9.728 24.569 9.728 17.713 0 32.073-9.692 32.073-21.649-.712-4.965-1.035-9.763-.832-14.335zm-89.595 22.609c-6.769 0-12.256-8.273-12.256-8.273s5.487-8.273 12.256-8.273 20.194 11.291 20.194 11.291-13.426 5.255-20.194 5.255zm58.354 0c-6.769 0-20.194-5.256-20.194-5.256s13.425-11.29 20.194-11.29 12.256 8.272 12.256 8.272-5.487 8.274-12.256 8.274z" fill="#414b82"/></g></g></svg>