<svg id="Layer_1" enable-background="new 0 0 512 512" height="512" viewBox="0 0 512 512" width="512" xmlns="http://www.w3.org/2000/svg"><g><g id="XMLID_1183_"><g><path d="m173.518 512c-13.444 0-24.343-10.898-24.343-24.343v-194.58c0-13.444 10.899-24.343 24.343-24.343s24.343 10.899 24.343 24.343v194.58c.001 13.445-10.898 24.343-24.343 24.343z" fill="#55696e"/></g></g><g id="XMLID_1182_"><g><path d="m114.762 512c-13.444 0-24.343-10.898-24.343-24.343v-194.58c0-13.444 10.899-24.343 24.343-24.343s24.343 10.899 24.343 24.343v194.58c0 13.445-10.899 24.343-24.343 24.343z" fill="#748488"/></g></g><g fill="#80391b"><path d="m166.775 103.171-.667-4.503h-44.6l-.583 5.411c-1.474 13.668 9.236 25.594 22.983 25.594 14.115-.001 24.934-12.54 22.867-26.502z"/><path d="m282.537 177.818-21.912-28.37-26.701 1.31-6.885 21.58 10.653 13.793-39.83 29.106-10.927 24.424 10.927 21.295c4.012-.084 8.041-1.345 11.527-3.892l69.062-50.467c9.225-6.741 11.052-19.759 4.086-28.779z"/></g><path d="m236.595 118.337c-9.512-12.316-24.482-19.67-40.044-19.67h-30.443c.37 11.935-10.726 22.05-22.311 22.05-12.417 0-21.629-10.077-22.289-22.05h-20.556c-24.275 0-45.181 17.31-49.709 41.159l-6.753 35.567 20.012 9.924 20.23-4.369 5.676-29.894v142.022h107.453v-153.74c2.597.348 5.008 1.709 6.623 3.801l22.554 29.201 33.586-22.89z" fill="#e64937"/><circle cx="144.193" cy="42.044" fill="#80391b" r="42.044"/><g><g><path d="m358.705 102.284-27.071-15.754c-2.387-1.389-3.195-4.45-1.806-6.836 1.388-2.386 4.449-3.196 6.836-1.807l27.071 15.754c2.387 1.389 3.195 4.45 1.806 6.836-1.386 2.383-4.445 3.198-6.836 1.807z" fill="#ffda52"/></g><g><path d="m310.305 74.117-27.072-15.754c-2.387-1.389-3.196-4.45-1.807-6.836 1.388-2.386 4.448-3.196 6.836-1.807l27.072 15.754c2.387 1.389 3.196 4.45 1.807 6.836-1.388 2.387-4.45 3.196-6.836 1.807z" fill="#ffda52"/></g><g><path d="m329.853 72.355c-1.373-2.396-.542-5.451 1.854-6.824l27.179-15.568c2.396-1.373 5.451-.542 6.824 1.854 1.372 2.396.542 5.451-1.854 6.824l-27.179 15.568c-2.396 1.372-5.452.542-6.824-1.854z" fill="#ffda52"/></g><g><path d="m281.259 100.188c-1.373-2.396-.542-5.451 1.854-6.824l27.18-15.567c2.394-1.373 5.45-.543 6.824 1.854 1.373 2.396.542 5.451-1.854 6.824l-27.18 15.567c-2.386 1.367-5.446.551-6.824-1.854z" fill="#ffda52"/></g><g><path d="m323.527 68.663c-.006 0-.012 0-.018 0-2.762-.01-4.992-2.256-4.983-5.017l.108-31.322c.01-2.755 2.247-4.983 5-4.983h.018c2.762.01 4.992 2.256 4.983 5.017l-.108 31.322c-.009 2.756-2.247 4.983-5 4.983z" fill="#ffda52"/></g><g><path d="m323.334 124.663c-.006 0-.012 0-.018 0-2.762-.01-4.992-2.256-4.983-5.017l.108-31.322c.009-2.761 2.297-5.011 5.017-4.983 2.762.01 4.992 2.256 4.983 5.017l-.108 31.322c-.009 2.756-2.246 4.983-4.999 4.983z" fill="#ffda52"/></g></g><g><g><path d="m374.792 257.535c-3.58-2.083-4.793-6.675-2.71-10.255l20.863-35.851c2.085-3.581 6.675-4.792 10.255-2.71 3.58 2.083 4.793 6.675 2.71 10.255l-20.863 35.851c-2.077 3.567-6.662 4.8-10.255 2.71z" fill="#ffda52"/></g><g><path d="m412.093 193.438c-3.58-2.083-4.793-6.675-2.71-10.255l20.863-35.851c2.084-3.581 6.676-4.793 10.255-2.71 3.58 2.083 4.793 6.675 2.71 10.255l-20.863 35.851c-2.077 3.568-6.661 4.8-10.255 2.71z" fill="#ffda52"/></g><g><path d="m429.876 254.979-20.616-35.994c-2.059-3.594-.814-8.177 2.78-10.235 3.592-2.059 8.176-.814 10.236 2.78l20.616 35.994c2.059 3.594.814 8.177-2.78 10.235-3.595 2.06-8.177.814-10.236-2.78z" fill="#ffda52"/></g><g><path d="m393.018 190.627-20.616-35.993c-2.059-3.594-.814-8.177 2.78-10.236 3.593-2.059 8.177-.814 10.235 2.781l20.616 35.993c2.059 3.594.814 8.177-2.78 10.235-3.6 2.063-8.18.809-10.235-2.78z" fill="#ffda52"/></g><g><path d="m465.467 208.778c-.009 0-.018 0-.026 0l-41.479-.143c-4.142-.014-7.488-3.384-7.474-7.526.014-4.143 3.367-7.497 7.526-7.474l41.479.143c4.142.014 7.488 3.384 7.474 7.526-.015 4.133-3.37 7.474-7.5 7.474z" fill="#ffda52"/></g><g><path d="m391.307 208.522c-.009 0-.018 0-.026 0l-41.479-.143c-4.142-.014-7.488-3.384-7.474-7.526.014-4.133 3.37-7.474 7.5-7.474h.026l41.479.143c4.142.014 7.488 3.384 7.474 7.526-.015 4.134-3.37 7.474-7.5 7.474z" fill="#ffda52"/></g></g><g><g><path d="m124.361 152.109h10.518v58.905h-10.518z" fill="#d1e7ed"/></g><g><path d="m140.84 216.273h-22.44c-2.904 0-5.259-2.355-5.259-5.259 0-2.905 2.355-5.259 5.259-5.259h22.44c2.904 0 5.259 2.355 5.259 5.259s-2.355 5.259-5.259 5.259z" fill="#ebf4f7"/></g><path d="m141.926 107.93h-24.613c-2.65 0-4.799 2.149-4.799 4.799v22.041l17.105 14.812 17.105-14.812v-22.041c.001-2.65-2.147-4.799-4.798-4.799z" fill="#ebf4f7"/><g><path d="m112.514 134.77v17.063c0 9.447 7.658 17.105 17.105 17.105s17.105-7.658 17.105-17.105v-17.063z" fill="#ffda52"/></g></g><path d="m128.987 185.729h-45.162l.908-4.78-40.242-5.555-5.095 26.837c-2.371 12.486 7.213 24.071 19.93 24.071h69.661c11.204 0 20.286-9.082 20.286-20.286s-9.082-20.287-20.286-20.287z" fill="#80391b"/></g></svg>