<svg id="Layer_1" enable-background="new 0 0 510.564 510.564" height="512" viewBox="0 0 510.564 510.564" width="512" xmlns="http://www.w3.org/2000/svg"><g><g><g><g><path d="m316.188 104.371h10.939v61.262h-10.939z" fill="#d1e7ed"/></g><g><path d="m333.327 171.103h-23.338c-3.021 0-5.47-2.449-5.47-5.47s2.449-5.47 5.47-5.47h23.338c3.021 0 5.47 2.449 5.47 5.47s-2.45 5.47-5.47 5.47z" fill="#ebf4f7"/></g><path d="m334.457 58.424h-25.598c-2.757 0-4.991 2.235-4.991 4.991v22.923l17.79 20.642 17.79-20.642v-22.923c0-2.756-2.235-4.991-4.991-4.991z" fill="#ebf4f7"/><g><path d="m303.868 86.338v17.746c0 9.825 7.965 17.79 17.79 17.79s17.79-7.965 17.79-17.79v-17.746z" fill="#ffda52"/></g></g><g><g><g id="XMLID_1219_"><g><path d="m475.959 510.564c13.22 0 23.955-10.696 23.995-23.924v-194.123l-23.997-14.371-23.997 14.371v193.977c-.041 13.253 10.671 24.03 23.924 24.07z" fill="#55696e"/></g></g><g id="XMLID_1218_"><g><path d="m416.056 510.564c13.253.001 23.998-10.742 23.999-23.995l.016-214.798c.001-13.253-10.742-23.998-23.996-23.999-13.253-.001-23.998 10.742-23.999 23.995l-.016 214.798c0 13.254 10.743 23.998 23.996 23.999z" fill="#748488"/></g></g><path d="m471.792 106.981h-51.57c-15.553 0-28.162 12.609-28.162 28.162v157.374h107.894v-157.374c0-15.554-12.608-28.162-28.162-28.162z" fill="#e64937"/><circle cx="434.085" cy="44.81" fill="#80391b" r="44.8"/><g id="XMLID_1215_"><g><path d="m403.677 210.249 28.945-26.085-5.813-23.229-21.879-7.046-18.225 16.424-58.223-29.774c-10.088-5.158-22.446-1.163-27.605 8.924-5.158 10.087-1.163 22.446 8.924 27.605l70.802 36.207c7.607 3.888 16.781 2.645 23.074-3.026z" fill="#80391b"/></g></g><g id="XMLID_1214_"><g><path d="m466.135 153.963-33.512 30.201-27.692-30.275 33.738-30.404c8.416-7.585 21.387-6.911 28.972 1.506 7.585 8.415 6.911 21.387-1.506 28.972z" fill="#d13d2c"/></g></g></g></g></g><g><g><g><g id="XMLID_1197_"><g><path d="m142.908 163.547-26.708-3.155-16.72-23.957 24.294-16.781 13.819 1.632 56.265-58.15c7.939-8.205 21.026-8.421 29.232-.481 8.205 7.939 8.421 21.026.481 29.232l-63.382 65.505c-4.397 4.545-10.757 6.928-17.281 6.155z" fill="#ffb69e"/></g></g><g id="XMLID_1196_"><g><path d="m123.774 119.655-59.521-7.031c-11.346-1.339-21.616 6.767-22.955 18.105-1.34 11.338 6.766 21.616 18.105 22.955l56.797 6.709z" fill="#4699f2"/></g></g><g id="XMLID_1195_"><g><path d="m94.689 272.225-24.506 16.563.012 197.276c.001 13.531 10.97 24.5 24.502 24.5 13.531-.001 24.5-10.971 24.499-24.502l-.012-197.273z" fill="#414b82"/></g></g><g id="XMLID_1194_"><g><path d="m35.323 274.762-24.713 14.026v197.338c.034 13.51 11.421 24.438 24.923 24.438h.064c13.532-.035 24.473-11.033 24.438-24.564v-197.212z" fill="#5f6e9b"/></g></g><path d="m76.265 101.818h-22.724c-23.71 0-42.931 19.221-42.931 42.931v144.039h108.586v-144.039c0-23.71-19.221-42.931-42.931-42.931z" fill="#64afff"/><g id="XMLID_1189_"><g><path d="m95.032 213.799-22.838-31.33 8.889-23.477 24.562-.822 14.411 19.77 63.594-17.277c11.014-2.993 22.375 3.511 25.369 14.53 2.993 11.018-3.512 22.376-14.53 25.369l-77.333 21.01c-8.254 2.244-17.065-.831-22.124-7.773z" fill="#ffb69e"/></g></g><g id="XMLID_1185_"><g><path d="m105.646 158.17-27.112-37.193c-6.724-9.226-19.655-11.254-28.883-4.528-9.225 6.725-11.253 19.656-4.527 28.883l27.071 37.138z" fill="#4699f2"/></g></g><g><g><path d="m145.669 164.468c-1.293-4.428 1.249-9.066 5.676-10.359l67.187-19.619c4.43-1.292 9.067 1.248 10.359 5.677 1.293 4.428-1.249 9.066-5.676 10.359l-67.187 19.619c-4.419 1.288-9.063-1.236-10.359-5.677z" fill="#6c9baa"/></g></g><ellipse cx="94.68" cy="45.146" fill="#ffb69e" rx="45.146" ry="45.146" transform="matrix(.383 -.924 .924 .383 16.738 115.342)"/></g></g><g><g><path d="m203.206 46.803h10.939v61.262h-10.939z" fill="#d1e7ed"/></g><g><path d="m220.345 113.536h-23.338c-3.021 0-5.47-2.449-5.47-5.47s2.449-5.47 5.47-5.47h23.338c3.021 0 5.47 2.449 5.47 5.47s-2.449 5.47-5.47 5.47z" fill="#ebf4f7"/></g><path d="m221.475.856h-25.598c-2.757 0-4.991 2.234-4.991 4.991v22.923l17.79 10.644 17.79-10.644v-22.923c0-2.756-2.234-4.991-4.991-4.991z" fill="#ebf4f7"/><g><path d="m190.886 28.771v17.746c0 9.825 7.965 17.79 17.79 17.79s17.79-7.965 17.79-17.79v-17.746z" fill="#ffda52"/></g></g></g></g></svg>