<svg id="Layer_1" enable-background="new 0 0 509.094 509.094" height="512" viewBox="0 0 509.094 509.094" width="512" xmlns="http://www.w3.org/2000/svg"><g><g><g id="XMLID_1065_"><path d="m433.741 506.892c-10.827 0-19.605-8.777-19.605-19.605v-156.701c0-10.827 8.778-19.605 19.605-19.605s19.605 8.777 19.605 19.605v156.701c0 10.828-8.778 19.605-19.605 19.605z" fill="#55696e"/></g><g id="XMLID_1066_"><path d="m386.415 506.892c-10.827 0-19.605-8.777-19.605-19.605v-156.701c0-10.827 8.778-19.605 19.605-19.605s19.605 8.777 19.605 19.605v156.701c0 10.828-8.778 19.605-19.605 19.605z" fill="#748488"/></g><g fill="#ba6746"><circle cx="409.9" cy="144.544" r="33.859"/><path d="m425.117 192.541-.187-2.181h-31.316l-.193 2.06c-.874 9.333 6.469 17.395 15.843 17.395 9.324 0 16.651-7.983 15.853-17.274z"/><path d="m361.45 178.338 4.746-13.434-17.738-23.06-7.631-72.157c-.876-8.281-8.3-14.282-16.579-13.408-8.281.876-14.284 8.299-13.408 16.579l8.079 76.39c.293 2.768 1.346 5.401 3.043 7.607l21.223 27.59z"/><path d="m495.601 56.279c-8.284-.876-15.704 5.128-16.579 13.408l-7.631 72.157-17.738 23.06 7.425 15.7 15.499 3.955 21.31-27.703c1.697-2.206 2.75-4.839 3.043-7.607l8.079-76.39c.876-8.281-5.127-15.704-13.408-16.58z"/></g><path d="m453.653 164.904-19.582 25.456h-9.142c.074 8.264-7.625 15.214-15.676 15.214-8.629 0-15.045-6.925-15.64-15.214h-7.836l-19.582-25.456-23.011 19.541 23.626 30.713v115.428h86.535v-115.827l23.231-30.2z" fill="#ffda52"/></g><g><g id="XMLID_1128_"><path d="m127.358 506.892c-11.082 0-20.065-8.983-20.065-20.065v-160.383c0-11.082 8.983-20.065 20.065-20.065s20.065 8.983 20.065 20.065v160.383c0 11.082-8.984 20.065-20.065 20.065z" fill="#414b82"/></g><g id="XMLID_1129_"><path d="m78.92 506.892c-11.082 0-20.065-8.983-20.065-20.065v-160.383c0-11.082 8.983-20.065 20.065-20.065s20.065 8.983 20.065 20.065v160.383c0 11.082-8.983 20.065-20.065 20.065z" fill="#5f6e9b"/></g><ellipse cx="102.957" cy="136.039" fill="#ffb69e" rx="34.655" ry="34.655" transform="matrix(.099 -.995 .995 .099 -42.566 225.091)"/><g fill="#ffb69e"><path d="m117.659 182.702-.017-.134h-29.974l-.063.658c-.845 8.879 6.138 16.557 15.057 16.557 9.13 0 16.178-8.028 14.997-17.081z"/><path d="m53.023 169.584 3.739-14.862-14.849-15.348-11.218-75.012c-1.261-8.429-9.118-14.241-17.544-12.979-8.429 1.26-14.24 9.115-12.979 17.544l11.945 79.87c.473 3.161 1.915 6.096 4.127 8.402l17.515 18.252z"/><path d="m268.409 166.168c-3.23-7.886-12.241-11.661-20.129-8.43l-59.749 24.83h-9.523l-9.124 15.253 9.124 15.253h12.561c2.006 0 3.993-.391 5.849-1.152l62.56-25.626c7.886-3.229 11.66-12.241 8.431-20.128z"/></g><path d="m117.642 182.568c.135 7.951-7.265 14.657-15 14.657-8.291 0-14.449-6.681-14.974-14.657h-3.965l-26.941-27.846-23.003 20.729 25.096 26.153v124.84h88.568v-113.369h31.585v-30.507z" fill="#64afff"/><g><g><path d="m230.715 77.375c-.849 0-1.709-.217-2.495-.675l-26.911-15.661c-2.373-1.381-3.176-4.423-1.795-6.796 1.38-2.373 4.423-3.177 6.796-1.796l26.911 15.661c2.373 1.381 3.176 4.423 1.795 6.796-.923 1.586-2.589 2.471-4.301 2.471z" fill="#ffda52"/></g><g><path d="m182.602 49.375c-.849 0-1.709-.217-2.495-.675l-26.911-15.661c-2.372-1.381-3.176-4.423-1.795-6.796 1.38-2.372 4.423-3.177 6.795-1.796l26.911 15.661c2.372 1.381 3.176 4.423 1.795 6.796-.922 1.586-2.588 2.471-4.3 2.471z" fill="#ffda52"/></g><g><path d="m203.857 49.448c-1.724 0-3.4-.898-4.318-2.501-1.364-2.382-.539-5.419 1.842-6.783l27.018-15.475c2.383-1.365 5.42-.539 6.784 1.843s.539 5.419-1.843 6.783l-27.018 15.475c-.779.446-1.628.658-2.465.658z" fill="#ffda52"/></g><g><path d="m155.551 77.116c-1.724 0-3.399-.898-4.317-2.501-1.364-2.382-.539-5.419 1.843-6.783l27.018-15.475c2.38-1.365 5.418-.54 6.783 1.843 1.364 2.382.539 5.419-1.843 6.783l-27.018 15.475c-.779.446-1.628.658-2.466.658z" fill="#ffda52"/></g><g><path d="m193.251 43.278c-.006 0-.012 0-.017 0-2.745-.009-4.963-2.242-4.953-4.988l.107-31.136c.009-2.739 2.233-4.953 4.97-4.953h.017c2.745.009 4.963 2.242 4.953 4.988l-.107 31.136c-.01 2.739-2.233 4.953-4.97 4.953z" fill="#ffda52"/></g><g><path d="m193.059 98.945c-.006 0-.012 0-.017 0-2.745-.009-4.963-2.242-4.953-4.988l.107-31.136c.01-2.745 2.283-4.965 4.987-4.953 2.745.009 4.963 2.242 4.953 4.988l-.107 31.136c-.009 2.739-2.233 4.953-4.97 4.953z" fill="#ffda52"/></g></g><g><g><path d="m238.539 141.46h10.518v58.905h-10.518z" fill="#d1e7ed"/></g><g><path d="m255.018 205.625h-22.44c-2.904 0-5.259-2.355-5.259-5.259 0-2.905 2.355-5.259 5.259-5.259h22.44c2.904 0 5.259 2.355 5.259 5.259.001 2.904-2.354 5.259-5.259 5.259z" fill="#ebf4f7"/></g><path d="m256.105 97.282h-24.613c-2.65 0-4.799 2.149-4.799 4.799v22.041l17.105 17.084 17.105-17.084v-22.041c.001-2.65-2.148-4.799-4.798-4.799z" fill="#ebf4f7"/><g><path d="m226.693 124.122v17.063c0 9.447 7.658 17.105 17.105 17.105s17.105-7.658 17.105-17.105v-17.063z" fill="#ffda52"/></g></g></g></g></svg>