<svg id="Layer_1" enable-background="new 0 0 511.223 511.223" height="512" viewBox="0 0 511.223 511.223" width="512" xmlns="http://www.w3.org/2000/svg"><g><g id="XMLID_1044_"><path d="m282.627 511.223c-12.281 0-22.237-9.956-22.237-22.237v-177.745c0-12.282 9.956-22.237 22.237-22.237s22.237 9.956 22.237 22.237v177.745c0 12.282-9.956 22.237-22.237 22.237z" fill="#414b82"/></g><g id="XMLID_1045_"><path d="m228.945 511.223c-12.281 0-22.237-9.956-22.237-22.237v-177.745c0-12.282 9.956-22.237 22.237-22.237s22.237 9.956 22.237 22.237v177.745c0 12.282-9.956 22.237-22.237 22.237z" fill="#5f6e9b"/></g><g fill="#ffb69e"><ellipse cx="255.584" cy="99.414" rx="38.406" ry="38.406" transform="matrix(.924 -.383 .383 .924 -18.589 105.375)"/><path d="m271.831 155.875-.369-3.692h-31.959l-.408 3.318c-1.208 9.82 6.453 18.481 16.347 18.481 9.743 0 17.357-8.412 16.389-18.107z"/><path d="m197.138 136.437 8.234-13.96-19.482-25.326-8.656-81.847c-.992-9.392-9.394-16.2-18.806-15.208-9.392.993-16.201 9.413-15.208 18.805l9.163 86.649c.332 3.14 1.527 6.126 3.451 8.628l20.94 27.221z"/><path d="m352.795.096c-9.404-.992-17.813 5.816-18.806 15.208l-8.656 81.847-19.481 25.326 12.891 17.598 13.6 4.062 23.045-29.958c1.925-2.502 3.12-5.489 3.451-8.628l9.163-86.649c.994-9.393-5.815-17.813-15.207-18.806z"/></g><path d="m305.852 122.477-22.851 29.706h-11.539c.322 8.59-7.654 15.888-15.983 15.888-8.927 0-15.543-7.27-15.976-15.888h-11.28l-22.851-29.706-28.597 18.923 29.933 38.912v130.928h98.156v-131.38l27.48-35.723z" fill="#64afff"/><g><g fill="#fa503c"><path d="m250.36 38.428 14.235-21.087-3.515-6.807c-2.304-4.462-8.686-4.462-10.99 0l-22.756 44.068z"/><path d="m280.697 48.525-8.783-17.009-29.72 22.366-20.18 27.264c.521.142 1.074.219 1.653.219h24.189l21.742-13.853z"/><path d="m292.996 72.344-4.98-9.645-14.049 9.183-4.618 9.484h18.152c4.633-.001 7.621-4.906 5.495-9.022z"/></g><path d="m271.914 31.516-7.319-14.174-37.261 37.261-9.161 17.741c-1.897 3.673.283 7.965 4.066 8.848z" fill="#fff"/><path d="m269.349 81.365 18.667-18.666-7.319-14.174-32.841 32.84z" fill="#fff"/></g></g></svg>