<svg id="Layer_1" enable-background="new 0 0 503.609 503.609" height="512" viewBox="0 0 503.609 503.609" width="512" xmlns="http://www.w3.org/2000/svg"><g><g><path d="m301.471 105.119h-99v-10.506c0-27.294 22.206-49.5 49.5-49.5s49.5 22.206 49.5 49.5zm-89-10h79v-.506c0-21.78-17.72-39.5-39.5-39.5s-39.5 17.72-39.5 39.5z" fill="#87afb9"/></g><g fill="#80391b"><path d="m269.262 154.828-.469-4.627h-34.34l-.468 4.631c-1.056 10.443 7.143 19.512 17.639 19.512 10.497-.001 18.696-9.072 17.638-19.516z"/><path d="m198.839 139.371 5.069-16.588-20.69-26.897-8.544-80.781c-.979-9.27-9.273-15.987-18.561-15.01-9.271.98-15.99 9.29-15.01 18.561l9.045 85.52c.327 3.099 1.507 6.046 3.406 8.516l23.821 30.966z"/><path d="m377.992 208.056c-.261-5.454-3.145-10.444-7.738-13.394l-27.401-17.792-13.958 10.4-5.906 17.156 9.078 5.83-31.824 25.042-5.616 15.402 5.616 19.007c1.404.368 2.846.576 4.297.576 3.652 0 7.333-1.181 10.426-3.615l56.604-44.541c4.291-3.375 6.684-8.618 6.422-14.071z"/></g><g><path d="m309.745 155.373c-5.199-3.375-11.264-5.172-17.462-5.172h-23.49c.287 9.193-8.254 16.987-17.177 16.987-9.564 0-16.656-7.764-17.163-16.987h-9.453l-21.091-27.417-26.533 20.875 25.991 33.788v129.741h96.877v-117.369l22.474 14.433c.133-.004.265-.021.398-.021l19.738-27.36z" fill="#e64937"/></g><circle cx="251.971" cy="100.119" fill="#80391b" r="37.906"/><path d="m209.856 267.252h-50.784c-16.777 0-30.377 13.6-30.377 30.377h111.538c0-16.776-13.6-30.377-30.377-30.377z" fill="#6c9baa"/><path d="m344.857 267.252h-50.785c-16.776 0-30.377 13.6-30.377 30.377h111.538c0-16.776-13.6-30.377-30.376-30.377z" fill="#6c9baa"/><g fill="#b4d7dc"><path d="m215.109 83.258h-6.915c-6.425 0-11.633 5.208-11.633 11.633v10.457c0 6.425 5.208 11.633 11.633 11.633h6.915c1.807 0 3.272-1.465 3.272-3.272v-27.179c0-1.807-1.465-3.272-3.272-3.272z"/><path d="m295.749 83.258h-6.915c-1.807 0-3.272 1.465-3.272 3.272v27.178c0 1.807 1.465 3.272 3.272 3.272h6.915c6.425 0 11.633-5.208 11.633-11.633v-10.456c0-6.425-5.209-11.633-11.633-11.633z"/></g><path d="m395.487 295.105h-287.365c-10.274 0-18.603 8.329-18.603 18.603v171.299c0 10.274 8.329 18.603 18.603 18.603h287.365c10.274 0 18.603-8.329 18.603-18.603v-171.299c0-10.274-8.329-18.603-18.603-18.603z" fill="#46738c"/></g></svg>