<svg id="Layer_1" enable-background="new 0 0 510.11 510.11" height="512" viewBox="0 0 510.11 510.11" width="512" xmlns="http://www.w3.org/2000/svg"><g><g><g><g id="XMLID_1002_"><path d="m114.027 510.11c-13.426 0-24.31-10.884-24.31-24.31v-194.309c0-13.426 10.884-24.31 24.31-24.31s24.31 10.884 24.31 24.31v194.309c0 13.426-10.884 24.31-24.31 24.31z" fill="#748488"/></g><g id="XMLID_1000_"><path d="m172.71 510.11c-13.426 0-24.31-10.884-24.31-24.31v-194.309c0-13.426 10.884-24.31 24.31-24.31s24.31 10.884 24.31 24.31v194.309c0 13.426-10.884 24.31-24.31 24.31z" fill="#55696e"/></g><g fill="#ba6746"><path d="m40.087 188.878v105.105c0 11.188 9.07 20.258 20.258 20.258s20.258-9.07 20.258-20.258v-105.105l-20.258-7.787z"/><path d="m166.655 99.203-.236-1.85h-47.176l-.234 1.811c-1.856 14.367 9.334 27.095 23.82 27.095 14.471.001 25.656-12.701 23.826-27.056z"/><path d="m309.052 132.404c-7.407-8.386-20.209-9.178-28.594-1.772l-34.239 30.243-24.344 10.511-16.172 17.493v16.919c0 17.42 20.618 26.711 33.669 15.183l67.908-59.982c8.385-7.408 9.179-20.21 1.772-28.595z"/></g><path d="m197.531 97.353h-31.112c.513 12.702-11.28 23.503-23.591 23.503-13.195 0-22.971-10.76-23.584-23.503h-30.469c-26.714 0-48.555 21.398-48.688 47.699v.102 43.723h40.516v-43.657c.043-3.852 3.927-7.352 8.172-7.352h.942v153.622h107.303v-153.621h.511c4.257 0 8.153 3.521 8.171 7.285v43.723l12.594.005 27.922-28.008v-15.822c-.132-26.301-21.972-47.699-48.687-47.699z" fill="#ffda52"/><ellipse cx="143.153" cy="41.985" fill="#ba6746" rx="41.985" ry="41.985" transform="matrix(.998 -.071 .071 .998 -2.616 10.254)"/></g></g><g><path d="m345.683 147.696h110v77.178h-110z" fill="#fff"/><g><path d="m460.023 124.696h-118c-5.523 0-10 4.477-10 10v94c0 5.523 4.477 10 10 10h118c5.523 0 10-4.477 10-10v-94c0-5.523-4.477-10-10-10zm-108 84.434v-44.868c0-5.283 4.283-9.566 9.566-9.566h78.868c5.283 0 9.566 4.283 9.566 9.566v44.868c0 5.283-4.283 9.566-9.566 9.566h-78.868c-5.283 0-9.566-4.283-9.566-9.566z" fill="#e64937"/><g fill="#6c9baa"><path d="m396.669 193.678v-.956c0-3.368-2.062-4.022-4.827-4.022-1.709 0-2.263-1.508-2.263-3.017s.554-3.017 2.263-3.017c1.911 0 3.922-.251 3.922-4.324 0-2.916-1.659-3.62-3.721-3.62-2.464 0-3.721.603-3.721 2.564 0 1.709-.754 2.866-3.67 2.866-3.62 0-4.072-.754-4.072-3.167 0-3.921 2.815-9 11.463-9 6.386 0 11.212 2.313 11.212 9.1 0 3.67-1.357 7.089-3.871 8.246 2.967 1.106 5.128 3.318 5.128 7.391v.956c0 8.246-5.681 11.363-12.72 11.363-8.648 0-11.966-5.279-11.966-9.502 0-2.263.955-2.866 3.72-2.866 3.218 0 4.022.704 4.022 2.614 0 2.363 2.212 2.916 4.475 2.916 3.418 0 4.626-1.257 4.626-4.525z"/><path d="m410.951 176.734-1.458.905c-.452.302-.905.402-1.257.402-1.458 0-2.464-1.559-2.464-3.117 0-1.056.453-2.062 1.458-2.665l6.637-4.022c.402-.251.905-.352 1.458-.352 1.609 0 3.47.955 3.47 2.463v31.977c0 1.608-1.961 2.413-3.922 2.413s-3.922-.805-3.922-2.413z"/></g><g><path d="m366.688 136.528c-4.142 0-7.5-3.358-7.5-7.5v-22.332c0-4.142 3.358-7.5 7.5-7.5s7.5 3.358 7.5 7.5v22.332c0 4.142-3.358 7.5-7.5 7.5z" fill="#97c3d1"/></g><g><path d="m435.688 136.528c-4.142 0-7.5-3.358-7.5-7.5v-22.332c0-4.142 3.358-7.5 7.5-7.5s7.5 3.358 7.5 7.5v22.332c0 4.142-3.358 7.5-7.5 7.5z" fill="#97c3d1"/></g></g></g><g><g><path d="m285.683 116.03h10.518v58.905h-10.518z" fill="#d1e7ed"/></g><g><path d="m302.162 180.194h-22.44c-2.904 0-5.259-2.355-5.259-5.259s2.355-5.259 5.259-5.259h22.44c2.904 0 5.259 2.355 5.259 5.259s-2.355 5.259-5.259 5.259z" fill="#ebf4f7"/></g><path d="m303.248 71.851h-24.613c-2.65 0-4.799 2.149-4.799 4.799v22.041l16.846 17.339 17.365-17.339v-22.041c0-2.65-2.148-4.799-4.799-4.799z" fill="#ebf4f7"/><g><path d="m273.837 98.691v17.063c0 9.447 7.658 17.105 17.105 17.105s17.105-7.658 17.105-17.105v-17.063z" fill="#ffda52"/></g></g></g></svg>