<svg id="Layer_1" enable-background="new 0 0 510.386 510.386" height="512" viewBox="0 0 510.386 510.386" width="512" xmlns="http://www.w3.org/2000/svg"><g><g id="XMLID_1104_"><path d="m308.515 510.386c-13.119 0-23.754-10.635-23.754-23.754v-189.874c0-13.119 10.635-23.754 23.754-23.754s23.754 10.635 23.754 23.754v189.873c0 13.12-10.635 23.755-23.754 23.755z" fill="#414b82"/></g><g id="XMLID_1103_"><path d="m250.749 510.386c-13.119 0-23.539-10.635-23.539-23.754v-189.874c0-13.119 10.42-23.754 23.539-23.754s23.754 10.635 23.754 23.754v189.873c0 13.12-10.635 23.755-23.754 23.755z" fill="#5f6e9b"/></g><circle cx="279.636" cy="71.759" fill="#ffb69e" r="41.027"/><g fill="#ffb69e"><path d="m181.667 175.056-6.317 11.013h-51.825c-10.09 0-18.269 8.179-18.269 18.269s8.179 18.269 18.269 18.269h60.543c7.649 0 14.718-4.078 18.547-10.7l10.59-19.042z"/><path d="m300.966 129.509-.352-2.662h-37.777l-.346 2.917c-1.37 11.534 7.639 21.676 19.254 21.676 11.717 0 20.757-10.314 19.221-21.931z"/><path d="m418.845 57.932c-9.458-3.509-19.972 1.313-23.483 10.771l-24.472 65.941-.98-.198-8.616 17.017 2.387 19.001 15.161 3.146c8.879 1.844 17.711-3.103 20.839-11.531l29.935-80.663c3.511-9.459-1.311-19.973-10.771-23.484z"/></g><path d="m345.142 129.445c-8.555-1.728-17.26-2.598-25.988-2.598h-18.541c.346 10.131-9.068 18.727-18.897 18.727-10.534 0-18.343-8.564-18.88-18.727-28.68 0-3.535 0-35.412 0v.028c-11.393.293-21.841 6.487-27.532 16.407l-18.225 31.773 31.538 17.809 14.004-24.206v128.1h105.069v-131.81l31.402 5.516 6.23-36.018z" fill="#64afff"/><g><path d="m387.769 44.73h100.055v74.284h-100.055z" fill="#fff"/><path d="m491.379 23.457h-108.547c-5.081 0-9.199 4.118-9.199 9.199v86.47c0 5.081 4.118 9.199 9.199 9.199h108.547c5.081 0 9.199-4.118 9.199-9.199v-86.47c0-5.08-4.119-9.199-9.199-9.199zm-99.348 77.67v-41.273c0-4.86 3.94-8.8 8.8-8.8h72.55c4.86 0 8.8 3.94 8.8 8.8v41.274c0 4.86-3.94 8.8-8.8 8.8h-72.55c-4.861-.001-8.8-3.941-8.8-8.801z" fill="#e64937"/><g><path d="m435.238 72.327-1.341.833c-.416.278-.833.37-1.156.37-1.341 0-2.266-1.434-2.266-2.867 0-.972.417-1.896 1.341-2.452l6.105-3.7c.37-.231.833-.324 1.341-.324 1.48 0 3.192.879 3.192 2.266v29.415c0 1.48-1.804 2.22-3.608 2.22s-3.608-.74-3.608-2.22z" fill="#6c9baa"/></g><g><path d="m405.521 34.341c-3.81 0-6.899-3.089-6.899-6.899v-20.543c0-3.81 3.089-6.899 6.899-6.899s6.899 3.089 6.899 6.899v20.543c0 3.811-3.088 6.899-6.899 6.899z" fill="#97c3d1"/></g><g><path d="m468.994 34.341c-3.81 0-6.899-3.089-6.899-6.899v-20.543c0-3.81 3.089-6.899 6.899-6.899s6.899 3.089 6.899 6.899v20.543c0 3.811-3.089 6.899-6.899 6.899z" fill="#97c3d1"/></g></g><g><path d="m33.767 240.905 76.428-42.487c3.91-2.174 8.842-.806 11.074 3.071l26.443 45.927c2.249 3.907.918 8.897-2.979 11.163l-75.294 43.801c-3.905 2.271-8.911.952-11.189-2.95l-27.576-47.24c-2.314-3.964-.919-9.055 3.093-11.285z" fill="#fff"/><path d="m163.868 251.895-42.409-75.245c-2.492-4.422-8.096-5.984-12.516-3.493l-8.914 5.024c1.277 1.019 2.389 2.288 3.24 3.799 3.548 6.296 1.321 14.276-4.975 17.824s-14.276 1.321-17.824-4.974c-.851-1.511-1.362-3.119-1.572-4.739l-34.102 19.221c1.277 1.019 2.389 2.288 3.24 3.798 3.548 6.296 1.321 14.276-4.975 17.824s-14.276 1.321-17.824-4.975c-.851-1.511-1.362-3.119-1.572-4.739l-9.178 5.173c-4.421 2.492-5.985 8.096-3.493 12.516l42.409 75.245c1.197 2.123 3.187 3.684 5.535 4.339.811.227 1.642.339 2.469.339 1.567 0 3.123-.401 4.512-1.184l94.456-53.237c2.123-1.197 3.684-3.187 4.339-5.535.655-2.346.351-4.858-.846-6.981zm-59.744 23.125-32.385 18.253c-3.777 2.129-8.564.793-10.693-2.984l-21.166-37.554c-2.129-3.777-.793-8.564 2.984-10.693l64.77-36.505c3.777-2.129 8.564-.793 10.693 2.984l21.166 37.554c2.129 3.777.793 8.564-2.984 10.693z" fill="#e64937"/><g fill="#6c9baa"><path d="m91.216 258.137-.43-.764c-1.52-2.697-3.465-2.29-5.679-1.042-1.369.771-2.492-.187-3.173-1.395-.68-1.207-.918-2.664.451-3.435 1.529-.862 3.026-1.971 1.188-5.231-1.316-2.334-2.962-2.149-4.612-1.219-1.972 1.111-2.706 2.161-1.821 3.732.771 1.368.689 2.634-1.646 3.95-2.898 1.633-3.599 1.234-4.689-.698-1.77-3.14-1.806-8.475 5.116-12.377 5.112-2.881 10.02-3.208 13.081 2.227 1.656 2.938 2.112 6.288.622 8.348 2.874-.454 5.603.342 7.441 3.603l.43.764c3.721 6.601.578 11.661-5.056 14.837-6.923 3.901-11.961 1.173-13.867-2.208-1.021-1.811-.528-2.726 1.686-3.973 2.576-1.452 3.537-1.251 4.399.278 1.067 1.892 3.087 1.336 4.898.316 2.736-1.546 3.135-3.097 1.661-5.713z"/><path d="m95.003 238.129-.759 1.382c-.226.446-.543.731-.825.89-1.167.657-2.675-.136-3.378-1.384-.476-.845-.568-1.854-.035-2.792l3.498-6.214c.208-.383.567-.69 1.009-.94 1.288-.725 3.209-.8 3.889.407l14.429 25.599c.725 1.288-.482 2.817-2.051 3.702-1.57.884-3.503 1.125-4.229-.163z"/></g></g></g></svg>