<svg id="Layer_1" enable-background="new 0 0 508.618 508.618" height="512" viewBox="0 0 508.618 508.618" width="512" xmlns="http://www.w3.org/2000/svg"><g><g><g><path d="m303.165 103.767h10.518v58.905h-10.518z" fill="#d1e7ed"/></g><g><path d="m319.644 167.931h-22.44c-2.904 0-5.259-2.355-5.259-5.259s2.355-5.259 5.259-5.259h22.44c2.904 0 5.259 2.355 5.259 5.259s-2.355 5.259-5.259 5.259z" fill="#ebf4f7"/></g><path d="m320.731 59.588h-24.613c-2.65 0-4.799 2.149-4.799 4.799v22.041l17.105 15.383 17.105-15.383v-22.041c.001-2.65-2.148-4.799-4.798-4.799z" fill="#ebf4f7"/><g><path d="m291.319 86.428v17.063c0 9.447 7.658 17.105 17.105 17.105s17.105-7.658 17.105-17.105v-17.063z" fill="#ffda52"/></g></g><g id="XMLID_9_"><path d="m92.372 508.618c-12.888 0-23.336-10.448-23.336-23.336v-186.523c0-12.888 10.448-23.336 23.336-23.336s23.336 10.448 23.336 23.336v186.524c0 12.888-10.448 23.335-23.336 23.335z" fill="#748488"/></g><g id="XMLID_8_"><path d="m148.705 508.618c-12.888 0-23.336-10.448-23.336-23.336v-186.523c0-12.888 10.448-23.336 23.336-23.336s23.336 10.448 23.336 23.336v186.524c-.001 12.888-10.448 23.335-23.336 23.335z" fill="#55696e"/></g><g fill="#ba6746"><path d="m40.841 182.428-19.447 12.976v105.747c0 10.74 8.707 19.447 19.447 19.447s19.446-8.707 19.446-19.447v-105.747z"/><path d="m141.099 115.521-.296-3.122h-40.328l-.313 2.61c-1.471 12.255 8.098 23.042 20.441 23.042 12.138.001 21.641-10.446 20.496-22.53z"/><path d="m279.583 146.046c-7.111-8.05-19.399-8.81-27.449-1.701l-32.868 29.031-17.12 14.344-21.773 7.684v21.095c0 16.722 19.791 25.641 32.32 14.575l65.187-57.579c8.051-7.11 8.813-19.399 1.703-27.449z"/></g><path d="m219.267 158.188c-.126-25.248-21.092-45.789-46.737-45.789h-31.727c.003.059.013.116.016.175.488 10.893-9.62 20.171-20.171 20.171-11.308 0-19.681-9.242-20.171-20.171-.003-.059-.001-.116-.003-.175h-32.342c-25.644 0-46.61 20.54-46.737 45.788v.098 37.118h38.893v-37.054c.041-3.698 3.77-7.057 7.844-7.057h.904v147.467h103.004v-147.467h.49c4.087 0 7.826 3.38 7.844 6.993v37.118h23.524l15.579-22.214z" fill="#ffda52"/><circle cx="120.331" cy="59.25" fill="#ba6746" r="40.303"/><g><g><g><path d="m271.172 39.781-19.95-20.103c-1.945-1.96-1.933-5.126.027-7.071s5.125-1.933 7.071.027l19.95 20.103c1.945 1.96 1.934 5.126-.026 7.071-1.962 1.945-5.126 1.934-7.072-.027z" fill="#ffda52"/></g></g><g><g><path d="m238.49 59.566c-.705-2.67.889-5.406 3.559-6.11l27.386-7.226c2.669-.704 5.406.89 6.11 3.559.704 2.67-.89 5.406-3.56 6.11l-27.385 7.226c-2.696.711-5.412-.913-6.11-3.559z" fill="#ffda52"/></g></g><g><g><path d="m288.235 37.155c-2.665-.725-4.237-3.473-3.512-6.137l7.435-27.329c.724-2.665 3.472-4.238 6.137-3.512 2.665.725 4.237 3.473 3.512 6.137l-7.435 27.329c-.724 2.663-3.472 4.237-6.137 3.512z" fill="#ffda52"/></g></g></g><g><g id="XMLID_6_"><path d="m463.768 508.618c12.922 0 23.416-10.455 23.455-23.386v-212.635c.04-12.955-9.862-23.489-22.818-23.528-.023 0 0 0 0 0-12.922 0-24.057 10.455-24.096 23.386v212.635c-.04 12.955 10.431 23.489 23.386 23.528z" fill="#5f6e9b"/></g><g id="XMLID_5_"><path d="m405.213 508.618c12.955.001 23.458-10.5 23.459-23.456l.016-209.965c.001-12.955-10.5-23.458-23.456-23.459-12.955-.001-23.458 10.5-23.459 23.456l-.016 209.965c0 12.956 10.501 23.459 23.456 23.459z" fill="#414b82"/></g><path d="m459.695 114.115h-50.41c-15.203 0-27.528 12.325-27.528 27.528v153.834h105.466v-153.833c.001-15.204-12.324-27.529-27.528-27.529z" fill="#64afff"/><circle cx="422.836" cy="53.343" fill="#ffb69e" r="43.792"/><g id="XMLID_1_"><path d="m393.113 215.06 26.213-23.623-4.351-23.506-21.991-6.807-16.461 14.899-56.913-29.105c-9.861-5.042-21.941-1.137-26.984 8.724-5.042 9.86-1.137 21.941 8.723 26.983l69.208 35.392c7.437 3.802 16.404 2.587 22.556-2.957z" fill="#ffb69e"/></g><g id="XMLID_36_"><path d="m419.326 191.437 34.839-31.397c8.227-7.414 8.886-20.094 1.472-28.321-7.415-8.227-20.094-8.886-28.321-1.472l-34.333 30.876z" fill="#4699f2"/></g></g><g><g><path d="m235.191 135.74h58.905v10.518h-58.905z" fill="#d1e7ed" transform="matrix(.202 -.979 .979 .202 73.043 371.663)"/></g><g><path d="m268.612 177.262-21.976-4.538c-2.844-.587-4.674-3.37-4.087-6.214.587-2.845 3.37-4.675 6.214-4.087l21.976 4.538c2.844.587 4.674 3.37 4.087 6.214-.587 2.845-3.37 4.675-6.214 4.087z" fill="#ebf4f7"/></g><path d="m291.585 71.378-24.104-4.977c-2.596-.536-5.134 1.134-5.67 3.729l-4.457 21.586 14.848 18.639 18.656-11.721 4.457-21.585c.535-2.597-1.135-5.136-3.73-5.671z" fill="#ebf4f7"/><g><path d="m257.353 91.716-3.45 16.711c-1.91 9.252 4.041 18.3 13.293 20.211 9.252 1.91 18.301-4.041 20.211-13.293l3.45-16.711z" fill="#ffda52"/></g></g></g></svg>