<svg id="Layer_1" enable-background="new 0 0 505.149 505.149" height="512" viewBox="0 0 505.149 505.149" width="512" xmlns="http://www.w3.org/2000/svg"><g><g><g><g><path d="m304.042 504.584c-11.394-2.673-18.463-14.077-15.79-25.471l16.197-69.034-24.149-79.566c-3.398-11.199 2.925-23.033 14.124-26.432s23.032 2.924 26.431 14.123l25.803 85.016c1.083 3.57 1.205 7.362.353 10.995l-17.497 74.579c-2.682 11.428-14.112 18.455-25.472 15.79z" fill="#414b82"/></g><g><path d="m195.718 505.149c-11.499 0-20.939-9.201-21.178-20.753l-2.095-101.195c-.109-5.267 1.747-10.385 5.207-14.357l54.819-62.933c7.689-8.826 21.071-9.747 29.898-2.06 8.825 7.687 9.747 21.072 2.06 29.897l-49.442 56.76 1.925 93.01c.247 11.869-9.302 21.631-21.194 21.631z" fill="#5f6e9b"/></g><g fill="#ffb69e"><path d="m291.565 183.919-.331-3.827h-36.902l-.338 3.77c-.989 11.036 7.703 20.542 18.783 20.542 11.058.001 19.742-9.469 18.788-20.485z"/><path d="m187.971 163.403-20.085-6.376-33.536-64.462c-4.321-8.305-14.556-11.535-22.863-7.216-8.306 4.321-11.536 14.558-7.216 22.863l36.808 70.753c2.094 4.025 5.714 7.043 10.05 8.378l26.298 8.098 11.554-15.35z"/><path d="m395.691 217.913-2.532-64.743c-.356-9.13-7.87-16.291-16.927-16.291-.224 0-.449.004-.675.013-9.356.366-16.643 8.247-16.277 17.602l1.632 41.721-2.544-.893-10.397 11.854 5.847 22.241 20.527 5.526c11.029 2.973 21.793-5.62 21.346-17.03z"/></g><path d="m325.646 183.836c-7.059-2.478-14.486-3.744-21.967-3.744h-12.445c.003.065.015.127.017.192.446 9.968-8.803 18.458-18.458 18.458-10.365 0-18.137-8.547-18.461-18.65h-13.785l-52.576-16.69-10.542 32.039 45.08 13.881v104.251c0 13.725 11.126 24.851 24.851 24.851h48.848c13.101 0 23.722-10.621 23.722-23.722v-94.408l33.888 9.123 4.55-34.095z" fill="#64afff"/><circle cx="271.259" cy="127.576" fill="#ffb69e" r="38.119"/></g></g><g><g><path d="m208.242 36.544c-2.387-1.389-3.195-4.45-1.807-6.836l15.755-27.072c1.389-2.386 4.448-3.196 6.836-1.807 2.387 1.389 3.195 4.45 1.807 6.836l-15.755 27.072c-1.389 2.387-4.45 3.196-6.836 1.807z" fill="#ffda52"/></g><g><path d="m180.076 84.945c-2.387-1.389-3.195-4.45-1.807-6.836l15.754-27.072c1.389-2.386 4.448-3.196 6.836-1.807 2.387 1.389 3.195 4.45 1.807 6.836l-15.754 27.072c-1.389 2.387-4.45 3.196-6.836 1.807z" fill="#ffda52"/></g><g><path d="m194.079 34.665-15.567-27.179c-1.372-2.396-.542-5.451 1.854-6.824 2.397-1.373 5.451-.543 6.824 1.854l15.567 27.179c1.372 2.396.542 5.451-1.854 6.824-2.401 1.375-5.454.538-6.824-1.854z" fill="#ffda52"/></g><g><path d="m221.912 83.259-15.567-27.179c-1.372-2.396-.542-5.451 1.854-6.824s5.451-.543 6.824 1.854l15.567 27.179c1.372 2.396.542 5.451-1.854 6.824-2.401 1.374-5.454.537-6.824-1.854z" fill="#ffda52"/></g><g><path d="m192.212 47.845c-.006 0-.012 0-.018 0l-31.321-.108c-2.761-.01-4.992-2.256-4.982-5.017.01-2.755 2.246-4.983 5-4.983h.018l31.321.108c2.761.01 4.992 2.256 4.982 5.017-.01 2.756-2.246 4.983-5 4.983z" fill="#ffda52"/></g><g><path d="m248.212 48.038c-.006 0-.012 0-.018 0l-31.322-.108c-2.761-.01-4.992-2.256-4.982-5.017.01-2.755 2.246-4.983 5-4.983h.018l31.322.108c2.761.01 4.992 2.256 4.982 5.017-.01 2.755-2.246 4.983-5 4.983z" fill="#ffda52"/></g></g><g><g><path d="m142.877 294.804-27.071-15.754c-2.387-1.389-3.195-4.45-1.807-6.836 1.389-2.386 4.449-3.196 6.836-1.807l27.071 15.754c2.387 1.389 3.195 4.45 1.807 6.836-1.389 2.387-4.449 3.196-6.836 1.807z" fill="#ffda52"/></g><g><path d="m94.477 266.637-27.071-15.754c-2.387-1.389-3.195-4.45-1.807-6.836 1.389-2.386 4.448-3.196 6.836-1.807l27.071 15.754c2.387 1.389 3.195 4.45 1.807 6.836-1.389 2.387-4.45 3.196-6.836 1.807z" fill="#ffda52"/></g><g><path d="m114.024 264.874c-1.372-2.396-.542-5.451 1.854-6.824l27.18-15.568c2.397-1.373 5.451-.543 6.824 1.854 1.372 2.396.542 5.451-1.854 6.824l-27.18 15.568c-2.401 1.375-5.454.538-6.824-1.854z" fill="#ffda52"/></g><g><path d="m65.431 292.707c-1.372-2.396-.542-5.451 1.854-6.824l27.179-15.567c2.397-1.373 5.451-.543 6.824 1.854 1.372 2.396.542 5.451-1.854 6.824l-27.179 15.567c-2.404 1.377-5.455.535-6.824-1.854z" fill="#ffda52"/></g><g><path d="m107.699 261.183c-.006 0-.012 0-.018 0-2.761-.01-4.992-2.256-4.982-5.017l.107-31.322c.01-2.761 2.281-4.989 5.018-4.983 2.761.01 4.992 2.256 4.982 5.017l-.107 31.322c-.01 2.756-2.246 4.983-5 4.983z" fill="#ffda52"/></g><g><path d="m107.505 317.183c-.006 0-.012 0-.018 0-2.761-.01-4.992-2.256-4.982-5.017l.108-31.322c.01-2.755 2.246-4.983 5-4.983h.018c2.761.01 4.992 2.256 4.982 5.017l-.108 31.322c-.009 2.755-2.246 4.983-5 4.983z" fill="#ffda52"/></g></g><g><g><path d="m484.192 80.408-27.072-15.754c-2.387-1.389-3.195-4.45-1.807-6.836 1.389-2.386 4.449-3.196 6.836-1.807l27.072 15.754c2.387 1.389 3.195 4.45 1.807 6.836-1.392 2.392-4.455 3.194-6.836 1.807z" fill="#ffda52"/></g><g><path d="m435.79 52.242-27.071-15.754c-2.387-1.389-3.195-4.45-1.807-6.836 1.39-2.386 4.448-3.196 6.836-1.807l27.071 15.754c2.387 1.389 3.195 4.45 1.807 6.836-1.389 2.386-4.45 3.196-6.836 1.807z" fill="#ffda52"/></g><g><path d="m455.338 50.479c-1.372-2.396-.542-5.451 1.854-6.824l27.179-15.567c2.396-1.373 5.451-.543 6.824 1.854 1.372 2.396.542 5.451-1.854 6.824l-27.179 15.567c-2.405 1.376-5.455.534-6.824-1.854z" fill="#ffda52"/></g><g><path d="m406.744 78.312c-1.372-2.396-.542-5.451 1.854-6.824l27.18-15.568c2.396-1.373 5.451-.543 6.824 1.854 1.372 2.396.542 5.451-1.854 6.824l-27.18 15.568c-2.401 1.374-5.454.537-6.824-1.854z" fill="#ffda52"/></g><g><path d="m449.012 46.787c-.006 0-.012 0-.018 0-2.761-.01-4.992-2.256-4.982-5.017l.108-31.322c.01-2.755 2.246-4.983 5-4.983h.018c2.761.01 4.992 2.256 4.982 5.017l-.108 31.322c-.01 2.756-2.246 4.983-5 4.983z" fill="#ffda52"/></g><g><path d="m448.82 102.787c-.006 0-.012 0-.018 0-2.761-.01-4.992-2.256-4.982-5.017l.107-31.322c.01-2.756 2.246-4.983 5-4.983h.018c2.761.01 4.992 2.256 4.982 5.017l-.107 31.322c-.01 2.756-2.247 4.983-5 4.983z" fill="#ffda52"/></g></g></g><path d="m366.1 62.35c-3.977-2.933-8.979-3.814-13.729-2.404-2.132.633-3.573 2.629-3.573 4.853v34.031c-5.801 0-10.503 3.193-10.503 7.133 0 3.939 4.702 7.132 10.503 7.132.049 0 .098 0 .147-.001 5.582-.052 10.017-4.735 10.017-10.317v-32.882c.557.239 1.08.572 1.553 1 1.185 1.072 1.785 2.65 1.785 4.248v8.414c0 2.654 1.941 5.025 4.583 5.276 3.031.289 5.58-2.087 5.58-5.058v-8.359c0-5.102-2.257-10.038-6.363-13.066z" fill="#97c3d1"/><g fill="#6c9baa"><path d="m68.44 46.107c-1.21-2.219-3.692-3.147-5.913-2.501l-35.065 10.164c-2.173.63-3.667 2.619-3.667 4.881v34.03c-5.801 0-10.502 3.193-10.502 7.132s4.702 7.132 10.502 7.132c.049 0 .098 0 .147-.001 5.582-.052 10.017-4.735 10.017-10.317v-34.158l24.901-7.218v27.272c-.057-.001-.112-.006-.169-.006-5.8 0-10.502 3.193-10.502 7.132s4.702 7.132 10.502 7.132c.052 0 .103 0 .155-.001 5.674-.056 10.178-4.826 10.178-10.5v-37.711c-.001-.853-.175-1.712-.584-2.462z"/><path d="m478.209 179.417c-1.21-2.219-3.692-3.147-5.913-2.501l-35.065 10.164c-2.173.63-3.667 2.619-3.667 4.881v34.03c-5.801 0-10.502 3.193-10.502 7.132s4.702 7.132 10.502 7.132c.049 0 .098 0 .147-.001 5.582-.052 10.017-4.735 10.017-10.317v-34.159l24.901-7.218v27.272c-.057-.001-.112-.006-.169-.006-5.8 0-10.502 3.193-10.502 7.132s4.702 7.132 10.502 7.132c.052 0 .103 0 .155-.001 5.674-.056 10.178-4.826 10.178-10.5v-37.711c0-.853-.174-1.711-.584-2.461z"/></g></svg>