<svg id="Layer_1" enable-background="new 0 0 510.592 510.592" height="512" viewBox="0 0 510.592 510.592" width="512" xmlns="http://www.w3.org/2000/svg"><g><g><path d="m358.641 386.79v105.904c0 4.125 3.344 7.468 7.468 7.468h26.746c4.125 0 7.468-3.344 7.468-7.468v-105.904z" fill="#80391b"/><path d="m459.98 304.552c6.457-4.163 12.666-8.869 18.554-14.129 3.545-3.166 4.01-8.554 1.089-12.303l-39.951-51.282c7.057-4.326 11.838-8.027 15.119-10.889 3.628-3.165 4.165-8.6 1.207-12.398l-76.515-98.216-76.438 98.118c-2.984 3.831-2.39 9.308 1.292 12.475 4.751 4.087 9.756 7.722 14.957 10.911l-39.951 51.282c-2.921 3.75-2.456 9.137 1.089 12.303 5.889 5.26 12.097 9.967 18.554 14.129l-48.699 62.51c-2.897 3.718-2.462 9.046 1.012 12.232 72.435 66.419 183.932 66.419 256.367 0 3.474-3.185 3.909-8.514 1.012-12.232z" fill="#468423"/><g><g><path d="m356.266 273.91c-2.192 0-3.97-1.777-3.97-3.97v-17.899c0-2.192 1.777-3.97 3.97-3.97 2.192 0 3.97 1.777 3.97 3.97v17.899c-.001 2.193-1.778 3.97-3.97 3.97z" fill="#ffda52"/></g><path d="m356.266 256.882c-9.671 0-17.511 7.84-17.511 17.511s7.84 17.511 17.511 17.511 17.511-7.84 17.511-17.511-7.84-17.511-17.511-17.511z" fill="#e64937"/></g><g><g><path d="m395.834 191.898c-2.192 0-3.97-1.777-3.97-3.97v-17.898c0-2.192 1.777-3.97 3.97-3.97s3.97 1.777 3.97 3.97v17.899c0 2.192-1.778 3.969-3.97 3.969z" fill="#ffda52"/></g><circle cx="395.835" cy="192.381" fill="#e64937" r="17.511"/></g><g><g><path d="m435.556 344.237c-2.192 0-3.97-1.777-3.97-3.97v-17.899c0-2.192 1.777-3.97 3.97-3.97s3.97 1.777 3.97 3.97v17.899c0 2.192-1.777 3.97-3.97 3.97z" fill="#ffda52"/></g><path d="m435.556 327.208c-9.671 0-17.511 7.84-17.511 17.511s7.84 17.511 17.511 17.511 17.511-7.84 17.511-17.511-7.84-17.511-17.511-17.511z" fill="#e64937"/></g><g><g><path d="m323.412 368.797c-2.192 0-3.97-1.777-3.97-3.97v-17.899c0-2.192 1.777-3.97 3.97-3.97s3.97 1.777 3.97 3.97v17.899c-.001 2.192-1.778 3.97-3.97 3.97z" fill="#ffda52"/></g><path d="m323.411 351.769c-9.671 0-17.511 7.84-17.511 17.511s7.84 17.511 17.511 17.511 17.511-7.84 17.511-17.511-7.84-17.511-17.511-17.511z" fill="#e64937"/></g><g><path d="m382.541 71.287 4.581 9.281c.497 1.007 1.457 1.704 2.568 1.866l10.242 1.488c2.798.407 3.915 3.845 1.89 5.818l-7.411 7.224c-.804.784-1.171 1.913-.981 3.019l1.75 10.201c.478 2.786-2.447 4.911-4.949 3.596l-9.161-4.816c-.994-.522-2.181-.522-3.174 0l-9.161 4.816c-2.502 1.316-5.427-.809-4.949-3.596l1.75-10.201c.19-1.106-.177-2.235-.981-3.019l-7.411-7.224c-2.024-1.973-.907-5.411 1.89-5.818l10.242-1.488c1.111-.161 2.071-.859 2.568-1.866l4.581-9.281c1.25-2.535 4.865-2.535 6.116 0z" fill="#ffda52"/></g></g><g><g id="XMLID_1076_"><path d="m131.269 500.163c-11.688 0-21.163-9.475-21.163-21.163v-169.157c0-11.688 9.475-21.163 21.163-21.163s21.163 9.475 21.163 21.163v169.157c0 11.688-9.474 21.163-21.163 21.163z" fill="#414b82"/></g><g id="XMLID_1075_"><path d="m80.182 500.163c-11.688 0-21.163-9.475-21.163-21.163v-169.157c0-11.688 9.475-21.163 21.163-21.163s21.163 9.475 21.163 21.163v169.157c0 11.688-9.475 21.163-21.163 21.163z" fill="#5f6e9b"/></g><ellipse cx="108.52" cy="109.393" fill="#ffb69e" rx="36.55" ry="36.551" transform="matrix(.987 -.16 .16 .987 -16.122 18.796)"/><g fill="#ffb69e"><path d="m270.98 173.085c-3.401-8.077-12.8-11.803-21.028-8.786l-48.812 17.902-9.94-5.312-15.584 12.877-1.014 15.123 17.567 9.445c4.082 2.195 8.928 2.553 13.313.945l56.112-20.58c8.682-3.183 13.018-12.991 9.386-21.614z"/><path d="m125.186 159.288-.139-.817h-33.073l-.185 2.293c-.793 9.807 6.952 18.203 16.791 18.203 10.436 0 18.361-9.392 16.606-19.679z"/></g><g><path d="m164.194 162.458c-4.9-2.618-10.369-3.988-15.924-3.988h-23.224c.302 8.87-7.936 16.397-16.542 16.397-9.223 0-16.06-7.498-16.53-16.397h-11.084c-7.631 0-15.038 2.583-21.013 7.329l-34.148 27.12 5.781 18.211 13.717 7.904 13.792-10.929v101.736h93.413v-116.871l22.169 11.92 16.598-28.001z" fill="#64afff"/></g><g><g><path d="m246.06 230.186c-.267 0-.536-.022-.807-.066-2.705-.443-4.539-2.994-4.096-5.699l15.307-93.466c.443-2.704 2.991-4.538 5.699-4.095 2.705.443 4.539 2.994 4.096 5.699l-15.307 93.466c-.399 2.433-2.504 4.161-4.892 4.161z" fill="#82878c"/></g><g><path d="m276.011 86.563c-4.127 0-6.523-4.846-3.826-8.118l19.771-23.987c1.743-2.114 4.87-2.416 6.986-.673 2.115 1.743 2.415 4.871.673 6.985l-19.771 23.987c-.981 1.191-2.402 1.806-3.833 1.806z" fill="#ffda52"/></g><g><path d="m237.508 128.316c-2.115-1.743-2.415-4.871-.673-6.985l19.771-23.987c1.742-2.114 4.869-2.417 6.986-.673 2.115 1.743 2.415 4.871.673 6.985l-19.771 23.987c-1.746 2.118-4.874 2.413-6.986.673z" fill="#ffda52"/></g><g><path d="m259.288 81.319-10.888-29.116c-.959-2.567.343-5.426 2.91-6.386 2.566-.96 5.424.343 6.386 2.909l10.888 29.116c.959 2.567-.343 5.426-2.91 6.386-2.566.96-5.425-.341-6.386-2.909z" fill="#ffda52"/></g><g><path d="m278.753 133.375-10.888-29.116c-.959-2.567.343-5.426 2.91-6.386 2.566-.96 5.424.342 6.386 2.909l10.888 29.116c.959 2.567-.343 5.426-2.91 6.386-2.566.96-5.425-.341-6.386-2.909z" fill="#ffda52"/></g><g><path d="m256.153 93.993c-.272 0-.548-.023-.825-.069l-30.659-5.129c-2.703-.453-4.527-3.01-4.075-5.713s3.003-4.526 5.713-4.075l30.659 5.129c5.985 1.002 5.223 9.857-.813 9.857z" fill="#ffda52"/></g><g><path d="m310.143 103.095-30.659-5.129c-2.703-.453-4.527-3.01-4.075-5.713.453-2.703 3.016-4.524 5.713-4.075l30.659 5.129c2.703.453 4.527 3.01 4.075 5.713-.449 2.681-2.984 4.528-5.713 4.075z" fill="#ffda52"/></g></g><g><path d="m183 39.097c5.436 4.121 14.416 13.375 14.107 29.393-.052 2.679-3.698 3.428-4.812.991-2.834-6.201-7.09-13.729-11.739-15.749-.944-.41-1.582-1.304-1.582-2.333v-10.286c0-2.077 2.371-3.27 4.026-2.016z" fill="#a5c8cd"/></g><g><path d="m20.302 75.173c5.436 4.121 14.416 13.375 14.107 29.393-.052 2.679-3.698 3.428-4.812.991-2.834-6.201-7.09-13.729-11.739-15.749-.944-.41-1.582-1.304-1.582-2.333v-10.287c0-2.076 2.372-3.269 4.026-2.015z" fill="#a5c8cd"/></g><g><path d="m28.824 20.489c-3.548 4.724-8.829 14.565-4.765 27.832.68 2.219 3.895 1.977 4.243-.318.887-5.838 2.643-13.119 6.035-15.906.689-.566 1.008-1.462.763-2.319l-2.444-8.567c-.493-1.729-2.752-2.159-3.832-.722z" fill="#749dad"/></g><g><path d="m229.661 21.705c-1.424 1.909-3.845 5.856-4.248 11.051-.107 1.379 1.516 2.197 2.582 1.316 2.015-1.667 5.212-3.782 9.467-4.951 1.251-.344 1.606-1.94.597-2.755l-6.136-4.949c-.701-.565-1.724-.434-2.262.288z" fill="#749dad"/></g><g><path d="m49.695 58.515c-1.424 1.909-3.845 5.856-4.248 11.051-.107 1.379 1.516 2.197 2.582 1.316 2.015-1.667 5.212-3.782 9.467-4.951 1.251-.344 1.606-1.94.597-2.755l-6.136-4.949c-.701-.565-1.724-.433-2.262.288z" fill="#749dad"/></g><g><path d="m125.63 41.103c-1.265-2.018-4.071-5.702-8.769-7.955-1.247-.598-2.597.62-2.16 1.932.826 2.481 1.643 6.226 1.195 10.617-.132 1.29 1.229 2.199 2.353 1.552l6.832-3.933c.78-.449 1.027-1.451.549-2.213z" fill="#a5c8cd"/></g><g><path d="m468.472 29.902c5.436 4.121 14.416 13.375 14.107 29.393-.052 2.679-3.698 3.428-4.812.991-2.834-6.201-7.09-13.729-11.739-15.749-.944-.41-1.582-1.304-1.582-2.333v-10.287c-.001-2.076 2.371-3.27 4.026-2.015z" fill="#749dad"/></g><g><path d="m314.296 11.294c-3.548 4.724-8.829 14.565-4.765 27.832.68 2.219 3.895 1.977 4.243-.318.887-5.838 2.643-13.119 6.035-15.906.689-.566 1.008-1.462.763-2.319l-2.444-8.567c-.493-1.729-2.752-2.16-3.832-.722z" fill="#a5c8cd"/></g><g><path d="m335.166 49.32c-1.424 1.909-3.845 5.856-4.248 11.051-.107 1.379 1.516 2.197 2.582 1.316 2.015-1.667 5.212-3.782 9.467-4.951 1.251-.344 1.606-1.94.597-2.755l-6.136-4.949c-.7-.565-1.723-.434-2.262.288z" fill="#749dad"/></g><g><path d="m411.102 31.908c-1.265-2.018-4.071-5.702-8.769-7.955-1.247-.598-2.597.62-2.16 1.932.826 2.481 1.643 6.226 1.195 10.617-.132 1.29 1.229 2.199 2.353 1.552l6.832-3.933c.78-.449 1.027-1.451.549-2.213z" fill="#a5c8cd"/></g><path d="m75.88 273.569-37.036-49.476 6.382-5.058-19.497-26.115-19.561 15.536c-6.929 5.49-8.207 15.507-2.88 22.562l47.101 61.754c5.429 7.134 15.667 8.397 22.667 2.797 6.717-5.374 7.966-15.104 2.824-22z" fill="#ffb69e"/></g></g></svg>