<svg id="Layer_1" enable-background="new 0 0 513.437 513.437" height="512" viewBox="0 0 513.437 513.437" width="512" xmlns="http://www.w3.org/2000/svg"><g><g><g><path d="m472.989 426.362h-26.408c-4.308 0-7.801 3.492-7.801 7.801v16.959c0 4.308 3.493 7.801 7.801 7.801h26.408c4.308 0 7.801-3.493 7.801-7.801v-16.959c0-4.309-3.493-7.801-7.801-7.801z" fill="#823214"/><path d="m502.788 360.449h-86.005c-5.881 0-10.649 4.768-10.649 10.649v60.191c0 5.882 4.768 10.649 10.649 10.649h86.005c5.881 0 10.649-4.768 10.649-10.649v-60.191c0-5.881-4.768-10.649-10.649-10.649z" fill="#965028"/><g><path d="m468.252 360.449h-39.67c-5.976 0-10.821-4.845-10.821-10.821s4.845-10.821 10.821-10.821h28.849v-35.633c0-5.977 4.845-10.821 10.821-10.821s10.821 4.845 10.821 10.821v46.455c.001 5.975-4.845 10.82-10.821 10.82z" fill="#46738c"/></g><path d="m500.698 215.313h-32.445v93.07h32.445c5.593 0 10.126-4.534 10.126-10.126v-72.818c0-5.593-4.533-10.126-10.126-10.126z" fill="#46738c"/><path d="m479.171 78.081h-31.703c-5.529 0-10.01 4.482-10.01 10.01v221.895c0 5.529 4.482 10.01 10.01 10.01h31.703c5.529 0 10.01-4.482 10.01-10.01v-221.895c.001-5.529-4.481-10.01-10.01-10.01z" fill="#6c9baa"/></g></g><g><g id="XMLID_1236_"><g><path d="m182.715 208.878 30.555-2.802c5.994-.55 11.31-4.078 14.146-9.387l37.308-69.865c4.654-8.714 1.362-19.552-7.353-24.206-8.705-4.648-19.553-1.362-24.206 7.354l-32.767 61.358-20.228 1.855-20.586 17.088z" fill="#ffb69e"/></g></g><g id="XMLID_1235_"><g><path d="m107.66 197.798c-.903-9.839 6.342-18.546 16.179-19.448l56.331-5.166 2.545 35.695-55.607 5.1c-9.862.903-18.549-6.368-19.448-16.181z" fill="#4699f2"/></g></g><g id="XMLID_1234_"><g><path d="m289.591 446.737-53.523-111.528-101.234-2.571c-11.852-.301-21.216-10.153-20.915-22.005.3-11.852 10.117-21.223 22.004-20.915l114.361 2.905c8.058.205 15.321 4.906 18.809 12.172l59.204 123.367c5.13 10.689.623 23.512-10.066 28.641-10.733 5.152-23.532.575-28.64-10.066z" fill="#414b82"/></g></g><path d="m104.063 428.136h-24.968c-4.073 0-7.375 3.302-7.375 7.375v16.034c0 4.073 3.302 7.375 7.375 7.375h24.967c4.073 0 7.375-3.302 7.375-7.375v-16.034c.001-4.073-3.301-7.375-7.374-7.375z" fill="#823214"/><path d="m220.864 428.136h-24.967c-4.073 0-7.375 3.302-7.375 7.375v16.034c0 4.073 3.302 7.375 7.375 7.375h24.967c4.073 0 7.375-3.302 7.375-7.375v-16.034c0-4.073-3.302-7.375-7.375-7.375z" fill="#823214"/><g><path d="m190.205 319.067-17.025-121.258c-1.39-9.898-6.666-18.835-14.661-24.834s-18.051-8.565-27.943-7.132l-21.474 3.112c-10.3 1.492-19.52 7.189-25.462 15.734-5.943 8.544-8.076 19.17-5.891 29.345l22.549 105.034h89.907z" fill="#64afff"/></g><ellipse cx="120.09" cy="113.561" fill="#ffb69e" rx="39.484" ry="39.484" transform="matrix(.997 -.072 .072 .997 -7.906 8.992)"/><g><path d="m258.074 239.099 6.556-43.068-9.918-10.28-11.939 6.953-6.556 43.068c-9.926 2.762-17.82 11.105-19.471 21.951l-12.061 79.223c-.723 4.752 2.543 9.191 7.295 9.915l36.175 5.507c4.752.723 9.191-2.543 9.915-7.295l12.061-79.223c1.651-10.847-3.402-21.161-12.057-26.751z" fill="#468423"/><path d="m254.479 313.326 4.105-26.964c.5-3.283-1.757-6.35-5.04-6.85l-25.03-3.81c-3.283-.5-6.35 1.757-6.85 5.04l-4.105 26.964c-.5 3.283 1.757 6.35 5.04 6.85l25.03 3.81c3.284.5 6.35-1.757 6.85-5.04z" fill="#6eaa50"/><path d="m264.63 196.031 1.962-12.888c.425-2.793-1.494-5.401-4.286-5.826l-11.746-1.788c-2.792-.425-5.401 1.494-5.826 4.286l-1.962 12.888z" fill="#dcbe82"/></g><g id="XMLID_898_"><g><path d="m166.369 270.936-25.837-30.422 4.617-22.965 23.105.338 19.292 22.716 61.737-6.314c9.812-1.004 18.611 6.147 19.617 15.976 1.005 9.828-6.148 18.611-15.976 19.616l-71.1 7.272c-5.885.6-11.656-1.744-15.455-6.217z" fill="#ffb69e"/></g></g><g id="XMLID_897_"><g><path d="m168.254 217.886-29.146-34.318c-6.396-7.531-17.686-8.449-25.215-2.055-7.531 6.396-8.45 17.685-2.055 25.215 7.829 9.218 28.694 33.785 28.694 33.785z" fill="#4699f2"/></g></g><g><path d="m257.104 338.499c0-20.629-16.723-37.352-37.351-37.352h-137.777l-21.243-100.064c-3.01-14.18-15.53-24.322-30.026-24.322-19.518 0-34.079 17.977-30.026 37.069l44.583 210.019c1.991 9.38 10.273 16.088 19.861 16.088h.85 45.462 128.984c9.213 0 16.682-7.469 16.682-16.682v-84.756z" fill="#965028"/></g><g><g><path d="m246.125 98.693h10.518v58.905h-10.518z" fill="#d1e7ed"/></g><g><path d="m262.604 162.857h-22.44c-2.904 0-5.259-2.355-5.259-5.259 0-2.905 2.355-5.259 5.259-5.259h22.44c2.904 0 5.259 2.355 5.259 5.259.001 2.904-2.354 5.259-5.259 5.259z" fill="#ebf4f7"/></g><path d="m263.691 54.514h-24.613c-2.65 0-4.799 2.149-4.799 4.799v22.041l17.105 24.759 17.105-24.759v-22.041c.001-2.65-2.148-4.799-4.798-4.799z" fill="#ebf4f7"/><g><path d="m234.279 81.354v17.063c0 9.447 7.658 17.105 17.105 17.105s17.105-7.658 17.105-17.105v-17.063z" fill="#ffda52"/></g></g></g></g></svg>