<svg id="Layer_1" enable-background="new 0 0 512.106 512.106" height="512" viewBox="0 0 512.106 512.106" width="512" xmlns="http://www.w3.org/2000/svg"><g><g><g><path d="m236.132 419.1c-1.605 0-3.234-.381-4.752-1.184-4.972-2.629-6.871-8.792-4.242-13.763l34.086-64.455c2.629-4.972 8.791-6.872 13.763-4.242 4.972 2.629 6.871 8.792 4.242 13.763l-34.086 64.455c-1.827 3.454-5.358 5.426-9.011 5.426z" fill="#ba6746"/></g><g fill="#e64937"><path d="m338.112 249.313 27.455-.904c1.083-2.048.301-4.586-1.747-5.669l-41.797-22.104c-2.048-1.083-4.586-.301-5.669 1.747l-6.184 11.694z"/><path d="m268.083 313.659-13.774 26.046 24.92 9.515 31.91 2.107 13.775-26.046-22.925-11.622z"/><path d="m296.013 260.845-13.774 26.046 25.93 12.905 30.9-1.283 13.775-26.046-23.999-14.741z"/></g><path d="m352.844 272.467 14.156-26.768-56.831-11.622-14.156 26.768z" fill="#fff"/><path d="m324.914 325.281 14.155-26.768-56.83-11.622-14.156 26.768z" fill="#fff"/><path d="m249.378 349.029c-1.01 1.911-.281 4.279 1.63 5.289l42.294 22.367c1.911 1.01 4.279.281 5.289-1.63l12.548-23.728-56.831-11.622z" fill="#fff"/><path d="m376.534 252.192-10.812-55.059c-.631-3.214-4.064-5.029-7.075-3.742l-51.594 22.056c-3.982 1.702-4.211 7.26-.383 9.285l62.406 33.003c3.828 2.024 8.293-1.294 7.458-5.543z" fill="#d13d2c"/></g><g id="XMLID_1139_"><path d="m68.638 464.936c-9.667 0-19.251-4.189-25.83-12.27-11.606-14.254-9.46-35.219 4.794-46.826l68.745-55.976h-83.063c-18.382.001-33.284-14.9-33.284-33.282s14.902-33.284 33.284-33.284h176.653c14.083 0 26.641 8.863 31.36 22.131 4.719 13.269.576 28.071-10.344 36.963l-141.319 115.069c-6.175 5.027-13.609 7.475-20.996 7.475z" fill="#414b82"/></g><g><path d="m4.536 299.796h141.207c10.614 0 20.44-5.581 25.869-14.701 7.269-12.21 18.663-31.369 32.659-54.972 16.062-27.089 7.482-62.058-19.3-78.629l-16.779-10.382c-27.366-16.932-63.291-8.251-79.905 19.308z" fill="#64afff"/></g><ellipse cx="231.52" cy="94.979" fill="#ffb69e" rx="56.884" ry="56.884" transform="matrix(.979 -.205 .205 .979 -14.557 49.499)"/><g id="XMLID_1134_"><path d="m271.073 316.416c-1.981 0-3.993-.217-6.007-.669l-99.989-22.434c-9.101-2.042-16.532-8.585-19.709-17.355l-10.208-28.181 20.504-25.755 30.215 5.313 5.771 15.932 85.38 19.156c14.725 3.303 23.983 17.918 20.679 32.643-2.852 12.713-14.132 21.35-26.636 21.35z" fill="#ffb69e"/></g><g id="XMLID_37_"><path d="m135.16 247.777 50.718-20.442-20.855-57.572c-5.139-14.189-20.809-21.525-34.997-16.384-14.189 5.139-21.524 20.808-16.384 34.997z" fill="#4699f2"/></g><g><g><path d="m325.871 474.019c-2.606 0-5.212-.994-7.201-2.982-3.977-3.977-3.977-10.425 0-14.402l51.557-51.557c3.977-3.977 10.425-3.977 14.402 0s3.977 10.425 0 14.402l-51.557 51.557c-1.989 1.988-4.595 2.982-7.201 2.982z" fill="#ba6746"/></g><g fill="#e64937"><path d="m470.38 342.668 26.446 5.899c1.638-1.638 1.638-4.294 0-5.932l-33.433-33.433c-1.638-1.638-4.294-1.638-5.932 0l-9.354 9.354z"/><path d="m429.064 387.302 27.685 1.343 20.834-20.834-26.523-30.176-24.364 2.332-20.834 20.835z"/><path d="m376.612 418.366 37.891 12.525 20.834-20.834-20.834-19.612-30.053-8.232-20.834 20.835z"/></g><path d="m477.583 367.811 21.412-21.411-50.887-27.844-21.412 21.411z" fill="#fff"/><path d="m435.337 410.057 21.412-21.412-50.887-27.843-21.412 21.411z" fill="#fff"/><path d="m356.231 410.432c-1.569 1.569-1.569 4.113 0 5.682l33.684 33.684c1.569 1.569 4.113 1.569 5.682 0l18.906-18.906-50.887-27.844z" fill="#fff"/><path d="m506.418 293.952-55.801 5.883c-4.306.454-6.162 5.698-3.101 8.76l49.919 49.918c3.062 3.062 8.306 1.206 8.76-3.1l5.883-55.802c.342-3.257-2.403-6.003-5.66-5.659z" fill="#d13d2c"/></g></g></svg>