<svg id="Layer_1" enable-background="new 0 0 511.223 511.223" height="512" viewBox="0 0 511.223 511.223" width="512" xmlns="http://www.w3.org/2000/svg"><g><g><g id="XMLID_44_"><path d="m150.585 511.223c-12.281 0-22.237-9.956-22.237-22.237v-177.746c0-12.282 9.956-22.237 22.237-22.237s22.237 9.956 22.237 22.237v177.746c0 12.282-9.956 22.237-22.237 22.237z" fill="#414b82"/></g><g id="XMLID_43_"><path d="m96.903 511.223c-12.281 0-22.237-9.956-22.237-22.237v-177.746c0-12.282 9.956-22.237 22.237-22.237s22.237 9.956 22.237 22.237v177.746c0 12.282-9.956 22.237-22.237 22.237z" fill="#5f6e9b"/></g><g fill="#ffb69e"><ellipse cx="123.543" cy="103.414" rx="38.406" ry="38.406" transform="matrix(.998 -.071 .071 .998 -7.02 9.018)"/><path d="m73.33 122.477-19.481-25.326-8.656-81.847c-.993-9.392-9.394-16.2-18.806-15.208-9.391.993-16.201 9.413-15.207 18.805l9.163 86.649c.331 3.14 1.527 6.126 3.451 8.628l20.94 27.221 20.637-2.111z"/><path d="m220.753.096c-9.404-.992-17.813 5.816-18.806 15.208l-8.656 81.847-19.481 25.326 11.559 15.683 14.932 5.976 23.045-29.958c1.924-2.502 3.12-5.489 3.451-8.628l9.163-86.649c.994-9.392-5.815-17.812-15.207-18.805z"/><path d="m139.687 155.526-.267-3.343h-31.959l-.29 3.14c-.883 9.564 6.644 17.818 16.249 17.818 9.524.001 17.024-8.121 16.267-17.615z"/></g><path d="m173.811 122.477-22.851 29.706h-11.54c.322 8.59-7.654 15.888-15.983 15.888-8.927 0-15.543-7.27-15.976-15.888h-11.28l-22.851-29.706-28.596 18.923 29.933 38.912v130.928h98.156v-131.38l27.48-35.723z" fill="#64afff"/></g><g><g><g id="XMLID_42_"><path d="m286.033 511.223c-6.846 0-13.634-2.967-18.294-8.69-8.22-10.095-6.7-24.943 3.396-33.163l48.687-39.644h-58.828c-13.019 0-23.573-10.554-23.573-23.573s10.554-23.573 23.573-23.573h125.111c9.974 0 18.868 6.277 22.21 15.674s.408 19.881-7.326 26.178l-100.086 81.496c-4.373 3.562-9.639 5.295-14.87 5.295z" fill="#55696e"/></g><g><path d="m367.928 289.742-10.501-6.681c-19.795-12.594-46.076-6.417-58.189 13.675l-58.495 97.346h101.802c6.718 0 12.909-3.623 16.208-9.475 1.546-2.743 3.187-5.614 4.551-7.908l18.082-30.332c11.568-19.408 5.606-44.497-13.458-56.625z" fill="#ffda52"/></g><ellipse cx="401.022" cy="254.409" fill="#ba6746" rx="37.545" ry="37.545" transform="matrix(.737 -.676 .676 .737 -66.427 338.281)"/><g id="XMLID_40_"><path d="m429.403 406.037c-1.403 0-2.828-.153-4.254-.474l-70.815-15.888c-6.446-1.446-11.709-6.08-13.958-12.291l-7.535-20.801 13.182-21.278 22.91 7.275 4.221 11.652 60.469 13.567c10.428 2.34 16.985 12.69 14.646 23.119-2.021 9.002-10.01 15.119-18.866 15.119z" fill="#ba6746"/></g><g id="XMLID_39_"><path d="m332.84 356.582 36.092-14.003-14.637-40.406c-3.64-10.049-14.737-15.245-24.786-11.604-10.049 3.64-15.244 14.737-11.604 24.786z" fill="#ffc305"/></g></g><g><g><path d="m368.242 511.223c-1.846 0-3.692-.704-5.1-2.112-2.817-2.817-2.817-7.384 0-10.2l36.514-36.514c2.817-2.817 7.384-2.817 10.2 0 2.817 2.817 2.817 7.384 0 10.2l-36.514 36.514c-1.408 1.408-3.254 2.112-5.1 2.112z" fill="#ba6746"/></g><g fill="#e64937"><path d="m460.934 450.759 14.756-14.756-14.756-13.684-21.284-6.035-14.756 14.755 14.756 13.8z"/><path d="m409.73 446.203-14.755 14.756 12.739 16.972 23.301 2.748 14.755-14.756-12.682-15.164z"/><path d="m488.453 417.308-21.947-21.948c-1.638-1.638-4.294-1.638-5.932 0l-5.759 5.759 14.115 17.442 19.524 4.679c1.638-1.638 1.638-4.294-.001-5.932z"/></g><path d="m475.69 436.003 15.164-15.164-36.04-19.72-15.164 15.164z" fill="#fff"/><path d="m445.77 465.923 15.164-15.164-36.04-19.72-15.164 15.164z" fill="#fff"/><path d="m389.745 466.189c-1.111 1.111-1.111 2.913 0 4.024l23.856 23.856c1.111 1.111 2.913 1.111 4.024 0l13.39-13.39-36.04-19.72z" fill="#fff"/><path d="m496.111 383.694-39.52 4.167c-3.05.322-4.364 4.035-2.196 6.204l35.354 35.354c2.169 2.168 5.883.854 6.204-2.196l4.167-39.52c.243-2.308-1.702-4.252-4.009-4.009z" fill="#d13d2c"/></g></g></g></svg>