<svg id="Layer_1" enable-background="new 0 0 513.653 513.653" height="512" viewBox="0 0 513.653 513.653" width="512" xmlns="http://www.w3.org/2000/svg"><g><g><path d="m128.681 189.908.95-17.729 15.83-12.386 2.51-70.565c.291-8.175 7.154-14.561 15.327-14.274 8.174.291 14.564 7.153 14.273 15.327l-2.756 77.454c-.155 4.368-2.232 8.444-5.674 11.137l-20.941 16.387z" fill="#ffb69e"/></g><g><path d="m87.365 205.25c-6.442 5.04-7.578 14.348-2.538 20.789 2.922 3.733 7.275 5.685 11.674 5.685 3.192 0 6.408-1.028 9.116-3.147l42.583-33.319-18.569-23.079z" fill="#4699f2"/></g><path d="m289.848 149.452-18.229-18.228c-2.083-2.083-5.461-2.083-7.544 0l-57.32 57.32c-2.083 2.083-2.083 5.461 0 7.544l18.228 18.228c2.083 2.083 5.461 2.083 7.544 0l57.321-57.32c2.084-2.082 2.084-5.46 0-7.544z" fill="#6c9baa"/><path d="m103.909 311.451c-1.811-.522-3.675-.787-5.543-.787h-.001c-8.842 0-16.73 5.937-19.183 14.437l-50.317 162.419c-1.643 5.045-1.221 10.457 1.197 15.212 2.419 4.755 6.545 8.283 11.617 9.935 2.009.655 4.091.986 6.188.986 8.67 0 16.3-5.543 18.986-13.792l50.694-163.646c3.065-10.617-3.058-21.709-13.638-24.764z" fill="#5f6e9b"/><path d="m186.702 389.238-29.588-81.481c-2.858-7.872-10.402-13.161-18.773-13.161-2.323 0-4.616.406-6.816 1.205-5.014 1.821-9.019 5.485-11.277 10.319s-2.499 10.257-.678 15.271l28.388 78.177v94.109c0 11.012 8.959 19.972 19.972 19.972s19.972-8.959 19.972-19.972v-97.623c0-2.331-.404-4.624-1.2-6.816z" fill="#414b82"/><path d="m147.086 216.651c-2.543-16.643-18.096-28.074-34.739-25.531l-30.24 4.62c-16.643 2.543-28.074 18.096-25.531 34.739l17.134 112.149 91.352-12.985z" fill="#64afff"/><ellipse cx="102.398" cy="143.69" fill="#ffb69e" rx="35.825" ry="35.825" transform="matrix(.732 -.682 .682 .732 -70.474 108.371)"/><g><path d="m170.676 234.539c-.188 0-.375-.003-.563-.01l-35.408-1.344-10.07-15.503 10.241-14.131 30.164 1.145 37.085-34.898c5.956-5.606 15.329-5.321 20.934.636s5.321 15.329-.636 20.934l-41.6 39.148c-2.75 2.588-6.383 4.023-10.147 4.023z" fill="#ffb69e"/></g><g><path d="m97.052 202.115c-8.209-.33-15.05 6.064-15.361 14.238-.31 8.173 6.064 15.05 14.238 15.361l38.774 1.548.174-29.71z" fill="#4699f2"/></g><g fill="#b4d7dc"><path d="m319.269 82.233c-7.1 12.671-15.427 23.306-26.725 33.021-.43.37-1.079.321-1.449-.109-.343-.399-.326-.986.022-1.365l.013-.014c9.745-10.615 16.506-21.667 21.861-34.579 12.89-30.633 11.168-64.182 11.176-64.284-.027-.509-.059-1.105-.098-1.474-.44-4.184 2.596-7.932 6.78-8.372s7.932 2.596 8.372 6.78c.417 3.978-3.144 40.736-19.952 70.396z"/><path d="m303.739 131.631c11.3-6.887 25.334-13.333 37.784-18.007 41.312-15.453 84.413-20.15 125.872-6.185 3.979 1.34 6.118 5.652 4.777 9.631-1.34 3.979-5.652 6.118-9.631 4.777-.2-.067-.395-.142-.586-.224l-.094-.042c-37.742-16.38-78.973-14.821-118.922-3.646-23.53 6.61-38.945 14.671-38.722 14.56-.244.122-.541.022-.663-.222-.115-.23-.031-.509.185-.642z"/><path d="m361.098 75.301c-.357.202-.811.075-1.012-.282-.179-.317-.1-.709.17-.934l.013-.011c9.144-7.666 14.638-19.487 18.043-30.985 3.872-12.849 5.857-29.298 5.884-35.476.018-4.222 3.454-7.629 7.676-7.611 4.221.018 7.629 3.455 7.611 7.676-.015 3.484-11.67 52.553-38.385 67.623z"/><path d="m405.191 64.791-.03.017c-.533.299-1.208.11-1.507-.423-.268-.477-.144-1.068.267-1.401 26.85-21.821 79.175-26.231 73.392-25.594 4.186-.461 7.953 2.558 8.414 6.744s-2.558 7.953-6.744 8.414c-1.582.175-47.001-2.804-73.792 12.243z"/></g><path d="m373.973 136 1.503 3.046c.185.375.543.635.957.695l3.361.488c1.043.152 1.459 1.433.705 2.168l-2.432 2.371c-.3.292-.436.713-.366 1.125l.574 3.347c.178 1.039-.912 1.831-1.845 1.34l-3.006-1.58c-.37-.195-.813-.195-1.183 0l-3.006 1.58c-.933.49-2.023-.302-1.845-1.34l.574-3.347c.071-.412-.066-.833-.366-1.125l-2.432-2.371c-.755-.736-.338-2.017.705-2.168l3.361-.488c.414-.06.772-.32.957-.695l1.503-3.046c.467-.945 1.815-.945 2.281 0z" fill="#ffda52"/><path d="m346.769 82.178-.453 1.337c-.125.368-.061.775.172 1.086l.844 1.132c.586.785.017 1.901-.962 1.888l-1.412-.018c-.389-.005-.755.182-.98.499l-.815 1.153c-.566.8-1.802.604-2.093-.332l-.419-1.348c-.115-.371-.406-.662-.778-.778l-1.348-.419c-.935-.291-1.131-1.528-.332-2.093l1.153-.815c.318-.225.504-.591.499-.98l-.018-1.412c-.013-.979 1.103-1.548 1.888-.962l1.132.844c.312.233.718.297 1.086.172l1.337-.453c.928-.314 1.813.572 1.499 1.499z" fill="#ffda52"/><path d="m271.372 35.138 1.15 2.331c.184.373.54.632.952.692l2.572.374c1.037.151 1.452 1.426.701 2.157l-1.861 1.814c-.298.291-.434.709-.364 1.12l.439 2.562c.177 1.033-.907 1.821-1.835 1.333l-2.3-1.209c-.368-.194-.809-.194-1.177 0l-2.3 1.209c-.928.488-2.013-.3-1.835-1.333l.439-2.562c.07-.41-.066-.829-.364-1.12l-1.861-1.814c-.751-.732-.336-2.007.701-2.157l2.572-.374c.412-.06.768-.319.952-.692l1.15-2.331c.465-.941 1.805-.941 2.269 0z" fill="#ffda52"/><path d="m270.554 94.363-.613 1.806c-.136.4-.066.84.187 1.179l1.141 1.529c.636.852.019 2.062-1.044 2.049l-1.907-.024c-.422-.005-.82.197-1.063.542l-1.102 1.556c-.614.868-1.956.655-2.271-.36l-.566-1.821c-.125-.403-.441-.719-.844-.844l-1.821-.566c-1.015-.315-1.227-1.658-.36-2.271l1.557-1.101c.345-.244.547-.641.542-1.063l-.024-1.907c-.014-1.063 1.197-1.68 2.049-1.044l1.529 1.141c.338.252.779.322 1.179.187l1.806-.613c1.006-.342 1.967.619 1.625 1.625z" fill="#ffda52"/></g></svg>