<svg id="Layer_1" enable-background="new 0 0 508.346 508.346" height="512" viewBox="0 0 508.346 508.346" width="512" xmlns="http://www.w3.org/2000/svg"><g><g><path d="m127.532 303.029c-7.535.001-14.627-4.603-17.438-12.071l-32.826-87.204c-2.49-6.616-1.021-14.071 3.791-19.248l19.586-21.068 23.111 1.744 5.891 21.782-13.443 14.46 28.762 76.406c3.625 9.629-1.243 20.374-10.872 23.999-2.162.815-4.381 1.2-6.562 1.2z" fill="#ba6746"/></g><g><path d="m129.646 186.965 38.297-41.194c7.006-7.536 6.576-19.323-.96-26.329-7.536-7.005-19.324-6.576-26.329.96l-40.01 43.037z" fill="#ffc305"/></g><path d="m257.145 50.914v10.195c0 3.129 2.181 5.836 5.238 6.501l114.577 24.937c4.147.903 8.068-2.257 8.068-6.501v-60.069c0-4.245-3.921-7.404-8.068-6.501l-114.577 24.936c-3.058.666-5.238 3.372-5.238 6.502z" fill="#b4d7dc"/><path d="m227.81 366.128-24.045-92.097c-3.429-13.133-16.858-21.032-30.025-17.594-6.36 1.66-11.692 5.698-15.015 11.369s-3.093 16.016-3.093 16.016l22.975 88.667-26.205 105.297c-3.285 13.197 4.737 26.537 17.936 29.822 13.188 3.278 26.526-4.688 29.822-17.937l27.72-111.385c.991-3.983.967-8.188-.07-12.158z" fill="#748488"/><path d="m428.032 349.855-69.468-102.559c-4.403-6.5-11.716-10.535-19.562-10.794l-119.176-3.176c-.258-.009-.527-.013-.795-.013v1-1h-.003c-6.387 0-12.45 2.452-17.071 6.905-4.64 4.47-7.312 10.468-7.524 16.891-.448 13.561 10.221 24.958 23.782 25.406l106.638 2.769 62.431 92.171c4.585 6.769 12.208 10.81 20.393 10.81 4.925 0 9.69-1.465 13.781-4.236 5.442-3.686 9.123-9.271 10.365-15.726 1.241-6.454-.105-13.006-3.791-18.448z" fill="#55696e"/><path d="m264.279 233.338c-.066-.58-.144-1.161-.233-1.743l-16.194-105.993c-2.249-14.721-16.007-24.832-30.728-22.583l-60.546 9.25c-14.721 2.249-24.832 16.007-22.583 30.728l21.636 140.825 64.238-.939c26.428-.385 47.406-23.284 44.41-49.545z" fill="#ffda52"/><ellipse cx="193.357" cy="45.073" fill="#ba6746" rx="45.067" ry="45.067" transform="matrix(.592 -.806 .806 .592 42.532 174.186)"/><g><path d="m279.248 159.357c-.033 0-.065 0-.098 0l-45.503-.236-9.346-18.748 9.346-18.512 32.558.169 23.617-65.2c3.504-9.675 14.188-14.677 23.861-11.171 9.674 3.504 14.676 14.187 11.172 23.861l-28.092 77.553c-2.671 7.376-9.677 12.284-17.515 12.284z" fill="#ba6746"/></g><g><path d="m233.647 121.861-45.412-.236h-.099c-10.243 0-18.574 8.277-18.628 18.533-.053 10.289 8.244 18.673 18.533 18.727l45.606.237z" fill="#ffc305"/></g></g></svg>