<svg id="Layer_1" enable-background="new 0 0 512.302 512.302" height="512" viewBox="0 0 512.302 512.302" width="512" xmlns="http://www.w3.org/2000/svg"><g><g><ellipse cx="244.688" cy="42.164" fill="#ffb69e" rx="42.164" ry="42.164" transform="matrix(.383 -.924 .924 .383 112.095 252.091)"/><g><g id="XMLID_1221_"><path d="m274.131 512.302c-13.483 0-24.413-10.93-24.413-24.413v-195.139c0-13.483 10.93-24.413 24.413-24.413s24.613 10.93 24.613 24.413v195.138c0 13.483-11.13 24.414-24.613 24.414z" fill="#414b82"/></g><g id="XMLID_1220_"><path d="m215.212 512.27c-13.483 0-24.589-10.93-24.589-24.413v-195.139c0-13.483 11.106-24.413 24.589-24.413s24.413 10.93 24.413 24.413v195.138c0 13.483-10.93 24.414-24.413 24.414z" fill="#5f6e9b"/></g></g><g><path d="m356.692 357.802h-57.97v-53.015c0-15.982 13.002-28.985 28.985-28.985s28.985 13.002 28.985 28.985zm-40.969-17h23.97v-36.015c0-6.608-5.376-11.985-11.985-11.985s-11.985 5.376-11.985 11.985z" fill="#ab5735"/></g><path d="m366.807 332.302h-78.256c-2.439 0-4.416 1.977-4.416 4.416v95.168c0 2.439 1.977 4.416 4.416 4.416h78.256c2.439 0 4.416-1.977 4.416-4.416v-95.168c0-2.439-1.978-4.416-4.416-4.416z" fill="#468423"/><g fill="#ffb69e"><path d="m141.079 184.352.104 110.413c0 11.236 9.108 20.344 20.344 20.344 11.236 0 20.344-9.108 20.344-20.344v-109.723l-21.633-5.805z"/><path d="m264.111 97.802h-40.776l-.194 1.152c-2.149 12.729 7.662 24.334 20.571 24.334 12.764 0 22.535-11.359 20.628-23.98z"/><path d="m328.502 172.355-20.998 11.997v110.31c0 10.955 8.419 20.381 19.361 20.896 11.683.55 21.327-8.76 21.327-20.322v-110.884z"/></g><path d="m341.407 387.369c1.001-.645 1.967-1.368 2.889-2.168.755-.656.874-1.788.259-2.577l-6.602-8.475c.794-.487 1.561-1.035 2.294-1.645.774-.644.89-1.794.271-2.588l-11.331-14.545c-.748-.96-2.199-.96-2.946 0l-11.331 14.545c-.618.794-.503 1.945.271 2.588.733.61 1.5 1.158 2.294 1.645l-6.602 8.475c-.615.789-.496 1.921.259 2.577.922.8 1.887 1.522 2.889 2.168l-8.103 10.489c-.605.783-.487 1.897.25 2.556 4.683 4.187 10.3 6.692 16.134 7.679v5.133c0 1.031.836 1.867 1.867 1.867h7.09c1.031 0 1.867-.836 1.867-1.867v-5.133c5.832-.986 11.512-3.489 16.205-7.673.742-.661.858-1.78.247-2.564z" fill="#fff"/></g><path d="m299.297 97.768h-35.19c.001.011.003.022.003.033.493 11.01-9.724 20.388-20.388 20.388-11.43 0-19.893-9.342-20.388-20.388 0-.011 0-.022 0-.033h-33.256c-26.828 0-48.763 21.489-48.895 48.005-.108 14.866-.103 38.578-.103 38.578h40.792v-38.476c.019-3.883 4.477-7.419 8.752-7.419v154.277h108.122v-154.276c4.275 0 8.741 3.536 8.76 7.316v38.578c19.017-.003 38.512-.062 40.688 0v-38.681c-.134-26.413-22.068-47.902-48.897-47.902z" fill="#64afff"/></g></svg>