<svg id="Layer_1" enable-background="new 0 0 510.688 510.688" height="512" viewBox="0 0 510.688 510.688" width="512" xmlns="http://www.w3.org/2000/svg"><g><g><g id="XMLID_950_"><path d="m129.844 510.688c-11.992 0-21.712-9.721-21.712-21.712v-173.551c0-11.992 9.721-21.712 21.712-21.712s21.712 9.721 21.712 21.712v173.551c0 11.992-9.72 21.712-21.712 21.712z" fill="#55696e"/></g><g id="XMLID_951_"><path d="m77.429 510.688c-11.992 0-21.712-9.721-21.712-21.712v-173.551c0-11.992 9.721-21.712 21.712-21.712s21.712 9.721 21.712 21.712v173.551c0 11.992-9.72 21.712-21.712 21.712z" fill="#748488"/></g><ellipse cx="103.44" cy="111.16" fill="#80391b" rx="37.5" ry="37.5" transform="matrix(.995 -.099 .099 .995 -10.45 10.734)"/><g fill="#80391b"><path d="m282.353 141.697c-3.596-8.334-13.221-12.286-21.659-8.83l-64.655 26.732h-7.591l-5.73 16.866 5.73 16.283h10.878c2.171 0 4.321-.423 6.33-1.246l67.291-27.564c8.661-3.548 13.114-13.648 9.406-22.241z"/><path d="m122.27 159.876-.045-.277h-38.549l-.14 1.306c-1.237 11.553 7.817 21.628 19.436 21.628 12.037.001 21.214-10.773 19.298-22.657z"/></g><g><path d="m122.226 159.599c0 .008.002.015.002.023.466 10.41-9.193 19.276-19.276 19.276-10.806 0-18.808-8.832-19.276-19.276 0-.008 0-.015 0-.023h-18.075c-8.888 0-17.239 4.255-22.463 11.446l-23.513 32.062 10.573 13.744 15.611 7.489 9.908-13.531v104.615h95.84v-122.676h36.892v-33.148h-66.223z" fill="#e64937"/></g><path d="m77.114 275.451c-7.572-8.698-29.754-34.179-37.331-42.882l6.025-8.228-26.152-21.211-14.7 20.473c-4.61 6.295-4.246 14.944.877 20.829l46.091 52.946c6.062 6.963 16.611 7.679 23.559 1.631 6.957-6.054 7.687-16.602 1.631-23.558z" fill="#80391b"/><g><g><path d="m235.84 74.942-27.072-15.754c-2.386-1.389-3.195-4.45-1.806-6.836s4.449-3.196 6.836-1.806l27.072 15.754c2.386 1.389 3.195 4.45 1.806 6.836-1.388 2.387-4.45 3.196-6.836 1.806z" fill="#ffda52"/></g><g><path d="m187.44 46.775-27.071-15.754c-2.387-1.389-3.196-4.449-1.807-6.836 1.388-2.386 4.449-3.196 6.836-1.807l27.071 15.754c2.387 1.389 3.196 4.449 1.807 6.836-1.387 2.384-4.446 3.199-6.836 1.807z" fill="#ffda52"/></g><g><path d="m206.987 45.013c-1.373-2.396-.542-5.451 1.854-6.824l27.18-15.567c2.395-1.373 5.451-.542 6.824 1.854s.542 5.451-1.854 6.824l-27.18 15.567c-2.392 1.37-5.449.547-6.824-1.854z" fill="#ffda52"/></g><g><path d="m158.394 72.846c-1.373-2.396-.542-5.452 1.854-6.824l27.179-15.568c2.397-1.373 5.452-.542 6.824 1.854s.542 5.452-1.854 6.824l-27.179 15.568c-2.401 1.374-5.454.538-6.824-1.854z" fill="#ffda52"/></g><g><path d="m200.662 41.321c-.006 0-.012 0-.018 0-2.762-.01-4.992-2.256-4.983-5.017l.108-31.321c.009-2.756 2.246-4.983 5-4.983h.018c2.762.01 4.992 2.256 4.983 5.017l-.108 31.321c-.011 2.756-2.247 4.983-5 4.983z" fill="#ffda52"/></g><g><path d="m200.469 97.321c-.006 0-.012 0-.018 0-2.762-.01-4.992-2.256-4.983-5.017l.108-31.322c.01-2.756 2.246-4.983 5-4.983h.018c2.762.01 4.992 2.256 4.983 5.017l-.108 31.322c-.01 2.756-2.247 4.983-5 4.983z" fill="#ffda52"/></g></g><g><g><path d="m253.649 129.086h10.518v58.905h-10.518z" fill="#d1e7ed"/></g><g><path d="m270.128 193.25h-22.44c-2.904 0-5.259-2.355-5.259-5.259s2.355-5.259 5.259-5.259h22.44c2.904 0 5.259 2.355 5.259 5.259s-2.355 5.259-5.259 5.259z" fill="#ebf4f7"/></g><path d="m271.214 84.907h-24.613c-2.65 0-4.799 2.149-4.799 4.799v22.041l17.105 17.339 17.105-17.339v-22.041c.001-2.65-2.147-4.799-4.798-4.799z" fill="#ebf4f7"/><g><path d="m241.803 111.747v17.063c0 9.447 7.658 17.105 17.105 17.105s17.105-7.658 17.105-17.105v-17.063z" fill="#ffda52"/></g></g></g><g><g><path d="m279.406 510.688c-8.284 0-15-6.716-15-15v-194.283c0-8.284 6.716-15 15-15s15 6.716 15 15v194.284c0 8.284-6.716 14.999-15 14.999z" fill="#965028"/></g><path d="m240.535 285.688c-8.68 0-15.716 7.036-15.716 15.716s7.036 15.716 15.716 15.716h268.423v-31.432z" fill="#a56941"/><path d="m268.494 285.688 148.636 93.159c6.279 3.948 14.493 2.779 19.422-2.764l72.406-90.395z" fill="#dfecef"/><path d="m279.406 261.688c0 13.255 10.745 24 24 24h46.874c13.255 0 24-10.745 24-24z" fill="#c8e6eb"/><path d="m500.976 269.724h-94.535c-4.409 0-7.982 3.574-7.982 7.982 0 4.409 3.574 7.982 7.982 7.982h94.535c4.409 0 7.982-3.574 7.982-7.982s-3.574-7.982-7.982-7.982z" fill="#55696e"/><path d="m447.737 249.688h-31.057c-2.055 0-3.722 1.666-3.722 3.722v12.592c0 2.056 1.666 3.722 3.722 3.722h31.057c2.055 0 3.722-1.666 3.722-3.722v-12.592c-.001-2.055-1.667-3.722-3.722-3.722z" fill="#97c3d1"/><path d="m493.237 249.688h-31.057c-2.055 0-3.722 1.666-3.722 3.722v12.592c0 2.056 1.666 3.722 3.722 3.722h31.057c2.055 0 3.722-1.666 3.722-3.722v-12.592c-.001-2.055-1.667-3.722-3.722-3.722z" fill="#97c3d1"/><path d="m462.789 229.653h-31.057c-2.055 0-3.722 1.666-3.722 3.722v12.592c0 2.055 1.666 3.722 3.722 3.722h31.057c2.055 0 3.722-1.666 3.722-3.722v-12.592c0-2.055-1.666-3.722-3.722-3.722z" fill="#6c9baa"/><path d="m479.456 209.618h-31.057c-2.055 0-3.722 1.666-3.722 3.722v12.592c0 2.055 1.666 3.722 3.722 3.722h31.057c2.055 0 3.722-1.666 3.722-3.722v-12.592c0-2.056-1.667-3.722-3.722-3.722z" fill="#97c3d1"/><g fill="#6c9baa"><path d="m486.769 229.653h-10.037c-2.055 0-3.722 1.666-3.722 3.722v12.592c0 2.055 1.666 3.722 3.722 3.722h10.037c2.099 0 3.801-1.702 3.801-3.801v-12.434c0-2.099-1.702-3.801-3.801-3.801z"/><path d="m466.269 189.583h-10.037c-2.055 0-3.722 1.666-3.722 3.722v12.592c0 2.055 1.666 3.722 3.722 3.722h10.037c2.099 0 3.801-1.702 3.801-3.801v-12.434c0-2.099-1.702-3.801-3.801-3.801z"/></g></g></g></svg>