<svg id="Layer_1" enable-background="new 0 0 509.97 509.97" height="512" viewBox="0 0 509.97 509.97" width="512" xmlns="http://www.w3.org/2000/svg"><g><g><g><path d="m386.103 452.301c-7.619 0-14.868-4.464-18.054-11.913l-44.888-104.942c-2.594-6.063-1.969-13.024 1.663-18.529 3.633-5.504 9.787-8.817 16.382-8.817h84.041c10.84 0 19.627 8.788 19.627 19.627s-8.787 19.626-19.627 19.626h-54.299l33.19 77.597c4.264 9.966-.36 21.501-10.326 25.764-2.516 1.077-5.133 1.587-7.709 1.587z" fill="#55696e"/></g></g><g><g><g><path d="m165.399 256.956c-2.595-1.597-3.403-4.995-1.806-7.59l26.46-42.988c1.597-2.595 4.995-3.403 7.59-1.806s3.403 4.995 1.806 7.59l-26.46 42.988c-1.596 2.594-4.994 3.403-7.59 1.806z" fill="#80868c"/></g></g><g><g><g><path d="m80.398 433.846c-4.903 0-8.877-3.975-8.877-8.877v-72.553c0-4.903 3.975-8.877 8.877-8.877s8.877 3.974 8.877 8.877v72.553c.001 4.903-3.974 8.877-8.877 8.877z" fill="#749dad"/></g></g><path d="m103.639 114.519c-19.56-1.388-36.543 13.343-37.931 32.903s13.343 36.543 32.903 37.931 36.543-13.343 37.931-32.903c1.389-19.56-13.342-36.543-32.903-37.931z" fill="#ba6746"/><g id="XMLID_1206_"><g><path d="m183.985 439.206-30.514-89.739-83.59-21.581c-10.323-2.665-16.531-13.194-13.866-23.517s13.198-16.53 23.517-13.866l93.685 24.187c6.299 1.626 11.356 6.317 13.451 12.477l33.871 99.61c3.432 10.094-1.968 21.059-12.062 24.491-10.098 3.433-21.061-1.97-24.492-12.062z" fill="#748488"/></g></g><g><path d="m39.743 341.743h78.65c.529-9.286 3.772-66.246 4.272-75.026l1.61-28.279c1.281-22.504-15.923-41.785-38.427-43.067l-6.172-.351c-23.526-1.34-43.244 17.67-42.735 41.253l2.179 100.914c.035 1.551.25 3.078.623 4.556z" fill="#ffda52"/></g><g id="XMLID_1205_"><g><path d="m128.893 360.985h-96.855c-6.707 0-12.368-4.989-13.21-11.643l-18.721-147.829c-.924-7.296 4.241-13.959 11.537-14.884 7.295-.924 13.959 4.242 14.883 11.538l17.247 136.186h85.119c7.354 0 13.316 5.962 13.316 13.316s-5.961 13.316-13.316 13.316z" fill="#87afb9"/></g></g><g><g><path d="m111.513 449.701-13.523-13.523h-36.335l-13.523 13.523c-3.467 3.467-9.088 3.467-12.554 0-3.467-3.467-3.467-9.088 0-12.554l16.123-16.123c1.665-1.665 3.923-2.6 6.277-2.6h43.689c2.354 0 4.612.935 6.277 2.6l16.124 16.123c3.467 3.467 3.467 9.088 0 12.555-3.467 3.466-9.088 3.466-12.555-.001z" fill="#55879b"/></g></g><g><g><path d="m320.303 309.335v128.548c0 7.963 6.455 14.418 14.418 14.418s14.418-6.455 14.418-14.418v-128.548z" fill="#965028"/></g></g><g id="XMLID_1203_"><g><path d="m107.982 276.983-19.013-20.698 1.554-18.435 21.041-4.527 13.277 14.454 54.804-16.585c8.502-2.573 17.483 2.234 20.056 10.737 2.573 8.504-2.234 17.483-10.738 20.057l-64.475 19.512c-5.924 1.792-12.335.026-16.506-4.515z" fill="#ba6746"/></g></g><g id="XMLID_1202_"><g><path d="m111.564 233.323-23.984-26.11c-6.009-6.543-16.186-6.975-22.729-.964-6.543 6.01-6.975 16.186-.965 22.73l25.083 27.306z" fill="#ffc305"/></g></g><g><g><g><path d="m160.843 309.335v128.548c0 7.963 6.455 14.418 14.418 14.418s14.418-6.455 14.418-14.418v-128.548z" fill="#965028"/></g></g></g><g><g><path d="m369.639 307.634c0 3.913-3.172 7.085-7.085 7.085h-215.127c-3.913 0-7.085-3.172-7.085-7.085v-25.614c0-3.913 3.172-7.085 7.085-7.085h215.127c3.913 0 7.085 3.172 7.085 7.085z" fill="#a56941"/></g></g></g></g><g><g><path d="m352.792 252.428c2.595-1.597 3.403-4.995 1.806-7.59l-26.447-42.365c-1.597-2.595-4.995-3.403-7.59-1.806s-3.403 4.995-1.806 7.59l26.447 42.365c1.596 2.593 4.994 3.403 7.59 1.806z" fill="#80868c"/></g></g><g><g><g><path d="m429.572 433.846c4.903 0 8.877-3.975 8.877-8.877v-72.553c0-4.903-3.975-8.877-8.877-8.877-4.903 0-8.877 3.974-8.877 8.877v72.553c-.001 4.903 3.974 8.877 8.877 8.877z" fill="#749dad"/></g></g><g id="XMLID_1201_"><circle cx="408.845" cy="149.936" fill="#80391b" r="35.506"/></g><g><path d="m470.227 341.743h-78.65c-.529-9.286-3.772-66.246-4.272-75.026l-1.259-22.108c-1.475-25.912 18.335-48.115 44.247-49.59 23.526-1.34 43.244 17.67 42.735 41.253l-2.179 100.914c-.034 1.552-.249 3.079-.622 4.557z" fill="#e64937"/></g><g id="XMLID_1200_"><g><path d="m381.077 360.985h96.855c6.707 0 12.368-4.989 13.21-11.643l18.721-147.829c.924-7.296-4.241-13.959-11.537-14.884-7.295-.924-13.959 4.242-14.883 11.538l-17.247 136.186h-85.119c-7.354 0-13.316 5.962-13.316 13.316s5.962 13.316 13.316 13.316z" fill="#87afb9"/></g></g><g><g><path d="m398.457 449.701 13.524-13.523h36.334l13.523 13.523c3.467 3.467 9.088 3.467 12.554 0 3.467-3.467 3.467-9.088 0-12.554l-16.123-16.123c-1.665-1.665-3.923-2.6-6.277-2.6h-43.689c-2.354 0-4.612.935-6.277 2.6l-16.124 16.123c-3.467 3.467-3.467 9.088 0 12.555 3.467 3.466 9.088 3.466 12.555-.001z" fill="#55879b"/></g></g><g id="XMLID_1199_"><g><path d="m401.988 276.983 20.773-22.614-6.353-17.576-18.002-3.47-13.277 14.454-54.804-16.585c-8.502-2.573-17.483 2.234-20.056 10.737-2.573 8.504 2.234 17.483 10.738 20.057l64.475 19.512c5.924 1.792 12.335.026 16.506-4.515z" fill="#80391b"/></g></g><g id="XMLID_1198_"><g><path d="m398.406 233.323 23.984-26.11c6.009-6.543 16.186-6.975 22.729-.964 6.543 6.01 6.975 16.186.965 22.73l-23.323 25.391z" fill="#d13d2c"/></g></g></g><g><g><path d="m219.842 171.777c-1.446-2.353-.711-5.432 1.642-6.878l26.684-16.403c2.354-1.445 5.432-.71 6.878 1.641 1.446 2.353.711 5.432-1.642 6.878l-26.684 16.403c-2.368 1.455-5.441.696-6.878-1.641z" fill="#ffda52"/></g><g><path d="m172.135 201.104c-1.446-2.353-.711-5.432 1.642-6.878l26.684-16.403c2.354-1.445 5.432-.71 6.878 1.641 1.446 2.353.711 5.432-1.642 6.878l-26.684 16.403c-2.368 1.454-5.441.696-6.878-1.641z" fill="#ffda52"/></g><g><path d="m213.247 168.286c-2.697 0-4.92-2.148-4.995-4.862l-.864-31.31c-.076-2.761 2.1-5.06 4.86-5.136 2.74-.079 5.06 2.099 5.136 4.86l.864 31.31c.076 2.761-2.1 5.06-4.86 5.136-.047.001-.094.002-.141.002z" fill="#ffda52"/></g><g><path d="m214.791 224.265c-2.697 0-4.92-2.148-4.995-4.862l-.864-31.31c-.076-2.761 2.1-5.06 4.86-5.136 2.739-.088 5.06 2.1 5.136 4.86l.864 31.31c.076 2.761-2.1 5.06-4.86 5.136-.047.001-.094.002-.141.002z" fill="#ffda52"/></g><g><path d="m200.358 174.145-27.548-14.907c-2.429-1.314-3.332-4.349-2.018-6.777 1.313-2.428 4.344-3.333 6.777-2.018l27.548 14.907c2.429 1.314 3.332 4.349 2.018 6.777-1.312 2.425-4.342 3.334-6.777 2.018z" fill="#ffda52"/></g><g><path d="m249.609 200.798-27.548-14.907c-2.429-1.314-3.332-4.349-2.018-6.777 1.313-2.428 4.344-3.334 6.777-2.018l27.548 14.907c2.429 1.314 3.332 4.349 2.018 6.777-1.312 2.424-4.342 3.334-6.777 2.018z" fill="#ffda52"/></g></g><g><g><path d="m309.777 169.441c-1.446-2.353-.711-5.432 1.642-6.878l26.684-16.403c2.354-1.445 5.433-.71 6.878 1.641 1.446 2.353.711 5.432-1.642 6.878l-26.684 16.403c-2.368 1.454-5.441.696-6.878-1.641z" fill="#ffda52"/></g><g><path d="m262.07 198.767c-1.446-2.353-.711-5.432 1.642-6.878l26.684-16.403c2.354-1.445 5.432-.71 6.878 1.641 1.446 2.353.711 5.432-1.642 6.878l-26.684 16.403c-2.368 1.454-5.441.696-6.878-1.641z" fill="#ffda52"/></g><g><path d="m303.181 165.949c-2.697 0-4.92-2.148-4.995-4.862l-.863-31.31c-.076-2.76 2.1-5.06 4.86-5.136 2.732-.086 5.06 2.1 5.136 4.86l.863 31.31c.076 2.76-2.1 5.06-4.86 5.136-.047.002-.094.002-.141.002z" fill="#ffda52"/></g><g><path d="m304.725 221.928c-2.697 0-4.92-2.148-4.995-4.862l-.863-31.31c-.076-2.76 2.1-5.06 4.86-5.136 2.731-.095 5.06 2.1 5.136 4.86l.863 31.31c.076 2.76-2.1 5.06-4.86 5.136-.047.002-.094.002-.141.002z" fill="#ffda52"/></g><g><path d="m290.293 171.809-27.547-14.907c-2.429-1.314-3.332-4.349-2.018-6.777s4.347-3.332 6.777-2.018l27.547 14.907c2.429 1.314 3.332 4.349 2.018 6.777-1.31 2.421-4.339 3.336-6.777 2.018z" fill="#ffda52"/></g><g><path d="m339.544 198.461-27.547-14.907c-2.429-1.314-3.332-4.349-2.018-6.777s4.346-3.332 6.777-2.018l27.547 14.907c2.429 1.314 3.332 4.349 2.018 6.777-1.31 2.42-4.339 3.336-6.777 2.018z" fill="#ffda52"/></g></g><g fill="#fa503c"><path d="m95.637 74.935 12.589-9.401-2.051-4.613c-1.927-4.335-8.08-4.335-10.008 0l-5.643 12.691z"/><path d="m92.494 109.91 27.108-18.79-5.282-11.88-18.27 3.187-14.724 11.87-7.971 17.927z"/><path d="m112.007 131.196 18.972-14.49-5.282-11.879-31.46 11.408-30.441 17.486c-1.61 3.622 1.041 7.701 5.004 7.701h8.015z"/><path d="m138.544 133.721-1.471-3.308-23.343 7.527-.784 3.483h20.593c3.965-.001 6.616-4.08 5.005-7.702z"/></g><path d="m446.219 140.561-20.583-46.291-4.743-4.015.378-5.801-7.423-16.694c-1.927-4.335-8.08-4.335-10.008 0l-18.349 41.269-2.282 16.75-10.281 11.503-1.458 3.279c-1.61 3.621 1.041 7.701 5.004 7.701h64.74c3.964.001 6.615-4.079 5.005-7.701z" fill="#64afff"/><g><path d="m379.432 138.731c8.543 0 15.468-6.925 15.468-15.468 0-6.392-3.878-11.876-9.409-14.234l-12.563 28.253c1.98.921 4.178 1.449 6.504 1.449z" fill="#fff"/></g><path d="m420.893 120.874c-4.931 0-8.929 3.998-8.929 8.929s3.997 8.928 8.929 8.928 8.929-3.997 8.929-8.928c0-4.932-3.998-8.929-8.929-8.929z" fill="#fff"/><g><path d="m421.272 84.455c-1.804-1.334-4.028-2.132-6.444-2.132-6 0-10.863 4.864-10.863 10.863s4.864 10.863 10.863 10.863c5.633 0 10.264-4.288 10.808-9.778z" fill="#fff"/></g><g><g><path d="m137.074 130.413-6.095-13.707-54.163 24.716h36.131z" fill="#fff"/></g><g><path d="m81.326 94.297 32.994-15.057-6.094-13.706-17.702 8.078z" fill="#fff"/></g><g><path d="m125.697 104.827-6.095-13.707-46.247 21.104-9.197 20.685z" fill="#fff"/></g></g></g></svg>