<svg id="Layer_1" enable-background="new 0 0 511.701 511.701" height="512" viewBox="0 0 511.701 511.701" width="512" xmlns="http://www.w3.org/2000/svg"><g><g><g><path d="m336.312 216.32h10.518v58.905h-10.518z" fill="#d1e7ed"/></g><g><path d="m352.791 280.484h-22.44c-2.904 0-5.259-2.355-5.259-5.259s2.355-5.259 5.259-5.259h22.44c2.904 0 5.259 2.355 5.259 5.259s-2.355 5.259-5.259 5.259z" fill="#ebf4f7"/></g><path d="m353.877 172.142h-24.613c-2.65 0-4.799 2.149-4.799 4.799v22.041l17.105 17.084 17.105-17.084v-22.041c.001-2.651-2.147-4.799-4.798-4.799z" fill="#ebf4f7"/><g><path d="m324.466 198.982v17.063c0 9.447 7.658 17.105 17.105 17.105s17.105-7.658 17.105-17.105v-17.063z" fill="#ffda52"/></g></g><g id="XMLID_915_"><g><path d="m198.027 511.701c-.014 0-.027 0-.041 0-10.437-.022-18.879-8.5-18.857-18.937l.359-169.7c.022-10.422 8.479-18.857 18.896-18.857h.041c10.437.022 19.081 8.5 19.06 18.937v169.7c-.022 10.423-9.041 18.857-19.458 18.857z" fill="#414b82"/></g></g><g id="XMLID_914_"><g><path d="m94.159 476.785-7.488-85.663c-.32-3.666.437-7.345 2.177-10.587l39.395-73.346c4.938-9.195 16.396-12.645 25.589-7.707 9.194 4.938 12.645 16.395 7.706 25.589l-36.725 68.377 6.997 80.045c.909 10.397-6.782 19.562-17.18 20.471-10.386.909-19.562-6.77-20.471-17.179z" fill="#5f6e9b"/></g></g><path d="m173.207 103.608c-19.775-.213-35.978 15.645-36.192 35.42s15.645 35.978 35.42 36.192 35.979-15.645 36.192-35.42-15.645-35.979-35.42-36.192z" fill="#ffb69e"/><g fill="#ffb69e"><path d="m101.894 173.477-8.149-2.544-37.265-68.229c-4.296-7.863-14.149-10.756-22.015-6.462-7.863 4.295-10.757 14.151-6.462 22.015l40.362 73.901c1.989 3.642 5.299 6.383 9.247 7.66l15.847 5.124 10.466-13.979z"/><path d="m189.819 187.41-.519-2.156h-31.817l-.517 2.138c-2.569 10.632 5.486 20.866 16.424 20.866 10.93 0 18.985-10.221 16.429-20.848z"/><path d="m320.939 157.595c-7.139-6.002-17.761-4.766-23.353 2.566l-31.76 41.633-13.644-4.118-11.879 11.327 5.904 20.987 21.459 6.018c6.358 1.783 13.222-.462 17.279-5.781l38.158-50.02c5.298-6.944 4.522-16.991-2.164-22.612z"/></g><path d="m221.659 188.464c-7.052-2.128-14.379-3.21-21.746-3.21h-10.613c.153 8.447-7.706 15.574-15.922 15.574-8.806 0-15.346-7.101-15.896-15.574h-17.864l-37.725-11.777-8.434 31.465 32.652 10.846v82.964c-.191 17.693 13.997 32.511 31.69 32.702h59.683v-109.246l28.722 7.782 5.975-32.314z" fill="#64afff"/><g><g><path d="m41.064 144.297c-3.132-.492-5.271-3.429-4.78-6.561l11.33-72.154c.493-3.131 3.428-5.27 6.562-4.78 3.132.492 5.271 3.429 4.78 6.561l-11.33 72.154c-.493 3.132-3.429 5.272-6.562 4.78z" fill="#82878c"/></g><g><path d="m61.916 30.691c-1.64-1.333-1.888-3.744-.555-5.383l15.126-18.597c1.335-1.64 3.746-1.887 5.383-.554 1.64 1.333 1.888 3.744.555 5.383l-15.126 18.597c-1.337 1.642-3.748 1.885-5.383.554z" fill="#ffda52"/></g><g><path d="m34.874 63.941c-1.64-1.333-1.888-3.744-.555-5.383l15.125-18.598c1.333-1.64 3.745-1.887 5.383-.554 1.64 1.333 1.888 3.744.555 5.383l-15.125 18.597c-1.333 1.64-3.745 1.888-5.383.555z" fill="#ffda52"/></g><g><path d="m51.432 27.589-8.544-22.397c-.753-1.975.236-4.186 2.211-4.939 1.979-.754 4.187.237 4.939 2.211l8.544 22.397c.753 1.975-.236 4.186-2.211 4.939-1.979.755-4.188-.24-4.939-2.211z" fill="#ffda52"/></g><g><path d="m66.705 67.633-8.543-22.397c-.753-1.975.237-4.186 2.212-4.939 1.975-.754 4.186.237 4.938 2.211l8.543 22.397c.753 1.975-.237 4.186-2.212 4.939-1.964.752-4.182-.229-4.938-2.211z" fill="#ffda52"/></g><g><path d="m48.441 37.33-23.668-3.8c-2.087-.335-3.507-2.298-3.172-4.385s2.307-3.501 4.385-3.172l23.668 3.8c2.087.335 3.507 2.298 3.172 4.385-.332 2.072-2.281 3.507-4.385 3.172z" fill="#ffda52"/></g><g><path d="m90.758 44.124-23.668-3.8c-2.087-.335-3.507-2.298-3.172-4.385s2.308-3.504 4.385-3.172l23.668 3.8c2.087.335 3.507 2.298 3.172 4.385-.333 2.073-2.282 3.508-4.385 3.172z" fill="#ffda52"/></g></g><g><g id="XMLID_34_"><g><path d="m429.185 350.432-.366 141.811c-.028 10.706 8.619 19.412 19.325 19.457h.051c10.667.045 19.346-8.575 19.374-19.242l.367-141.926c.028-10.72-8.655-19.425-19.375-19.425-10.682 0-19.348 8.644-19.376 19.325z" fill="#ffb69e"/></g></g><g id="XMLID_23_"><g><path d="m401.075 511.701c-.001 0-.001 0-.002 0-10.7-.001-19.375-8.677-19.373-19.377l.013-141.893c.002-10.699 8.677-19.374 19.376-19.374h.002c10.7.001 19.375 8.677 19.373 19.377l-.013 141.893c-.001 10.7-8.677 19.374-19.376 19.374z" fill="#ffb69e"/></g></g><g id="XMLID_14_"><path d="m358.466 388.179c-.352 2.246.757 4.552 2.963 5.637.74.364 1.569.514 2.394.514h120.905c.823 0 1.649-.149 2.388-.511 2.202-1.079 3.314-3.377 2.972-5.619l-27.01-176.959c-2-13.102-13.267-22.78-26.52-22.78h-23.871c-13.215 0-24.461 9.623-26.505 22.678z" fill="#ff6473"/></g><circle cx="422.49" cy="139.51" fill="#ffb69e" r="35.702"/><g id="XMLID_12_"><g><path d="m376.223 283.911-49.685-29.311c-7.776-4.588-10.361-14.611-5.773-22.387s14.613-10.361 22.388-5.774l37.419 22.075 14.495-18.274 20.532 2.909 4.866 17.685-23.126 29.155c-5.066 6.387-14.076 8.076-21.116 3.922z" fill="#ffb69e"/></g></g><g id="XMLID_11_"><g><path d="m420.464 250.835 24.312-30.65c5.611-7.074 4.425-17.357-2.649-22.968-7.073-5.61-17.356-4.425-22.968 2.649l-24.093 30.375z" fill="#f24c64"/></g></g></g><g><g><path d="m300.255 149.344h10.518v58.905h-10.518z" fill="#d1e7ed"/></g><g><path d="m316.735 213.508h-22.44c-2.904 0-5.259-2.355-5.259-5.259 0-2.905 2.355-5.259 5.259-5.259h22.44c2.904 0 5.259 2.355 5.259 5.259 0 2.905-2.355 5.259-5.259 5.259z" fill="#ebf4f7"/></g><path d="m317.821 105.166h-24.612c-2.651 0-4.799 2.149-4.799 4.799v22.041l17.105 17.084 17.105-17.084v-22.041c0-2.651-2.149-4.799-4.799-4.799z" fill="#ebf4f7"/><g><path d="m288.409 132.006v17.063c0 9.447 7.658 17.105 17.105 17.105s17.105-7.658 17.105-17.105v-17.063z" fill="#ffda52"/></g></g></g></svg>