<svg id="Layer_1" enable-background="new 0 0 510.689 510.689" height="512" viewBox="0 0 510.689 510.689" width="512" xmlns="http://www.w3.org/2000/svg"><g><g><g><path d="m111.804 160.245c-36.212 0-65.672-29.46-65.672-65.672s29.461-65.673 65.672-65.673 65.672 29.461 65.672 65.672-29.46 65.673-65.672 65.673z" fill="#fff"/></g></g><g id="XMLID_889_"><g><path d="m322.673 510.689c-11.992 0-21.712-9.721-21.712-21.712v-173.552c0-11.992 9.721-21.712 21.712-21.712s21.712 9.721 21.712 21.712v173.551c0 11.992-9.72 21.713-21.712 21.713z" fill="#414b82"/></g></g><g id="XMLID_890_"><g><path d="m270.258 510.689c-11.992 0-21.712-9.721-21.712-21.712v-173.552c0-11.992 9.721-21.712 21.712-21.712s21.712 9.721 21.712 21.712v173.551c0 11.992-9.72 21.713-21.712 21.713z" fill="#5f6e9b"/></g></g><ellipse cx="296.269" cy="106.161" fill="#ffb69e" rx="37.5" ry="37.5" transform="matrix(.924 -.383 .383 .924 -18.074 121.458)"/><g><g fill="#ffb69e"><path d="m316.547 164.489-.576-4.89h-38.523l-.553 5.055c-1.293 11.809 7.956 22.125 19.836 22.125 11.945.001 21.214-10.425 19.816-22.29z"/><path d="m475.182 141.697c-3.597-8.334-13.22-12.286-21.659-8.83l-64.655 26.733h-9.276l-10.24 15.19 10.24 17.958h12.564c2.171 0 4.321-.423 6.33-1.246l67.293-27.565c8.66-3.547 13.112-13.647 9.403-22.24z"/></g></g><g><g><path d="m315.97 159.6c.334 10.319-9.258 19.07-19.272 19.07-10.733 0-18.69-8.718-19.251-19.07h-13.643c-12.015 0-23.31 5.726-30.412 15.417l-22.208 29.513 11.207 15.512 14.306 6.471c.116 0 .224.013.338.017l11.509-15.717v104.614h95.84v-122.679h35.207v-33.148z" fill="#64afff"/></g></g><path d="m269.944 275.452c-7.572-8.698-29.755-34.18-37.331-42.882l4.423-6.041-25.851-22-13.4 19.075c-4.61 6.295-4.246 14.944.877 20.829l46.092 52.946c6.06 6.962 16.609 7.68 23.558 1.63 6.957-6.054 7.687-16.602 1.632-23.557z" fill="#ffb69e"/><g><g><g><path d="m428.669 74.943-27.071-15.754c-2.387-1.389-3.195-4.45-1.806-6.836 1.388-2.386 4.449-3.195 6.836-1.806l27.071 15.753c2.387 1.389 3.195 4.45 1.806 6.836-1.381 2.376-4.437 3.203-6.836 1.807z" fill="#ffda52"/></g></g><g><g><path d="m380.269 46.776-27.072-15.754c-2.386-1.389-3.195-4.45-1.806-6.836s4.449-3.197 6.836-1.806l27.072 15.754c2.386 1.389 3.195 4.45 1.806 6.836s-4.451 3.196-6.836 1.806z" fill="#ffda52"/></g></g><g><g><path d="m399.816 45.014c-1.372-2.396-.542-5.452 1.854-6.824l27.179-15.568c2.397-1.373 5.452-.542 6.824 1.854 1.373 2.396.542 5.452-1.854 6.824l-27.179 15.568c-2.4 1.374-5.453.538-6.824-1.854z" fill="#ffda52"/></g></g><g><g><path d="m351.223 72.846c-1.373-2.396-.542-5.451 1.854-6.824l27.18-15.567c2.394-1.373 5.451-.543 6.824 1.854 1.373 2.396.542 5.451-1.854 6.824l-27.181 15.567c-2.391 1.37-5.448.547-6.823-1.854z" fill="#ffda52"/></g></g><g><g><path d="m393.491 41.322c-.006 0-.012 0-.018 0-2.761-.009-4.992-2.256-4.983-5.017l.107-31.322c.009-2.761 2.233-4.978 5.017-4.983 2.761.009 4.992 2.256 4.983 5.017l-.107 31.322c-.008 2.755-2.245 4.983-4.999 4.983z" fill="#ffda52"/></g></g><g><g><path d="m393.298 97.322c-.006 0-.012 0-.018 0-2.762-.01-4.992-2.256-4.983-5.017l.108-31.322c.01-2.756 2.246-4.983 5-4.983h.018c2.762.01 4.992 2.256 4.983 5.017l-.108 31.322c-.009 2.756-2.246 4.983-5 4.983z" fill="#ffda52"/></g></g></g><g><g><path d="m111.804 172.185c-42.795 0-77.612-34.816-77.612-77.612s34.817-77.613 77.612-77.613 77.612 34.817 77.612 77.612-34.816 77.613-77.612 77.613zm0-135.225c-31.767 0-57.612 25.845-57.612 57.612s25.845 57.612 57.612 57.612c31.768 0 57.612-25.845 57.612-57.612.001-31.767-25.844-57.612-57.612-57.612z" fill="#6c9baa"/></g></g><g><g><path d="m111.801 100.574c-2.512 0-4.817-1.584-5.667-4.039l-13.766-39.779c-1.084-3.132.576-6.549 3.708-7.632 3.132-1.085 6.549.576 7.632 3.708l1.718 4.963c.998-1.017 2.36-1.683 3.894-1.782 3.308-.213 6.16 2.295 6.374 5.602l2.1 32.573c.193 2.997-1.859 5.675-4.803 6.268-.4.079-.798.118-1.19.118z" fill="#bcdde8"/></g></g><g fill="#6c9baa"><circle cx="111.663" cy="139.014" r="3.625"/><circle cx="111.663" cy="52.014" r="3.625"/></g><g fill="#6c9baa"><circle cx="68.163" cy="95.514" r="3.625"/><circle cx="155.163" cy="95.514" r="3.625"/></g><g><g><path d="m446.224 129.021h10.518v58.905h-10.518z" fill="#d1e7ed"/></g><g><path d="m462.703 193.185h-22.44c-2.904 0-5.259-2.355-5.259-5.259s2.355-5.259 5.259-5.259h22.44c2.904 0 5.259 2.355 5.259 5.259s-2.355 5.259-5.259 5.259z" fill="#ebf4f7"/></g><path d="m463.789 84.842h-24.613c-2.65 0-4.799 2.149-4.799 4.799v22.041l17.105 15.32 17.105-15.32v-22.041c.001-2.65-2.147-4.799-4.798-4.799z" fill="#ebf4f7"/><g><path d="m434.378 111.682v17.063c0 9.447 7.658 17.105 17.105 17.105s17.105-7.658 17.105-17.105v-17.063z" fill="#ffda52"/></g></g></g></svg>