<svg id="Layer_1" enable-background="new 0 0 511.32 511.32" height="512" viewBox="0 0 511.32 511.32" width="512" xmlns="http://www.w3.org/2000/svg"><g><g><g><g><path d="m311.273 151.212h10.518v58.905h-10.518z" fill="#d1e7ed" transform="matrix(.991 -.131 .131 .991 -20.956 43.064)"/></g><g><path d="m332.207 213.605-22.246 2.942c-2.879.381-5.523-1.645-5.903-4.524-.381-2.88 1.645-5.523 4.524-5.904l22.246-2.942c2.879-.381 5.523 1.645 5.903 4.524.381 2.88-1.645 5.523-4.524 5.904z" fill="#ebf4f7"/></g><path d="m327.355 132.034-2.89-21.851c-.348-2.628-2.759-4.476-5.387-4.128l-24.4 3.227c-2.628.348-4.476 2.759-4.128 5.387l2.89 21.851 19.891 13.647z" fill="#ebf4f7"/><g><path d="m293.44 136.52 2.237 16.916c1.239 9.365 9.835 15.953 19.201 14.715 9.365-1.239 15.953-9.835 14.715-19.2l-2.237-16.916z" fill="#ffda52"/></g></g><g><g><g id="XMLID_975_"><g><path d="m85.923 511.32c-13.458 0-24.367-10.91-24.367-24.367v-194.77c0-13.458 10.91-24.367 24.367-24.367s24.367 10.91 24.367 24.367v194.77c0 13.457-10.91 24.367-24.367 24.367z" fill="#748488"/></g></g><g id="XMLID_974_"><g><path d="m144.745 511.32c-13.458 0-24.367-10.91-24.367-24.367v-194.77c0-13.458 10.91-24.367 24.367-24.367s24.367 10.91 24.367 24.367v194.77c.001 13.457-10.909 24.367-24.367 24.367z" fill="#55696e"/></g></g><g fill="#ba6746"><g><path d="m32.113 180.815-20.306 8.511v105.354c0 11.215 9.092 20.306 20.306 20.306s20.306-9.092 20.306-20.306v-105.354z"/><path d="m138.852 101.784-.413-4.2h-47.288l-.402 4.335c-1.313 14.164 9.833 26.392 24.058 26.392 14.279 0 25.443-12.316 24.045-26.527z"/><path d="m281.41 132.718c-7.425-8.406-20.257-9.2-28.662-1.776l-34.321 30.314-22.559 11.318-18.053 16.751v16.959c0 17.461 20.666 26.774 33.749 15.219l68.069-60.124c8.406-7.423 9.201-20.255 1.777-28.661z"/></g><ellipse cx="115.118" cy="42.085" rx="42.085" ry="42.085" transform="matrix(.987 -.16 .16 .987 -5.255 18.983)"/></g></g></g><g><g><g><g><path d="m302.36 43.973c-.007 0-.014 0-.02 0-2.883-.011-5.212-2.358-5.201-5.241l.113-29.574c.011-2.877 2.346-5.201 5.221-5.201h.02c2.883.011 5.212 2.358 5.201 5.241l-.113 29.574c-.012 2.877-2.347 5.201-5.221 5.201z" fill="#ffda52"/></g></g></g><g><g><g><path d="m285.838 51.234-25.555-14.885c-2.492-1.451-3.335-4.647-1.883-7.139 1.451-2.492 4.648-3.336 7.139-1.883l25.555 14.885c2.492 1.451 3.335 4.647 1.883 7.139-1.446 2.483-4.64 3.339-7.139 1.883z" fill="#ffda52"/></g></g></g><g><g><g><path d="m311.677 49.393c-1.433-2.502-.565-5.692 1.938-7.124l25.668-14.69c2.505-1.43 5.692-.563 7.125 1.939 1.432 2.502.564 5.692-1.939 7.124l-25.668 14.69c-2.502 1.431-5.691.564-7.124-1.939z" fill="#ffda52"/></g></g></g></g><g><g id="XMLID_35_"><g><g><path d="m427.094 320.895v167.45c-.033 12.641 10.178 22.921 22.819 22.975h.06c12.596.053 22.844-10.125 22.877-22.721v-167.586c.033-12.658-9.787-22.937-22.445-22.937-12.613 0-23.279 10.207-23.311 22.819z" fill="#ffb69e"/></g></g></g><g id="XMLID_31_"><g><g><path d="m394.335 511.32c-.001 0-.001 0-.002 0-12.635-.001-22.878-10.245-22.876-22.881l.015-167.546c.002-12.634 10.246-22.876 22.879-22.876h.002c12.635.001 22.878 10.245 22.876 22.881l-.015 167.546c-.003 12.633-10.246 22.876-22.879 22.876z" fill="#ffb69e"/></g></g></g><path d="m499.44 365.49-33.235-217.742c-1.59-10.414-10.546-18.107-21.081-18.107h-45.937c-10.504 0-19.444 7.649-21.068 18.027l-34.096 217.799c-.597 3.812 2.354 7.263 6.214 7.263h142.985c3.848-.001 6.799-3.433 6.218-7.24z" fill="#ff6473"/><ellipse cx="419.621" cy="71.839" fill="#ffb69e" rx="42.156" ry="42.157" transform="matrix(.383 -.924 .924 .383 192.669 432.027)"/><g id="XMLID_19_"><g><g><path d="m364.989 242.347-58.667-34.611c-9.182-5.417-12.234-17.252-6.817-26.435 5.417-9.182 17.254-12.234 26.435-6.818l44.183 26.066 20.408-25.729 23.663 1.412 6.13 23.154-30.402 38.329c-5.982 7.542-16.62 9.537-24.933 4.632z" fill="#ffb69e"/></g></g></g><g id="XMLID_17_"><g><g><path d="m420.324 199.389 25.612-32.289c6.626-8.353 5.225-20.495-3.127-27.12s-20.494-5.225-27.12 3.128l-25.157 31.715z" fill="#f24c64"/></g></g></g></g><g><g><path d="m237.268 130.926h58.905v10.518h-58.905z" fill="#d1e7ed" transform="matrix(.205 -.979 .979 .205 78.659 369.25)"/></g><g><path d="m270.572 172.461-21.961-4.609c-2.842-.596-4.663-3.385-4.067-6.227s3.385-4.664 6.227-4.067l21.961 4.609c2.842.596 4.663 3.385 4.067 6.227-.596 2.843-3.384 4.664-6.227 4.067z" fill="#ebf4f7"/></g><path d="m293.887 66.651-24.088-5.055c-2.594-.544-5.138 1.117-5.682 3.711l-4.527 21.571 14.804 16.862 18.677-9.835 4.527-21.571c.545-2.594-1.117-5.138-3.711-5.683z" fill="#ebf4f7"/><g><path d="m259.59 86.878-3.504 16.699c-1.94 9.245 3.982 18.313 13.228 20.254 9.246 1.94 18.314-3.982 20.254-13.227l3.504-16.699z" fill="#ffda52"/></g></g></g><g><path d="m169.624 97.584h-31.186c.514 12.732-11.307 23.559-23.647 23.559-13.226 0-23.026-10.786-23.64-23.559h-30.54c-26.778 0-48.67 21.448-48.803 47.812v.102 43.827h40.612v-43.761c.043-3.861 3.937-7.369 8.191-7.369h.944v153.986h107.557v-153.985h.512c4.268 0 8.172 3.529 8.191 7.303v43.827l26.376-14.281 14.236-13.788v-15.859c-.132-26.365-22.024-47.814-48.803-47.814z" fill="#ffda52"/></g></g></svg>