<svg id="Layer_1" enable-background="new 0 0 511.282 511.282" height="512" viewBox="0 0 511.282 511.282" width="512" xmlns="http://www.w3.org/2000/svg"><g><g id="XMLID_907_"><path d="m292.28 511.282c-12.483 0-22.603-10.119-22.603-22.603v-180.664c0-12.483 10.12-22.603 22.603-22.603s22.602 10.119 22.602 22.603v180.664c0 12.484-10.12 22.603-22.602 22.603z" fill="#414b82"/></g><g id="XMLID_908_"><path d="m237.717 511.282c-12.483 0-22.603-10.119-22.603-22.603v-180.664c0-12.483 10.119-22.603 22.603-22.603 12.483 0 22.603 10.119 22.603 22.603v180.664c-.001 12.484-10.12 22.603-22.603 22.603z" fill="#5f6e9b"/></g><g fill="#ffb69e"><ellipse cx="264.794" cy="92.711" rx="39.037" ry="39.037" transform="matrix(.16 -.987 .987 .16 130.864 339.235)"/><path d="m285.988 151.988-.615-5.828h-38.308l-.629 5.758c-1.285 11.769 7.933 22.048 19.772 22.048 11.812 0 21.021-10.232 19.78-21.978z"/><path d="m445.891 98.127c-7.467-6.033-18.412-4.87-24.445 2.598l-41.575 51.466-20.036-1.773-9.655 14.361 5.65 20.146 30.164 2.726c5.849.526 11.481-1.926 15.085-6.389l47.412-58.69c6.032-7.468 4.868-18.413-2.6-24.445z"/><path d="m181.747 164.302-6.033-18.142h-23.145l-46.078-46.7c-6.731-6.844-17.737-6.936-24.582-.206-6.845 6.732-6.937 17.737-.206 24.582l51.218 52.081c3.268 3.324 7.734 5.194 12.394 5.194h.076l30.323-.134z"/></g><path d="m311.715 146.16h-26.342c.003.064.014.127.017.192.464 10.348-9.138 19.161-19.161 19.161-10.742 0-18.696-8.78-19.161-19.161-.003-.064-.001-.128-.003-.192h-71.352v34.818l39.401-.174v127.21h99.767v-126.789l40.947 3.7 4.006-34.507z" fill="#64afff"/><g><g fill="#fa503c"><path d="m253.294 38.046 20.658-27.725-3.573-6.919c-2.342-4.536-8.828-4.536-11.17 0l-23.13 44.793z"/><path d="m277.464 63.159 12.854-21.144-8.927-17.288-26.574 19.173-24.145 31.274c.529.145 1.092.222 1.68.222h24.586z"/><path d="m302.82 66.226-5.062-9.803-16.265 10.766-2.709 8.208h18.451c4.709-.001 7.746-4.987 5.585-9.171z"/></g><path d="m281.391 24.728-7.439-14.407-37.874 37.874-9.311 18.031c-1.928 3.733.288 8.095 4.132 8.993z" fill="#fff"/><path d="m278.784 75.396 18.974-18.974-7.44-14.406-33.379 33.38z" fill="#fff"/></g><g><g><path d="m428.164 95.5h10.518v58.905h-10.518z" fill="#d1e7ed"/></g><g><path d="m444.643 159.664h-22.44c-2.904 0-5.259-2.355-5.259-5.259 0-2.905 2.355-5.259 5.259-5.259h22.44c2.904 0 5.259 2.355 5.259 5.259 0 2.905-2.355 5.259-5.259 5.259z" fill="#ebf4f7"/></g><path d="m445.729 51.322h-24.613c-2.651 0-4.799 2.149-4.799 4.799v22.041l17.105 11.286 17.105-11.286v-22.041c.001-2.651-2.147-4.799-4.798-4.799z" fill="#ebf4f7"/><g><path d="m416.318 78.162v17.063c0 9.447 7.658 17.105 17.105 17.105s17.105-7.658 17.105-17.105v-17.063z" fill="#ffda52"/></g></g><g><path d="m112.888 124.643 7.23-41.719-9.468-7.705-11.705 4.035-7.23 41.719c-9.701 2.486-17.537 10.435-19.358 20.942l-13.3 76.742c-.798 4.604 2.287 8.982 6.891 9.78l35.043 6.073c4.604.798 8.982-2.287 9.78-6.891l13.3-76.742c1.82-10.506-2.885-20.629-11.183-26.234z" fill="#468423"/><path d="m108.113 195.553 4.129-23.825c.661-3.814-1.895-7.441-5.709-8.102l-21.952-3.804c-3.814-.661-7.441 1.895-8.102 5.709l-4.129 23.825c-.661 3.814 1.895 7.441 5.709 8.102l21.952 3.804c3.813.661 7.441-1.895 8.102-5.709z" fill="#6eaa50"/><path d="m120.118 82.924 2.164-12.484c.469-2.705-1.344-5.278-4.049-5.746l-11.378-1.972c-2.705-.469-5.278 1.344-5.746 4.049l-2.164 12.484z" fill="#dcbe82"/></g></g></svg>