<svg id="Layer_1" enable-background="new 0 0 510.564 510.564" height="512" viewBox="0 0 510.564 510.564" width="512" xmlns="http://www.w3.org/2000/svg"><g><g><path d="m315.699 299.281h30v196.283h-30z" fill="#823214"/></g><g><g><path d="m402.254 219.89h10.518v58.905h-10.518z" fill="#d1e7ed"/></g><g><path d="m418.733 284.054h-22.44c-2.904 0-5.259-2.355-5.259-5.259s2.355-5.259 5.259-5.259h22.44c2.904 0 5.259 2.355 5.259 5.259s-2.355 5.259-5.259 5.259z" fill="#ebf4f7"/></g><path d="m419.82 175.711h-24.613c-2.65 0-4.799 2.149-4.799 4.799v22.041l17.105 18.907 17.105-18.907v-22.041c.001-2.65-2.148-4.799-4.798-4.799z" fill="#ebf4f7"/><g><path d="m390.408 202.551v17.063c0 9.447 7.658 17.105 17.105 17.105s17.105-7.658 17.105-17.105v-17.063z" fill="#ffda52"/></g></g><g><g><path d="m348.95 219.89h10.518v58.905h-10.518z" fill="#d1e7ed"/></g><g><path d="m365.429 284.054h-22.44c-2.904 0-5.259-2.355-5.259-5.259s2.355-5.259 5.259-5.259h22.44c2.904 0 5.259 2.355 5.259 5.259s-2.355 5.259-5.259 5.259z" fill="#ebf4f7"/></g><path d="m366.515 175.711h-24.613c-2.65 0-4.799 2.149-4.799 4.799v22.041l17.105 13.409 17.105-13.409v-22.041c.001-2.65-2.147-4.799-4.798-4.799z" fill="#ebf4f7"/><g><path d="m337.104 202.551v17.063c0 9.447 7.658 17.105 17.105 17.105s17.105-7.658 17.105-17.105v-17.063z" fill="#ffda52"/></g></g><g><g><path d="m295.645 219.89h10.518v58.905h-10.518z" fill="#d1e7ed"/></g><g><path d="m312.124 284.054h-22.44c-2.904 0-5.259-2.355-5.259-5.259s2.355-5.259 5.259-5.259h22.44c2.904 0 5.259 2.355 5.259 5.259s-2.354 5.259-5.259 5.259z" fill="#ebf4f7"/></g><path d="m313.211 175.711h-24.613c-2.65 0-4.799 2.149-4.799 4.799v22.041l17.105 12.352 17.105-12.352v-22.041c.001-2.65-2.148-4.799-4.798-4.799z" fill="#ebf4f7"/><g><path d="m283.799 202.551v17.063c0 9.447 7.658 17.105 17.105 17.105s17.105-7.658 17.105-17.105v-17.063z" fill="#ffda52"/></g></g><g><g><path d="m242.341 219.89h10.518v58.905h-10.518z" fill="#d1e7ed"/></g><g><path d="m258.82 284.054h-22.44c-2.904 0-5.259-2.355-5.259-5.259s2.355-5.259 5.259-5.259h22.44c2.904 0 5.259 2.355 5.259 5.259s-2.355 5.259-5.259 5.259z" fill="#ebf4f7"/></g><path d="m259.906 175.711h-24.613c-2.65 0-4.799 2.149-4.799 4.799v22.041l17.105 11.295 17.105-11.295v-22.041c.001-2.65-2.147-4.799-4.798-4.799z" fill="#ebf4f7"/><g><path d="m230.495 202.551v17.063c0 9.447 7.658 17.105 17.105 17.105s17.105-7.658 17.105-17.105v-17.063z" fill="#ffda52"/></g></g><g><g><g id="XMLID_1180_"><g><path d="m86.193 280.977-24.337 8.453v196.871c.041 13.416 10.928 24.263 24.335 24.263h.075c13.441-.041 24.304-10.97 24.263-24.411v-196.724z" fill="#748488"/></g></g><g id="XMLID_1179_"><g><path d="m122.587 289.429.015 196.799c.001 13.441 10.898 24.336 24.339 24.335s24.332-10.898 24.331-24.339v-196.795l-24.343-8.453z" fill="#55696e"/></g></g><path d="m142.716 101.267h-52.3c-15.774 0-28.561 12.787-28.561 28.561v159.602h109.421v-159.603c.001-15.773-12.786-28.56-28.56-28.56z" fill="#ffda52"/></g><circle cx="148.115" cy="45.669" fill="#ba6746" r="45.67"/><g id="XMLID_1174_"><g><path d="m225.592 255.189-71.15-35.188c-2.982-1.475-5.57-3.641-7.547-6.316l-20.067-27.153 9.278-23.433 24.45-1.299 16.966 22.956 66.612 32.943c10.353 5.12 14.594 17.663 9.475 28.016-5.096 10.3-17.616 14.617-28.017 9.474z" fill="#ba6746"/></g></g><g id="XMLID_1171_"><g><path d="m160.556 161.798-30.967-41.901c-6.865-9.289-19.959-11.253-29.247-4.389-9.288 6.865-11.253 19.959-4.389 29.247l30.874 41.776z" fill="#ffc305"/></g></g></g><g><g><g><path d="m432.388 316.694h-202.916c-8.787 0-16.349-6.753-16.762-15.531-.441-9.372 7.026-17.109 16.301-17.109h203.377c9.013 0 16.32 7.307 16.32 16.32 0 9.013-7.307 16.32-16.32 16.32z" fill="#965028"/></g></g></g><g><g><path d="m368.458 510.564h-75.518c-8.284 0-15-6.716-15-15s6.716-15 15-15h75.519c8.284 0 15 6.716 15 15s-6.717 15-15.001 15z" fill="#965028"/></g></g></g></svg>