<svg id="Layer_1" enable-background="new 0 0 511.727 511.727" height="512" viewBox="0 0 511.727 511.727" width="512" xmlns="http://www.w3.org/2000/svg"><g><g id="XMLID_1025_"><g id="XMLID_1027_"><path d="m198.34 511.146c-11.659-2.742-18.888-14.416-16.146-26.074l42.025-178.708c2.741-11.658 14.418-18.888 26.073-16.146 11.659 2.742 18.888 14.416 16.146 26.074l-42.025 178.708c-2.75 11.696-14.451 18.88-26.073 16.146z" fill="#5f6e9b"/></g><g id="XMLID_1026_"><path d="m314.907 495.001-42.025-178.708c-2.742-11.659 4.486-23.333 16.146-26.074 11.651-2.738 23.332 4.486 26.073 16.146l42.025 178.708c2.742 11.659-4.486 23.333-16.146 26.074-11.633 2.734-23.326-4.461-26.073-16.146z" fill="#414b82"/></g></g><g fill="#ffb69e"><path d="m203.809 165.946-1.781-17.084-22.854-8.968-34.973-54.744c-4.959-7.762-15.27-10.033-23.033-5.076-7.762 4.958-10.034 15.271-5.076 23.033l37.894 59.315c1.898 2.97 4.688 5.263 7.97 6.549l29.302 11.483z"/><path d="m289.575 165.605-.328-4.021h-37.204l-.331 3.996c-.918 11.072 7.821 20.566 18.931 20.566 11.1.001 19.835-9.477 18.932-20.541z"/><path d="m393.235 281.077-40.118-42.518-1.345-4.16-17.284-.366-13.585 13.322 1.662 5.098c.763 2.341 2.035 4.484 3.726 6.275l43.012 45.585c3.28 3.477 7.702 5.232 12.133 5.232 4.219 0 8.446-1.59 11.705-4.8 6.517-6.419 6.373-17.013.094-23.668z"/></g><g><path d="m334.431 180.774c-3.699-11.439-14.351-19.19-26.373-19.19h-18.811c.002.035.008.069.01.105.45 10.048-8.874 18.606-18.606 18.606-10.431 0-18.155-8.525-18.606-18.606-.002-.035 0-.07-.001-.105h-17.593l-32.421-12.722-10.772 31.592 30.442 11.93c.029.011.058.018.086.029v124.288h95.72v-79.768l3.398 10.423 30.869-12.957z" fill="#64afff"/></g><ellipse cx="269.644" cy="109.128" fill="#ffb69e" rx="37.453" ry="37.453" transform="matrix(.383 -.924 .924 .383 65.635 316.486)"/><g><g><path d="m119.44 137.66c-2.884-1.316-4.154-4.722-2.838-7.605l30.331-66.442c1.316-2.883 4.717-4.153 7.605-2.838 2.884 1.316 4.154 4.722 2.838 7.605l-30.331 66.442c-1.318 2.887-4.722 4.152-7.605 2.838z" fill="#82878c"/></g><g><path d="m170.097 33.857c-1.221-1.726-.811-4.114.915-5.334l19.572-13.84c1.725-1.22 4.113-.811 5.333.915 1.221 1.726.811 4.114-.915 5.334l-19.572 13.84c-1.732 1.225-4.118.805-5.333-.915z" fill="#ffda52"/></g><g><path d="m135.104 58.602c-1.221-1.726-.811-4.114.915-5.334l19.572-13.84c1.725-1.22 4.113-.811 5.333.915 1.221 1.726.811 4.114-.915 5.334l-19.572 13.84c-1.733 1.225-4.118.805-5.333-.915z" fill="#ffda52"/></g><g><path d="m164.639 31.523c-1.954 0-3.623-1.49-3.806-3.476l-2.2-23.87c-.194-2.104 1.354-3.968 3.459-4.162 2.11-.191 3.968 1.354 4.162 3.459l2.2 23.87c.194 2.104-1.354 3.968-3.459 4.162-.119.012-.237.017-.356.017z" fill="#ffda52"/></g><g><path d="m164.767 70.725-2.2-23.87c-.194-2.104 1.354-3.968 3.459-4.162 2.099-.19 3.968 1.354 4.162 3.459l2.2 23.87c.467 5.055-7.153 5.792-7.621.703z" fill="#ffda52"/></g><g><path d="m155.334 36.624-21.772-10.03c-1.92-.884-2.759-3.157-1.875-5.077.885-1.92 3.157-2.759 5.076-1.875l21.772 10.03c1.92.884 2.759 3.157 1.875 5.077-.883 1.917-3.153 2.761-5.076 1.875z" fill="#ffda52"/></g><g><path d="m194.259 54.556-21.772-10.03c-1.92-.884-2.759-3.157-1.875-5.077.885-1.92 3.157-2.759 5.076-1.875l21.772 10.03c1.92.884 2.759 3.157 1.875 5.077-.882 1.917-3.152 2.761-5.076 1.875z" fill="#ffda52"/></g></g><g><g><path d="m375.895 256.279h10.518v58.905h-10.518z" fill="#d1e7ed"/></g><g><path d="m392.374 320.443h-22.44c-2.904 0-5.259-2.355-5.259-5.259s2.355-5.259 5.259-5.259h22.44c2.904 0 5.259 2.355 5.259 5.259s-2.355 5.259-5.259 5.259z" fill="#ebf4f7"/></g><path d="m393.461 212.1h-24.613c-2.65 0-4.799 2.149-4.799 4.799v22.041l17.105 10.213 17.105-10.213v-22.041c.001-2.65-2.148-4.799-4.798-4.799z" fill="#ebf4f7"/><g><path d="m364.049 238.94v17.063c0 9.447 7.658 17.105 17.105 17.105s17.105-7.658 17.105-17.105v-17.063z" fill="#ffda52"/></g></g></g></svg>