<svg id="Layer_1" enable-background="new 0 0 510.564 510.564" height="512" viewBox="0 0 510.564 510.564" width="512" xmlns="http://www.w3.org/2000/svg"><g><g><g id="XMLID_861_"><g><path d="m23.14 278.13-23.014 11.3v196.871c.041 13.416 10.928 24.263 24.335 24.263h.075c13.441-.041 24.304-10.97 24.263-24.411v-196.723z" fill="#748488"/></g></g><g id="XMLID_860_"><g><path d="m85.208 279.201-24.335 10.229v196.799c.001 13.441 10.898 24.336 24.339 24.335s24.332-10.898 24.331-24.339v-196.795z" fill="#55696e"/></g></g></g><path d="m80.986 101.267h-52.3c-15.774 0-28.561 12.787-28.561 28.561v159.602h109.417v-159.602c.001-15.774-12.782-28.561-28.556-28.561z" fill="#e64937"/><g><path d="m233.97 294.215h30v196.283h-30z" fill="#823214"/></g><g id="XMLID_931_"><path d="m423.096 510.564c-13.908 0-25.183-11.275-25.183-25.183v-201.291c0-13.908 11.275-25.183 25.183-25.183s25.183 11.275 25.183 25.183v201.29c0 13.909-11.275 25.184-25.183 25.184z" fill="#414b82"/></g><g id="XMLID_929_"><path d="m361.847 510.564c-13.908 0-25.183-11.275-25.183-25.183v-201.291c0-13.908 11.275-25.183 25.183-25.183s25.183 11.275 25.183 25.183v201.29c.001 13.909-11.274 25.184-25.183 25.184z" fill="#5f6e9b"/></g><circle cx="395.472" cy="50.378" fill="#ffb69e" r="43.494"/><g fill="#ffb69e"><path d="m305.146 160.634-13.124 18.729-64.21-26.302c-9.901-4.056-21.209.683-25.263 10.581s.683 21.209 10.581 25.263l78.517 32.162c8.315 3.405 17.961.656 23.191-6.792l20.518-29.219-6.453-19.828z"/><path d="m416.713 104.906-.224-.942h-42.353l-.318 4.421c-.908 12.607 9.076 23.335 21.716 23.335 14.062-.001 24.436-13.134 21.179-26.814z"/></g><g><path d="m462.628 117.347c-6.153-8.411-15.949-13.383-26.371-13.383h-19.769c.035 11.124-10.36 20.457-21.207 20.457-11.627 0-20.296-9.299-21.146-20.457h-12.279c-10.656 0-20.643 5.197-26.758 13.923l-29.953 42.747 30.209 24.421 1.766-2.515v101.55h111.158v-120.711l12.801 17.481 19.857-7.174 10.15-16.916z" fill="#64afff"/></g><path d="m506.696 177.592-15.61-20.822-30.006 24.09 5.222 7.131c-9.237 10.611-33.262 38.209-43.297 49.736-7.023 8.067-6.176 20.301 1.891 27.324 8.184 7.124 20.418 6.041 27.324-1.891l53.458-61.409c5.942-6.826 6.365-16.857 1.018-24.159z" fill="#ffb69e"/><g><path d="m225.235 133.627-27.588-26.324-11.501 2.443-1.859 11.558 27.588 26.324c-3.003 8.504-.984 18.352 5.964 24.982l50.748 48.422c3.044 2.905 7.867 2.792 10.772-.253l22.111-23.173c2.905-3.044 2.792-7.867-.253-10.772l-50.748-48.422c-6.948-6.628-16.88-8.183-25.234-4.785z" fill="#468423"/><path d="m277.946 174.706-19.86-18.95c-1.389-1.325-3.588-1.273-4.913.115l-17.768 18.621c-1.325 1.389-1.273 3.588.115 4.913l19.86 18.95c1.389 1.325 3.588 1.273 4.913-.115l17.768-18.621c1.325-1.389 1.273-3.588-.115-4.913z" fill="#6eaa50"/><path d="m197.647 107.304-8.256-7.877c-1.789-1.707-4.622-1.64-6.329.148l-7.179 7.524c-1.707 1.789-1.64 4.622.148 6.329l8.256 7.877z" fill="#dcbe82"/></g><g><g><path d="m180.171 195.514h10.757v60.238h-10.757z" fill="#d1e7ed"/></g><g><path d="m197.023 261.13h-22.948c-2.97 0-5.378-2.408-5.378-5.378s2.408-5.378 5.378-5.378h22.948c2.97 0 5.378 2.408 5.378 5.378.001 2.97-2.408 5.378-5.378 5.378z" fill="#ebf4f7"/></g><path d="m198.48 150.335h-25.86c-2.52 0-4.562 2.043-4.562 4.562v41.565c0 8.981 7.281 16.262 16.262 16.262h2.461c8.981 0 16.262-7.281 16.262-16.262v-41.565c-.001-2.519-2.044-4.562-4.563-4.562z" fill="#ebf4f7"/></g><g><g><path d="m233.838 212.514h10.757v60.238h-10.757z" fill="#d1e7ed"/></g><g><path d="m250.69 278.13h-22.948c-2.97 0-5.378-2.408-5.378-5.378s2.408-5.378 5.378-5.378h22.948c2.97 0 5.378 2.408 5.378 5.378s-2.408 5.378-5.378 5.378z" fill="#ebf4f7"/></g><path d="m252.146 167.335h-25.86c-2.52 0-4.562 2.043-4.562 4.562v41.565c0 8.981 7.281 16.262 16.262 16.262h2.461c8.981 0 16.262-7.281 16.262-16.262v-41.565c0-2.519-2.043-4.562-4.563-4.562z" fill="#ebf4f7"/></g><ellipse cx="86.385" cy="45.67" fill="#80391b" rx="45.67" ry="45.67" transform="matrix(.973 -.23 .23 .973 -8.182 21.069)"/><g id="XMLID_857_"><g><path d="m163.862 255.189-71.15-35.188c-2.982-1.475-5.57-3.641-7.547-6.316l-20.067-27.153 10.272-23.84 23.457-.893 16.966 22.956 66.612 32.943c10.353 5.12 14.594 17.663 9.475 28.016-5.097 10.302-17.617 14.618-28.018 9.475z" fill="#80391b"/></g></g><g id="XMLID_856_"><g><path d="m98.826 161.798-30.967-41.901c-6.865-9.289-19.959-11.253-29.247-4.389-9.288 6.865-11.253 19.959-4.389 29.247l30.874 41.776z" fill="#d13d2c"/></g></g><g><g><g><path d="m335.658 310.535h-172.916c-8.787 0-16.349-6.753-16.762-15.531-.441-9.372 7.026-17.109 16.301-17.109h173.377c9.013 0 16.32 7.307 16.32 16.32 0 9.013-7.307 16.32-16.32 16.32z" fill="#965028"/></g></g></g><g><path d="m286.729 510.564h-75.519c-8.284 0-15-6.716-15-15s6.716-15 15-15h75.519c8.284 0 15 6.716 15 15s-6.716 15-15 15z" fill="#965028"/></g></g></svg>