<svg id="Layer_1" enable-background="new 0 0 511.747 511.747" height="512" viewBox="0 0 511.747 511.747" width="512" xmlns="http://www.w3.org/2000/svg"><g><g><g><path d="m84.597 86.866c-2.411-1.403-3.228-4.496-1.825-6.907l15.917-27.352c1.403-2.411 4.495-3.229 6.907-1.825 2.411 1.403 3.228 4.496 1.825 6.907l-15.917 27.353c-1.401 2.407-4.493 3.23-6.907 1.824z" fill="#ffda52"/></g><g><path d="m56.139 135.768c-2.411-1.403-3.228-4.496-1.825-6.907l15.917-27.352c1.403-2.411 4.495-3.229 6.907-1.825 2.411 1.403 3.228 4.496 1.825 6.907l-15.917 27.352c-1.401 2.407-4.493 3.23-6.907 1.825z" fill="#ffda52"/></g><g><path d="m70.288 84.968-15.728-27.46c-1.387-2.421-.548-5.507 1.873-6.894 2.421-1.386 5.507-.548 6.894 1.873l15.728 27.46c1.387 2.421.548 5.507-1.873 6.894-2.416 1.385-5.505.553-6.894-1.873z" fill="#ffda52"/></g><g><path d="m98.409 134.064-15.729-27.46c-1.386-2.421-.548-5.508 1.873-6.895 2.42-1.386 5.507-.549 6.895 1.873l15.729 27.46c1.386 2.421.548 5.508-1.873 6.895-2.426 1.389-5.511.544-6.895-1.873z" fill="#ffda52"/></g><g><path d="m68.401 98.284c-.006 0-.012 0-.018 0l-31.645-.109c-2.79-.01-5.044-2.279-5.034-5.069.01-2.784 2.269-5.034 5.051-5.034h.018l31.645.109c2.79.01 5.044 2.279 5.034 5.069-.009 2.784-2.269 5.034-5.051 5.034z" fill="#ffda52"/></g><g><path d="m124.98 98.479c-.006 0-.012 0-.018 0l-31.645-.109c-2.79-.01-5.044-2.279-5.034-5.069.01-2.784 2.269-5.034 5.051-5.034h.018l31.645.109c2.79.01 5.044 2.279 5.034 5.069-.01 2.784-2.269 5.034-5.051 5.034z" fill="#ffda52"/></g></g><g><g><path d="m344.078 75.717-27.351-15.917c-2.411-1.403-3.228-4.496-1.825-6.907s4.494-3.228 6.907-1.825l27.351 15.917c2.411 1.403 3.228 4.496 1.825 6.907-1.396 2.399-4.483 3.235-6.907 1.825z" fill="#ffda52"/></g><g><path d="m295.178 47.259-27.352-15.917c-2.411-1.403-3.229-4.495-1.825-6.907 1.402-2.411 4.495-3.229 6.907-1.825l27.352 15.917c2.411 1.403 3.229 4.495 1.825 6.907-1.401 2.407-4.492 3.231-6.907 1.825z" fill="#ffda52"/></g><g><path d="m314.927 45.478c-1.386-2.421-.548-5.508 1.873-6.894l27.46-15.728c2.421-1.387 5.507-.547 6.894 1.873 1.387 2.421.548 5.508-1.873 6.894l-27.46 15.728c-2.416 1.384-5.504.552-6.894-1.873z" fill="#ffda52"/></g><g><path d="m265.831 73.598c-1.387-2.421-.548-5.507 1.873-6.894l27.461-15.728c2.418-1.387 5.507-.549 6.894 1.873 1.387 2.421.548 5.507-1.873 6.894l-27.461 15.728c-2.416 1.385-5.504.553-6.894-1.873z" fill="#ffda52"/></g><g><path d="m308.537 41.749c-.006 0-.012 0-.018 0-2.79-.01-5.044-2.279-5.034-5.069l.109-31.645c.009-2.785 2.269-5.035 5.051-5.035h.018c2.79.01 5.044 2.279 5.034 5.069l-.109 31.645c-.01 2.785-2.269 5.035-5.051 5.035z" fill="#ffda52"/></g><g><path d="m308.342 98.327c-.006 0-.012 0-.018 0-2.79-.01-5.044-2.279-5.034-5.069l.109-31.645c.01-2.79 2.242-5.061 5.069-5.034 2.79.01 5.044 2.279 5.034 5.069l-.109 31.645c-.009 2.784-2.269 5.034-5.051 5.034z" fill="#ffda52"/></g></g><g id="XMLID_939_"><path d="m238.192 511.747c-12.768 0-23.119-10.351-23.119-23.119v-184.796c0-12.768 10.351-23.119 23.119-23.119s23.119 10.351 23.119 23.119v184.795c0 12.769-10.351 23.12-23.119 23.12z" fill="#55696e"/></g><g id="XMLID_940_"><path d="m182.391 511.747c-12.768 0-23.119-10.351-23.119-23.119v-184.796c0-12.768 10.351-23.119 23.119-23.119s23.119 10.351 23.119 23.119v184.795c0 12.769-10.351 23.12-23.119 23.12z" fill="#748488"/></g><ellipse cx="210.077" cy="81.01" fill="#ba6746" rx="39.929" ry="39.929" transform="matrix(.383 -.924 .924 .383 54.841 244.095)"/><g fill="#ba6746"><path d="m230.53 144.7-.715-6.644h-40.106l-.697 6.72c-1.254 12.089 8.211 22.614 20.365 22.644.231.001.462.001.693.002 12.226.031 21.768-10.566 20.46-22.722z"/><path d="m400.713 119.161c-3.723-9.088-14.107-13.433-23.193-9.714l-68.844 28.61h-10.458l-5.924 16.096 5.924 19.054h13.958c2.311 0 4.601-.451 6.739-1.327l72.083-29.527c9.088-3.722 13.436-14.106 9.715-23.192z"/><path d="m159.263 288.032 4.679-23.924-4.679-29.012-16.965-19.488 4.172-5.698-5.999-16.427-23.687-3.303-11.57 15.882c-4.909 6.703-4.521 15.912.934 22.179l49.078 56.376c1.196 1.374 2.566 2.501 4.037 3.415z"/></g><g><path d="m229.815 138.056c.002.039.009.077.01.116.485 10.832-9.566 20.057-20.057 20.057-11.245 0-19.571-9.19-20.057-20.057-.002-.039 0-.077-.002-.116h-18.989c-10.033 0-19.461 4.796-25.368 12.905l-28.569 39.218 29.686 19.731 12.793-17.47v111.392h102.049v-130.625h36.906v-35.15h-68.402z" fill="#ffda52"/></g><g><path d="m363.455 97.648v64.151c0 4.41 3.576 7.986 7.986 7.986s7.986-3.576 7.986-7.986v-70.349z" fill="#6c9baa"/></g><path d="m470.921 21.711h-107.466v75.937h107.466c5.038 0 9.122-4.084 9.122-9.122v-57.693c0-5.038-4.084-9.122-9.122-9.122z" fill="#bcdde8"/><g fill="#e64937"><path d="m399.722 60.882h-8.56v11.657c0 1.376-1.678 2.064-3.355 2.064s-3.355-.688-3.355-2.064v-27.357c0-1.419 1.678-2.022 3.355-2.022 1.678 0 3.355.603 3.355 2.022v10.538h8.56v-10.538c0-1.419 1.678-2.022 3.355-2.022s3.355.603 3.355 2.022v27.357c0 1.376-1.678 2.064-3.355 2.064-1.678 0-3.355-.688-3.355-2.064z"/><path d="m425.964 72.797-8.173-14.883v14.625c0 1.376-1.678 2.064-3.355 2.064s-3.355-.688-3.355-2.064v-27.314c0-1.419 1.678-2.065 3.355-2.065 2.409 0 3.313.215 4.947 3.355l6.968 13.292v-14.625c0-1.419 1.678-2.022 3.355-2.022s3.355.603 3.355 2.022v27.357c0 1.376-1.678 2.064-3.355 2.064-1.548.001-2.925-.301-3.742-1.806z"/><path d="m444.72 61.742c0-.258-.086-.473-.172-.602l-8.904-14.754c-.086-.172-.086-.344-.086-.473 0-1.591 2.71-2.753 4.56-2.753 1.076 0 1.463.43 1.936 1.248l6.022 11.055 5.979-11.055c.43-.817.86-1.248 1.936-1.248 1.85 0 4.56 1.162 4.56 2.753 0 .129 0 .301-.086.473l-8.861 14.754c-.086.129-.172.344-.172.602v10.797c0 1.376-1.678 2.064-3.355 2.064-1.678 0-3.355-.688-3.355-2.064v-10.797z"/></g></g></svg>