<svg id="Layer_1" enable-background="new 0 0 510.231 510.231" height="512" viewBox="0 0 510.231 510.231" width="512" xmlns="http://www.w3.org/2000/svg"><g><g id="XMLID_869_"><path d="m227.103 510.231c-12.384 0-22.423-10.039-22.423-22.423v-179.232c0-12.384 10.039-22.423 22.423-22.423s22.423 10.039 22.423 22.423v179.231c0 12.385-10.039 22.424-22.423 22.424z" fill="#414b82"/></g><g id="XMLID_870_"><path d="m172.973 510.231c-12.384 0-22.423-10.039-22.423-22.423v-179.232c0-12.384 10.039-22.423 22.423-22.423s22.423 10.039 22.423 22.423v179.231c0 12.385-10.039 22.424-22.423 22.424z" fill="#5f6e9b"/></g><g fill="#ffb69e"><ellipse cx="199.835" cy="94.978" rx="38.727" ry="38.727" transform="matrix(.987 -.16 .16 .987 -12.634 33.236)"/><path d="m105.736 148.269h-17.237l-45.713-46.595c-6.677-6.79-17.596-6.881-24.387-.204-6.791 6.678-6.882 17.596-.204 24.387l50.812 51.669c3.029 3.08 7.324 4.978 12.371 4.978h24.346l8.736-17.546z"/><path d="m199.182 173.844c5.351 0 10.453-2.26 14.049-6.223s5.351-9.26 4.832-14.586l-.464-4.767h-37.361l-.402 4.373c-.499 5.438 1.313 10.835 4.994 14.87s8.89 6.333 14.352 6.333z"/><path d="m419.512 157.341c-2.122-9.284-11.368-15.092-20.655-12.966l-76.276 17.442-20.936-3.882-10.205 14.318 5.346 19.889 23.054 4.24c2.305.424 4.675.374 6.963-.15l79.742-18.234c9.285-2.125 15.09-11.372 12.967-20.657z"/></g><path d="m249.526 148.269h-31.927c.021 9.815-9.133 18.051-18.706 18.051-10.26 0-17.897-8.205-18.656-18.051h-74.502v34.234c0 .078-.011-.078-.012 0h44.825v126.073h98.977v-125.127l47.26 8.691 4.859-34.206z" fill="#64afff"/><path d="m195.682 40.093 13.238-23.787-3.545-6.865c-2.324-4.5-8.758-4.5-11.082 0l-22.946 44.439z" fill="#fa503c"/><path d="m219.235 67.371-5.521 13.495h18.304c4.671 0 7.684-4.947 5.541-9.097l-5.022-9.726z" fill="#fa503c"/><path d="m213.315 65.687 11.842-17.937-8.856-17.151-25.117 18.478-24.977 31.624c.459.107.942.164 1.444.164h24.391z" fill="#fa503c"/><path d="m216.301 30.599-7.38-14.292-37.574 37.573-9.237 17.888c-1.913 3.704.286 8.031 4.099 8.922z" fill="#fff"/><path d="m213.714 80.865 18.823-18.823-7.38-14.292-33.115 33.115z" fill="#fff"/><g><path d="m404.022 76.087c-.699 16.428-4.378 31.888-12.185 46.434-.228.424-.756.584-1.181.356-.394-.211-.559-.682-.399-1.088l.006-.015c5.785-14.713 7.635-29.752 6.444-45.581-1.209-16.687-6.734-35.592-10.997-43.926-1.626-3.179-.366-7.074 2.812-8.699 3.179-1.626 7.074-.366 8.699 2.812 1.887 3.69 7.849 26.486 6.801 49.707z" fill="#ff6473"/></g><path d="m496.578 60.056c-1.245-3.345-4.966-5.048-8.311-3.803-23.859 8.893-45.728 21.033-69.075 44.118-6.412 6.377-12.468 13.07-17.901 20.262-.127.168-.11.409.046.557.168.159.433.152.593-.016l.014-.014c6.135-6.467 12.845-12.39 19.8-17.905 15.875-12.518 31.441-21.406 51.327-29.237 20.64-6.698-1.378.409 12.363-3.775-.102.026 6.558-1.639 6.66-1.665 3.758-.948 5.819-4.933 4.484-8.522z" fill="#ff6473"/><g><path d="m449.244 45.902c-4.653 6.776-10.501 13.055-17.789 16.778-.31.158-.69.035-.848-.275-.14-.275-.06-.605.176-.786l.012-.009c6.12-4.715 10.409-11.398 13.563-18.482 4.879-10.828 8.454-26.988 9.054-37.035.214-3.572 3.282-6.294 6.854-6.08 4.027.241 6.878 4.077 5.903 8.027-2.533 10.257-9.183 26.69-16.925 37.862z" fill="#ff6473"/></g><g><path d="m460.077 107.415 2.12 1.953c.261.241.624.337.97.258l2.811-.639c.872-.198 1.593.689 1.22 1.502l-1.202 2.62c-.148.323-.128.698.054 1.003l1.477 2.475c.458.768-.163 1.728-1.051 1.624l-2.863-.334c-.353-.041-.703.094-.937.361l-1.898 2.169c-.589.673-1.694.379-1.87-.498l-.567-2.826c-.07-.348-.307-.64-.633-.779l-2.65-1.135c-.822-.352-.884-1.494-.104-1.932l2.512-1.413c.31-.174.514-.489.546-.843l.26-2.871c.08-.89 1.147-1.301 1.805-.695z" fill="#ffda52"/></g><g><path d="m422.103 73.103.049 1.197c.014.33.189.632.468.808l1.014.638c.703.443.594 1.5-.185 1.789l-1.123.417c-.309.115-.543.375-.623.695l-.294 1.162c-.204.806-1.243 1.028-1.759.377l-.743-.94c-.205-.259-.524-.4-.853-.378l-1.196.08c-.829.055-1.362-.864-.902-1.556l.664-.997c.183-.275.219-.622.096-.928l-.445-1.112c-.309-.772.401-1.563 1.201-1.338l1.154.323c.318.089.659.016.913-.195l.92-.767c.638-.537 1.61-.106 1.644.725z" fill="#ffda52"/></g><g><path d="m348.039 58.874 1.622 1.494c.26.239.621.336.965.257l2.151-.489c.868-.197 1.585.686 1.214 1.494l-.92 2.005c-.147.321-.127.694.054.998l1.13 1.894c.456.764-.162 1.719-1.046 1.616l-2.191-.255c-.351-.041-.699.094-.932.359l-1.452 1.66c-.586.67-1.685.377-1.86-.496l-.434-2.162c-.07-.346-.305-.636-.63-.775l-2.028-.868c-.818-.35-.879-1.486-.104-1.922l1.922-1.081c.308-.173.511-.487.543-.839l.199-2.197c.081-.887 1.142-1.296 1.797-.693z" fill="#ffda52"/></g><g><path d="m365.474 106.021.066 1.617c.015.358.205.686.508.876l1.37.862c.763.48.644 1.627-.201 1.941l-1.518.563c-.336.125-.589.406-.677.754l-.397 1.569c-.221.874-1.349 1.116-1.908.409l-1.004-1.269c-.222-.281-.568-.434-.926-.411l-1.615.108c-.9.06-1.478-.938-.978-1.689l.897-1.348c.198-.298.237-.675.104-1.007l-.602-1.503c-.335-.837.435-1.695 1.304-1.452l1.559.437c.345.097.715.017.99-.212l1.243-1.037c.693-.577 1.748-.109 1.785.792z" fill="#ffda52"/></g><path d="m409.762 117.547-18.312-8.12c-2.752-1.22-5.972.021-7.192 2.773l-27.139 61.202c-1.22 2.752.021 5.971 2.773 7.192l18.312 8.12c2.752 1.22 5.972-.021 7.192-2.773l27.139-61.202c1.22-2.752-.021-5.972-2.773-7.192z" fill="#46738c"/><g><g><path d="m27.564 88.796h10.518v58.905h-10.518z" fill="#d1e7ed"/></g><g><path d="m44.043 152.96h-22.44c-2.904 0-5.259-2.355-5.259-5.259s2.355-5.259 5.259-5.259h22.44c2.904 0 5.259 2.355 5.259 5.259s-2.354 5.259-5.259 5.259z" fill="#ebf4f7"/></g><path d="m45.13 44.618h-24.613c-2.65 0-4.799 2.149-4.799 4.799v22.041l17.105 9.408 17.105-9.408v-22.041c.001-2.651-2.148-4.799-4.798-4.799z" fill="#ebf4f7"/><g><path d="m15.718 71.458v17.063c0 9.447 7.658 17.105 17.105 17.105s17.105-7.658 17.105-17.105v-17.063z" fill="#ffda52"/></g></g></g></svg>