<svg id="Layer_1" enable-background="new 0 0 497.5 497.5" height="512" viewBox="0 0 497.5 497.5" width="512" xmlns="http://www.w3.org/2000/svg"><g><g><path d="m216.369 172.768-25.888-9.463-15.887-28.256 27.448-7.189 23.311 8.521 72.364-5.664c10.259-.802 19.224 6.862 20.027 17.12s-6.862 19.224-17.119 20.027l-76.407 5.98c-2.603.202-5.277-.136-7.849-1.076z" fill="#ffb69e"/></g><g><path d="m202.042 127.86-61.194-22.369c-9.665-3.532-20.361 1.438-23.894 11.102s1.438 20.361 11.101 23.894l62.426 22.819z" fill="#4699f2"/></g><g id="XMLID_958_"><path d="m123.599 496.752c-12.326-3.068-19.832-15.547-16.765-27.874l26.304-105.694-18.715-71.683 17.035-13.721 28.6 6.418 19.069 73.04c.972 3.723.994 7.63.065 11.365l-27.72 111.385c-3.056 12.284-15.503 19.841-27.873 16.764z" fill="#5f6e9b"/></g><g id="XMLID_957_"><path d="m194.262 497.012c-12.436-2.592-20.415-14.773-17.824-27.209l22.021-105.659-36.374-105.869c-4.127-12.014 2.266-25.098 14.278-29.226 12.012-4.125 25.098 2.265 29.226 14.278l38.428 111.847c1.345 3.913 1.608 8.116.765 12.167l-23.311 111.847c-2.592 12.437-14.779 20.415-27.209 17.824z" fill="#414b82"/></g><path id="XMLID_956_" d="m114.423 291.501 102.115-16.341-22.193-155.612c-2.336-16.379-17.67-27.644-33.998-24.977l-47.505 7.76c-15.98 2.61-26.879 17.601-24.433 33.607z" fill="#64afff"/><ellipse cx="135.41" cy="46.096" fill="#ffb69e" rx="40.81" ry="40.81" transform="matrix(.828 -.562 .562 .828 -2.521 83.986)"/><g><path d="m257.268 175.318 32.6-34.166-3.837-13.504-13.502-3.041-32.6 34.166c-10.531-3.72-22.728-1.219-30.938 7.386l-59.967 62.848c-3.597 3.77-3.457 9.742.313 13.34l28.698 27.383c3.77 3.597 9.742 3.457 13.34-.313l59.967-62.848c8.209-8.606 10.135-20.906 5.926-31.251z" fill="#468423"/><path d="m206.783 240.19 22.693-23.783c1.855-1.944 1.783-5.023-.161-6.878l-22.249-21.229c-1.944-1.855-5.023-1.783-6.878.161l-22.693 23.783c-1.855 1.944-1.783 5.023.161 6.878l22.249 21.229c1.943 1.855 5.023 1.782 6.878-.161z" fill="#6eaa50"/><path d="m289.868 141.152 9.755-10.224c2.114-2.215 2.031-5.724-.184-7.838l-9.318-8.891c-2.215-2.114-5.724-2.031-7.838.184l-9.755 10.224z" fill="#dcbe82"/></g><path d="m318.442 63.635c-.684 16.079-4.285 31.212-11.926 45.45-.223.415-.74.571-1.156.348-.385-.207-.548-.667-.391-1.064l.006-.014c5.663-14.401 7.473-29.121 6.308-44.614-1.183-16.333-6.591-34.837-10.763-42.994-1.591-3.111-.359-6.924 2.753-8.515 3.394-1.736 7.541-.099 8.837 3.494 3.885 10.779 7.114 30.59 6.332 47.909z" fill="#ebf4f7"/><path d="m315.77 107.236c5.318-7.04 11.245-13.591 17.521-19.832 24.604-24.327 46.645-34.082 48.636-35.355 11.321-4.695-.381-.613 18.974-7.827 3.274-1.218 6.916.448 8.134 3.722 1.307 3.513-.71 7.413-4.387 8.342-.101.026-9.698 2.421-9.58 2.391-.102.033-9.64 3.128-9.039 2.933-18.874 7.432-33.462 15.388-50.239 28.617-6.808 5.398-13.375 11.195-19.38 17.526l-.013.014c-.156.164-.416.171-.58.015-.156-.146-.172-.382-.047-.546z" fill="#ebf4f7"/><path d="m367.189 28.703c-10.738 9.228-13.311 12.118-21.714 21.636l-.019.022c-.225.255-.615.279-.87.054-.226-.2-.271-.529-.121-.779 6.345-10.594 8.662-14.447 17.837-25.836 15.189-17.942 25.166-22.997 25.066-22.913 3.09-1.807 7.06-.767 8.867 2.323s.767 7.06-2.323 8.867c-.766.448-9.103 2.243-26.723 16.626z" fill="#d1e7ed"/><g><path d="m183.619 264.473-76.805-30.077c-8.546-3.347-13.381-12.418-11.396-21.378l10.296-46.462 21.302-11.631 15.127 19.456-6.9 31.134 61.96 24.264c9.581 3.752 14.306 14.56 10.554 24.141-3.762 9.61-14.587 14.294-24.138 10.553z" fill="#ffb69e"/></g><g><path d="m142.144 174.381 10.496-47.362c2.227-10.045-4.112-19.993-14.158-22.219-10.038-2.228-19.993 4.112-22.219 14.158l-10.548 47.599z" fill="#4699f2"/></g></g></svg>