<svg id="Layer_1" enable-background="new 0 0 508.421 508.421" height="512" viewBox="0 0 508.421 508.421" width="512" xmlns="http://www.w3.org/2000/svg"><g><g id="XMLID_880_"><path d="m299.297 508.421c-12.413 0-22.476-10.063-22.476-22.476v-179.653c0-12.413 10.063-22.476 22.476-22.476s22.476 10.063 22.476 22.476v179.653c0 12.413-10.063 22.476-22.476 22.476z" fill="#414b82"/></g><g id="XMLID_881_"><path d="m245.039 508.421c-12.413 0-22.476-10.063-22.476-22.476v-179.653c0-12.413 10.063-22.476 22.476-22.476s22.476 10.063 22.476 22.476v179.653c0 12.413-10.063 22.476-22.476 22.476z" fill="#5f6e9b"/></g><g fill="#ffb69e"><circle cx="271.965" cy="92.192" r="38.818"/><path d="m183.798 164.428-4.576-18.916h-18.855l-45.821-46.609c-6.693-6.807-17.636-6.897-24.444-.205-6.807 6.694-6.899 17.638-.204 24.444l50.932 51.79c3.25 3.305 7.691 5.059 12.324 5.059h.076 25.992z"/><path d="m393.773 189.053-23.256-90.154c-2.385-9.244-11.817-14.803-21.054-12.42-9.244 2.384-14.805 11.811-12.42 21.055l13.614 52.777 1.98 24.629 6.17 18.477 10.304 5.316c2.501 1.291 5.219 1.924 7.923 1.924 3.842 0 7.657-1.28 10.784-3.774 5.324-4.251 7.657-11.232 5.955-17.83z"/><path d="m291.502 150.647-.485-5.061h-37.519l-.594 4.184c-1.661 11.705 7.424 22.171 19.247 22.171 11.469 0 20.445-9.877 19.351-21.294z"/></g><path d="m350.657 160.31-21.1-10.81c-5.116-2.621-10.782-3.988-16.53-3.988h-22.017c.001.025.005.05.007.075.454 10.131-8.947 18.76-18.76 18.76-10.517 0-18.304-8.596-18.76-18.76-.001-.025.002-.05.001-.075h-74.277v34.48h43.341v126.3h99.209v-121.984l37.034 19.107v-12.428z" fill="#64afff"/><g><g fill="#fa503c"><path d="m309.778 65.855-5.034-9.748-13.152 3.863-5.715 15.004h18.347c4.683 0 7.703-4.958 5.554-9.119z"/><path d="m264.449 34.006 16.622-23.743-3.553-6.88c-2.329-4.51-8.779-4.51-11.108 0l-23 44.542z"/><path d="m258.331 47.156-20.073 27.654c.46.107.944.164 1.447.164h24.448l20.296-13.312 12.898-19.881-8.877-17.191z"/></g><path d="m288.469 24.589-7.398-14.327-37.661 37.663-9.259 17.93c-1.917 3.713.287 8.051 4.11 8.943z" fill="#fff"/><path d="m285.877 74.974 18.868-18.867-7.399-14.327-33.193 33.194z" fill="#fff"/></g><g><path d="m397.324 117.138h-100.885c-4.242 0-7.681-3.439-7.681-7.681s3.438-7.681 7.681-7.681h101.041c4.933 0 9.368-.295 10.528-5.247.541-2.314-.901-4.636-3.214-5.177-1.021-.24-2.053.388-2.295 1.425-.966 4.131-5.097 6.694-9.228 5.73-4.13-.966-6.695-5.097-5.729-9.228 2.172-9.294 11.455-15.06 20.751-12.884 10.561 2.471 17.142 13.072 14.672 23.633-2.829 12.095-13.257 17.585-25.641 17.11z" fill="#a5c8cd"/></g><g><g><path d="m113.326 93.546h10.518v58.905h-10.518z" fill="#d1e7ed"/></g><g><path d="m129.805 157.71h-22.44c-2.904 0-5.259-2.355-5.259-5.259s2.355-5.259 5.259-5.259h22.44c2.904 0 5.259 2.355 5.259 5.259s-2.355 5.259-5.259 5.259z" fill="#ebf4f7"/></g><path d="m130.892 49.367h-24.613c-2.65 0-4.799 2.149-4.799 4.799v22.041l17.105 9.72 17.105-9.72v-22.04c0-2.651-2.148-4.8-4.798-4.8z" fill="#ebf4f7"/><g><path d="m101.48 76.207v17.063c0 9.447 7.658 17.105 17.105 17.105s17.105-7.658 17.105-17.105v-17.063z" fill="#ffda52"/></g></g></g></svg>