<svg id="Layer_1" data-name="Layer 1" xmlns="http://www.w3.org/2000/svg" viewBox="0 0 574.56 481.06"><defs><style>.cls-1,.cls-2,.cls-3,.cls-5,.cls-6,.cls-8{fill:#fff;}.cls-1,.cls-5,.cls-9{stroke:#231f20;}.cls-1,.cls-2,.cls-3,.cls-4,.cls-5,.cls-6,.cls-9{stroke-miterlimit:10;}.cls-1,.cls-2,.cls-3,.cls-4,.cls-6,.cls-9{stroke-width:0.25px;}.cls-2{stroke:#020202;}.cls-3,.cls-4{stroke:#000;}.cls-4,.cls-9{fill:none;}.cls-5{stroke-width:0.2px;}.cls-6{stroke:#070808;}.cls-7{fill:#808285;}</style></defs><title>draw_2</title><path id="scarf" class="cls-1" d="M397.16,190.63S378.35,198,376,209c0,0-2.42,8.88,2.73,13.35,0,0,50,23.15,96.36-3.73,0,0,5.74-7.77-10.06-27.19C465,191.4,405.67,183.75,397.16,190.63Z" transform="translate(-157.24 -52.72)"/><path id="sshirt" class="cls-1" d="M546.43,356.2a3.85,3.85,0,0,1,1.43-1.26l.89-.4c-.25-.89-.5-1.8-.75-2.72-33.11-119.14-75.67-131.29-75.67-131.29-55.93,23.89-94.49-1.86-94.49-1.86-65.91,38.77-78.22,135.24-78.22,135.24,30,11.47,41.25,0,41.25,0-1.95-4.51,12.57-45.87,12.57-45.87,4.77,9.28,7,10.13,7,10.13,72.22,8.34,128.22-.51,128.22-.51l4.21.11c-.7-2.69,1.66-4.75,1.66-4.75,11,15.71,16,45.89,16,45.89,32.1,1.85,35.18-5,35.18-5Z" transform="translate(-157.24 -52.72)"/><path id="shirt_1" data-name="shirt 1" class="cls-1" d="M214.05,130.37s-24,3.46-27.5,16-6.31,23.73-6.31,23.73l11.61,1.62-3,54.45-.6,1.95s-.28.77.09.9l1.63.41,62.34-1.61a1.83,1.83,0,0,0,.58-1.78l-4.28-49,2.88,3.24s1.47,2.71,3.07,1.11l1.59-1.61,4.49-4.27s7.57-7.06,7-6.5c0,0,1.25,1,2.87-3.16,0,0,1.32-.45-4.46-4.36,0,0-11.24-12.57-14.35-14.37l-1.91-2.57s-6.51-5.89-8.13-7.7c0,0-5-4.2-8.95-4.76C232.61,132.18,224.82,149.83,214.05,130.37Z" transform="translate(-157.24 -52.72)"/><path id="shirt2" class="cls-1" d="M605,143.18c3.86,1.15,7.63,2.46,10.81,5.12a10.87,10.87,0,0,1,1.83,1.68c3.48,4.65,6.83,9.38,10.39,14,2.26,2.9,4.35,5.93,6.61,8.81,2,2.55,1.75,4.08-1,5.49-3.15,1.64-6.49,2.93-9.21,5.31-2.37-.05-5.17,4.89-7.11-1.06.79,11.47,1.7,22.46,2.61,33.45.08,1,.7,2.16-.83,2.65-4.89.28-9.11,2.66-13.34,4.7-8.29,4-16.27,4.44-24.59,0a41.27,41.27,0,0,0-14.37-4.79c.16-9.73,1.53-19.38,2.11-29.08.07-1.14,1-2.54-.73-3.32l-9.69-5.86c-5.82-2.91-6-3-2.59-8.45,4.58-7.28,9.26-14.52,14.32-21.47,2.87-3.94,7.45-5.72,12.14-6.88,6.1,3.49,12.26,6.13,19.07,1.7C602.59,144.44,603.82,143.84,605,143.18Z" transform="translate(-157.24 -52.72)"/><path id="bag" class="cls-2" d="M528,389.11s-13.24,98.77,23.78,125.34c0,0,28.26,35,116.12,5.81,0,0,23.52-18.38-14-49.8S603.56,390.69,528,389.11Z" transform="translate(-157.24 -52.72)"/><path id="face12" class="cls-1" d="M247.68,116.55c-3.9,6.08-5.88,8.22-12.59,6.21a19.35,19.35,0,0,1-3.44-1c-3.64-2-6.59-5.18-3.53-1,1.86,2.51,4.2,11.15,4.2,11.51-3.28,7.86-8.06,9.42-15.34,4.9a6.57,6.57,0,0,1-3.22-6.71,125.13,125.13,0,0,0,1.29-15.83c.07-2-1.29-1.74-2.54-1.88-4.59-.54-6.81-3-6.45-7,0-.32-.05-.76.13-.93,3.64-3.51,1.17-7.35.69-11.1-.16-1.26-.12-2.54-.17-3.82.2-1,.4-2,.59-3.08l.06-1.34a4.25,4.25,0,0,0,1.33-2.69l.82-1.22c1.07-.09,1.62-.91,2.26-1.61,2-2.15,4-3.59,7.32-3,1.77.3,3.35,1.13,5.1,1.29,5.5.5,9.32,3.87,12.89,7.57a5.89,5.89,0,0,0,4.78,2c1.83-.11,2.15-1.75,2.58-3.19.32-1.1.76-2.17,1.15-3.25,2.52.6,3,2.93,3.54,4.8a52.18,52.18,0,0,1,1,22.79m-7.4-3.67c.93.22,1.53,1.61,1.52,2.61,0,1.2-1.61,1-2.57,1.24s-1.75.44-2.62.66c2.38.57,5,.53,6.17-1.49C246.1,106.57,243.37,106.05,242.71,105.14Zm-7.82-3.59c-2.18-.75-3.67-1.62-5-.12a1.51,1.51,0,0,0,.67,2.18C232.65,104.65,232.92,102.29,234.89,101.55Zm13.87-.57c-1.55-1.25-3-1.57-4.46-.55-.88.63-.12,1.89.29,2.16C246.61,103.93,247.31,101.76,248.76,101Z" transform="translate(-157.24 -52.72)"/><path id="pant12" class="cls-1" d="M189.92,229.48l18.32-.58a11.1,11.1,0,0,0,3.88,2.37l0,0c-1-.1-2,1-3,.12-.57-.51-1.11-1.11-1.86-.36a1,1,0,0,0-.15.87,1.45,1.45,0,0,0,1.76,1c2.17-.6,2,.73,1.86,2.1l-1.4.35c.13.23.21.57.4.68.77.4,1-.17,1.28-.75l4.1-1.7c-.52,1.42-1.89,1.85-1.93,3.72,1.69-1.78,3.68-1.76,5.4-2.5,3.56-1.54,1.78,2.62,3.28,3.36,1.55-2.38,2.39-3.06,3.4-2.66,1.88.76,1.78,2.28,1.38,3.89a2,2,0,0,0,0,.92c1.9,8.55.24,17.28,1.35,25.9.33,2.54.64,4.08,3.33,4.36-2.36-.15-3.86.49-3.28,3.32.39,1.91-.59,2.68-2.46,2.67-2.32,0-4.65.12-7,.18l-21-.67c-2.44-.17-4.87-.47-7.31-.45-2.21,0-2.46-1-2.46-2.95,0-9.11,1.82-18.1,1.73-27.22C189.47,240.09,189.77,234.79,189.92,229.48Z" transform="translate(-157.24 -52.72)"/><path id="skirt2" class="cls-1" d="M566.83,218.54a41.27,41.27,0,0,1,14.37,4.79c8.32,4.4,16.3,4,24.59,0,4.23-2,8.45-4.42,13.34-4.7.7,6,1.16,12.12,2.52,18.08l.79,3.84c-.12,2.51,1.21,4.69,1.6,7.09.24,1.48-.12,2.16-1.72,2.17a27.79,27.79,0,0,0-8,1.33l-15.77,3.78-11.1-.59-16.59-3.81a31.24,31.24,0,0,0-5.3-.67c-2.53.11-2.82-1.13-2.47-3.12A55.36,55.36,0,0,0,564.2,237c.44-.67,1.36-1,1.34-2a4.5,4.5,0,0,1,.11-3.09c.42-2.76.75-5.53,1.28-8.27C567.28,221.94,567.83,220.24,566.83,218.54Z" transform="translate(-157.24 -52.72)"/><path id="sb1" class="cls-1" d="M377.39,496.57c-2.43-1.34-5.22-1.28-7.81-2-2.82-.81-4.25-2.44-4.37-5.41-.27-6.45,1.14-12.77,1.43-19.19.13-2.92,2.75-4,5.18-4.92,2,.27,3.93.93,6,.73.49,1,1.42.79,2.23.87a194.28,194.28,0,0,0,21.58.73c4.45-.09,8.84-1.06,13.3-.66,3.93.35,5.64,2,5.94,5.88.25,3.17.33,6.35.52,9.52.08,1.34-.25,2.77.73,4-.29,5.61-1.37,6.7-6.84,7.93-2.43.55-5,.59-7.27,1.75a31.21,31.21,0,0,0-3.75.08,98.65,98.65,0,0,1-20.24,1C381.8,496.67,379.62,496,377.39,496.57Z" transform="translate(-157.24 -52.72)"/><path id="sb2" class="cls-1" d="M480.38,467a7,7,0,0,1,4.16,5.26c-1.66,5-.36,10,.74,14.78.85,3.69.58,5.7-2.76,7.5a27.71,27.71,0,0,1-11.87,3.17,137.9,137.9,0,0,1-27.6-1.66c-2.06-.3-4.25-1.69-6.42-.19-4.45-.37-6.82-2.08-6.93-5.44a148.68,148.68,0,0,1,.05-14.93c.44-6.44,1.45-7.59,5.7-8.37,3.19.85,6.49.77,9.74,1,10.65.57,21.29.82,31.89-.78C478.32,468.81,479.38,468.28,480.38,467Z" transform="translate(-157.24 -52.72)"/><path id="sshoe1" class="cls-1" d="M436.63,495.89c2.17-1.5,4.36-.11,6.42.19a137.9,137.9,0,0,0,27.6,1.66,27.71,27.71,0,0,0,11.87-3.17c3.34-1.8,3.61-3.81,2.76-7.5-1.1-4.81-2.4-9.76-.74-14.78,1.5.18,1.73,1.24,1.83,2.5q.61,7.59,1.3,15.17c.24,2.68-.53,4.56-3.21,5.83-2.87,1.37-5.71,2.83-8.86,3.19-2.89.34-1.88,2.34-1.92,3.78-.06,2.08,1.55,1.1,2.54,1.1,4.95,0,10.07-.57,13.6,4.12,1.81,3.46,2.23,7.22,2.51,11,.17,2.4-1.53,3.83-2.61,5.6l-.73.68c-4.52,3.31-9.56,4.15-15,3.36-2.64-.38-6-1.75-6.53,2.87-.11.82-.94.72-1.53.84a52.7,52.7,0,0,1-17.07,1c-3-.34-4.86-2.05-5.28-5.38a70.79,70.79,0,0,1-.16-14.91,66.62,66.62,0,0,0-.22-13.32c.53-1.79-.66-1.72-1.89-2C439.65,497.39,437.58,498,436.63,495.89ZM474,504.2c-.59,5.17,1.66,8.18,6.11,8.35,1.8.07,2.87-.59,2.83-2.53-.05-2.55-2.37-4.82-5.4-5.15a2.71,2.71,0,0,0,.46.74c.91.75,2.15,1.74.93,2.73s-2.35,0-3.11-1.26C475.21,506.13,475,504.93,474,504.2Z" transform="translate(-157.24 -52.72)"/><path id="sshoe2" class="cls-1" d="M377.39,496.57c2.23-.57,4.41.1,6.61.24a98.65,98.65,0,0,0,20.24-1,31.21,31.21,0,0,1,3.75-.08c0,.65,0,1.31.05,2-.7,8,.28,16.06,0,24.09s-2.05,9.84-10.07,9.8c-3.69,0-7.38-.43-11.06-.66l-1.82-.47c-.56-.47-1.82.12-1.88-.76-.29-4.46-3.38-3.32-6-3.12a6.35,6.35,0,0,0-1.19.32l-1.23.15c-4.91.26-9.24-1.45-13.34-3.94l-2.17-2.41a8.24,8.24,0,0,1-.93-5.13,44,44,0,0,1,1.88-8.88c3.45-4.36,8.21-5.12,13.33-4.9-1.31.87-2.63,1.72-3.91,2.62-1.75,1.24-2.53,3.14-1.66,5,1,2,3.15,1.4,4.75.74,3.73-1.54,5.11-4.6,4.95-8.49Z" transform="translate(-157.24 -52.72)"/><path id="handcuff2" class="cls-1" d="M508.23,351.38c.75,1.3-.12,3.35,1.86,4.1,0,1.25.86,1.56,1.88,1.73,1.56.26,3.13.54,4.69.83a55.88,55.88,0,0,0,27.65-1.68c2.23-.73,5-1.51,5.1-4.77,0-.5,0-1,0-1.49l.32-1.17c2.17.72,3.91,2.3,4.06,4.41.42,6,.45,12,.5,18,0,4.64-3,6.9-6.88,8.41-6.66,2.7-13.64,2.64-20.66,2.53-3.38-.05-6.69-1.16-10.1-.57-2.72-1.59-5.91-1.18-8.83-2.05-2.5-.75-4.05-2.3-4.05-4.66,0-6.46-.63-12.95.52-19.38C504.69,353.29,505.57,351.51,508.23,351.38Z" transform="translate(-157.24 -52.72)"/><path id="ground22" class="cls-1" d="M551.49,311c-2.61.17-3.33-2.25-5.35-3.58,2.89-.85,5.32-1.63,7.22-3.46.42-.4.71-.8.41-1.35a.67.67,0,0,0-1.09-.12c-1.19,1.09-2.4,1-2.61-.56a2.62,2.62,0,0,1,2.56-2.92c1.41,0,2.48.27,2.39-1.67,0-.22.62-.61,1-.67,5.78-.92,11.17-3.72,17.17-3.52v.8c-4.37,6.16-.68,13.65,3.89,16.29,4,2.34,9.64,1.54,12.18-1.7.88-1.12,2.08-2.38.34-3.8a14.07,14.07,0,0,0-4.31-10.61l-.76-2.19,16.05-.08c-.24.45-.48.89-.71,1.34-.42,0-1-.17-1.23,0-3.26,2.26-5.18,11.36-3.09,14.72a6.94,6.94,0,0,0,6.94,3.53c3.23-.39,6.75-.56,8.51-4.14,2.92-4.19,2.48-8.75,1.5-13.38l.28-.25A48.91,48.91,0,0,1,632.16,299c1.1.54,2.48,1,2.1,2.71-.18.86.33.72.91.64,1.54-.21,1.24,1.2,1.5,1.95s-.43,1.39-1.24,1.48c-1.67.18-2,1.95-3.32,2.73-1.49.89-2.38,1.67-4.37,1.37-2.63-.41-1.55,2.7-2.77,3.92-1.68-.37-1-2.29-1.84-3.21-.35.16-.61.18-.7.32a21,21,0,0,1-6.62,5.28c-1.2.49-2.25.66-3.06-.61-.63-1-1.67-.72-2.59-.78-.29-.85.74-2.68-1.51-2.09-.67.17-1.71.31-1,1.35.55.77,1.15,2.25,2.48.72-.25,3-2.24,2.87-4,1.84a3.44,3.44,0,0,0-4.23.21c-1,.68-2.88.44-3.68.82-3.85,1.81-7.48-1.13-10.77-.24s-6.26-.76-9.34,0c-.26.06-.71-.93-1.17-1.31s-.84-.71-1.42-.3c-2.27,1.62-2.27,1.61-4.29,1.19-3.68-.76-8-.56-10.85-2.52s-6.51-1.07-8.89-3.53a4.73,4.73,0,0,0,2.84-1.29c.55-.52,1.72-1,1-2a1.56,1.56,0,0,0-2.51.19c-.75.94-1.44,1.63-2.86,1.26Zm61.9,4.54a4,4,0,0,0,2.54-2.45s-.33-.32-.48-.3C614.13,313,613.87,314,613.39,315.53Zm-57.08-10.68c-.65,0-.9.32-.88.77a.76.76,0,0,0,.77.77c.45,0,.84-.25.74-.71S556.49,305.07,556.31,304.85Zm38.29,11.71c-.17-.08-.38-.25-.51-.2s-.16.32-.24.49c.18.08.39.25.51.2S594.53,316.73,594.6,316.56ZM618.44,314a1.86,1.86,0,0,0,.16-.45c0-.05-.17-.19-.21-.17a2.33,2.33,0,0,0-.36.28Z" transform="translate(-157.24 -52.72)"/><g id="scap"><path class="cls-3" d="M395.19,145.12s22.26-35,62.58-21,32.84,32.41,32.84,32.41-18.23-18-28.27-6L448,173.89,398,170l-6.81-17.87Z" transform="translate(-157.24 -52.72)"/><path class="cls-4" d="M483,150.62s-19.72-14.06-39.35-3.05c0,0,1.52,2.87,9.27,3.57" transform="translate(-157.24 -52.72)"/></g><path id="leg12" class="cls-1" d="M232.49,270.83c7.22-.22,14.45.3,21.65-.45,2.18,11.45,3.56,23.07,6.46,34.37a140.21,140.21,0,0,1,3.24,14.45c-5.28,1.06-10.56,2-15.93.64a104.28,104.28,0,0,1-7.47-24.49c-.38-2,.21-4-.77-5.9A120.35,120.35,0,0,1,232.49,270.83Z" transform="translate(-157.24 -52.72)"/><path id="sbp2" class="cls-1" d="M377.8,466.76c-2.05.2-4-.46-6-.73-3.86-6.14-4.9-12.93-4.62-20,10.21,1.29,20.42,2.52,30.71,3.09,6.37.35,12.73.47,19.1.54,1.33,0,2.66-.12,2.43,1.89-.46,4-1,8-2.91,11.65a4.13,4.13,0,0,1-3.67,2.49,183.39,183.39,0,0,1-32.13,0C379.63,465.59,378.32,465.16,377.8,466.76Z" transform="translate(-157.24 -52.72)"/><path id="leg11" class="cls-1" d="M197.56,276l21,.67c.26,2.17-.9,4-1.28,6.06a137.13,137.13,0,0,0-2.65,25.17c0,5.49-.2,11-.31,16.49-4.78,1.22-9.54.55-14.3-.16-1.2-10.5-2.76-21-1.83-31.59A64.73,64.73,0,0,0,197.56,276Z" transform="translate(-157.24 -52.72)"/><path id="arm23" class="cls-1" d="M180.24,170.15c2.92.37,5.84.76,8.77,1.11,1,.12,2.17-.1,2.74,1.12-.91,2.45-1.73,4.93-2.76,7.32-.39.9-1.76,1.82-.79,2.66,1.12,1,2.56.49,3.56-.73,2.12-.06,4.28.5,6.36-.35,2.58-.59,5.35-.26,7.79-1.56h.25l.25-.06c5-.07,9.82-1.51,14.76-2.1,2.58-.3,3-3.09,4.63-4.46,1.37-2.06,2.54-4.35,5.48-4.48,2.87-.77,4.87-.65,6.62,2.66.83,1.58,2.65,3.16,3.8,5,1.27,2,1.57,3.86.47,5.94-3-2.18-5-1.89-7.88,1.15-8.07,2.95-16.72,3.12-25,5.12-1.81.44-3.74.42-5.45,1.31l-2.51.2-2,.52-3.22.65a9.17,9.17,0,0,0-5.26,1.09,28.75,28.75,0,0,0-4.7.51c-6.6,1.33-10.93-3.27-9.28-9.8C178,178.69,179.12,174.42,180.24,170.15Z" transform="translate(-157.24 -52.72)"/><path id="leg22" class="cls-1" d="M573.19,293.94v-.8c1.53-3,0-6-.91-8.51-1.92-5.07-2.17-10.32-2.72-15.52a47.13,47.13,0,0,1,1.27-18.63l16.59,3.81c.1,2.26-1.5,4-1.63,6.33-.24,4.2-1.28,8.34-1.51,12.53-.33,6.26-1.73,12.55.25,18.78.25.73.51,1.46.76,2.2.21,1.87-.28,2.91-2.51,2.86a8.11,8.11,0,0,0-5.64,1.63c-2.25,2.05-2.41.32-2.83-1.26C574.1,296.17,575.27,294.52,573.19,293.94Z" transform="translate(-157.24 -52.72)"/><path id="chainball" class="cls-5" d="M691.28,300.7c-.34-2.13-2.22-2-3.66-2.37a14.87,14.87,0,0,1-4.9-1.62,28.28,28.28,0,0,1,5.67-1.87c3.31-.87,3.59-1.91,1.29-4.33a7,7,0,0,1-.7-1c-.05-.08,0-.21,0-.39,1.38-.34,2.89.89,4.18-.31l.52-.72c.05-.57,0-1.1-.63-1.32v.07c.29-2.09-1.32-3.77-1.27-5.81l.06,0c5,4.27,11.32,3,17.13,3.87,2,.31,3.28-1.19,4.78-2.07,1.15-.68,2-2,3.55-1.8l.08.08c-.45,2.82-2.51,5.09-2.7,8l-6.31,2.19c3.61.91,6.59-1.63,10.08-1.43-.59,2.17-3.46,2.58-3.54,5.11,1.37-.13,2.05-1.09,2.91-1.75,2.32,2.44,5.87,1.94,8.88,3.67-3.1,1.36-6.47,1.22-9,3.3-2-.49-2.94-2.87-5.53-3.38,1.58,3,4.52,4,6.32,6.21-1.78.86-3.44-.69-5.06.28.71,1.29,2,.39,2.64,1.12-1.67.41-1,1.38-.67,2.4.5,1.68,2.19,2.87,1.91,4.84l0,0c-3.53-1.15-6.13-5.31-10.64-3.29.14-2.25,1.63-4.32,1.4-6.61l-.8-.17q-1.53,5.1-3.07,10.19a4.9,4.9,0,0,0-7.61-2.68,32.93,32.93,0,0,1-4.86,2.59c.79-2.83,1.42-5.11,2-7.39,2.55-.7,5.23-1,7.32-3.16l-10.47,2.7,1.64-2.62c.78-.81,1.84-1.48,1.81-3a3.26,3.26,0,0,0-2.37,2.52Zm12.42-9.9c-2-1.37-3.79-2.59-5.59-3.76-1-.62-1.79-.52-1.38.86.86,2.86,1.42,5.85,3.3,9.12.52-3.09-1.58-5.12-1.06-7.47C700.69,289.59,701.47,291.88,703.7,290.8Z" transform="translate(-157.24 -52.72)"/><path id="leg21" class="cls-1" d="M599.87,293.19c.23-.45.47-.89.71-1.34,1.22-.81,1.37-2.05,1.31-3.36-.25-4.91.19-9.76-1-14.73-1.47-6.13-1.64-12.57-2.37-18.88l15.77-3.78c1.34,5.06,3.11,10.22,2,15.4-1.54,7.3-1.9,14.79-3.87,22a7.79,7.79,0,0,0-.14,4.68H612c-1,1.26-.26,2.85-.75,4.23s-.69,2.47-2.67,1.23a10.59,10.59,0,0,0-6.88-1.74c-.92.11-1.93.14-2.44-.95C599.48,295,600.23,294.23,599.87,293.19Z" transform="translate(-157.24 -52.72)"/><path id="hand22" class="cls-5" d="M558.52,180.28l9.69,5.86c-1.3,7.4-4.31,14.28-6.44,21.43-1.29,4.31-2.12,8.79-4.38,12.8a2.75,2.75,0,0,0,.7,3.42c1.44,1.53,2.62,3.35,2.33,5.68-.38,1-.75,2-1.12,3-1.32,1.36-3.28-.06-4.65,1.07-1.09.28-2-.85-3.15-.34l-2-.07L546.32,232a14.94,14.94,0,0,1,1.28-6.81,35.53,35.53,0,0,0,1.72-7c2.22-11.48,3.41-23.19,7.5-34.26C557.28,182.69,558,181.5,558.52,180.28Z" transform="translate(-157.24 -52.72)"/><path id="hand21" class="cls-1" d="M624.46,183.56c2.72-2.39,6.06-3.68,9.21-5.32,7.57,8.36,13.09,18.11,18.52,27.86,2.17,3.89,3.87,7.86,7.75,10.52,1.39.95,1.07,3-.08,4.33-1.37,1.55-1.64,3.37-1.91,5.25l-1,.82c-4,.23-6.73-2.56-10-4.09l-.5-.6a25,25,0,0,1,.8-5.31,4,4,0,0,0-.91-4.59c-3-3.13-5.4-6.73-8.13-10.07C633.3,196.33,628.14,190.49,624.46,183.56Z" transform="translate(-157.24 -52.72)"/><path id="face2" class="cls-1" d="M605,143.18c-1.18.66-2.41,1.26-3.54,2-6.81,4.43-13,1.79-19.07-1.7l-1-1.41c-3.07-1.48-5.65-5.2-5.65-5.2-2.64-3.15-5.37-6.25-5.18-10.76,2.42.19,4.85.32,7.26.59,1.75.2,2.36-.34,2.49-2.2a28.26,28.26,0,0,1,2.85-11.08c.39,4.12,0,7.67.63,11.2a2.66,2.66,0,0,0,2.93,2.56c8.49.28,16.95.33,25.27-1.73,3.47-.86,3.72-.62,3.24,3-.11.83-.34,1.65-.52,2.48-1.14,2.27-2.11,4.65-3.82,6.59C610.71,138.56,605,143.18,605,143.18Zm-17.46-10.42c1.88-1.31,1.92-2.63,0-3.94a11.54,11.54,0,0,0-3-.59c-1.51.09-3,.71-3,2.54s1.54,2.4,3,2.55A10.62,10.62,0,0,0,587.54,132.76Zm15.9,0c1.58-.93,2.16-2.18.65-3.53a4.26,4.26,0,0,0-5.56-.29c-1.45,1-1.69,2.39.08,3.54A3.82,3.82,0,0,0,603.44,132.75Zm-9.69,5.9a4,4,0,0,0,2.45-.86c.56-.42,1.43-.88.95-1.72s-1.21-.35-1.89,0a3.12,3.12,0,0,1-3.54-.18c-.57-.42-1.27-.5-1.65.1s.16,1.17.65,1.58A4.24,4.24,0,0,0,593.75,138.65Zm-.39,4.7c.93-.14,2.36.17,2.38-1,0-1.43-1.49-1.09-2.45-1.12s-2.23-.2-2.18,1.07S592.51,143.25,593.36,143.35Z" transform="translate(-157.24 -52.72)"/><path id="capend" class="cls-3" d="M483.82,149.75l6.46-2,6.36,1.34c-.15,1.71,1.39,2,2.37,2.64,6.44,4,7.33,10.55,2.07,16.13a7.32,7.32,0,0,0-.06-1c-.22-1.11.91-2.92-1-3.13s-1.29,1.72-1.5,2.81c-.51,2.58-1.34,5-3.89,6.21a9.78,9.78,0,0,1-14.37-9.38c.05-.84.27-1.67.35-2.52.06-.69.39-1.6-.72-1.76-.78-.12-.88.55-1.18,1.14a11.39,11.39,0,0,0-1.07,5.79c-1.87-4.84-.77-9.11,2.47-13,.67-.8,1.37-1.57,2.06-2.36A1.41,1.41,0,0,0,483.82,149.75Z" transform="translate(-157.24 -52.72)"/><path id="ground21" class="cls-1" d="M693.79,304.28c-.63,2.28-1.26,4.56-2,7.39a32.93,32.93,0,0,0,4.86-2.59,4.9,4.9,0,0,1,7.61,2.68c0,.4-.12,1,.09,1.16.64.56.78-.08.94-.56l1.44-4c4.51-2,7.11,2.14,10.64,3.29l.24.11-.21-.14c.28-2-1.41-3.16-1.91-4.84-.31-1-1-2,.67-2.4a18.8,18.8,0,0,1,5.38.75c4.28-.13,7.48,1.91,10.19,5.23-.17.91-1.42.88-1.9,2.1-1.22,3.09-4.88,3.53-7.68,4.05a75.21,75.21,0,0,1-11,1.08c-7.46.28-14.89.67-22.27-.85-2.39-.49-4.32-2.09-6.74-2.52-1-.18-1-5.93.23-6.55,1.63-.86,2.84-2.7,5-2.41C689.7,306.25,691.59,304.25,693.79,304.28Z" transform="translate(-157.24 -52.72)"/><path id="arm" class="cls-1" d="M251.27,208.12l-.81-12c4-4.12,8.07-8.2,12-12.39,1-1.06,2.88-2.16,2-3.79s-1.83-3.62-3.93-4.32c2.11-1.35,3.64-3.34,5.47-5,.81-.75,1.38-1.89,2.72-1.9,2.2,3.24,4.39,6.48,6.63,9.69a1.82,1.82,0,0,1,.15,2.06c-3.53,7-8.79,12.64-14.29,18C258,201.69,255.19,205.52,251.27,208.12Z" transform="translate(-157.24 -52.72)"/><path id="ribbon" class="cls-2" d="M531.26,389.09c.93-1.26,2.27-1.31,3.68-1.37a103.05,103.05,0,0,1,14.8.61c4.92,1.24,9.92,2.32,14.3,5,5.5,3.39,11,8.43,9.2,14.65-3.37,6.14-13.53,9-20.78.76,0,1.66,0,2.94,0,4.23,0,4.19-1.26,6-4.47,6.5-2.71.38-6.1-1.85-6.91-4.91a121.51,121.51,0,0,1-2.69-12.07C537.54,397.16,534.69,393,531.26,389.09Zm19.07,1.51c-3.76-.56-7.51-1.25-12-.74l2.65,1.25c1.73,1.93,3.84,3.48,5.34,5.66,2.67,3.89,5.69,7.53,8.49,11.33,4.27,5.79,13.87,5,16-1.1a2.18,2.18,0,0,0,.54-3.05c-1.81-3.14-3.72-6.36-7-8.21A43.48,43.48,0,0,0,550.33,390.6Zm-13,1.88a78.7,78.7,0,0,1,2.53,8.46,90.29,90.29,0,0,0,3.79,13.58c.7,2,1.93,3.3,4.26,3,2.16-.32,2.52-1.87,2.64-3.71.21-3.15-1.08-5.83-2.12-8.7C546.4,399.36,542.42,395.57,537.36,392.48Z" transform="translate(-157.24 -52.72)"/><path id="ribbon2" class="cls-1" d="M636.3,135.63c-.68-1.31-.59-3-2-4-2.23-2.33-3-5.48-4.62-8.14-.46-.75-.7-1.67,0-2.31a1.69,1.69,0,0,1,2.32.07c1.65,1.5,3.28,1.23,5.21.43,1.13-.46,2.7-1.15,3.89,0s.51,2.78.17,4.18c-.3,1.22-.74,2.42-1.11,3.62a9.74,9.74,0,0,0,1.65,6.33c1.24,2.53,3.26,4.6,4.27,7.3.58,1.54.4,2.17-1.36,2a21.22,21.22,0,0,0-6.58.56c-3,.69-4-.44-3.88-3.57C634.36,139.75,636.54,138.08,636.3,135.63Z" transform="translate(-157.24 -52.72)"/><path id="ribbon1" class="cls-1" d="M547.35,115a3.49,3.49,0,0,0-3,2.23,10.56,10.56,0,0,0-1.09,12c2.41,4.24,3.58,8.8,2.44,13.7a4.33,4.33,0,0,1-3.54,3.6c-1.48.32-1.89-.41-2.21-1.54-.26-1-.5-1.69.75-2.32,3.2-1.61,4.09-4.43,2.8-7.65a95.65,95.65,0,0,1-3.89-12.64c-.64-2.54.65-4.75,1-7.12a2.77,2.77,0,0,1,2-2.52c1.09-.3,1.61-.84,1.42-2,1.69-2,2.38-5.16,6.08-4.6,1.71.25,3.2.69,3.73,2.4.62,2-.69,3.11-2.14,4.15S548.34,113.38,547.35,115Zm1.64-3.8c.09-.71-.08-1.24-.72-1.27-1.6-.07-2.12,1.12-2.48,2.37-.17.58.15,1.17.77,1A3.52,3.52,0,0,0,549,111.2Z" transform="translate(-157.24 -52.72)"/><path id="capbellend" class="cls-3" d="M477.62,166a11.39,11.39,0,0,1,1.07-5.79c.3-.59.4-1.26,1.18-1.14,1.11.16.78,1.07.72,1.76-.08.85-.3,1.68-.35,2.52a9.78,9.78,0,0,0,14.37,9.38c2.55-1.25,3.38-3.63,3.89-6.21.21-1.09-.58-3,1.5-2.81s.8,2,1,3.13a7.32,7.32,0,0,1,.06,1c5.26-5.58,4.37-12.13-2.07-16.13-1-.61-2.52-.93-2.37-2.64,4.5,0,6.83,3.17,9.06,6.38,1.1,1.58,1.81,3.22.55,5.25a13.42,13.42,0,0,0-1.27,4.23c-1.86,8.5-13.72,12.65-21.14,9.39-2.68-1.18-4.11-3.55-5.13-6.19-.14-.82.49-2.06-1.12-2.09Z" transform="translate(-157.24 -52.72)"/><path id="batmiddle" class="cls-1" d="M200.63,145.18l-6.41-6.34L205.39,131l.83.62a32.56,32.56,0,0,0,4.55,7.55C206.89,140.34,204.41,143.87,200.63,145.18Z" transform="translate(-157.24 -52.72)"/><g id="hair2"><path class="cls-1" d="M618.48,113.19c.58,3.29,1.94,6.52.92,10-.34,1.13.56,1.56,1.15,2,4.1,3.17,8.38,6.05,13.78,6.51,1.38,1,1.29,2.65,2,4a27.13,27.13,0,0,1-18-2.83L614.68,131c.18-.83.41-1.65.52-2.48.48-3.65.23-3.89-3.24-3-8.32,2.06-16.78,2-25.27,1.73a2.66,2.66,0,0,1-2.93-2.56c-.67-3.53-.24-7.08-.63-11.2a28.26,28.26,0,0,0-2.85,11.08c-.13,1.86-.74,2.4-2.49,2.2-2.41-.27-4.84-.4-7.26-.59-1.36-.79-3.4-.4-3.9-2.71-.22-1-1.48-.18-2.22-.08-7.62,1-14.2-1.29-20-6.09a3.49,3.49,0,0,1,3-2.23c6,2.19,12.07,1.76,18.16.39a2.35,2.35,0,0,0,2.07-2c2.85-13.13,16.37-18.17,28.09-17.18,7.64.65,14.51,2.55,20.05,8.09.28.29.75.4,1,.7,3.44,3.85,5.2,8.59,7.1,13.27.35.85.49,1.73-.7,2s-1.45-.45-1.7-1.39A25.87,25.87,0,0,0,619,112c-1-2-1.62-4.31-4.17-5C616.87,108.56,617,111.3,618.48,113.19Z" transform="translate(-157.24 -52.72)"/><path class="cls-1" d="M544,110.72c.19,1.13-.33,1.67-1.42,2a2.77,2.77,0,0,0-2,2.52c-6.34,0-10.58-3.51-11.12-9.23-.08-.77-.26-1.65.64-1.84s1.05.8,1.22,1.48a10.45,10.45,0,0,0,1.19,3.57c.3.43.33,1.48.9,1.17s.16-1.23-.16-1.84a13.3,13.3,0,0,1,1.39-8C536.42,105.56,541.27,107.13,544,110.72Z" transform="translate(-157.24 -52.72)"/><path class="cls-1" d="M641.85,135.85a9.74,9.74,0,0,1-1.65-6.33,12.37,12.37,0,0,1,5.46-1.38c3.27-.28,6.39-1,9-3.41C655.33,131.15,648.76,136.55,641.85,135.85Z" transform="translate(-157.24 -52.72)"/></g><g id="ground1"><path id="floor1" class="cls-1" d="M264.45,356.28c-1.93-.92-3.68-1.32-5.15.9-1.23,1.86-2.44,0-3.58-.33-2.45-.74-2.44-.81-2.13,1.59-4.1-1.69-8,.4-12.18.86-.24-1.07,1.55-1.12,1.14-2.43a7,7,0,0,1-5.16.77c-1.47-.26-3.15-.5-4.53.77a2.57,2.57,0,0,1-2.73.3c-2.26-1-5.38.67-7-2.21-.06-.11-.4-.07-.6-.09-.11,2.91-2,1.58-3.08,1.07-1.63-.73-3.11.17-4.68,0-3.77-.4-7.07-2.74-11-2.55-.74,0-.9-.76-1.34-1.15-1.1-1-2-2.32-4.05-1.2-1.17.66-2.33-.95-3.74-1.29,1.06-1.77,3.83-.56,4.25-2.85,10.11.59,20.23.05,30.34.16a2.86,2.86,0,0,0,3.06-2.5c1.7-3.1-1.34-1.52-2.13-2.16-1.65-1.87-4-2.48-6.13-3.57.42-.41,1.22-.86,1.19-1.23-.06-.69-1-.77-1.52-.7a9.49,9.49,0,0,0-2,.75l-1.81-1.1c.28-.77,1.85-1.17.87-2.29-.81-.92-1.44.25-2.16.48-.64-.43-1.39-.76-1.54-1.66a11.36,11.36,0,0,1,1.43-.55c.75-.19,1.51-.38,1.31-1.37s-.94-.67-1.54-.63-1,.18-1.54.27l0-1.67a4.06,4.06,0,0,1,2.48-.21c3.79-.15,7.61-.09,11.37-.5a76.77,76.77,0,0,1,19,.1,1,1,0,0,1,.35.36l0,.83c0,.39.12.73.6.77l0,0c0,1.9.11,3.8.16,5.7a1.2,1.2,0,0,0,.31,2.07c.24,1.32-.4,3.05,2.09,3,9.19-.09,18.38,0,27.57-.09,1.73,0,3.78-.24,3.64-2.9.6-.28.66-.85.75-1.4.11,0,.26,0,.31.05a17.51,17.51,0,0,0,4.58,4.38,1.43,1.43,0,0,1,.63,1.67c-.35,1.2-1.17.42-1.82.4-2.54-.08-2.91,2.67-4.72,3.62-1.32.68-2.09,1.57-4.1,1.07-3.27-.81-2.67,2.47-3.14,4.45-1.68-.56-2.09-1.91-2.31-3.48-.27,1.22-1.88,1.73-.86,3.72.79,1.53-1.51.84-2.39,1.26-1.05.49-1.66.71-1.42-.75.15-.92,0-1.53-1-1.57a1.46,1.46,0,0,0-1.51,1.69c.27,3.1-1.31,2.06-2.79,1.36.89-1,1.67-2,1.34-3.5C264.9,353.77,263.25,354.46,264.45,356.28Z" transform="translate(-157.24 -52.72)"/><path class="cls-1" d="M199.05,346c-.08.22-.17.43-.26.64-2.07-.44-3.51,1.4-4.43,2.32-2.1,2.08-2.57.69-3.48-.73-.44-.7-1.09-1.29-1.06-2.21v0a2,2,0,0,0,2.35.07c.67-.52,2.25-.5,1.7-1.75s-1.46-.27-2,.26c-1.06,1-1.45-.15-2-.57a1.09,1.09,0,0,1-.4-1.39c.49-1.2,1.39-.54,2.16-.43s2.11,1,2.05-.72c-.15-3.95,1.67-5,5.19-3.87l.14.05c.05,2,.09,4.07.13,6.11C197.68,344.58,198.21,345.32,199.05,346Z" transform="translate(-157.24 -52.72)"/></g><g id="hair1"><path class="cls-1" d="M245.88,81.22c-.39,1.08-.83,2.15-1.15,3.25-.43,1.44-.75,3.08-2.58,3.19a5.89,5.89,0,0,1-4.78-2c-3.57-3.7-7.39-7.07-12.89-7.57-1.75-.16-3.33-1-5.1-1.29-3.35-.57-5.36.87-7.32,3-.64.7-1.19,1.52-2.26,1.61-2.31-4.63-4.67-9.22-8.05-13.28,4.41,1.75,6.34,6.77,11,8.55-.65-3.94-.85-7.81-2.71-11.34a6.52,6.52,0,0,1-.53-1.81c-.11-.63-1.12-1.36-.07-1.9s1.52.26,1.93,1.08c1.53,3,3.07,6,5,9.66a133.68,133.68,0,0,0,3.34-16.73c.77,4.44,1.53,8.88,2.41,14,3.38-5.51,4.93-11,6.91-16.39.33,5.95-.78,11.9-.11,18.46A109.73,109.73,0,0,0,236,56.89c.5,5.11-.79,10.11-.38,16.11l8.47-14.48c-1.15,5.71-2.13,10.5-3,15.3-.19,1-.84,2.42.23,2.87,1.23.51,1.52-1.15,2.1-1.92a98.14,98.14,0,0,1,7.81-9.57Z" transform="translate(-157.24 -52.72)"/><path class="cls-6" d="M207.59,86.73c-.2,1-.39,2.06-.59,3.08-3.3-1.27-6.74-2.22-9.93-4.31Z" transform="translate(-157.24 -52.72)"/><path class="cls-6" d="M209,82.7a4.22,4.22,0,0,1-1.34,2.69c-2.14-2.61-5.18-4.4-7.38-7.75C204,78.77,206.26,81.1,209,82.7Z" transform="translate(-157.24 -52.72)"/></g><g id="lac2"><path class="cls-1" d="M249.83,330.43c4.75-1.07,8.41.74,10.36,5.39.57,1.36,1.14,2,2.65,2,6.32-.09,12.65-.09,19-.12,1.05.23,2.25-.23,3.13.72-.09.55-.15,1.12-.75,1.4l-33.3,0a1.2,1.2,0,0,1-.31-2.07c2,0,4,.08,6,0,.65,0,1.68.47,1.89-.47a3.06,3.06,0,0,0-.66-2c-1.77-2.61-4.34-3.5-7.39-3.25l0,0c.08-.47-.24-.64-.6-.77Z" transform="translate(-157.24 -52.72)"/><path class="cls-1" d="M276.3,334.34a5,5,0,0,0-2.26,1c-.53.54-1.15,1.55-2,.58s.35-1.39.76-2a6.75,6.75,0,0,1,.62-.7c.67-.25,1.33-.52,2-.75s1.21-.58,1.65.14S276.83,333.87,276.3,334.34Z" transform="translate(-157.24 -52.72)"/><path class="cls-1" d="M267.38,323.13a1.45,1.45,0,0,1-.3-.06c-1.09-.38-3.08.79-3.2-.8-.14-2,2.12-.69,3.13-1.32.86.46,2.47-.51,2.66.89C269.89,323.42,268.21,322.77,267.38,323.13Z" transform="translate(-157.24 -52.72)"/><path class="cls-1" d="M271.09,330.84,270,332a1.34,1.34,0,0,1-2.18.06c-.63-.8.13-1.2.82-1.6.43-.23.67-.79,1-1.21.8-.21,1.39-1.74,2.32-.7S271.46,330.08,271.09,330.84Z" transform="translate(-157.24 -52.72)"/><path class="cls-1" d="M268.75,327l-1.2.11c-1.07.06-2,2.45-3,.68-.72-1.32,1.23-1.8,2.2-2.46a7.17,7.17,0,0,1,.82-.45c.81.32,2-.56,2.46.48S269.45,326.69,268.75,327Z" transform="translate(-157.24 -52.72)"/></g><g id="bat"><path class="cls-1" d="M193,138.05c-3.32-4.28-8.11-7.07-11.48-11.32-.56-.7-1.26-1.38-1.83-2.12-6.25-8.1-12.44-16.25-18.75-24.3-3.88-4.94-4.47-7-2.39-10.3,3.84-6,12-6.65,16.41-1.19,3.92,4.84,7.37,10.08,11.52,14.7,3.53,3.93,6,8.69,9.9,12.28a2.07,2.07,0,0,1,.38.5q4.32,7.36,8.63,14.73l-11.17,7.81Z" transform="translate(-157.24 -52.72)"/><path class="cls-1" d="M200.63,145.18c3.78-1.31,6.26-4.84,10.14-6,3.74,6.61,8.46,12.56,12.84,18.72,2.54,3.57,5.26,7,7.67,10.71-2.94.13-4.11,2.42-5.48,4.48-3.53-2.71-5.76-6.59-8.66-9.84C211.71,157.17,206.25,151.11,200.63,145.18Z" transform="translate(-157.24 -52.72)"/><path class="cls-1" d="M234.29,183.37c2.89-3,4.87-3.33,7.88-1.15.66,1.42,1.91,1.67,3.33,2,2.77.58,3.6,2.84,2.12,5.26s-5.69,4.13-8.29,3.51c-1.37-.33-2.63-1.19-2.28-2.58C237.82,187.26,235.81,185.46,234.29,183.37Z" transform="translate(-157.24 -52.72)"/></g><g id="f1"><path class="cls-7" d="M245.28,114.52c.05.93.35,2-.71,2.53-1.31.64-1-.9-1.59-1.27-1.86-1.27-3.78-.52-5.67.1-.73.24-1.68,1.12-2.19,0-.61-1.27.7-1.6,1.52-1.87,2.94-1,5.9-1.56,8.68.52Z" transform="translate(-157.24 -52.72)"/><path class="cls-7" d="M243,105.14c.66.91,3.39,1.43,2.49,3-1.12,2-3.78,2.06-6.16,1.49.87-.22,1.75-.42,2.62-.66s2.55,0,2.57-1.24C244.53,106.75,243.93,105.36,243,105.14Z" transform="translate(-157.24 -52.72)"/><path class="cls-7" d="M249.05,101c-1.45.78-2.15,3-4.17,1.61-.41-.27-1.17-1.53-.29-2.16C246,99.41,247.5,99.73,249.05,101Z" transform="translate(-157.24 -52.72)"/><path class="cls-7" d="M235.18,101.55c-2,.74-2.24,3.1-4.32,2.06a1.51,1.51,0,0,1-.67-2.18C231.51,99.93,233,100.8,235.18,101.55Z" transform="translate(-157.24 -52.72)"/></g><g id="pant1"><path class="cls-1" d="M231.31,270.51c-2.69-.28-3-1.82-3.33-4.36-1.11-8.62.55-17.35-1.35-25.9a2,2,0,0,1,0-.92c.4-1.61.5-3.13-1.38-3.89-1-.4-1.85.28-3.4,2.66-1.5-.74.28-4.9-3.28-3.36-1.72.74-3.71.72-5.4,2.5,0-1.87,1.41-2.3,1.93-3.72l-4.1,1.7a3.7,3.7,0,0,1-.28-.28c.15-1.37.31-2.7-1.86-2.1a1.45,1.45,0,0,1-1.76-1,1,1,0,0,1,.15-.87c.75-.75,1.29-.15,1.86.36,1,.89,2-.22,3-.12l.22.14-.25-.11a11.1,11.1,0,0,1-3.88-2.37l44-1c0,13.16,2.55,26.15,2.58,39.31,0,1.08.59,2.37-.7,3.2-7.2.75-14.43.23-21.65.45Z" transform="translate(-157.24 -52.72)"/><path class="cls-1" d="M211,235.22c-.24.58-.51,1.15-1.28.75-.19-.11-.27-.45-.4-.68l1.4-.35A3.7,3.7,0,0,0,211,235.22Z" transform="translate(-157.24 -52.72)"/></g><g id="chain"><path class="cls-1" d="M659.7,234.25c-2.06.9.17,2.21.22,2.26,2.23,2,2.09,4.42,1.59,7a4,4,0,0,0,1.18,2.16,4.61,4.61,0,0,1,1.71,4.8,2.78,2.78,0,0,0,1.75,3.56,3.42,3.42,0,0,1,1.89,4c-1,3.39,2.87,3.52,3.44,5.82.51,2.07.13,4.91,3.47,5.15.12,0,.22.31.33.48-.76.38-1.72.42-2.25,1.21a15.2,15.2,0,0,0,1.12,1.21c.53.45.78,1.73,1.82.9s.06-1.44-.31-2.13a5.18,5.18,0,0,1-.32-1.14c.2.06.51,0,.57.17,1.47,3.06,3.26,5.83,6.51,7.29a1.58,1.58,0,0,1-.22.29c-.94-.46-2.1-1.27-2.77,0-.54,1,.68,1.6,1.47,2,1.41.74,1.92,0,1.91-1.36l.32-.23c1.1,2.4,2.52,4.32,5.41,4.87a3.1,3.1,0,0,1,2.07,2.61,1.88,1.88,0,0,0,2.44,1.71v-.07c-.51.78.18,1,.63,1.32l-.52.72c-1.73-1.46-3.9-1.84-6-2.44l.24-.34c1,0,2-.3,1.77-1.52-.2-1-1.35-1.28-2.18-1.45s-1.63.3-1.21,1.47l-.38.38c-.92-2.25-1.58-4.66-4.86-4.57a2.78,2.78,0,0,1-1.93-1.9c.11-3.28-2.36-4-4.52-5.16a3.46,3.46,0,0,1-2.15-3.53c.13-1.36-.65-2.25-2.1-2.75a3.83,3.83,0,0,1-2.58-4.52c.27-1.7-.3-2.49-1.82-3.13a3.66,3.66,0,0,1-2.18-4.7,2.63,2.63,0,0,0-1.18-3.47,3.86,3.86,0,0,1-1.82-4.12c.7-2.35.63-3.85-2-4.57-.43-.12-.65-1-1-1.59-.14-.35-.28-.71-.41-1.06l0-1.3c1.37-1.44,2-2.86-.11-4.21-.27-.39-.52-.82-1.11-.69v-.1c-.4-2.34.51-4.42,1.35-6.51l1-.82c.2.87-.2,1.91.74,2.58C660.79,230.27,660.62,232.19,659.7,234.25Zm4.85,21.07-.43-.24v.65c.28,1.09.22,2.47,2,2.27.61-.07,1.12-.44.84-1C666.49,256,666.09,254.79,664.55,255.32ZM661,240.5c-.47-.77-.07-2.22-1.65-2.21-.68,0-1.38.19-1.2,1s0,2.3,1.38,2.45A1.22,1.22,0,0,0,661,240.5Zm1.12,6.28c-.71,0-1,.47-.87,1.05.21.78.26,1.76,1.26,2,.53.12,1.21-.11,1-.79C663.32,248.15,663.21,247.09,662.1,246.78Z" transform="translate(-157.24 -52.72)"/><path class="cls-1" d="M622.44,240.51c-.27-1.28-.53-2.56-.79-3.85,1-.63,1.93-1.27,2.91-1.89,1.31-.84,3,0,4.36-1.44,2.43-2.56,6.5-2.85,8.75-5.86.3-.4,1.17-.43,1.79-.5a2.14,2.14,0,0,0,1.95-1.38c.88-2.2,2.78-2.68,4.84-2.91l.3.3a3.86,3.86,0,0,1-1.35,3.63l-1.35.9c-2.79-.92-3.31,1.08-3.88,3l-.06,0c-2.35.7-5.1.47-6.46,3.33a2.58,2.58,0,0,1-2.77,1.12c-2-.39-2.9.71-3.47,2.36l0,.07-1,.26-1.51.6c-.85-.23-1.84-1.18-2.53-.31s.75,1.2,1,1.89c.08.21-.18.55-.28.82Z" transform="translate(-157.24 -52.72)"/><path class="cls-1" d="M546.32,232l3.23,1.14c-.09.25-.17.5-.25.75s-.66.59-.6.7c1.61,3.27-.64,6.73.49,10,.07.2.29.46.22.57-1.92,3.45,1.2,7.26-.78,10.71a2,2,0,0,0,.24,2.38,3.44,3.44,0,0,1,.63,2.71c-.09,1.07-.55,1.92-1.75,1.82-1-.09-1.74-1.05-1.34-1.79,1.87-3.44-1.23-7.11.74-10.6.9-1.59-1.72-3.44-.69-5.11,1.28-2.1.49-3.81-.24-5.66,0-.51,0-1,0-1.52C548.31,236.13,546.26,234.07,546.32,232Z" transform="translate(-157.24 -52.72)"/><path class="cls-1" d="M560.42,229.47c1.27,1.81,2.89,2.91,5.23,2.49a4.5,4.5,0,0,0-.11,3.09c-.76,0-1.65.08-2-.68-.87-2-2.57-1.89-4.26-1.86C559.67,231.49,560,230.48,560.42,229.47Z" transform="translate(-157.24 -52.72)"/></g><path id="legp1" class="cls-1" d="M435.45,467.15c-3.56-3.87-3.71-8.87-4.5-13.65a23.82,23.82,0,0,1-.13-2.81c16.76-.83,33.47-2.14,50-5.05,1.36-.24,2,.09,2,1.54.13,6.14-.69,12.09-3.6,17.58a15,15,0,0,1-2.19,2.56c-10.59,1.6-21.23,1.35-31.88.78C441.94,467.92,438.64,468,435.45,467.15Z" transform="translate(-157.24 -52.72)"/><g id="shoe12"><path class="cls-1" d="M247.91,319.84c5.37,1.37,10.65.42,15.93-.64,1.23.27,3.47-1.28,3.17,1.75-1,.63-3.27-.72-3.13,1.32.12,1.59,2.11.42,3.2.8a1.45,1.45,0,0,0,.3.06c.08.6.15,1.19.23,1.79a7.17,7.17,0,0,0-.82.45c-1,.66-2.92,1.14-2.2,2.46,1,1.77,1.89-.62,3-.68l1.2-.11.9,2.17c-.32.42-.56,1-1,1.21-.69.4-1.45.8-.82,1.6A1.34,1.34,0,0,0,270,332l1.07-1.12,2.29,2.34a6.75,6.75,0,0,0-.62.7c-.41.62-1.66,1-.76,2s1.51,0,2-.58a5,5,0,0,1,2.26-1c2,.89,4.1,1.52,5.52,3.34-6.33,0-12.66,0-19,.12-1.51,0-2.08-.62-2.65-2-1.95-4.65-5.61-6.46-10.36-5.39a1,1,0,0,0-.35-.36,37.56,37.56,0,0,0-1.81-7.83C247.41,321.41,246.67,320.53,247.91,319.84Z" transform="translate(-157.24 -52.72)"/><path id="shoe12-2" data-name="shoe12" class="cls-1" d="M250.9,339.77l33.3,0c.14,2.66-1.91,2.88-3.64,2.9-9.19.1-18.38,0-27.57.09C250.5,342.82,251.14,341.09,250.9,339.77Z" transform="translate(-157.24 -52.72)"/><path class="cls-8" d="M250.43,332c3-.25,5.62.64,7.39,3.25a3.06,3.06,0,0,1,.66,2c-.21.94-1.24.46-1.89.47-2,.06-4,0-6,0C250.54,335.8,250.48,333.9,250.43,332Z" transform="translate(-157.24 -52.72)"/></g><g id="lace1"><path class="cls-1" d="M198.81,336.18c5.4-.27,8.23,1.37,10.16,6.11a2.24,2.24,0,0,0,2.5,1.75c6.23-.12,12.46-.08,18.69-.09.79.64,3.83-.94,2.13,2.16L199.05,346c-.84-.72-1.37-1.46,0-2.2,2,0,4,.11,6,.1.69,0,1.6.34,2-.49s-.2-1.6-.65-2.3c-1.74-2.76-4.71-2.86-7.47-3.42l-.14-.05Z" transform="translate(-157.24 -52.72)"/><path class="cls-1" d="M217,328.42c.61.79,3.8-1.09,2.11,2.05a4.06,4.06,0,0,0-2.48.21,6.17,6.17,0,0,0-.62-.09c-.88,0-2.18.37-2.23-.95-.06-1.15,1.22-.84,2-1C216.2,328.54,216.61,328.49,217,328.42Z" transform="translate(-157.24 -52.72)"/><path class="cls-1" d="M219.85,338.1a4.4,4.4,0,0,0-.46.4c-.74.87-1.68,2.07-2.71.93s.23-2,1.14-2.65c.24-.18.5-.33.74-.49.72-.23,1.35-1.4,2.16-.48C221.7,336.93,220.13,337.33,219.85,338.1Z" transform="translate(-157.24 -52.72)"/><path class="cls-1" d="M217,334.63c-.44.23-.91.42-1.33.68s-1.1.73-1.54,0a1.17,1.17,0,0,1,.49-1.6c.65-.47,1.36-.89,2-1.33.51-.09,1-.23,1.54-.27s1.36-.22,1.54.63-.56,1.18-1.31,1.37A11.36,11.36,0,0,0,217,334.63Z" transform="translate(-157.24 -52.72)"/><path class="cls-1" d="M224,340.38c-.37.16-.73.34-1.1.48-1,.37-1.74,2.32-2.76,1.17-1.18-1.34,1.06-1.81,1.49-2.83a9.49,9.49,0,0,1,2-.75c.56-.07,1.46,0,1.52.7C225.25,339.52,224.45,340,224,340.38Z" transform="translate(-157.24 -52.72)"/></g><path id="leg34" class="cls-1" d="M612,293.17l.51.77c1,4.63,1.42,9.19-1.5,13.38-2.57-.88-4.2,1.39-6.36,1.93-5.09,1.29-8.5-1.4-8-6.59a13.1,13.1,0,0,1,2.58-6.72c.51,1.09,1.52,1.06,2.44.95a10.59,10.59,0,0,1,6.88,1.74c2,1.24,2.17.18,2.67-1.23S610.94,294.43,612,293.17Z" transform="translate(-157.24 -52.72)"/><path id="leg22-2" data-name="leg22" class="cls-1" d="M574.31,297.36c.42,1.58.58,3.31,2.83,1.26a8.11,8.11,0,0,1,5.64-1.63c2.23.05,2.72-1,2.51-2.86a14,14,0,0,1,4.31,10.6c-2.07,2.9-4.43,5.44-8.43,4.78C575.32,308.54,572.69,303.77,574.31,297.36Z" transform="translate(-157.24 -52.72)"/><path id="lace21" class="cls-1" d="M599.25,295.94a13.1,13.1,0,0,0-2.58,6.72c-.53,5.19,2.88,7.88,8,6.59,2.16-.54,3.79-2.81,6.36-1.93-1.76,3.58-5.28,3.75-8.51,4.14a6.94,6.94,0,0,1-6.94-3.53c-2.09-3.36-.17-12.46,3.09-14.72.28-.19.81,0,1.23,0C600.23,294.23,599.48,295,599.25,295.94Z" transform="translate(-157.24 -52.72)"/><path id="lace22" class="cls-1" d="M574.31,297.36c-1.62,6.41,1,11.18,6.86,12.15,4,.66,6.36-1.88,8.43-4.78,1.74,1.42.54,2.68-.34,3.8-2.54,3.24-8.15,4-12.18,1.7-4.57-2.64-8.26-10.13-3.89-16.29C575.27,294.52,574.1,296.17,574.31,297.36Z" transform="translate(-157.24 -52.72)"/><path id="nose2" class="cls-7" d="M593.75,138.65a4.24,4.24,0,0,1-3-1.1c-.49-.41-1-1-.65-1.58s1.08-.52,1.65-.1a3.12,3.12,0,0,0,3.54.18c.68-.33,1.4-.84,1.89,0s-.39,1.3-.95,1.72A4,4,0,0,1,593.75,138.65Z" transform="translate(-157.24 -52.72)"/><path id="mouth2" class="cls-7" d="M593.36,143.35c-.85-.1-2.19.18-2.25-1s1.3-1.1,2.18-1.07,2.47-.31,2.45,1.12C595.72,143.52,594.29,143.21,593.36,143.35Z" transform="translate(-157.24 -52.72)"/><g id="hND32"><path class="cls-1" d="M516.64,381.66c3.41-.59,6.72.52,10.1.57,7,.11,14,.17,20.66-2.53,1.31,2.8,1.56,6,3.34,8.63a103.05,103.05,0,0,0-14.8-.61c-1.41.06-2.75.11-3.68,1.37-4.85.75-6.46,2.92-5.35,7.5a18,18,0,0,1,.4,4.06c-2.77,1.87-5.1,1.08-7.22-2.57A27.33,27.33,0,0,1,516.64,381.66Z" transform="translate(-157.24 -52.72)"/><path class="cls-1" d="M551.33,390.6l.14,4.88c-3.4-.9-6-3.64-9.45-4.37l-2.65-1.25C543.82,389.35,547.57,390,551.33,390.6Z" transform="translate(-157.24 -52.72)"/></g><g id="shoe11"><path id="shoe11-2" data-name="shoe11" class="cls-1" d="M200.06,324.24c4.76.71,9.52,1.38,14.3.16,3.91,0,3.91,0,2.74,3.72,0,.1,0,.2-.08.3-.41.07-.82.12-1.23.21-.77.17-2-.14-2,1,0,1.32,1.35.91,2.23.95a6.17,6.17,0,0,1,.62.09l0,1.67c-.68.44-1.39.86-2,1.33a1.17,1.17,0,0,0-.49,1.6c.44.76,1,.36,1.54,0s.89-.45,1.33-.68c.15.9.9,1.23,1.54,1.66-.24.16-.5.31-.74.49-.91.67-2.09,1.59-1.14,2.65s2-.06,2.71-.93a4.4,4.4,0,0,1,.46-.4l1.81,1.1c-.43,1-2.67,1.49-1.49,2.83,1,1.15,1.78-.8,2.76-1.17.37-.14.73-.32,1.1-.48,2.1,1.09,4.48,1.7,6.13,3.57-6.23,0-12.46,0-18.69.09a2.24,2.24,0,0,1-2.5-1.75c-1.93-4.74-4.76-6.38-10.16-6.11-.06-3.14-.13-6.28-.17-9.41C198.63,325.67,198.25,324.33,200.06,324.24Z" transform="translate(-157.24 -52.72)"/><path class="cls-1" d="M199.05,346l33.24.07a2.86,2.86,0,0,1-3.06,2.5c-10.11-.11-20.23.43-30.34-.16,0-.59-.07-1.18-.1-1.77C198.88,346.47,199,346.26,199.05,346Z" transform="translate(-157.24 -52.72)"/><path class="cls-1" d="M199,343.84c0-2-.08-4.07-.13-6.11,2.76.56,5.73.66,7.47,3.42.45.7,1.06,1.45.65,2.3s-1.31.49-2,.49C203,344,201,343.88,199,343.84Z" transform="translate(-157.24 -52.72)"/></g><g id="eye2"><path class="cls-7" d="M603.44,132.75a3.82,3.82,0,0,1-4.83-.28l.49-.52a6.2,6.2,0,0,0,3.92.29Z" transform="translate(-157.24 -52.72)"/><path class="cls-7" d="M587.53,128.82c1.93,1.31,1.89,2.63,0,3.94-.16-.18-.32-.35-.47-.53a1.72,1.72,0,0,0,0-2.9Z" transform="translate(-157.24 -52.72)"/><path class="cls-7" d="M598.61,132.47c-1.77-1.15-1.53-2.53-.08-3.54a4.26,4.26,0,0,1,5.56.29c1.51,1.35.93,2.6-.65,3.53l-.42-.51c.51-.63,1.25-1.24.62-2.12-.26-.38-.82-.54-1.24-.8-.6,1.51-2.71,1.11-3.3,2.63Z" transform="translate(-157.24 -52.72)"/><path class="cls-7" d="M587.54,132.76a10.62,10.62,0,0,1-3,.56c-1.46-.15-3-.66-3-2.55s1.5-2.45,3-2.54a11.54,11.54,0,0,1,3,.59l-.44.51c-2.08-.52-2.35,2.21-4.31,2,1.38,1.67,2.91.72,4.29.86Z" transform="translate(-157.24 -52.72)"/><path class="cls-8" d="M587.09,129.33a1.72,1.72,0,0,1,0,2.9c-1.38-.14-2.91.81-4.29-.86C584.74,131.54,585,128.81,587.09,129.33Z" transform="translate(-157.24 -52.72)"/><path class="cls-8" d="M603,132.24a6.2,6.2,0,0,1-3.92-.29c.59-1.52,2.7-1.12,3.3-2.63.42.26,1,.42,1.24.8C604.27,131,603.53,131.61,603,132.24Z" transform="translate(-157.24 -52.72)"/></g><line id="line5" class="cls-5" x1="34.6" y1="119.04" x2="38.71" y2="105"/><line id="liine9" class="cls-5" x1="92.86" y1="56.08" x2="90.43" y2="63.83"/><path id="hand31" class="cls-1" d="M337.73,381.31s3.64,9.31,1.4,12.4-7.47-1.28-7.39-1.87-1.33-2.13-1.33-2.13-1.36,14.26-3.91,17-3.9,2.36-3.9,2.36-2.63.25-6-2.63-14.27-5.38-14.27-5.38-4.49-1-4.36-6.82A107.8,107.8,0,0,1,299,379.41S306,386.86,337.73,381.31Z" transform="translate(-157.24 -52.72)"/><path id="cuff1" class="cls-9" d="M299,379.41s-4.29-3.14-4.26-6.2.46-18.19.46-18.19,0-4.09,5.6-5.08l.22,3.25s7.66,9,39.83,3.09a3.78,3.78,0,0,0,2.12-2.66c.43-2,2.2,3.72,2.21,3.82s0,19,0,19,.84,2.57-3.2,4S303.88,386.37,299,379.41Z" transform="translate(-157.24 -52.72)"/><path id="line2" class="cls-9" d="M356.49,267.54s-9.9,20.46,3.4,50.62" transform="translate(-157.24 -52.72)"/><path id="band" class="cls-1" d="M360.23,317.4s40,11.83,132.12.06a110,110,0,0,1,1.18,26.35s-68,26.72-135.28.94C358.25,344.75,359.6,327.49,360.23,317.4Z" transform="translate(-157.24 -52.72)"/><path id="line" class="cls-9" d="M494.76,267.54s8.34,20.46-2.87,50.62" transform="translate(-157.24 -52.72)"/><path id="sback" class="cls-4" d="M358.25,344.75s-13,37.54-5.85,70.18c0,0,73.36,18.1,147.91-1.85,0,0,11-21.05-6.78-69.27C493.53,343.81,437.31,369.39,358.25,344.75Z" transform="translate(-157.24 -52.72)"/><path id="sb" class="cls-1" d="M353.4,413.93s-5.74-.51-6.35,7.59-1.12,13-1.12,13,0,7.28,4.11,8.6c0,0,80.29,17.56,156-3.93,0,0,5.4-4.43-.44-21.77,0,0-.41-4.07-4.48-4S445.76,431.4,353.4,413.93Z" transform="translate(-157.24 -52.72)"/><path id="capstart" class="cls-2" d="M464.73,157.23s-2.73-4-3.24-6.93c0,0-2.55,8.78-22.64,11.94s-41.69-5.79-41.69-5.79-6.62-5-2.59-10.79v-.83s-16.54,7.86-6.64,33.45c.24.63.47,1.23.7,1.8,5.49,4.33,32.87,23.31,67.7,2.35C456.33,182.43,466.78,171.36,464.73,157.23Z" transform="translate(-157.24 -52.72)"/></svg>