<svg id="Layer_1" data-name="Layer 1" xmlns="http://www.w3.org/2000/svg" viewBox="0 0 567.18 581.65"><defs><style>.cls-1,.cls-4{fill:#fff;}.cls-1,.cls-2,.cls-3{stroke:#000;stroke-miterlimit:10;stroke-width:0.25px;}.cls-2{fill:#fdfcfb;}.cls-3{fill:#fffbf4;}</style></defs><title>draw_3</title><g id="bground"><path class="cls-1" d="M386.87,202.78l25.06,4.07,13.4,16.81s-20.78,22.91-21.54,23.17-15.92,1-15.92,1Z" transform="translate(-88.72 -10.18)"/><polygon class="cls-1" points="332.22 358.8 379.34 363.04 368.82 396.12 331.15 430.52 321.05 412.06 332.22 358.8"/><polygon class="cls-1" points="190.02 365.34 207 365.73 189 393.17 175.22 390.36 179.49 369.29 190.02 365.34"/><path id="back_fire" data-name="back fire" class="cls-1" d="M318.34,591.7c-.42-.92-1.27-.59-1.95-.61-22.31-.54-44.61-1.5-66.85-3.28-20.85-1.67-41.7-3.39-62.14-8.17a29.18,29.18,0,0,1-15.87-9.79c-10.69-12.34-19.43-26-28-39.84-12.2-19.79-21-41.08-28.79-62.85-2.17-6-.06-8.72,6.37-8,7.17.84,14.31,1.87,21.46,2.85,2.47.34,4.94.76,6.62-1.74s.49-4.47-.74-6.52c-13.85-23.14-22.67-48.22-28.71-74.38-1.22-5.29.52-7.49,6-7.12,3.8.27,7.58.92,11.37,1.41,5.42.71,8.14-2.56,5.68-7.46-6.59-13.16-9.22-27.38-11.75-41.66-.33-1.86-.78-3.82.17-5.63,1.17-2.23,3.2-2.47,5.47-2.31a157.74,157.74,0,0,1,32.2,5.91c2.79.79,5.56,1.35,7.7-1s1-5.16-.32-7.43c-3.51-6.26-5.09-13.18-7-19.95a271.39,271.39,0,0,1-8.31-43.42,29.34,29.34,0,0,1-.2-3.5c0-3.25,1.85-5.14,5.25-4.95,4.34.24,8.69.69,13,1.28,5.36.73,7.53-1.6,6.27-7a278.7,278.7,0,0,1-7.32-55.16c-.19-6,2-7.76,7.73-6.19,15.77,4.31,31.34,9.22,46.17,16.21,2,1,4,1.51,6,0s1.93-3.86,1.35-6.12a157.53,157.53,0,0,1-4.56-32.11c-.21-5,1.81-6.83,6.75-6.06a82,82,0,0,1,16.3,4.2c4.71,1.77,7.48-.06,7.59-5.1.32-15.55,2.44-30.89,5.29-46.15,1.05-5.62,3-6.81,8.35-5,11,3.71,21.18,9.21,31.19,15,2.38,1.38,4.8,2.7,7.18,4.08,3.49,2,6,1.32,7.68-2.43a201,201,0,0,1,13.66-25.52c5.53-8.78,12.54-16.25,19.89-23.45,2.68-2.63,4.74-2.58,7.47,0,6.1,5.81,11.16,12.5,16.36,19.1,7,8.9,12.13,18.82,16.81,29,2.2,4.82,4.55,5.53,9,2.69A220.78,220.78,0,0,1,444.88,95c4.89-2,6.84-.6,8.19,4.39,4.22,15.66,5.32,31.69,6.19,47.77.22,4,3,5.71,6.92,4.3a84.87,84.87,0,0,1,17.22-4.47c4.18-.57,6.65,1.62,6.5,5.85-.08,2.55-.33,5.09-.5,7.63a42.49,42.49,0,0,0-14.72,6.2c-5.12,3.51-5.63,5.6-3,11.09-2.91,1.94-5.26,4.34-5.91,7.92-.19,1.08-.87,1.27-1.62,1.67a10.48,10.48,0,0,0-5.76,7.58,3.73,3.73,0,0,1-2.1,2.81c-2.78,1.69-4.33,4.15-5.73,7.2-1.24,2.69-5.22,3.72-6.5,6.92a28.48,28.48,0,0,0-.85,3,223.12,223.12,0,0,0-34.42-18c2.68-5.57,5.13-11.2,4.42-17.62.4-4.35-.05-4.85-4.05-4.77a4.11,4.11,0,0,1-1.44-.54c-3-1.25-5-.37-6.26,2.82-3.24,4.28-6.48,8.55-11.58,10.84C385.66,179.09,379,173,371,168.24c-1.74-5.75-9.34-10.91-16.5-11.6-8.5-.81-15.36,2.14-21,8.39a3.85,3.85,0,0,0-1.23.05c-10.6,4.1-19.67,10.07-25,20.55-.89-.91-1.84-1.76-2.66-2.72-4.14-4.87-6.25-10.74-8.2-16.69-.38-1.18-.73-2.48-2.38-2.59s-2.18,1.05-2.83,2.15c-8.16,13.78-2.92,33.8,10.93,41.76-.21,6.26-.17,12.52,1.57,18.6.51,1.79.67,4.1,3.32,4.39l-.1,1.17c.11,11.38-2.69,9.4,9.91,11.14l.31,0-.68,7.32c-1.26.53-2.88-.55-3.93.88-1.34-.22-1.92.28-1.86,1.7.1,2.21.07,4.42.1,6.63-4-.07-4.05-.05-3.19,3.81a50.13,50.13,0,0,0,3.95,11.29,4,4,0,0,0,3.27,2.62c2.32.16,2.42,1.56,2.23,3.29a107.41,107.41,0,0,0-15.17,2.06c-8.44.75-16.52,3.22-24.74,5.09-3.89.88-6.44,2.79-6.74,7l-.42.7c-.51,0-1.11-.17-1.52,0-6.39,3.23-12.45,6.93-17,12.57a195.93,195.93,0,0,0-17.34,24.66c-7.77,13.3-15.42,26.58-18.87,41.89-2.4,10.65-2.12,20.4,4.77,29.61a198.11,198.11,0,0,0,23.2,25.31,4.64,4.64,0,0,0,2.55,1.17,13,13,0,0,0,2.1,1.91c2.64,1.49,2.41,3.05.56,5.12-4.92,5.52-9.29,11.49-13.71,17.41a17,17,0,0,0-3.22,6.82,106.44,106.44,0,0,0-.61,39.54c1.31,7.85,3.07,8.91,11,7.92a114.5,114.5,0,0,0,36.93-11.1,20.74,20.74,0,0,0,8-6.56c2.61-3.6,5.42-7.06,8.14-10.59a5.48,5.48,0,0,0,.59,3,2.7,2.7,0,0,0,.7,2.58l-1.89,21.5a3.06,3.06,0,0,0-2.22,3.38c.09,2.52,0,5,.05,7.57-.88,4.16.24,8.32,0,12.49-.82-.22-1.71-.52-2.24.42s.34,1.51.89,2.11,1,1,1.53,1.57l.51,8.66c-1.15-.12-2.58-1.19-3.35.2s.87,2,1.59,2.93c.13.15.28.3.42.45-6.55,4.14-13.55,7.64-19,13.36-2.32,2.44-3.7,5.1-2.55,8.55-.43,1.73.25,3.33.51,5s1.14,2.09,2.6,2.18c17.9,1.08,35.8,1.63,53.65-.7,5.62-.74,5.6-.87,6.92-6.52a5,5,0,0,0,0-1,6.62,6.62,0,0,0,.71-1.37,409.1,409.1,0,0,0,8-41.94,30.38,30.38,0,0,0,.8-3.95c.19-2.36,1.67-4.93-.87-7q2.06-10.5,4.1-21c.63-.51,1.33-1,1.22-1.94a7,7,0,0,0,1.24-1.38c2.22-4.37,2.3-9.19,2.85-13.91l1.2-1.36c4,0,8,.16,12.06-.12,2.22-.15,3,.22,3.43,2.61.82,4.63.89,9.46,3.11,13.78-.35,1.45.76,2,1.68,2.59.83,7,2.77,13.83,4.08,20.76-.69.8-1.56,1.6-1.32,2.75.59,2.88.47,5.9,1.65,8.67a22,22,0,0,0,.14,3.15c2.49,13.1,3.93,26.44,8.51,39.09A36.79,36.79,0,0,1,387,572c.26,2.61,1.49,3.6,4.22,4,18.41,2.76,36.85,2.07,55.31,1,1.21-.07,2.08-.41,2.3-1.67.33-1.86,1.24-3.64.71-5.61,1.29-3.33-.07-5.92-2.29-8.29-5.26-5.62-11.82-9.48-18.23-13.56.22-.22.44-.43.64-.67.71-.81,2.15-1.49,1.44-2.74s-2-.34-3.07-.1a3,3,0,0,1-.61,0q.24-4.33.47-8.67c.55-.49,1.11-1,1.64-1.45s1.52-1.29,1-2.38c-.62-1.3-1.63-.25-2.46-.28q.09-5.9.17-11.79c.55-2.92.08-5.84,0-8.76a2.79,2.79,0,0,0-2.7-2.89q-.78-10.8-1.55-21.59a2.42,2.42,0,0,0,.35-1.94c1.4-1.13,1-2.64.86-4.1q-1.1-11.33-2.18-22.66c4.88,6.08,10.88,9.81,19,8.5a19.24,19.24,0,0,0,15.81-20.64c1.14-1.64,3.71-2.35,3.28-5a32.12,32.12,0,0,0,6.92-4.87,28.29,28.29,0,0,0,7.23-5.69c9.59-8.08,18.65-16.64,25.79-27.07,3.9-5.69,6.67-11.75,5.89-18.71a82.69,82.69,0,0,0-4-18.3,126,126,0,0,0-15.34-30.54c-4.29-6.17-7.93-12.81-12.22-19-3.75-5.4-7.51-10.76-12.88-14.83-6.86-5.2-14.72-8.37-22.5-11.75.59-.87,1.18-1.75,1.78-2.61,8-11.34,17.32-21.64,25.21-33,8.19,5.81,15.45,12.81,23.76,18.47,1.69,1.15,3.24,1.58,4.9.23s1.66-3.12.81-4.89a38.34,38.34,0,0,0-2.35-4.14c-5.57-8.55-12.63-15.86-19.58-23.23-4.27-4.54-9.05-8.59-13.6-12.85a10.18,10.18,0,0,0,5.57-5.84,7.37,7.37,0,0,1,3.6-4.62c3.08-1.76,3.35-5.73,5.12-8.26s5.34-4.33,6.21-7.94a2.92,2.92,0,0,1,1.72-2.21,13.82,13.82,0,0,0,6.69-8c4.44,1.2,5.51.74,9-3.87,13.26-5.54,27.11-9.12,41.05-12.39,4.52-1.06,6.9.92,6.69,5.76a286.48,286.48,0,0,1-7.3,55.16c-1.53,6.32.58,8.68,7,7.61a67.33,67.33,0,0,1,12.35-1.15c3.62.06,5.49,2.09,5.09,5.7-1.12,10.23-2.17,20.52-4.91,30.45-3.42,12.42-6.34,25-11.26,37-.88,2.14-1.48,4.26.33,6.25s3.92,1.59,6.18,1a210.9,210.9,0,0,1,32.79-6.21c4.89-.51,6.93,2.32,6,7.09-1.25,6.34-2.26,12.74-3.79,19a157.47,157.47,0,0,1-7.59,23.6c-.86,2.06-1.37,4,.23,6s3.73,1.85,5.85,1.43a83.72,83.72,0,0,1,12-1.33c4-.19,6,2,5.25,5.92-2.59,12.59-5.85,25.07-10.8,36.9-5.58,13.34-10.91,26.86-18.43,39.32-1.22,2-1.87,4.11-.24,6.21s3.79,2,6.09,1.52a182.67,182.67,0,0,1,23-2.92c5.1-.34,7,2.32,5.41,7.15-4.35,12.77-9,25.44-15.2,37.42-9.93,19.3-19.9,38.64-33.49,55.74-4.34,5.46-9.19,10.51-13.93,15.63-2.17,2.34-5.27,3.09-8.22,4-10.21,3.06-20.76,4.38-31.28,5.66-34.09,4.13-68.35,5.74-102.66,6.53l-17.84,0c-4.27.3-8.61-.81-12.82.61H350.24c-4.22-1.41-8.56-.31-12.83-.61-2,0-4-.12-6,0-2.44.18-5-.81-7.32.58ZM258.85,244.53a1.93,1.93,0,0,0-1.4-1.57,10.84,10.84,0,0,0-3.36-.87c-4.51.06-6.4-2-6.45-6.54,0-1.82.29-5.11-3-4.92-3.08.18-2.74,3.18-2.86,5.19-.24,3.88-1.36,6.17-5.87,6-1.66-.05-4.78,0-4.73,2.65s3.1,2.62,5,2.72c3.71.18,5.86,1.4,5.71,5.47a11.72,11.72,0,0,0,.89,3.36,1.89,1.89,0,0,0,2.1,1.51,1.78,1.78,0,0,0,1.8-1.47,38.48,38.48,0,0,0,1.42-6.17c.15-1.64.77-2.15,2.26-2.33a27.56,27.56,0,0,0,6.83-1.4C258,245.85,258.72,245.54,258.85,244.53ZM531.16,503.64c-2.21.74-2,3-2.36,4.87-.94,5.26-.92,5.13-6,6.31-1.95.45-5.38-.06-5.16,2.92.19,2.62,3.38,2.32,5.51,2.61,4.86.65,4.85.61,5.73,5.3a29.75,29.75,0,0,0,1,3.35c.26.84.64,1.6,1.73,1.56s1.44-.84,1.65-1.67a52.9,52.9,0,0,0,1.33-6.19c.16-1.31.58-1.79,1.88-2,2.3-.33,4.58-.84,6.84-1.37.89-.21,2-.44,2-1.66,0-1.39-1.16-1.63-2.18-1.88a32,32,0,0,0-5.89-1.22c-2-.1-2.54-1.05-2.54-2.77a21.76,21.76,0,0,0-1.24-6.53A2.05,2.05,0,0,0,531.16,503.64Zm28.32-96.78c-.91.62-2.06,1.09-2,2.53.34,5.32-1.88,8.07-7.48,7.64-.85-.06-2.07.27-2,1.53s1.19,1.5,2.1,1.5c4.68,0,8.11,1.27,7.49,7a.79.79,0,0,0,.14.6c.67.62,1,1.87,2,1.77s1-1.24,1.14-2.06a31.21,31.21,0,0,0,.61-3.43c.18-2.11.75-3.65,3.35-3.32a5.43,5.43,0,0,0,1.87-.33c1.53-.38,4.17.12,4.12-1.78,0-1.64-2.65-1.5-4.27-1.6-2.94-.2-5.36-.67-4.84-4.61a11.89,11.89,0,0,0-.71-4.05C560.85,407.5,560.49,406.79,559.48,406.86ZM172,414.75a1.5,1.5,0,0,0,1.21-1.66c-.5-6.29,3.13-7.92,8.51-7.84.81,0,2.2-.14,2.27-1.32.09-1.54-1.62-1.5-2.36-1.45-5.81.41-8.3-2.27-8-8,0-1-.2-2.35-1.62-2.27-1.19.06-1.42,1.42-1.38,2.23.31,5.49-2,8.23-7.68,7.91-.84-.05-2.07.35-2,1.59.08,1,1.12,1.38,1.93,1.34,5.44-.23,8.23,2.15,8,7.76A1.48,1.48,0,0,0,172,414.75Zm52.54-132.3c-.05-1-1-1.11-1.61-1.09-6,.29-8.52-2.66-8.2-8.5,0-.79-.33-2.07-1.65-1.91a1.63,1.63,0,0,0-1.27,1.94c.42,5.87-2.35,8.43-8.11,8.14-.93,0-2,.18-2.13,1.43s1.24,1.53,2,1.52c5.45-.1,8.89,1.76,8.43,7.92a1.21,1.21,0,0,0,1.11,1.33,1.08,1.08,0,0,0,1.19-1.19c-.44-6.46,3.34-8.37,8.93-8.4A1.18,1.18,0,0,0,224.58,282.45Zm214.9-140.37c.11-.71-.17-1.33-1.45-1.31-5.88.09-8.77-2.49-8.38-8.52.05-.71-.2-1.85-1.33-1.86s-1.59,1-1.55,2c.26,5.78-2.27,8.56-8.22,8-.74-.07-2.08.13-2,1.55.1,1.08,1,1.33,1.87,1.32,5.25,0,9.09,1.34,8.48,7.74-.06.62.24,1.61,1.17,1.64s1.27-.8,1.22-1.54c-.4-6.08,3-8.08,8.42-8A1.66,1.66,0,0,0,439.48,142.08ZM522.9,278.53c-1.56,0-1.75,1.39-1.84,2.6-.22,2.87-1.25,4.67-4.51,4.57-.82,0-2.07.36-2,1.58s1.14,1.51,2.09,1.55c3.1.13,4.62,1.67,4.77,4.77a1.62,1.62,0,0,0,1.5,1.76,1.9,1.9,0,0,0,2-2c-.12-3.34,1.91-4.2,4.65-4.54,1-.12,2.41-.13,2.4-1.52s-1.62-1.57-2.43-1.53c-3.47.17-4.13-2-4.43-4.69C524.93,279.9,524.74,278.67,522.9,278.53Zm-16,179.24a2.2,2.2,0,0,0-1.52,2.22c-.22,2.94-1.1,5-4.59,5-.78,0-2,.28-2,1.62s1.18,1.51,2.08,1.53c3.16.09,4.65,1.71,4.87,4.77.06.8.23,1.88,1.36,1.78s1.32-1.09,1.32-1.93c0-3.33,1.94-4.44,4.89-4.68.89-.07,2.07-.13,2.14-1.42s-1.26-1.59-2-1.57c-3.55.07-4.67-1.88-4.82-5C508.59,459.07,508.35,457.84,506.89,457.77ZM196.46,516.36a2,2,0,0,0,1.35-2c.33-2.76,1.28-4.72,4.6-4.64.82,0,2.42,0,2.44-1.49,0-1.66-1.64-1.69-2.6-1.73-2.87-.1-4-1.34-4.06-4.21,0-1-.14-3-1.83-2.9-1.53.08-1.65,1.78-1.77,3-.21,2.34-.8,4-3.7,4-.95,0-2.6.11-2.68,1.67s1.55,1.76,2.53,1.81c2.65.15,4.09,1.13,4.19,4C195,514.73,195.06,516.06,196.46,516.36Z" transform="translate(-88.72 -10.18)"/></g><path id="s3" class="cls-1" d="M655.77,350.59c-2.62,1.89-5.74,2.09-8.77,2.46-1.44.17-2,.62-2.12,2.08a51.09,51.09,0,0,1-1.33,6.2c-.21.85-.67,1.6-1.7,1.63s-1.48-.77-1.7-1.61c-.7-2.63-.57-6.07-2.22-7.7s-5.06-.73-7.56-1.7c-1-.4-2.52-.66-2.5-2s1.46-1.68,2.54-2c2.63-.68,6.1-.42,7.73-2s1.08-5,1.56-7.6c.22-1.19.65-2.35,2.12-2.4s1.83,1.21,2.16,2.34a22.25,22.25,0,0,1,1,6.26c0,1.54.63,2.17,2.26,2.35,2.93.32,5.92.68,8.48,2.4Z" transform="translate(-88.72 -10.18)"/><path id="hadle1" class="cls-1" d="M498.89,187.16c-3.47,4.61-4.54,5.07-9,3.87-3-1.87-6.23-2.35-9.66-2.43-3.18-.09-6.35-.38-9.51-.65-.85-.07-2.24.42-2.29-1-.05-1.17,1.33-1.27,2.18-1.45a28,28,0,0,1,10.24-.08l-9.2-7.74c-2.62-5.49-2.11-7.58,3-11.09a42.49,42.49,0,0,1,14.72-6.2c2.1-.2,4.19-.47,6.3-.6,3.29-.21,5.13,1.46,5.79,4.63,1.38,6.73.24,13.25-1.66,19.7C499.53,185.16,499.2,186.16,498.89,187.16Z" transform="translate(-88.72 -10.18)"/><path id="s2" class="cls-1" d="M591.41,194.68a3.78,3.78,0,0,1,2.84,2.57c.9,2.61-.18,6.15,1.74,7.79s5,1.31,7.55,1.88c1.05.23,2.26.51,2.29,1.81s-1.27,1.52-2.24,1.89a2.58,2.58,0,0,1-.92.25c-5.26,0-8.6,2-8.64,7.89a2.88,2.88,0,0,1-2.75,2.93c-1.66.06-1.92-1.66-2-2.81-.17-5.23-2.55-7.87-8-7.74-1.31,0-3.25-.28-3.33-2.26s1.79-2.42,3.15-2.42c5.65,0,7.81-2.86,7.76-8.22C588.91,196.82,589.29,195,591.41,194.68Z" transform="translate(-88.72 -10.18)"/><path id="s312" class="cls-1" d="M221.85,138.9a1.73,1.73,0,0,1-1.36,1.59,10.74,10.74,0,0,1-3.67.93c-4.78-.27-6.32,2.69-7.06,6.63a14.36,14.36,0,0,1-.64,2.12c-.32.92-.7,1.89-1.89,1.83-1-.05-1.41-.92-1.63-1.73a24.44,24.44,0,0,1-1.23-5.56c-.06-2.25-1.21-2.55-3-2.68a28.18,28.18,0,0,1-5-.87c-1.1-.28-2.39-.63-2.39-2.15s1.13-1.89,2.33-2.14a36.26,36.26,0,0,1,5.28-1.05c1.86-.09,2.62-.69,2.59-2.62a20.72,20.72,0,0,1,1.21-6.54c.32-1,.89-1.77,2-1.72s1.64.81,1.93,1.82c.6,2.11,1.65,4.2,1.76,6.33.12,2.35,1.27,2.71,3.11,3s3.92.85,5.88,1.31C220.92,137.57,221.69,137.89,221.85,138.9Z" transform="translate(-88.72 -10.18)"/><path id="s6" class="cls-1" d="M495.94,126.37a1.88,1.88,0,0,1-1.94-1.46c-.46-1.42-1.25-2.86-1.24-4.29,0-4.5-2.05-6.15-6.45-6.34-2.57-.11-6.89.31-6.84-3.41,0-3.32,4.28-2.47,6.74-3.28a5.62,5.62,0,0,1,2.21-.34c2.77.24,3.59-1.06,3.68-3.69a36.65,36.65,0,0,1,1.34-7,2.38,2.38,0,0,1,2.33-2.09c1.27,0,2,.88,2.33,2.07a26.77,26.77,0,0,1,1.39,7.34c.06,2.43,1.07,3.65,3.59,3.64s4.9.91,7.29,1.63c.88.26,1.63.71,1.67,1.76a1.82,1.82,0,0,1-1.56,1.85,39.21,39.21,0,0,1-6.92,1.55c-2.8.2-4.38.94-4.39,4.14,0,1.94-.88,3.87-1.36,5.81A2.4,2.4,0,0,1,495.94,126.37Z" transform="translate(-88.72 -10.18)"/><path id="s56" class="cls-1" d="M129.16,298.69a2,2,0,0,1-1.62-1.7c-.67-2.64-.59-6-2.24-7.7s-5-.73-7.55-1.67c-1.1-.41-2-.94-1.87-2.2.08-1.08.9-1.6,1.91-1.83,2.64-.6,6.07-.43,7.67-2.06s1.08-5,1.59-7.58c.24-1.17.75-2.37,2.17-2.37s1.86,1.2,2.19,2.36a3.94,3.94,0,0,1,.32,1.22c-.61,6.62,3.75,7.95,8.93,8.48,1.23.12,2.84.14,2.9,1.81.08,1.9-1.67,2-3,2.05-5.58.26-9.53,2.14-9.45,8.64A2.27,2.27,0,0,1,129.16,298.69Z" transform="translate(-88.72 -10.18)"/><path id="s9" class="cls-1" d="M308,54.29c0,1.33-1.13,1.7-2.11,1.93a69.34,69.34,0,0,1-7.52,1.47c-1.45.17-1.92.67-2.12,2-.34,2.24-.95,4.44-1.5,6.65-.26,1-.71,2.05-2,2-1.08-.06-1.58-.91-1.8-1.84a51.72,51.72,0,0,1-1.39-6.32c-.18-1.69-.72-2.33-2.52-2.45a61.49,61.49,0,0,1-7.23-1.17c-1.21-.22-2.24-.74-2.29-2.16s.95-2,2.19-2.22c2.05-.41,4.12-1.17,6.16-1.11,2.95.1,3.56-1.33,3.6-3.71A19.3,19.3,0,0,1,290.68,41c.39-1,1-1.81,2.27-1.72A2.12,2.12,0,0,1,294.89,41c.49,1.75,1.28,3.57,1.17,5.31-.26,3.9,1.7,5,5.24,5.14a23,23,0,0,1,5.07,1.2A1.85,1.85,0,0,1,308,54.29Z" transform="translate(-88.72 -10.18)"/><path id="s7" class="cls-1" d="M480.63,32.58A1.43,1.43,0,0,1,479.24,31c0-5.38-2.33-8.2-8-7.84-.85.06-2.05-.32-2-1.58.05-1,1-1.24,1.86-1.41a9.33,9.33,0,0,1,2.8-.49c3.92.56,4.4-1.76,4.56-4.83.08-1.71-.35-4.63,2-4.58,1.86,0,1.56,2.86,1.76,4.56.54,4.5.49,4.49,5.36,5.18,1.7.24,4.62-.14,4.57,1.61-.06,2.19-3,1.66-4.73,1.74-3.51.16-5.74,1.14-5.39,5.3C482.2,30,482.08,31.69,480.63,32.58Z" transform="translate(-88.72 -10.18)"/><path id="s23" class="cls-1" d="M171.41,74a2.07,2.07,0,0,1,1.73,2.22c-.55,7.32,3.12,10.29,10.27,10,.81,0,2.29,0,2.2,1.46-.07,1.33-1.48,1.09-2.32,1.52a.81.81,0,0,1-.37.09c-6.52-.26-10.69,1.94-10.22,9.19a1.54,1.54,0,0,1-1.47,1.83,1.63,1.63,0,0,1-1.43-1.91c.41-6.63-3-9.35-9.46-9.07-.94,0-2.15-.38-2.18-1.65,0-1.5,1.34-1.93,2.38-1.85,6.82.57,9.19-2.91,9-9C169.53,75.58,169.78,74.21,171.41,74Z" transform="translate(-88.72 -10.18)"/><path id="s77" class="cls-1" d="M101.45,439.51a2.25,2.25,0,0,1-1.29-2.41c.19-6-2.5-8.83-8.58-8.45-1.15.07-2.81-.25-2.73-1.86s1.7-1.55,2.88-1.78c2.4-.45,5.53-.09,7-1.5,1.32-1.26.74-4.44,1.14-6.75.23-1.38.08-3.44,2-3.43,1.7,0,1.87,1.94,1.79,3.21-.42,6.6,2.86,9,9.09,8.68,1-.06,3,0,3,1.52,0,1.72-2,1.81-3.2,1.81-5.83,0-9.82,1.55-9.4,8.54C103.31,439,102.32,439.65,101.45,439.51Z" transform="translate(-88.72 -10.18)"/><path id="s5" class="cls-1" d="M635.74,494a1.52,1.52,0,0,1-1.33,1.25c-1.24.28-2.48.56-3.74.72-4.67.58-4.68.56-5.45,5.37a7.27,7.27,0,0,1-.27,1.56c-.29.74-.15,1.92-1.25,2-1.39.09-1.43-1.33-1.4-2.08.18-5.24-2.33-7.5-7.46-7.25-.89.05-2.13-.12-2.23-1.33-.11-1.53,1.4-1.68,2.27-1.62,5.63.39,7.43-2.58,7.25-7.67,0-.89.13-2.37,1.59-2.34s1.59,1.4,1.53,2.38c-.34,5.64,2.28,8.11,7.86,7.79C634.05,492.69,635.27,492.73,635.74,494Z" transform="translate(-88.72 -10.18)"/><path id="s4" class="cls-1" d="M627,409.78c-1.22-.52-1.41-1.81-1.5-3-.23-2.85-1.5-4.32-4.51-4.36-1.25,0-3.07-.32-3.24-1.81-.22-1.78,1.71-2,2.9-2,3.06-.17,4.46-1.43,4.46-4.62,0-1.24.13-3.3,2-3.43s1.78,1.68,2.14,2.91c1,3.3,2.68,5.56,6.52,5.5a1.81,1.81,0,0,1,2,1.71c0,.81-.84,1.16-1.59,1.23-4.25.42-7.14,2.28-7.79,6.86C628.32,409.65,627.69,409.83,627,409.78Z" transform="translate(-88.72 -10.18)"/><path id="s8" class="cls-1" d="M417.35,69.25c1.81.13,2.09,1.84,2.08,3,0,3.77,1.82,5.19,5.33,5.33,1.29,0,3.15.22,3.27,1.83.15,1.78-1.75,2-3,2-3.51.27-6.11,1.3-6.07,5.49,0,1-.38,2.14-1.65,2.11s-1.48-1.26-1.53-2.21c-.19-3.68-2.11-5.37-5.74-5.46-1.1,0-2.34-.46-2.35-1.91,0-1.26,1.15-1.72,2.06-1.76,3.87-.17,5.73-2,5.72-5.93A2.27,2.27,0,0,1,417.35,69.25Z" transform="translate(-88.72 -10.18)"/><path id="s45" class="cls-1" d="M127.4,194.9c-.42,1.72-2,1.92-3.21,2.07-4.2.51-7,2.1-7,6.93,0,1-.53,2.65-2,2.62s-1.88-1.67-1.93-2.71c-.19-4.76-2.63-6.54-7.21-6.48-1.39,0-3.73-.34-3.59-2.63.12-1.87,2.26-2.35,3.5-2.26,4.95.38,6.57-2.17,6.81-6.57.08-1.45.44-3.41,2.28-3.5,2.22-.11,2.55,2.07,2.55,3.62,0,4.66,2.36,6.57,6.78,6.78C125.54,192.83,127.12,193.13,127.4,194.9Z" transform="translate(-88.72 -10.18)"/><path id="s1" class="cls-1" d="M605.83,91a2.92,2.92,0,0,1-3,2.2c-5.13.35-9.36,1.53-9.26,8.12a2.14,2.14,0,0,1-2,2.44c-1.5,0-1.92-1.29-2-2.49-.25-5.17-2.74-7.83-7.91-8-1.43,0-3.16-.58-3-2.63.1-1.67,1.66-2.28,2.9-2.3,5.12-.08,7.27-2.69,7.36-7.8,0-1.43.41-3.67,2.72-3.62,2,0,2.41,2,2.41,3.34,0,6,3,8.25,8.58,8.21C603.78,88.48,605.61,88.92,605.83,91Z" transform="translate(-88.72 -10.18)"/><path id="mix" class="cls-1" d="M301.85,282.48A107.41,107.41,0,0,1,317,280.42c.06.53.14,1.05.18,1.58.32,5,.32,5,5.1,6.22,8,2,16.13,2.47,24.3,2.71a147,147,0,0,0,38.15-3.59c1.05-.24,1.9-.62,1.92-2.06a67.7,67.7,0,0,1,.55-7c.24-1.94-.35-2.57-2.4-2.48-5,.2-10,0-15,.18-2.39.08-3.17-.89-3.19-3.17-.05-4.56-.19-9.13-.5-13.69-.44-6.45-1.11-12.87-3.64-18.95-4.28-10.29-19.47-13.3-27.45-5.38-2.9,2.87-11.35,3-14.05,0s-6.24-3.72-10.11-3.14c-1.33.2-2.65.93-4,.07,0-.39.06-.78.1-1.17,4-5.3,9.16-2.83,14.19-2.18a180.92,180.92,0,0,1,1-28.76c1.38-12.27,3.89-24.23,11.3-34.56,5.6-6.25,12.46-9.2,21-8.39,7.16.69,14.76,5.85,16.5,11.6-1.76-.72-3.5-1.48-5.27-2.17-9.33-3.68-18.4-.67-23.63,7.81a40.42,40.42,0,0,0-4,9c-3.12,9.79-3.85,19.93-4.35,30.09a112,112,0,0,0,.72,19c1.27-.82,2.21-1.51,3.22-2.06,7.77-4.27,19.6-5,26.17,3.82a30.52,30.52,0,0,1,4.9,10.94c2.08,8.22,2.14,16.6,1.83,25-.08,2.12.73,2.87,2.61,2.91,4.24.08,8.49.17,12.73.19,5.29,0,5.29,0,6.4-4.88A193.62,193.62,0,0,0,416,265.2c2.88-.52,4.15.07,4.46,3.24.47,4.62,1.49,9.18,2.27,13.77-3.09-.68-6-1-8,2.35-.34.58-1.15.9-1.77,1.32-10.57,7.32-20.18,15.87-29.93,24.18-13,11.1-24.37,23.95-35.9,36.53a299.09,299.09,0,0,0-25.62,32.91c-.44.64-1.35,1.15-1.05,1.88,4.81,0,9.47-.06,14.13,0a3.52,3.52,0,0,0,3.84-2.47c1.21-2.93,2.65-5.78,4.14-8.59,1.31-2.48,3-2.59,4.53-.21,2,3.19,4.75,5.92,6.35,9.39.76,1.65,1.93,2.18,3.74,2.31a292.47,292.47,0,0,0,56-1.67c.92-.11,2.2-.58,2.46.64.34,1.55-1.21,1.44-2.15,1.62a226.94,226.94,0,0,1-58,3.85,5.86,5.86,0,0,1-4.72-2.61c-1.86-2.45-3.46-5.11-5.54-7.82-1.29,2.58-2.53,4.8-3.52,7.12a4.08,4.08,0,0,1-4.39,2.8c-5.95-.15-11.9-.08-17.85-.08-1,0-2.11-.26-2.87.84-1.29,1.9-3,3.44-4.22,5.47-4,6.85-8.1,13.7-12.43,20.37A7.74,7.74,0,0,0,298.7,418l1.05,7.57c1,7.06.95,7.17,7.94,8.51A238.11,238.11,0,0,0,351.07,438c23,.18,46.08.39,68.66-5.32-.3,3.91-2.49,7.49-2,11.54-14,3.2-28.3,4.22-42.64,4.61a406.9,406.9,0,0,1-43.62-.75c-9.91-.8-19.9-1.46-29.47-4.59.06-6.4-2.38-12-5.74-17.23-4-6.19-8.94-11.57-13.69-17.14-1.49-1.74-2.75-1.77-4.61-1a46.21,46.21,0,0,0-23.72,21.94c-2.85,5.44-2.86,5.48,2.35,8.91a26.9,26.9,0,0,0,4.2,2.17,31.11,31.11,0,0,1,8.84,5.53c.55.49,1.24,1,.74,1.88-.38.62-1.11.51-1.73.38-1.91-.41-3.81-.85-5.76-1.29-.52,2.93.66,5.5,1.27,8.15l-22.77,4.4c-1.11.21-2.71.19-2.39,1.82.27,1.37,1.76.83,2.75.78,8.37-.45,16.69-1.42,25-2.62a35.11,35.11,0,0,0,5.65,4.59c1.09,8,2.54,15.85,4.4,23.67.24,1,.15,2.46,1.58,2.32,1.76-.18,1.11-1.81,1-2.82-.66-7.16-1.42-14.31-2.15-21.46,8.2,1.1,14.73-1.85,19.89-8.17-.16,1.46-.33,2.93-.47,4.39L294.87,481c-2.72,3.53-5.53,7-8.14,10.59a20.74,20.74,0,0,1-8,6.56,114.5,114.5,0,0,1-36.93,11.1c-7.95,1-9.71-.07-11-7.92a106.44,106.44,0,0,1,.61-39.54,17,17,0,0,1,3.22-6.82c4.42-5.92,8.79-11.89,13.71-17.41,1.85-2.07,2.08-3.63-.56-5.12a13,13,0,0,1-2.1-1.91c2.85-.91,3.33-3.7,4.36-5.87,5.12-10.75,12-19.66,23.76-23.73.94.57,1.53.42,2.3-.52,5.55-6.83,11.08-13.68,16.1-20.92,2.83.43,5.68.75,8.47,1.34a2.88,2.88,0,0,0,3.43-1.43c4-5.82,8.09-11.57,12.49-17.14,11.7-14.82,23.17-29.81,36.91-42.87,6.7-6.36,13.21-12.92,19.79-19.42,1.13-1.11,2.67-1.88,3.5-3.64-.94.05-1.58.05-2.21.12a184.45,184.45,0,0,1-50.17-.74c-6.9-1.08-13.87-2.12-20-5.83C300.92,287.75,300.48,286.35,301.85,282.48ZM237.22,479.23c-.34.24-.84.4-.93.7-.28.87.5,1.31,1,1.81,6.8,6.92,14.83,12.17,23.19,16.95.83.48,1.82,1.12,2.49,0s-.43-1.72-1.07-2.36a85.9,85.9,0,0,0-23.16-16.42C238.27,479.71,237.79,479.5,237.22,479.23ZM341.51,339.55a2.41,2.41,0,0,0,1.35,2c1.56.65,2.63-.18,3.47-1.37,1.08-1.52,3.36-2.55,2.27-5a2,2,0,0,0-2.37-1.13C344.9,334.21,341.47,338.25,341.51,339.55Zm26.81-23.1c1.46-.05,5.45-3.86,5.32-5.16a2.13,2.13,0,0,0-2.28-2.16c-1.47,0-5.18,3.72-5.17,5.14S367.09,316.31,368.32,316.45Zm-30.86,33.29a2.18,2.18,0,0,0-3.36-1.87,11,11,0,0,0-3.54,4.38,2,2,0,0,0,2.41,2.9C334.25,354.89,337.48,351,337.46,349.74Zm23.66-26.16a2.12,2.12,0,0,0-2.29-2.13c-1.37-.05-4.83,3.64-4.79,5a2.17,2.17,0,0,0,2.47,2.28C357.94,328.72,361.2,325,361.12,323.58Zm19.78-19.2c1.24,0,5.7-3.46,5.93-4.48a2,2,0,0,0-2.85-2.15,10.31,10.31,0,0,0-4.57,3.75C378.33,303.08,379.53,304,380.9,304.38Zm-59,64.59c1.57,0,5-4.48,4.56-5.93a2,2,0,0,0-2.38-1.6c-1.19.17-4.41,4.32-4.23,5.54A2.23,2.23,0,0,0,321.87,369ZM316,377.53c-.13-.63-.27-1.13-1.06-1.38-1.4-.46-2.56-.35-3.26,1-.82,1.61-3,2.73-2,5a1.52,1.52,0,0,0,1.58.86C312.12,383,316.09,378.39,316,377.53ZM296.2,391.59l4.85-7.71-5.66-1.24C295.65,385.56,295.89,388.18,296.2,391.59ZM398.43,286.7c-1.6.06-5.36,3.33-5.17,4.41A1.59,1.59,0,0,0,395,292.6c1.29,0,5.05-3.38,5-4.46A1.43,1.43,0,0,0,398.43,286.7ZM305.6,392.34c-.28-1.42-1.24-2.11-2.27-1.33a7.73,7.73,0,0,0-2.83,4.81,1.14,1.14,0,0,0,1.89,1.11A13.46,13.46,0,0,0,305.6,392.34ZM408.84,281.65a5.15,5.15,0,0,0,3-2.41.93.93,0,0,0-.94-1.28,3.45,3.45,0,0,0-3.26,2.4C407.46,281,408,281.49,408.84,281.65ZM294.67,406.29a3.89,3.89,0,0,0-1.75,2.77.76.76,0,0,0,.92.95c1.36-.22,1.68-1.48,2-2.52C296,406.83,295.42,406.4,294.67,406.29Z" transform="translate(-88.72 -10.18)"/><path id="arm1" class="cls-1" d="M453,390.89c-.75-.38-1.53-.7-2.24-1.14-6-3.75-10.91-8.69-15.94-13.54a16.66,16.66,0,0,1-4.35-7.86c-5.39-24.52-5.18-49-.28-73.57.48-2.36.12-5.74,1.92-6.8,2-1.15,4.64,1.08,7,1.76.31.08.63.13.94.19,7.78,3.38,15.64,6.55,22.5,11.75,5.37,4.07,9.13,9.43,12.88,14.83,4.29,6.2,7.93,12.84,12.22,19A126,126,0,0,1,503,366.06a82.69,82.69,0,0,1,4,18.3c.78,7-2,13-5.89,18.71-7.14,10.43-16.2,19-25.79,27.07-5.67-13.8-14.88-24-29.37-28.84.19-1.28,1.34-1.85,2-2.77,1.81-2.44,4.45-4.21,5.74-7.08m11.15-55.95a10.69,10.69,0,0,0-4.31-2.48c-3.13-.71-5.41,1-7.11,3.08a4.87,4.87,0,0,0,.21,6c4.16,5.53,9.89,8.37,16.72,9.1a2,2,0,0,0,2.38-1.08c2.34-4.56,4.4-9.19,3.79-14.51a6.66,6.66,0,0,0-6.28-6.06C467.15,329.48,465.7,331,464.84,335.5Zm20.79,12.9c-1.79-1.94-3.71-2.62-5.39-3.67-.78-.48-1.46-.57-1.68.46-.15.69-1.09,1.72.25,2.11C480.86,347.9,482.87,349,485.63,348.4Zm-41.18-16,4.18,2.65c1.39.88,1.49-.46,2-1.15.76-1.06-.1-1.3-.79-1.44C448.13,332.11,446.52,331.19,444.45,332.38Z" transform="translate(-88.72 -10.18)"/><path id="pant" class="cls-1" d="M351.71,479.23c-.55,5.14-.63,10.39-2.85,15.15a7.61,7.61,0,0,1-1.24,1.5c-1.14-.71-2.28-.07-3.42,0-16.08.39-31.87-1.16-46.9-8a6.12,6.12,0,0,0-1.84-.21,6.4,6.4,0,0,1-.59-3.24l1.77-19.88c.14-1.6.31-3.19.47-4.79A37.39,37.39,0,0,0,302,443.53c9.57,3.41,19.56,4.13,29.47,5a375.68,375.68,0,0,0,43.62.82c14.34-.42,28.61-1.53,42.64-5,.5,5.47,3.36,9.95,5.33,14.8q1.08,12.35,2.18,24.68c.14,1.59.54,3.23-.86,4.46a9.28,9.28,0,0,0-1.85.29c-14.49,5.62-29.46,7.56-44.75,7.23-2.09,0-4.13-1.33-6.27-.32-2.22-4.71-2.29-10-3.11-15-.42-2.59-1.21-3-3.43-2.84-4,.31-8,.11-12.06.13" transform="translate(-88.72 -10.18)"/><path id="arm2" class="cls-1" d="M266.25,391.36c-.27,1.41.9,2,1.63,2.81,2,2.21,4.3,4.2,5.95,6.75-11.76,4.07-18.64,13-23.76,23.73-1,2.17-1.51,5-4.36,5.87a4.64,4.64,0,0,1-2.55-1.17A198.11,198.11,0,0,1,220,404c-6.89-9.21-7.17-19-4.77-29.61,3.45-15.31,11.1-28.59,18.87-41.89a195.93,195.93,0,0,1,17.34-24.66c4.58-5.64,10.64-9.34,17-12.57.41-.21,1,0,1.52-.05l.09.16a4.65,4.65,0,0,0-1.73,2.9,90.75,90.75,0,0,0-1.19,47.7c2.9,12.06,7.78,23.18,16.33,32.42a124.05,124.05,0,0,1-11.77,9.83c-1.65,1.23-3.22,2.74-5.41,3.08" transform="translate(-88.72 -10.18)"/><path id="h1" class="cls-1" d="M392.34,267.88c-1.11,4.88-1.11,4.91-6.4,4.88-4.24,0-8.49-.11-12.73-.19-1.88,0-2.69-.79-2.61-2.91.31-8.38.25-16.76-1.83-25a30.52,30.52,0,0,0-4.9-10.94c-6.57-8.82-18.4-8.09-26.17-3.82-1,.55-1.95,1.24-3.22,2.06a112,112,0,0,1-.72-19c.5-10.16,1.23-20.3,4.35-30.09a40.42,40.42,0,0,1,4-9c5.23-8.48,14.3-11.49,23.63-7.81,1.77.69,3.51,1.45,5.27,2.17,8,4.78,14.67,10.85,18.88,19.33-3,2.32-6.76,2.93-10.09,4.53a8.83,8.83,0,0,0-5.07,9.37c.84,5.64,3,8.12,7.44,9,4.13.77,8-.45,11.83-1.49.09,1.26.22,2.52.27,3.79.39,11.08.19,22.15-.38,33.23q-.71,9.45-1.4,18.92C392.42,265.88,392.38,266.88,392.34,267.88ZM352.22,200.6a5,5,0,0,0-7.59,2.12,20.76,20.76,0,0,0,.05,19,5,5,0,0,0,7.53,2c5.05-2.21,5.68-6.74,5.69-11.39s-.44-9.2-5.36-11.63A1.55,1.55,0,0,0,352.22,200.6Z" transform="translate(-88.72 -10.18)"/><path id="sword" class="cls-1" d="M392.47,264.88q.69-9.47,1.4-18.92,10.71-14.22,21.43-28.42c7.79,4.14,14.82,9.45,21.88,14.65,10,7.34,20.46,14,29.88,22.08-7.89,11.41-17.22,21.71-25.21,33-.6.86-1.19,1.74-1.78,2.61-.31-.06-.63-.11-.94-.19-2.38-.68-5.06-2.91-7-1.76-1.8,1.06-1.44,4.44-1.92,6.8-4.9,24.54-5.11,49.05.28,73.57a16.66,16.66,0,0,0,4.35,7.86c-.71,2.35-2.13,3.11-4.39,1.92-.59-1.47-1.25-2.92-1.76-4.41-9.87-28.62-9-57.2.48-85.71,1.31-4,1.39-3.95-2.4-5.12-.68-5.57-1.28-11.16-2.07-16.72-.23-1.67.15-2.25,1.84-2.42,2.42-.24,4.82-.74,7.21-1.21q10.29-2,20.57-4.06c.68-.13,1.71-.17,1.65-1.13-.07-1.15-1.14-1-2-1a10.67,10.67,0,0,0-1.26.09c-8.57.63-17.12,1.46-25.61,2.84-2.56.42-3.76-.09-4.1-2.93a141.75,141.75,0,0,0-5.53-25.58c-.25-.8,0-2.28-1.44-2s-.76,1.6-.68,2.44c.88,8.75,1.67,17.52,2.84,26.24.34,2.55-.34,2.93-2.59,3.29C407.87,262,400.18,263.48,392.47,264.88Z" transform="translate(-88.72 -10.18)"/><path id="jaw" class="cls-1" d="M306.91,231.7c1.35.86,2.67.13,4-.07,3.87-.58,7.29,0,10.11,3.14s11.15,2.92,14.05,0c8-7.92,23.17-4.91,27.45,5.38,2.53,6.08,3.2,12.5,3.64,18.95.31,4.56.45,9.13.5,13.69,0,2.28.8,3.25,3.19,3.17,5-.15,10,0,15-.18,2.05-.09,2.64.54,2.4,2.48a67.7,67.7,0,0,0-.55,7c0,1.44-.87,1.82-1.92,2.06a147,147,0,0,1-38.15,3.59c-8.17-.24-16.32-.73-24.3-2.71-4.78-1.19-4.78-1.19-5.1-6.22,0-.53-.12-1.05-.18-1.58.19-1.73.09-3.13-2.23-3.29a4,4,0,0,1-3.27-2.62,50.13,50.13,0,0,1-3.95-11.29c-.86-3.86-.77-3.88,3.19-3.81,2,1,4.16.71,6.24.94,8.85,1,17.73,1.56,26.62.34,8.62-1.18,13.28-7.11,12.36-15.66-.16-1.49-.56-2.28-2.32-2.15a253.07,253.07,0,0,1-36.53,0l-.31,0C304.22,241.1,307,243.08,306.91,231.7Zm26.24,46.36c-3.38,0-6.77-.07-10.16,0-1.28,0-3.32-.66-3.63,1-.34,1.79,1.88,1.66,3,2a52.42,52.42,0,0,0,26.67.69c.84-.19,1.83-.16,1.79-1.32-.06-1.4-1.23-1.15-2.15-1.27C343.54,278.5,338.34,278.52,333.15,278.06Z" transform="translate(-88.72 -10.18)"/><path id="shoe1" class="cls-1" d="M342.37,525.43a409.1,409.1,0,0,1-8,41.94,6.62,6.62,0,0,1-.71,1.37c-1.46.19-2.92.41-4.39.57-19.76,2.25-39.54,1.76-59.33.43-1.15-3.45.23-6.11,2.55-8.55,5.45-5.72,12.45-9.22,19-13.36A17.24,17.24,0,0,0,305.71,550c.69-.2,1.87-.26,1.71-1.48-.13-.94-1.07-.89-1.75-1.06-4.28-1.1-8.57-2.17-12.86-3.25l-.51-8.66c5.69,3.25,11.67,4.88,18.21,3.14,1-.27,2.69-.24,2.63-1.72s-1.71-1-2.61-1.11a71.49,71.49,0,0,1-18.41-4.41c.22-4.17-.9-8.33,0-12.49a25.62,25.62,0,0,0,8.61,4.42,95.09,95.09,0,0,0,28.1,4.42C333.47,528,338.14,527.82,342.37,525.43Z" transform="translate(-88.72 -10.18)"/><path id="shoe2" class="cls-2" d="M429,547.83c6.41,4.08,13,7.94,18.23,13.56,2.22,2.37,3.58,5,2.29,8.29-7.81.69-15.63,1-23.47,1.07-13.34.08-26.66,0-39.83-2.53-4.58-12.65-6-26-8.51-39.09a22,22,0,0,1-.14-3.15,29.16,29.16,0,0,0,4.84,1.37,68.53,68.53,0,0,0,19.92-.15c8.95-1.27,18-2.49,25.89-7.41q-.08,5.9-.17,11.79C422,534.13,415.5,535.05,409,536c-.86.13-2.28-.15-2.35,1.08s1.43,1.39,2.36,1.63c6.7,1.7,13,.45,18.87-3q-.22,4.34-.47,8.67c-4.12,1.7-8.61,1.85-12.83,3.11-.81.24-2.21,0-2.05,1.36.12,1.08,1.32,1.22,2.23,1.41A18.69,18.69,0,0,0,429,547.83Z" transform="translate(-88.72 -10.18)"/><path id="hand2" class="cls-1" d="M423.06,457.85c-2-4.46-4.83-8.56-5.33-13.59-.49-4.05,1.7-7.63,2-11.54l.14-.11c1.41-.25,1.61-1.55,2.17-2.53a92.57,92.57,0,0,1,17.75-22.23,46.76,46.76,0,0,1,17.7,11.23c4.85,4.68,8.07,10.52,10.57,16.75a32.12,32.12,0,0,1-6.92,4.87c-5.7-.16-10,2.89-14.05,6.31a1.2,1.2,0,0,0-.41,1.68c.42.61,1.05.55,1.72.44a29,29,0,0,0,9.46-3.42,19.24,19.24,0,0,1-15.81,20.64C433.94,467.66,427.94,463.93,423.06,457.85Zm4.8-11c-.38-1.69-.17-4-2.26-4.13s-2.23,2-2.22,3.59c0,1.78.13,4.18,2.22,4.34S427.34,448.24,427.86,446.82Zm11.1,6.1c-.29-1.65,0-4-2.41-4-1.89,0-2.1,2.07-2.1,3.66,0,1.86.5,4.17,2.35,4.29C438.83,457,438.72,454.6,439,452.92Z" transform="translate(-88.72 -10.18)"/><path id="han3" class="cls-1" d="M467.06,254.27c-9.42-8.09-19.91-14.74-29.88-22.08-7.06-5.2-14.09-10.51-21.88-14.65-1.37-1-2.77-2-4.12-3-3.79-2.87-8.19-4.9-11.53-8.39a39.84,39.84,0,0,0,9.13-9.33,223.12,223.12,0,0,1,34.42,18c1.12,1.52,2.3,1.93,4.33,1.31a23.11,23.11,0,0,1,14.69.59c1.1.39,2.37.7,3.12,2.28-5.72.69-11.09-.91-17.08-.3L461,227.86c4.55,4.26,9.33,8.31,13.6,12.85,6.95,7.37,14,14.68,19.58,23.23a38.34,38.34,0,0,1,2.35,4.14c.85,1.77.86,3.53-.81,4.89s-3.21.92-4.9-.23C482.51,267.08,475.25,260.08,467.06,254.27Z" transform="translate(-88.72 -10.18)"/><path id="ls2" class="cls-1" d="M377.27,514.56c-1.31-6.93-3.25-13.74-4.08-20.76,8.05,2.83,16.32,2.6,24.56,1.49,9.28-1.25,18.34-3.36,26.28-8.74q.78,10.8,1.55,21.59c-.86,2.37-3,3.25-5.06,4a83.25,83.25,0,0,1-31.5,5.29C385,517.34,380.63,517.75,377.27,514.56Z" transform="translate(-88.72 -10.18)"/><path id="ls1" class="cls-1" d="M346.4,493.53q-2.06,10.5-4.1,21a11.57,11.57,0,0,1-6.72,2.52,82.47,82.47,0,0,1-33.48-4c-3-1-6.07-2-7.83-5l1.89-21.5c6.29,4.64,13.56,6.65,21.12,7.87C327,496,336.78,496.76,346.4,493.53Z" transform="translate(-88.72 -10.18)"/><path id="handle2" class="cls-1" d="M461,227.86l-12.74-9.13c6-.61,11.36,1,17.08.3-.75-1.58-2-1.89-3.12-2.28a23.11,23.11,0,0,0-14.69-.59c-2,.62-3.21.21-4.33-1.31a28.48,28.48,0,0,1,.85-3c1.28-3.2,5.26-4.23,6.5-6.92,1.4-3,2.95-5.51,5.73-7.2a3.73,3.73,0,0,0,2.1-2.81,10.48,10.48,0,0,1,5.76-7.58c.75-.4,1.43-.59,1.62-1.67.65-3.58,3-6,5.91-7.92l9.2,7.74a28,28,0,0,0-10.24.08c-.85.18-2.23.28-2.18,1.45.05,1.39,1.44.9,2.29,1,3.16.27,6.33.56,9.51.65,3.43.08,6.71.56,9.66,2.43a13.82,13.82,0,0,1-6.69,8,2.92,2.92,0,0,0-1.72,2.21c-.87,3.61-4.36,5.31-6.21,7.94s-2,6.5-5.12,8.26a7.37,7.37,0,0,0-3.6,4.62A10.18,10.18,0,0,1,461,227.86Zm-.5-23.1c-1.91.28-4.05.23-6.09.94-.6.21-1.38.16-1.38,1s.74.92,1.38,1c5.3.41,10.6.83,15.89,1.21.58,0,1.4.31,1.63-.52s-.52-1-1.08-1.32C467.66,205.38,464.21,204.92,460.5,204.76Zm19.22-6c-2.42-4.22-14.58-4.67-18-2.9a1.35,1.35,0,0,0-.58,1c0,.67.67.76,1.15.81A159.49,159.49,0,0,0,479.72,198.79Z" transform="translate(-88.72 -10.18)"/><path id="h2" class="cls-2" d="M408.78,196.84a40,40,0,0,1-9.12,9.33L394,208.94c-3.87,1-7.7,2.26-11.83,1.49-4.46-.84-6.6-3.32-7.44-9a8.83,8.83,0,0,1,5.07-9.37c3.33-1.6,7.09-2.21,10.09-4.53,5.1-2.29,8.34-6.56,11.58-10.84,2.83,2.47,7.21.52,9.92,3.45.13.13,1.2-.62,1.83-1C413.91,185.64,411.46,191.27,408.78,196.84Z" transform="translate(-88.72 -10.18)"/><path id="h2-2" data-name="h2" class="cls-1" d="M333.53,165c-7.41,10.33-9.92,22.29-11.3,34.56a180.92,180.92,0,0,0-1,28.76c-5-.65-10.19-3.12-14.19,2.18-2.65-.29-2.81-2.6-3.32-4.39-1.74-6.08-1.78-12.34-1.57-18.6.7-7.54,1.71-15,5.14-21.91,5.37-10.48,14.44-16.45,25-20.55A3.85,3.85,0,0,1,333.53,165Zm-20.25,58.59c2.88-.79,4.3-3,5.06-5.62a20.12,20.12,0,0,0-.26-12.51c-.86-2.44-2.28-4.29-4.94-4.9-.58-1.83-2.06-1.23-3.17-1a5.94,5.94,0,0,0-4.25,3.55,22.86,22.86,0,0,0,.14,18.17,5.86,5.86,0,0,0,5,3.51C311.83,225,313.05,225.2,313.28,223.62Z" transform="translate(-88.72 -10.18)"/><path id="teeth" class="cls-1" d="M317.13,242.88a253.07,253.07,0,0,0,36.53,0c1.76-.13,2.16.66,2.32,2.15.92,8.55-3.74,14.48-12.36,15.66-8.89,1.22-17.77.64-26.62-.34-2.08-.23-4.28.1-6.24-.94,0-2.21,0-4.42-.1-6.63-.06-1.42.52-1.92,1.86-1.7a1.77,1.77,0,0,0,1.47,1.08c9.83,1.79,19.7,2.87,29.65,1.24,1.8-.29,3.9-.19,6-2.37-11.61.1-22.42-.44-33.23-.83Z" transform="translate(-88.72 -10.18)"/><path id="h1-2" data-name="h1" class="cls-2" d="M307.26,185.63c-3.43,6.9-4.44,14.37-5.14,21.91-13.85-8-19.09-28-10.93-41.76.65-1.1,1.22-2.26,2.83-2.15s2,1.41,2.38,2.59c2,5.95,4.06,11.82,8.2,16.69C305.42,183.87,306.37,184.72,307.26,185.63Z" transform="translate(-88.72 -10.18)"/><path id="hband" class="cls-1" d="M468.06,435.83c-2.5-6.23-5.72-12.07-10.57-16.75a46.76,46.76,0,0,0-17.7-11.23,20,20,0,0,1,6.13-6.55c14.49,4.83,23.7,15,29.37,28.84A28.29,28.29,0,0,1,468.06,435.83Z" transform="translate(-88.72 -10.18)"/><path id="s3354" class="cls-1" d="M258.85,244.53c-.13,1-.88,1.32-1.7,1.65a27.56,27.56,0,0,1-6.83,1.4c-1.49.18-2.11.69-2.26,2.33a38.48,38.48,0,0,1-1.42,6.17,1.78,1.78,0,0,1-1.8,1.47,1.89,1.89,0,0,1-2.1-1.51,11.72,11.72,0,0,1-.89-3.36c.15-4.07-2-5.29-5.71-5.47-1.91-.1-4.95,0-5-2.72s3.07-2.7,4.73-2.65c4.51.15,5.63-2.14,5.87-6,.12-2-.22-5,2.86-5.19,3.34-.19,3,3.1,3,4.92.05,4.56,1.94,6.6,6.45,6.54a10.84,10.84,0,0,1,3.36.87A1.93,1.93,0,0,1,258.85,244.53Z" transform="translate(-88.72 -10.18)"/><path id="s221" class="cls-1" d="M531.16,503.64a2.05,2.05,0,0,1,2.29,1.66,21.76,21.76,0,0,1,1.24,6.53c0,1.72.52,2.67,2.54,2.77a32,32,0,0,1,5.89,1.22c1,.25,2.22.49,2.18,1.88,0,1.22-1.16,1.45-2,1.66-2.26.53-4.54,1-6.84,1.37-1.3.18-1.72.66-1.88,2a52.9,52.9,0,0,1-1.33,6.19c-.21.83-.59,1.62-1.65,1.67s-1.47-.72-1.73-1.56a29.75,29.75,0,0,1-1-3.35c-.88-4.69-.87-4.65-5.73-5.3-2.13-.29-5.32,0-5.51-2.61-.22-3,3.21-2.47,5.16-2.92,5.09-1.18,5.07-1.05,6-6.31C529.13,506.64,529,504.38,531.16,503.64Z" transform="translate(-88.72 -10.18)"/><path id="s877" class="cls-1" d="M559.48,406.86c1-.07,1.37.64,1.55,1.35a11.89,11.89,0,0,1,.71,4.05c-.52,3.94,1.9,4.41,4.84,4.61,1.62.1,4.23,0,4.27,1.6,0,1.9-2.59,1.4-4.12,1.78a5.43,5.43,0,0,1-1.87.33c-2.6-.33-3.17,1.21-3.35,3.32a31.21,31.21,0,0,1-.61,3.43c-.16.82-.13,2-1.14,2.06s-1.37-1.15-2-1.77a.79.79,0,0,1-.14-.6c.62-5.69-2.81-6.94-7.49-7-.91,0-2.07-.26-2.1-1.5s1.19-1.59,2-1.53c5.6.43,7.82-2.32,7.48-7.64C557.42,408,558.57,407.48,559.48,406.86Z" transform="translate(-88.72 -10.18)"/><path id="s445" class="cls-1" d="M172,414.75a1.48,1.48,0,0,1-1.13-1.67c.25-5.61-2.54-8-8-7.76-.81,0-1.85-.36-1.93-1.34-.1-1.24,1.13-1.64,2-1.59,5.68.32,8-2.42,7.68-7.91,0-.81.19-2.17,1.38-2.23,1.42-.08,1.67,1.25,1.62,2.27-.28,5.69,2.21,8.37,8,8,.74-.05,2.45-.09,2.36,1.45-.07,1.18-1.46,1.33-2.27,1.32-5.38-.08-9,1.55-8.51,7.84A1.5,1.5,0,0,1,172,414.75Z" transform="translate(-88.72 -10.18)"/><path id="s344" class="cls-1" d="M224.58,282.45a1.18,1.18,0,0,1-1.3,1.19c-5.59,0-9.37,1.94-8.93,8.4a1.08,1.08,0,0,1-1.19,1.19,1.21,1.21,0,0,1-1.11-1.33c.46-6.16-3-8-8.43-7.92-.77,0-2.11-.15-2-1.52s1.2-1.48,2.13-1.43c5.76.29,8.53-2.27,8.11-8.14a1.63,1.63,0,0,1,1.27-1.94c1.32-.16,1.69,1.12,1.65,1.91-.32,5.84,2.17,8.79,8.2,8.5C223.54,281.34,224.53,281.46,224.58,282.45Z" transform="translate(-88.72 -10.18)"/><path id="s05" class="cls-3" d="M439.48,142.08a1.66,1.66,0,0,1-1.73,1c-5.45-.08-8.82,1.92-8.42,8,.05.74-.3,1.58-1.22,1.54s-1.23-1-1.17-1.64c.61-6.4-3.23-7.79-8.48-7.74-.83,0-1.77-.24-1.87-1.32-.12-1.42,1.22-1.62,2-1.55,5.95.56,8.48-2.22,8.22-8,0-1,.3-2,1.55-2s1.38,1.15,1.33,1.86c-.39,6,2.5,8.61,8.38,8.52C439.31,140.75,439.59,141.37,439.48,142.08Z" transform="translate(-88.72 -10.18)"/><path id="s554" class="cls-1" d="M522.9,278.53c1.84.14,2,1.37,2.16,2.51.3,2.71,1,4.86,4.43,4.69.81,0,2.41.16,2.43,1.53s-1.41,1.4-2.4,1.52c-2.74.34-4.77,1.2-4.65,4.54a1.9,1.9,0,0,1-2,2,1.62,1.62,0,0,1-1.5-1.76c-.15-3.1-1.67-4.64-4.77-4.77-1,0-2.05-.38-2.09-1.55s1.21-1.6,2-1.58c3.26.1,4.29-1.7,4.51-4.57C521.15,279.92,521.34,278.49,522.9,278.53Z" transform="translate(-88.72 -10.18)"/><path id="s023" class="cls-1" d="M506.89,457.77c1.46.07,1.7,1.3,1.74,2.26.15,3.16,1.27,5.11,4.82,5,.76,0,2.08.23,2,1.57s-1.25,1.35-2.14,1.42c-3,.24-4.9,1.35-4.89,4.68,0,.84-.33,1.84-1.32,1.93s-1.3-1-1.36-1.78c-.22-3.06-1.71-4.68-4.87-4.77-.9,0-2-.26-2.08-1.53s1.19-1.63,2-1.62c3.49,0,4.37-2,4.59-5A2.2,2.2,0,0,1,506.89,457.77Z" transform="translate(-88.72 -10.18)"/><path id="s787" class="cls-1" d="M196.46,516.36c-1.4-.3-1.5-1.63-1.53-2.51-.1-2.83-1.54-3.81-4.19-4-1-.05-2.62-.16-2.53-1.81s1.73-1.69,2.68-1.67c2.9,0,3.49-1.64,3.7-4,.12-1.21.24-2.91,1.77-3,1.69-.07,1.82,1.85,1.83,2.9,0,2.87,1.19,4.11,4.06,4.21,1,0,2.63.07,2.6,1.73,0,1.46-1.62,1.51-2.44,1.49-3.32-.08-4.27,1.88-4.6,4.64A2,2,0,0,1,196.46,516.36Z" transform="translate(-88.72 -10.18)"/><path id="tee" class="cls-1" d="M316.45,250.2c10.81.39,21.62.93,33.23.83-2.14,2.18-4.24,2.08-6,2.37-9.95,1.63-19.82.55-29.65-1.24a1.77,1.77,0,0,1-1.47-1.08C313.57,249.65,315.19,250.73,316.45,250.2Z" transform="translate(-88.72 -10.18)"/><g id="l2"><path class="cls-1" d="M377.27,514.56c3.36,3.19,7.74,2.78,11.75,2.89a83.25,83.25,0,0,0,31.5-5.29c2.06-.77,4.2-1.65,5.06-4a2.79,2.79,0,0,1,2.7,2.89c.05,2.92.52,5.84,0,8.76-7.93,4.92-16.94,6.14-25.89,7.41a68.53,68.53,0,0,1-19.92.15A29.16,29.16,0,0,1,377.6,526c-1.18-2.77-1.06-5.79-1.65-8.67C375.71,516.16,376.58,515.36,377.27,514.56Z" transform="translate(-88.72 -10.18)"/><path class="cls-1" d="M386.25,568.22c13.17,2.57,26.49,2.61,39.83,2.53,7.84,0,15.66-.38,23.47-1.07.53,2-.38,3.75-.71,5.61-.22,1.26-1.09,1.6-2.3,1.67-18.46,1.07-36.9,1.76-55.31-1-2.73-.41-4-1.4-4.22-4A36.79,36.79,0,0,0,386.25,568.22Z" transform="translate(-88.72 -10.18)"/><path class="cls-1" d="M427.9,535.69c-5.9,3.43-12.17,4.68-18.87,3-.93-.24-2.43-.31-2.36-1.63s1.49-.95,2.35-1.08c6.48-.91,13-1.83,19.06-4.38.83,0,1.84-1,2.46.28.52,1.09-.33,1.74-1,2.38S428.45,535.2,427.9,535.69Z" transform="translate(-88.72 -10.18)"/><path class="cls-1" d="M429,547.83a18.69,18.69,0,0,1-14.25,2.41c-.91-.19-2.11-.33-2.23-1.41-.16-1.37,1.24-1.12,2.05-1.36,4.22-1.26,8.71-1.41,12.83-3.11a3,3,0,0,0,.61,0c1-.24,2.34-1.15,3.07.1s-.73,1.93-1.44,2.74C429.47,547.4,429.25,547.61,429,547.83Z" transform="translate(-88.72 -10.18)"/></g><g id="l1"><path class="cls-1" d="M294.27,508.05c1.76,3,4.85,4.05,7.83,5a82.47,82.47,0,0,0,33.48,4,11.57,11.57,0,0,0,6.72-2.52c2.54,2,1.06,4.59.87,7a30.38,30.38,0,0,1-.8,3.95c-4.23,2.39-8.9,2.53-13.56,2.41a95.09,95.09,0,0,1-28.1-4.42A25.62,25.62,0,0,1,292.1,519c0-2.53,0-5-.05-7.57A3.06,3.06,0,0,1,294.27,508.05Z" transform="translate(-88.72 -10.18)"/><path class="cls-1" d="M269.92,569.74c19.79,1.33,39.57,1.82,59.33-.43,1.47-.16,2.93-.38,4.39-.57a5,5,0,0,1,0,1c-1.32,5.65-1.3,5.78-6.92,6.52-17.85,2.33-35.75,1.78-53.65.7-1.46-.09-2.36-.59-2.6-2.18S269.49,571.47,269.92,569.74Z" transform="translate(-88.72 -10.18)"/><path class="cls-1" d="M292.12,531.49a71.49,71.49,0,0,0,18.41,4.41c.9.1,2.54-.32,2.61,1.11s-1.59,1.45-2.63,1.72c-6.54,1.74-12.52.11-18.21-3.14-.51-.53-1-1-1.53-1.57s-1.45-1.11-.89-2.11S291.3,531.27,292.12,531.49Z" transform="translate(-88.72 -10.18)"/><path class="cls-1" d="M292.81,544.25c4.29,1.08,8.58,2.15,12.86,3.25.68.17,1.62.12,1.75,1.06.16,1.22-1,1.28-1.71,1.48a17.24,17.24,0,0,1-14.24-2.21c-.14-.15-.29-.3-.42-.45-.72-.9-2.36-1.56-1.59-2.93S291.66,544.13,292.81,544.25Z" transform="translate(-88.72 -10.18)"/></g><path id="shad" class="cls-1" d="M457.86,445.71a29,29,0,0,1-9.46,3.42c-.67.11-1.3.17-1.72-.44a1.2,1.2,0,0,1,.41-1.68c4.08-3.42,8.35-6.47,14.05-6.31C461.57,443.36,459,444.07,457.86,445.71Z" transform="translate(-88.72 -10.18)"/><path id="hend" class="cls-1" d="M413.2,179.22c-.63.34-1.7,1.09-1.83,1-2.71-2.93-7.09-1-9.92-3.45,1.27-3.19,3.22-4.07,6.26-2.82a4.11,4.11,0,0,0,1.44.54C413.15,174.37,413.6,174.87,413.2,179.22Z" transform="translate(-88.72 -10.18)"/><path id="hand1" class="cls-1" d="M302,443.53a32.37,32.37,0,0,1-4.89,14.82c-5.16,6.32-11.69,9.27-19.89,8.17l-4.85-1.71a35.11,35.11,0,0,1-5.65-4.59q-1.28-2.19-2.57-4.38c-.61-2.65-1.79-5.22-1.27-8.15,1.95.44,3.85.88,5.76,1.29.62.13,1.35.24,1.73-.38.5-.83-.19-1.39-.74-1.88a31.11,31.11,0,0,0-8.84-5.53,26.9,26.9,0,0,1-4.2-2.17c-5.21-3.43-5.2-3.47-2.35-8.91A46.21,46.21,0,0,1,278,408.17c1.86-.78,3.12-.75,4.61,1,4.75,5.57,9.73,10.95,13.69,17.14C299.62,431.56,302.06,437.13,302,443.53Zm-14.78,9.13c-.07-1.56-.14-3.65-2-3.68-2.27,0-2.47,2.3-2.46,4s.07,4,2.12,3.94S287.12,454.54,287.22,452.66Zm6.69-5.78c.28,1.52-.11,3.91,2.14,3.77,2.06-.13,2.26-2.52,2.39-4.25s-.48-3.67-2.19-3.66C293.94,442.75,294.11,445.1,293.91,446.88Z" transform="translate(-88.72 -10.18)"/><path id="star" class="cls-1" d="M426.75,282.89l-4-.68c-.78-4.59-1.8-9.15-2.27-13.77-.31-3.17-1.58-3.76-4.46-3.24a193.62,193.62,0,0,1-23.65,2.68c0-1,.08-2,.13-3,7.71-1.4,15.4-2.91,23.14-4.14,2.25-.36,2.93-.74,2.59-3.29-1.17-8.72-2-17.49-2.84-26.24-.08-.84-.61-2.17.68-2.44s1.19,1.19,1.44,2A141.75,141.75,0,0,1,423,256.34c.34,2.84,1.54,3.35,4.1,2.93,8.49-1.38,17-2.21,25.61-2.84a10.67,10.67,0,0,1,1.26-.09c.83,0,1.9-.14,2,1,.06,1-1,1-1.65,1.13q-10.28,2.07-20.57,4.06c-2.39.47-4.79,1-7.21,1.21-1.69.17-2.07.75-1.84,2.42C425.47,271.73,426.07,277.32,426.75,282.89Z" transform="translate(-88.72 -10.18)"/><path id="sw23" class="cls-1" d="M237.22,479.23c.57.27,1.05.48,1.52.71a85.9,85.9,0,0,1,23.16,16.42c.64.64,1.73,1.3,1.07,2.36s-1.66.45-2.49,0c-8.36-4.78-16.39-10-23.19-16.95-.5-.5-1.28-.94-1-1.81C236.38,479.63,236.88,479.47,237.22,479.23Z" transform="translate(-88.72 -10.18)"/><path id="sa1" class="cls-1" d="M264.15,455.84q1.29,2.19,2.57,4.38c-8.29,1.2-16.61,2.17-25,2.62-1,.05-2.48.59-2.75-.78-.32-1.63,1.28-1.61,2.39-1.82Z" transform="translate(-88.72 -10.18)"/><path id="sq1" class="cls-1" d="M272.37,464.81l4.85,1.71c.73,7.15,1.49,14.3,2.15,21.46.09,1,.74,2.64-1,2.82-1.43.14-1.34-1.34-1.58-2.32C274.91,480.66,273.46,472.77,272.37,464.81Z" transform="translate(-88.72 -10.18)"/><g id="shirt"><path class="cls-1" d="M301.85,282.48c-1.37,3.87-.93,5.27,2.58,7.39,6.14,3.71,13.11,4.75,20,5.83a184.45,184.45,0,0,0,50.17.74c.63-.07,1.27-.07,2.21-.12-.83,1.76-2.37,2.53-3.5,3.64-6.58,6.5-13.09,13.06-19.79,19.42-13.74,13.06-25.21,28.05-36.91,42.87-4.4,5.57-8.49,11.32-12.49,17.14a2.88,2.88,0,0,1-3.43,1.43c-2.79-.59-5.64-.91-8.47-1.34l-6.6-1.52a10.58,10.58,0,0,0-.72-2c-2.15-3.6-4.73-7-6.46-10.78-8.77-19.16-11.53-39.24-8.89-60.13.4-3.1,1.63-6.2.68-9.42l.13-1c.3-4.21,2.85-6.12,6.74-7C285.33,285.7,293.41,283.23,301.85,282.48Z" transform="translate(-88.72 -10.18)"/><path class="cls-1" d="M419.87,432.61l-.14.11c-22.58,5.71-45.63,5.5-68.66,5.32a238.11,238.11,0,0,1-43.38-3.94c-7-1.34-7-1.45-7.94-8.51L298.7,418a7.74,7.74,0,0,1,1.24-5.65c4.33-6.67,8.39-13.52,12.43-20.37,1.2-2,2.93-3.57,4.22-5.47.76-1.1,1.84-.84,2.87-.84,6,0,11.9-.07,17.85.08a4.08,4.08,0,0,0,4.39-2.8c1-2.32,2.23-4.54,3.52-7.12,2.08,2.71,3.68,5.37,5.54,7.82a5.86,5.86,0,0,0,4.72,2.61,226.94,226.94,0,0,0,58-3.85c.94-.18,2.49-.07,2.15-1.62-.26-1.22-1.54-.75-2.46-.64a292.47,292.47,0,0,1-56,1.67c-1.81-.13-3-.66-3.74-2.31-1.6-3.47-4.32-6.2-6.35-9.39-1.51-2.38-3.22-2.27-4.53.21-1.49,2.81-2.93,5.66-4.14,8.59a3.52,3.52,0,0,1-3.84,2.47c-4.66-.09-9.32,0-14.13,0-.3-.73.61-1.24,1.05-1.88a299.09,299.09,0,0,1,25.62-32.91C358.66,334,370,321.16,383,310.06c9.75-8.31,19.36-16.86,29.93-24.18.62-.42,1.43-.74,1.77-1.32,1.95-3.37,4.9-3,8-2.35l4,.68c3.79,1.17,3.71,1.15,2.4,5.12-9.44,28.51-10.35,57.09-.48,85.71.51,1.49,1.17,2.94,1.76,4.41-1.05,1.59-4.22,0-4.38,3.14-.22,4.33-.74,8.64-1.2,13C423.49,407.06,422.05,419.89,419.87,432.61ZM355.58,417c-7.66.07-7.66.07-7.61-7.67a3.41,3.41,0,0,0,0-.64c-.33-2.1.6-2.62,2.64-2.71a96.41,96.41,0,0,0,23.47-3.9c1-.29,2.81-.16,2.6-1.7s-1.86-.9-2.93-.81c-7.72.63-15.42,1.5-23.18,1.74-2.25.07-3-.53-2.92-2.78.07-2.75-.21-5.51-.38-8.27-.05-.83-.12-1.89-1.23-1.9s-1.26,1.08-1.36,1.88c-.38,2.94-.73,5.9-.94,8.85-.12,1.85-.78,2.53-2.74,2.45a180.61,180.61,0,0,1-20.91-1.84c-.94-.15-2.37-.71-2.6.86-.17,1.16,1,1.38,1.94,1.73,5.29,2,10.87,2.77,16.42,3.61,2.39.36,5.75-.92,6.94.86s.2,4.93.49,7.44c.31,2.72-.85,3.19-3.23,3-4.22-.35-8.48-.25-12.69-.89-.89-.13-2.13-.46-2.49.74-.46,1.5,1,1.6,1.89,2A40,40,0,0,0,341,421.89c2.24.11,2.83.82,2.89,3a70.79,70.79,0,0,0,1,7.88c.11.71.17,1.66,1.17,1.6s.92-1,1-1.71a69.14,69.14,0,0,0,.47-7.3c-.08-2.44.45-3.54,3.22-3.63a47.3,47.3,0,0,0,14.62-2.8c1-.37,2.75-.3,2.48-1.84-.25-1.33-1.8-.75-2.77-.7C361.93,416.52,358.75,416.8,355.58,417Zm26.32-52.88c5.78,0,10.44-.12,14.91-1.81,2.3-.87,3.08-2.21,2.18-4.67a72.62,72.62,0,0,0-12.24-21.79c-2.68-3.21-4.17-3.27-6.93-.27-5.77,6.28-9.57,13.7-12.28,21.69-1.1,3.24-.46,4.29,2.89,5.36A36.37,36.37,0,0,0,381.9,364.15Z" transform="translate(-88.72 -10.18)"/><path class="cls-4" d="M296.2,391.59c-.31-3.41-.55-6-.81-8.95l5.66,1.24Z" transform="translate(-88.72 -10.18)"/></g><g id="love"><path class="cls-1" d="M464.84,335.5c.86-4.52,2.31-6,5.4-6a6.66,6.66,0,0,1,6.28,6.06c.61,5.32-1.45,9.95-3.79,14.51a2,2,0,0,1-2.38,1.08c-6.83-.73-12.56-3.57-16.72-9.1a4.87,4.87,0,0,1-.21-6c1.7-2.11,4-3.79,7.11-3.08A10.69,10.69,0,0,1,464.84,335.5Z" transform="translate(-88.72 -10.18)"/><path class="cls-1" d="M485.63,348.4c-2.76.57-4.77-.5-6.82-1.1-1.34-.39-.4-1.42-.25-2.11.22-1,.9-.94,1.68-.46C481.92,345.78,483.84,346.46,485.63,348.4Z" transform="translate(-88.72 -10.18)"/><path class="cls-1" d="M444.45,332.38c2.07-1.19,3.68-.27,5.37.06.69.14,1.55.38.79,1.44-.49.69-.59,2-2,1.15Z" transform="translate(-88.72 -10.18)"/></g><path id="band" class="cls-1" d="M285.63,378a2.06,2.06,0,0,1-2.18.48C274.9,369.2,270,358.08,267.12,346a90.75,90.75,0,0,1,1.19-47.7,4.65,4.65,0,0,1,1.73-2.9l.2.16c.95,3.22-.28,6.32-.68,9.42-2.64,20.89.12,41,8.89,60.13,1.73,3.79,4.31,7.18,6.46,10.78A10.58,10.58,0,0,1,285.63,378Z" transform="translate(-88.72 -10.18)"/><path id="e1" class="cls-1" d="M352.22,200.6a1.55,1.55,0,0,1,.32,0c4.92,2.43,5.36,7,5.36,11.63s-.64,9.18-5.69,11.39c-4.38-1.15-6.3-4.09-6.26-8.49,0-1.38-.09-2.76-.06-4.14C346,206.35,346.28,201.75,352.22,200.6Zm-1.58,17c-.34.71-.56,1.51.37,1.86.76.28,1.34-.35,1.8-.92a4.88,4.88,0,0,0,.92-3.79c-.21-2.69.22-5.41-.76-8.08-.23-.61.67-1.67-.43-2.15s-1.4.63-2.09,1c-3.58,1.9,1.23,5.4-1.47,7.54-.4.31-.08,1.51.84,2.09A1.85,1.85,0,0,1,350.64,217.62Z" transform="translate(-88.72 -10.18)"/><path id="es2" class="cls-1" d="M352.22,200.6c-5.94,1.15-6.22,5.75-6.33,10.43,0,1.38.07,2.76.06,4.14,0,4.4,1.88,7.34,6.26,8.49a5,5,0,0,1-7.53-2,20.76,20.76,0,0,1-.05-19A5,5,0,0,1,352.22,200.6Z" transform="translate(-88.72 -10.18)"/><path id="chin" class="cls-1" d="M333.15,278.06c5.19.46,10.39.44,15.55,1.07.92.12,2.09-.13,2.15,1.27,0,1.16-1,1.13-1.79,1.32a52.42,52.42,0,0,1-26.67-.69c-1.15-.33-3.37-.2-3-2,.31-1.61,2.35-.91,3.63-1C326.38,278,329.77,278.06,333.15,278.06Z" transform="translate(-88.72 -10.18)"/><path id="se1" class="cls-1" d="M427.86,446.82c-.52,1.42,0,4-2.26,3.8s-2.21-2.56-2.22-4.34c0-1.6.27-3.71,2.22-3.59S427.48,445.13,427.86,446.82Z" transform="translate(-88.72 -10.18)"/><path id="sd23" class="cls-1" d="M439,452.92c-.24,1.68-.13,4.08-2.16,3.94-1.85-.12-2.36-2.43-2.35-4.29,0-1.59.21-3.65,2.1-3.66C438.94,448.9,438.67,451.27,439,452.92Z" transform="translate(-88.72 -10.18)"/><path id="han2" class="cls-1" d="M460.5,204.76c3.71.16,7.16.62,10.35,2.27.56.29,1.3.53,1.08,1.32s-1.05.56-1.63.52c-5.29-.38-10.59-.8-15.89-1.21-.64,0-1.37-.14-1.38-1s.78-.78,1.38-1C456.45,205,458.59,205,460.5,204.76Z" transform="translate(-88.72 -10.18)"/><path id="han1" class="cls-1" d="M479.72,198.79a159.49,159.49,0,0,1-17.4-1.09c-.48,0-1.15-.14-1.15-.81a1.35,1.35,0,0,1,.58-1C465.14,194.12,477.3,194.57,479.72,198.79Z" transform="translate(-88.72 -10.18)"/><path id="e2" class="cls-3" d="M313.14,200.59c2.66.61,4.08,2.46,4.94,4.9a20.12,20.12,0,0,1,.26,12.51c-.76,2.64-2.18,4.83-5.06,5.62-3.81-1.13-5.69-3.72-5.73-7.67,0-2.55-.08-5.09,0-7.64C307.67,204.51,308.92,201.46,313.14,200.59Zm-1.87,17.15c.12.59,0,1.48.39,1.71.72.48,1.35-.24,1.88-.73a2.79,2.79,0,0,0,1.07-2.83c-1-2.72,1.6-5.77-.84-8.32-.18-.2.09-.8.12-1.22,0-.7.42-1.56-.61-1.85-.84-.23-1.37.35-1.84.95a4.13,4.13,0,0,0-.83,3.56C311.14,211.89,309.81,214.94,311.27,217.74Z" transform="translate(-88.72 -10.18)"/><path id="es1" class="cls-1" d="M313.14,200.59c-4.22.87-5.47,3.92-5.59,7.72-.08,2.55,0,5.09,0,7.64,0,4,1.92,6.54,5.73,7.67-.23,1.58-1.45,1.33-2.46,1.22a5.86,5.86,0,0,1-5-3.51,22.86,22.86,0,0,1-.14-18.17,5.94,5.94,0,0,1,4.25-3.55C311.08,199.36,312.56,198.76,313.14,200.59Z" transform="translate(-88.72 -10.18)"/><path id="pack" class="cls-1" d="M355.58,417c3.17-.23,6.35-.51,9.53-.67,1-.05,2.52-.63,2.77.7.27,1.54-1.47,1.47-2.48,1.84a47.3,47.3,0,0,1-14.62,2.8c-2.77.09-3.3,1.19-3.22,3.63a69.14,69.14,0,0,1-.47,7.3c-.06.74,0,1.65-1,1.71s-1.06-.89-1.17-1.6a70.79,70.79,0,0,1-1-7.88c-.06-2.15-.65-2.86-2.89-3a40,40,0,0,1-14.28-2.83c-.92-.39-2.35-.49-1.89-2,.36-1.2,1.6-.87,2.49-.74,4.21.64,8.47.54,12.69.89,2.38.2,3.54-.27,3.23-3-.29-2.51.7-5.65-.49-7.44s-4.55-.5-6.94-.86c-5.55-.84-11.13-1.57-16.42-3.61-.9-.35-2.11-.57-1.94-1.73.23-1.57,1.66-1,2.6-.86A180.61,180.61,0,0,0,341,401.57c2,.08,2.62-.6,2.74-2.45.21-2.95.56-5.91.94-8.85.1-.8.28-1.89,1.36-1.88s1.18,1.07,1.23,1.9c.17,2.76.45,5.52.38,8.27-.06,2.25.67,2.85,2.92,2.78,7.76-.24,15.46-1.11,23.18-1.74,1.07-.09,2.7-.84,2.93.81s-1.63,1.41-2.6,1.7A96.41,96.41,0,0,1,350.6,406c-2,.09-3,.61-2.64,2.71a3.41,3.41,0,0,1,0,.64C347.92,417.1,347.92,417.1,355.58,417Z" transform="translate(-88.72 -10.18)"/><path id="logo1" class="cls-1" d="M381.9,364.15a36.37,36.37,0,0,1-11.47-1.49c-3.35-1.07-4-2.12-2.89-5.36,2.71-8,6.51-15.41,12.28-21.69,2.76-3,4.25-2.94,6.93.27A72.62,72.62,0,0,1,399,357.67c.9,2.46.12,3.8-2.18,4.67C392.34,364,387.68,364.13,381.9,364.15Zm1.33-4.68a34.14,34.14,0,0,0,8.76-.61c.81-.11,2.28,0,1.68-1.48-2.37-6-4.77-11.88-9.49-16.55-1.37-1.36-1.9-1-2.85.19a62.24,62.24,0,0,0-8.4,15.21c-.78,1.95,0,2.41,1.67,2.67A36.45,36.45,0,0,0,383.23,359.47Z" transform="translate(-88.72 -10.18)"/><path id="swe3" class="cls-1" d="M287.22,452.66c-.1,1.88-.38,4.19-2.37,4.28s-2.12-2.35-2.12-3.94.19-4.05,2.46-4C287.08,449,287.15,451.1,287.22,452.66Z" transform="translate(-88.72 -10.18)"/><path id="sww3" class="cls-1" d="M293.91,446.88c.2-1.78,0-4.13,2.34-4.14,1.71,0,2.31,2.06,2.19,3.66s-.33,4.12-2.39,4.25C293.8,450.79,294.19,448.4,293.91,446.88Z" transform="translate(-88.72 -10.18)"/><path id="ep1" class="cls-1" d="M350.64,217.62a1.85,1.85,0,0,0-.82-2.45c-.92-.58-1.24-1.78-.84-2.09,2.7-2.14-2.11-5.64,1.47-7.54.69-.37,1.11-1.43,2.09-1s.2,1.54.43,2.15c1,2.67.55,5.39.76,8.08a4.88,4.88,0,0,1-.92,3.79c-.46.57-1,1.2-1.8.92C350.08,219.13,350.3,218.33,350.64,217.62Z" transform="translate(-88.72 -10.18)"/><path id="ep2" class="cls-1" d="M311.27,217.74c-1.46-2.8-.13-5.85-.66-8.73a4.13,4.13,0,0,1,.83-3.56c.47-.6,1-1.18,1.84-.95,1,.29.65,1.15.61,1.85,0,.42-.3,1-.12,1.22,2.44,2.55-.15,5.6.84,8.32a2.79,2.79,0,0,1-1.07,2.83c-.53.49-1.16,1.21-1.88.73C311.31,219.22,311.39,218.33,311.27,217.74Z" transform="translate(-88.72 -10.18)"/><path id="logo2" class="cls-1" d="M383.23,359.47a36.45,36.45,0,0,1-8.63-.57c-1.69-.26-2.45-.72-1.67-2.67a62.24,62.24,0,0,1,8.4-15.21c.95-1.23,1.48-1.55,2.85-.19,4.72,4.67,7.12,10.59,9.49,16.55.6,1.5-.87,1.37-1.68,1.48A34.14,34.14,0,0,1,383.23,359.47Zm.15-3.71c1.49-.56,4,1,4.48-1.93.28-1.9-3.53-6.85-4.92-6.78-1.12.05-4.91,5.48-4.46,6.95C379.23,356.39,381.54,355.47,383.38,355.76Z" transform="translate(-88.72 -10.18)"/><path id="logo3" class="cls-1" d="M383.38,355.76c-1.84-.29-4.15.63-4.9-1.76-.45-1.47,3.34-6.9,4.46-6.95,1.39-.07,5.2,4.88,4.92,6.78C387.42,356.77,384.87,355.2,383.38,355.76Z" transform="translate(-88.72 -10.18)"/></svg>