<svg id="Layer_1" data-name="Layer 1" xmlns="http://www.w3.org/2000/svg" viewBox="0 0 245.67 163.56"><defs><style>.cls-1,.cls-2,.cls-3,.cls-6,.cls-8{fill:#fff;}.cls-1,.cls-2,.cls-4,.cls-5,.cls-8{stroke:#000;}.cls-1,.cls-2,.cls-3,.cls-4,.cls-5,.cls-6,.cls-7,.cls-8{stroke-miterlimit:10;}.cls-1,.cls-3,.cls-5,.cls-6,.cls-7{stroke-width:0.2px;}.cls-2{stroke-width:0.15px;}.cls-3{stroke:#4d4a7d;}.cls-4{fill:#4d4a7d;stroke-width:0.1px;}.cls-5,.cls-7{fill:none;}.cls-6,.cls-7{stroke:#050505;}.cls-8{stroke-width:0.2px;}</style></defs><title>draw_1</title><path id="p3" class="cls-1" d="M60.2,168.5H56.9c-.7,0-1-.2-.9-.9V151.5c.3,0,.4-.2.6-.3,1.6-1.7,2.9-3.5,4.5-5.2,2.8-3,5.3-6.1,8-9.2s5.5-6.4,8.3-9.6l8.2-9.4c3.2-3.7,6.4-7.5,9.6-11.2h18.3a44.18,44.18,0,0,1-4.4,5.3c-3.2,3.6-6.3,7.3-9.5,11a9.28,9.28,0,0,1-1.9,2.1c-1.3-1-1.8-2.4-2.8-3.6-.5-.6-.2-.7.4-.7a13.36,13.36,0,0,0,2.8-.1c-.4-1-1.3-1.6-1.8-2.4-.8-1.3-1.7-2.5-2.6-3.8-.4-.6-.8-.8-1.4,0-.9,1.4-1.9,2.8-2.9,4.1a9.61,9.61,0,0,0-1.6,2.2h1.5c.7,0,1.6-.3,1.9.2s-.5,1-.8,1.5c-.8,1.1-1.7,2.2-2.5,3.3.5.3.9.1,1.3.2,2.5.1,5.1-.1,7.6.1-1.3,1.5-2.5,3.1-3.9,4.6-2.9,3.2-5.7,6.5-8.5,9.7s-5.3,6.2-8,9.3-5.5,6.5-8.4,9.7c-1.7,1.9-3.3,3.9-5,5.8C62.1,166.1,61.1,167.4,60.2,168.5Zm16-19.7c-1.3-1.8-2.4-3.4-3.7-5.2h3.6a68.21,68.21,0,0,0-5.1-6.9c-1.5,2.4-3.6,4.4-5,6.9h3.8c-1.3,1.8-2.8,3.3-3.7,5.1C69.5,148.8,72.7,148.8,76.2,148.8Z" transform="translate(-15.43 -13.51)"/><path id="p4" class="cls-1" d="M97.7,124.9a9.52,9.52,0,0,0,1.9-2.1c3.2-3.7,6.2-7.4,9.5-11a56.21,56.21,0,0,0,4.4-5.3h13.8a1,1,0,0,1-.4.7c-2.1,2-3.8,4.4-5.8,6.5-2.7,3-5.3,6.1-7.9,9.2s-5.4,6.3-8.2,9.4-5.4,6.3-8.2,9.4c-2.9,3.3-5.7,6.6-8.5,9.9-2.6,3-5.3,6-7.8,9.1-1.8,2.1-3.7,4.1-5.3,6.3a3.2,3.2,0,0,1-3.1,1.5,10.24,10.24,0,0,0-3.9.1l-.1.1H68c-2.6,0-5.2-.1-7.8-.1,1-1.2,1.9-2.4,2.9-3.6,1.7-1.9,3.3-3.9,5-5.8,2.9-3.2,5.6-6.4,8.4-9.7,2.7-3.1,5.3-6.2,8-9.3s5.6-6.6,8.5-9.7c1.3-1.5,2.6-3.1,3.9-4.6.4-.2.9.1,1.3-.2A3.51,3.51,0,0,1,97.7,124.9Z" transform="translate(-15.43 -13.51)"/><path id="p2" class="cls-1" d="M95.1,106.6c-3.2,3.8-6.4,7.5-9.6,11.2-2.7,3.2-5.4,6.3-8.2,9.4s-5.5,6.4-8.3,9.6-5.3,6.2-8,9.2c-1.6,1.7-2.9,3.6-4.5,5.2a.71.71,0,0,1-.6.3V135.6c.5,0,.6-.4.9-.6,2.7-3.2,5.4-6.3,8.2-9.5s5.7-6.6,8.6-9.9c1.1-1.3,2.1-2.6,3.3-3.8,1.6-1.7,3-3.6,4.4-5.4C85.9,106.6,90.5,106.6,95.1,106.6Z" transform="translate(-15.43 -13.51)"/><path id="shirt11" class="cls-1" d="M54.1,56.1c-3.2-1.3-6.5-2.3-9.8-3.5a6.47,6.47,0,0,0-1.3-.4c-.6-.2-.3-.5-.1-.8,2.6-3.8,5.1-7.8,8.9-10.8a22.79,22.79,0,0,1,11.3-4.4,5.67,5.67,0,0,1,3.5,2.9,8.78,8.78,0,0,0,1.2,2.1v.7c.8,1.4,1.7,2.8,2.4,4.3,1,2.5,2.4,4.6,5.3,5.7,2.4.9,4.6,2.2,7,3.3.5.2.9.5.6,1a15.72,15.72,0,0,0-1.9,2.6c-.3.2-.8.4-1,.8s-.4.3-.8.1A74.47,74.47,0,0,0,71.9,56a23.7,23.7,0,0,1-8.1-7.3c-.5-.6-.7-.6-1.2-.1a67.06,67.06,0,0,1-8.4,7.5Z" transform="translate(-15.43 -13.51)"/><path id="ladder" class="cls-1" d="M28.1,161c1-3.3,1.8-6.7,3-9.9,1.7-4.8,2.8-9.7,4.5-14.4,1.5-4.1,2.3-8.3,3.9-12.3,1.7-4.5,2.7-9.2,4.3-13.7a25.49,25.49,0,0,0,1.3-3.9c.4-1.3.8-2.5,1.2-3.7.5-.2.9,0,1.4,0-.3,1.2-.6,2.3-.9,3.5-1.1,3-1.6,6.2-3,9.2-.1.3-.4.7.3,1,4,1.4,7.9,2.8,11.8,4.3.8.4,1.3.5,1.5-.6a27.59,27.59,0,0,1,.8-2.7c.7-2.3,1.3-4.6,2.1-6.9a16.41,16.41,0,0,0,1.3-4.3,2.11,2.11,0,0,0-1-.4c-2.3-.8-4.5-1.7-6.8-2.5a16,16,0,0,1,4.4.4,14.76,14.76,0,0,1,2.7,1c1.2.6,1.5.2,1.5-.9a.55.55,0,0,0,.3-.5c.7-2.3,1.3-4.6,2.2-6.8a87,87,0,0,0,2.6-8.7c.4-1.3.8-2.7,1.1-4,.5-.1.4-.6.5-.9.7-2.2,1.4-4.4,2-6.6a5.24,5.24,0,0,1,2.6-3.4c2.4-1.4,4.9-1.2,7.6.3a4.83,4.83,0,0,1,2,5.2,1.87,1.87,0,0,0,.3,2,1.51,1.51,0,0,1-.7,2.2,2.47,2.47,0,0,1-2.8-.8,1.53,1.53,0,0,1,1-2.2,1.06,1.06,0,0,0,.7-.6,3.57,3.57,0,0,0-1.3-4.7c-2.7-2.1-6.7-1.3-7.9,1.8a80.58,80.58,0,0,0-2.4,8.4,12.44,12.44,0,0,0-1,3.1,20.32,20.32,0,0,0-1.4,3.9c-1.3,4.9-3.1,9.8-4.5,14.7-1.1,3-1.8,6.1-2.9,9.1-1.6,4.5-2.5,9.1-4.3,13.6a2.92,2.92,0,0,0-.2.9c-.9,3.1-1.7,6.3-2.8,9.4-1.7,4.7-2.8,9.5-4.5,14.2-1.5,4.1-2.5,8.4-3.9,12.5a2.15,2.15,0,0,1-1.5-.4c1-3.5,2.4-7,3.4-10.5.2-.7,0-.9-.6-1.2-4-1.4-7.9-2.9-11.8-4.3-.4-.2-.7-.2-.8.3-1.1,3.8-2.6,7.4-3.6,11.3A3.11,3.11,0,0,1,28.1,161Zm18.7-7.8c.5-1.6,1.1-3.1,1.6-4.6,1-3.1,1.8-6.2,2.8-9.3.3-.8,0-1.1-.8-1.4-3.9-1.4-7.8-2.8-11.6-4.2-.7-.2-.8-.1-.9.5-.8,2.4-1.4,4.9-2.3,7.3a65.54,65.54,0,0,0-1.9,6.3c-.2.5,0,.7.4.8l2.7.9C40.1,150.7,43.4,152,46.8,153.2Zm9.4-30.3c-.1-.4-.5-.5-.9-.7-1.8-.7-3.5-1.3-5.3-2-2.1-.8-4.1-1.4-6.2-2.2-.7-.3-.9-.1-1.1.6-1.2,4-2.3,8.1-3.8,12-.6,1.6-.5,1.6,1.3,2.3l.9.3c3.3,1.2,6.6,2.4,10,3.7.3.1.7.5.8-.1s.6-1,.7-1.5c1-3.4,2-6.8,3-10.1C55.8,124.4,56,123.7,56.2,122.9Z" transform="translate(-15.43 -13.51)"/><path id="hair2" class="cls-1" d="M245.3,50.4a13.64,13.64,0,0,1,1-7.2,10.84,10.84,0,0,0,.8-1.9c.5-1.8,1.3-3.5.3-5.3a5.81,5.81,0,0,1,4.3-.5c3.6.7,4.5,2.8,4.3,5.9,0,.5-.1,1-.1,1.5a3.83,3.83,0,0,0,2.5,4.4c1,.5,1.9,1.1,1.8,2.4-.3-1.5-1.6-1.9-2.7-2.5a3.71,3.71,0,0,1-2-3.4V41.7c-1.6,2.4-1.1,4.7,1.4,5.9a5.37,5.37,0,0,1,3.1,4.8c0,.5-.2.5-.6.6-4.1.2-8.2.4-12.3.7-.7,0-1-.2-1.2-.8A11.36,11.36,0,0,1,245.3,50.4Z" transform="translate(-15.43 -13.51)"/><path id="shirt12" class="cls-1" d="M68,42v-.7c.3-.5.5-1,.8-1.5,1-1.4.9-1.6-.6-2.5-.1-.1-.2-.1-.3-.2a1.07,1.07,0,0,1,1.4-.5,3.63,3.63,0,0,0,2.7-.2,2.23,2.23,0,0,1,2.1,0c.5.3.8,0,1.1-.3,5.3.4,10.6.8,15.8,2.3a26.72,26.72,0,0,1,2.6.9,2.57,2.57,0,0,0-1.2,2.1c-.2,1-.8,1.2-1.9,1a62.47,62.47,0,0,0-17.8-.8A12,12,0,0,0,68,42Z" transform="translate(-15.43 -13.51)"/><path id="hand2" class="cls-1" d="M234.6,36.5a37.25,37.25,0,0,1-4.7.4c-.5-.9-.9-1.8-1.4-2.7-.8-1.9-1.5-3.7-2.2-5.6-.4-1.1-.9-2-2.4-1.7a3.55,3.55,0,0,1-1-.2c-.9,0-.9-.5-.6-1.1a.55.55,0,0,0,.4-.6c.1-.1.3-.1.2-.3h0c.1,0,.1-.1.2-.1.8-1.3,1.9-1.5,3.4-1.1.7.7,1.4-.3,2.1-.1a4,4,0,0,1,3.2,2.1c1.5,2.4,2.8,4.8,4.2,7.2.3.5,1,.8,1.1,1.4a5.64,5.64,0,0,1-3.1,1.2A4.49,4.49,0,0,0,234.6,36.5Zm-4.8-8.6c.2-1,.4-1.7.6-2.4s0-.7-.7-.6c-1.4.3-1.4.2-.8,1.4A10.06,10.06,0,0,1,229.8,27.9Z" transform="translate(-15.43 -13.51)"/><path id="t2" class="cls-1" d="M197.3,32.4c.2-.7.9-.4,1.4-.5,3.3-.5,6.6-1,10-1.4.1.1.3.1.5.2a13.32,13.32,0,0,1-.5,1.9c-1.2,4.3-1.8,8.7-2.7,13a2.54,2.54,0,0,1-.2.7c-2.8-4.6-5.6-9.1-8.3-13.7A.22.22,0,0,1,197.3,32.4Z" transform="translate(-15.43 -13.51)"/><path id="t4" class="cls-1" d="M35,17.3c3.6.6,7.3,1.3,10.9,1.9a2.54,2.54,0,0,1,.7.2c0,.1-.1.3-.1.4-3,4.4-5.9,8.8-9.1,13.5-.5-5.4-1.8-10.5-2.5-15.6A.76.76,0,0,1,35,17.3Z" transform="translate(-15.43 -13.51)"/><path id="t3" class="cls-1" d="M173.4,34.7c4-.5,7.9-1,11.9-1.2a.37.37,0,0,0,.1.3c-1.3,5.1-2.6,10.1-3.9,15.2-.4,0-.3-.3-.4-.5-1.8-3.5-3.9-7-5.7-10.5-.5-1-1.2-1.9-1.7-2.9A.54.54,0,0,1,173.4,34.7Z" transform="translate(-15.43 -13.51)"/><path id="shoe2" class="cls-1" d="M246.2,103.4c-1.5.8-3.1.5-4.6.6-3.1-.1-6.2.1-9.3-.3l-2.3-.3c-.3-.7.4-.7.7-.9a25.63,25.63,0,0,1,6.3-1.9,48.61,48.61,0,0,0,6.6-.3c.1.2.1.6.4.3.5-.5,1.2-.6,1.6-1.3a26.38,26.38,0,0,0,4.7-3.3c.9.8,1.8,1.6,2.7,2.5.5.4.4.6-.1,1.1A29.65,29.65,0,0,1,246.2,103.4Z" transform="translate(-15.43 -13.51)"/><path id="face1" class="cls-1" d="M66.1,33c.6-.7.8-1.6,1.7-2.1a3.62,3.62,0,0,1,4.1.2,14.5,14.5,0,0,0,4.5,2.2c-.3,1-1.2,1.7-1.3,2.8-.3.3-.6.6-1.1.3a2.23,2.23,0,0,0-2.1,0,3.63,3.63,0,0,1-2.7.2c-.7-.2-1,.1-1.4.5a7.68,7.68,0,0,1-2.2-2.2C65.8,34.3,66.5,33.7,66.1,33Zm8.1,1.2a4,4,0,0,1-1.3-1.3c-.1-.2-.3-.3-.5-.1a.6.6,0,0,0-.1.4C73,33.6,73.3,34.4,74.2,34.2Z" transform="translate(-15.43 -13.51)"/><g id="shirt2"><path id="shirt2-2" data-name="shirt2" class="cls-1" d="M245.3,50.4a26.85,26.85,0,0,0-3.8,6.8,11.09,11.09,0,0,0-.4,6.5,22.75,22.75,0,0,1-2.6-.2l-4.7-1.2c-2.4-.6-4.6-1.8-6.9-2.5a22.11,22.11,0,0,0-3.4-1.8c-.5-.3-.7-.5-.1-1,3.3-2.6,6.5-5.2,9.4-8,.8-.7,1.4-1.5,2.2-2.3.5-.5.1-.8-.1-1.1-1.3-2.1-3.1-3.8-4-6.1a10.89,10.89,0,0,1-1-2.5,35.73,35.73,0,0,0,4.7-.4h.7a1.71,1.71,0,0,1,2,1.1,6.66,6.66,0,0,0,3.3,3.1,18.69,18.69,0,0,1,3.1,1.7,3.48,3.48,0,0,0,2.4.6l.3.3A11.85,11.85,0,0,0,245.3,50.4Z" transform="translate(-15.43 -13.51)"/><path class="cls-1" d="M234.6,36.5c-.2-.4-.5-.7-.8-1.2a6.14,6.14,0,0,0,3.1-1.2c.8,0,1.1.5,1.6.9,1.9,1.4,3.8,2.8,5.8,4.2.7,1.2.7,2.7,1.7,3.8a3.48,3.48,0,0,1-2.4-.6,18.69,18.69,0,0,0-3.1-1.7,7.09,7.09,0,0,1-3.3-3.1,1.62,1.62,0,0,0-2-1.1Z" transform="translate(-15.43 -13.51)"/></g><path id="hand11" class="cls-1" d="M92.3,41.2a2.72,2.72,0,0,1,1.2-2.1c1.5.3,3,.7,4.5,1,.8.2,1.2.5,1.3,1.3a17.7,17.7,0,0,1,.1,2.3,7.71,7.71,0,0,0-2.6.7c-.2-.7-.3-1.3-.5-2-.1-.3-.2-.5-.6-.4s-.2.4-.1.6a6.63,6.63,0,0,0,.9,1.9.79.79,0,0,1,.1,1.1c-.4.5-.8-.2-1.2-.3-.1-.4-.4-.6-.6-.9A25.12,25.12,0,0,1,92.3,41.2Z" transform="translate(-15.43 -13.51)"/><path id="star1" class="cls-2" d="M205,57.7a53.8,53.8,0,0,0,5.5-2.4c.4-.2.7-.5,1.3-.4a6.63,6.63,0,0,1-2.7,1.5,19.65,19.65,0,0,0-2.5,1.3c-.9.5-.9,1,.1,1.5,1.6.8,3.1,1.6,4.7,2.4.2.1.4.1.4.5-1.2-.3-2.1-1.1-3.2-1.4a11.4,11.4,0,0,1-1.9-1c-1-.6-1.6-.3-1.6.8v4.7c0,.3.1.7-.4.7s-.4-.4-.4-.7V60.5c0-1-.5-1.3-1.5-.8-1.4.7-2.9,1.4-4.3,2.2a1.3,1.3,0,0,1-1.3.3,17.22,17.22,0,0,1,3.2-1.8,13.9,13.9,0,0,0,2.1-1.1q1.2-.75,0-1.5c-1.4-.8-2.9-1.5-4.4-2.3-.3-.2-.8-.2-.8-.8,1.4.7,2.6,1.3,3.9,1.9.5.3,1,.5,1.5.8.9.5,1.5.2,1.5-.8V52.5c0-.4-.4-1.1.4-1.2.6,0,.3.7.3,1.1v3.9c0,.5-.4,1.1-.1,1.5-.4,0-.2-.2-.5-.1-.5.1.6-.3.5.1s-1.4.1-1.1.3c.5.2-.3.3,0,0C204.3,57.7,205,58.1,205,57.7Z" transform="translate(-15.43 -13.51)"/><path id="face2" class="cls-1" d="M246,43c-.9-1.1-1-2.6-1.7-3.8a1.92,1.92,0,0,1,1.1-1.5,14.62,14.62,0,0,0,1.9-1.6c1.1,1.8.2,3.6-.3,5.3a10.84,10.84,0,0,1-.8,1.9C246.2,43.2,246.1,43.1,246,43Z" transform="translate(-15.43 -13.51)"/><polygon id="block" class="cls-1" points="198.87 90.09 245.57 90.29 245.57 142.19 172.97 140.99 198.87 90.09"/><path id="colar1" class="cls-1" d="M65.8,35A9.19,9.19,0,0,0,68,37.2c.1.1.2.1.3.2,1.5.8,1.6,1.1.6,2.5a5.48,5.48,0,0,0-.8,1.5,8.78,8.78,0,0,1-1.2-2.1,5.37,5.37,0,0,0-3.5-2.9C63.8,35.4,64.9,35.4,65.8,35Z" transform="translate(-15.43 -13.51)"/><g id="hair_1" data-name="hair 1"><path id="hair1" class="cls-1" d="M66.1,33c-.4-3.6,2.5-5.9,5.6-7a1.39,1.39,0,0,1,1.1.2,91.25,91.25,0,0,0,9.1,5.1c-.3.8-2.22,1.88-2.2,1.9a20.48,20.48,0,0,1-3.5.1,12.59,12.59,0,0,1-4.5-2.2,3.8,3.8,0,0,0-4.1-.2C66.9,31.4,66.7,32.3,66.1,33Z" transform="translate(-15.43 -13.51)"/><path class="cls-1" d="M79.9,33.2c-.1-.1-.2-.1-.3-.2v-.2c.2-.1.6.1.7-.3h0c.9.3,1.6-.5,2.7-.6A5,5,0,0,1,79.9,33.2Z" transform="translate(-15.43 -13.51)"/></g><path id="shoe31" class="cls-1" d="M155.8,170.3c4.5,0,8.9.5,13.4.1a.68.68,0,0,1,.9.5,24.62,24.62,0,0,1,.1,4.7c-.1.7-.3.9-1.1,1-4.1.3-8.2.2-12.3.2-3.9.1-7.9.1-11.8.1-.3,0-.7.2-.9-.1s.1-.6.3-.9a3.76,3.76,0,0,1,1.8-1.5A47.84,47.84,0,0,1,155.8,170.3Z" transform="translate(-15.43 -13.51)"/><path id="shoe32" class="cls-1" d="M187.8,168.6a76.37,76.37,0,0,0,11.7.5,2.35,2.35,0,0,1,.8.2,26.8,26.8,0,0,1,.2,4.9c0,.8-.3,1.2-1.3,1.2-6.9.4-13.7.1-20.6.3-.7,0-1.3.1-2,.1-.3,0-.7.2-.9-.1s.1-.6.3-.9a7.63,7.63,0,0,1,2.8-2.2C181.8,170.9,184.9,170,187.8,168.6Z" transform="translate(-15.43 -13.51)"/><g id="curve1"><path class="cls-1" d="M203.2,104.1c-.3-.1-.4-.4-.5-.7a35.65,35.65,0,0,0-2.6-9,55.49,55.49,0,0,0-8.2-13.3A56.76,56.76,0,0,0,180,70.6a62.28,62.28,0,0,0-17.2-7.8A66.73,66.73,0,0,0,152,60.6a5.39,5.39,0,0,1-1-.3A66,66,0,0,1,174,63a63,63,0,0,1,12.8,5.4,57,57,0,0,1,8.1,5.4,65.1,65.1,0,0,1,8.4,8.2c1.4,1.7,2.5,3.4,3.8,5.2.1.2.2.3.3.5s.1.2.2.2h0c.1.7.9,1.1,1.2,1.8l.3.6a69.09,69.09,0,0,1,2.8,6.8c.1.3.2.4.5.4a.84.84,0,0,0,.2.7c.2.8.4,1.6.6,2.3-.5.6-1.4.6-2.1.8C208.3,102.4,205.8,103.3,203.2,104.1Z" transform="translate(-15.43 -13.51)"/><path class="cls-1" d="M192.3,152.8a24,24,0,0,0-3.9-5.7,63.15,63.15,0,0,0,7.5-8.9,50.9,50.9,0,0,0,4.2-8,33.36,33.36,0,0,0,2.8-9.8,57.12,57.12,0,0,0,.9-8.2c3.2-1.9,6.6-3.5,9.9-5.3.1-.1.3,0,.4,0a84.17,84.17,0,0,1,.1,8.7,42.77,42.77,0,0,1-2.2,11.2,48.31,48.31,0,0,1-3.5,8.1c-1.4,2.3-2.9,4.5-4.4,6.7a2.34,2.34,0,0,1-.7.7A58.28,58.28,0,0,1,192.3,152.8Z" transform="translate(-15.43 -13.51)"/></g><path id="box" class="cls-1" d="M137.4,87.8c-.4,0-.9.1-1.3.1H92.5c-1.1,0-1.4-.2-1.4-1.2.1-5.6,0-11.2,0-16.9a5.7,5.7,0,0,0-.1-1.3h22.7a83.28,83.28,0,0,0-.4,11.2v.7c-.1.5.3.7.8.8s.8-.3.8-.7c.1-1.1.1-2.2.1-3.3,0-2.9,0-5.8.2-8.7h20.7c.4,0,.9-.2,1.3.2,0,3.1.1,6.3.1,9.4a51.43,51.43,0,0,0,0,6.8A28.1,28.1,0,0,1,137.4,87.8Z" transform="translate(-15.43 -13.51)"/><path id="t3-2" data-name="t3" class="cls-3" d="M189.2,96.3c.7-1,1.4-2,2-3-.6-.4-1.3,0-1.9-.3a25.14,25.14,0,0,1,3.2-4.1c1,1.4,1.9,2.8,2.9,4.2a.35.35,0,0,1-.2.1c-2,.1-2,.1-.9,1.7a3.92,3.92,0,0,0,1.2,1.4Z" transform="translate(-15.43 -13.51)"/><path id="t4-2" data-name="t4" class="cls-3" d="M169.5,77.9c.4-1.2,1.6-1.9,2.2-3.1h-2.3c.8-1.8,2.4-2.8,3.2-4.5a34.57,34.57,0,0,0,3.4,4.4h-2.4c.4,1.3,1.5,2.1,2.2,3.2Z" transform="translate(-15.43 -13.51)"/><path id="t5" class="cls-3" d="M137.4,84.9c-.1-2.3-.1-4.6,0-6.8.4-.7.8-.9,1.4-.1.8,1.2,1.6,2.3,2.6,3.7h-2.2c.8,1.1,1.4,2.1,2.2,3.2Z" transform="translate(-15.43 -13.51)"/><path id="t1" class="cls-1" d="M97.7,124.9c.1.3.3.5.4.8-.4.3-.9.1-1.3.2-2.5-.2-5.1,0-7.6-.1a2.09,2.09,0,0,1-1.3-.2c.9-1.1,1.7-2.2,2.5-3.3.3-.5,1.2-1.1.8-1.5s-1.2-.1-1.9-.2H87.8a8.88,8.88,0,0,1,1.6-2.2c1-1.3,2-2.7,2.9-4.1.5-.8.9-.6,1.4,0,.9,1.2,1.8,2.5,2.6,3.8.5.8,1.4,1.4,1.8,2.4a13.13,13.13,0,0,1-2.8.1c-.6,0-.9.1-.4.7C95.8,122.5,96.4,123.9,97.7,124.9Z" transform="translate(-15.43 -13.51)"/><path id="t2-2" data-name="t2" class="cls-1" d="M76.2,148.8H66.1a30.07,30.07,0,0,1,3.7-5.1H66c1.4-2.6,3.5-4.6,5-6.9a58.57,58.57,0,0,1,5.1,6.9H72.5C73.7,145.4,74.9,147,76.2,148.8Z" transform="translate(-15.43 -13.51)"/><path id="shoe12" class="cls-1" d="M53.5,98.5a31.06,31.06,0,0,1,9.1,5c0,.2,0,.4-.3.5-1.4.1-2.8-.4-4.1-.1a21.83,21.83,0,0,0-4.4-.4,31.28,31.28,0,0,0-6.1-.4c-.5,0-.9-.2-1.4,0-.8-.6-.6-1.5-.7-2.3-.1-1.1,0-2.2,0-3.2,2.1.4,4.2.5,6.3.7A5,5,0,0,1,53.5,98.5Z" transform="translate(-15.43 -13.51)"/><path id="hand12" class="cls-1" d="M83.1,56.3c2.2.2,4.4.5,6.6.5-.2.5-.8.5-1.1,1a10.09,10.09,0,0,1,1.5.7c.5.6,1.2,1.2-.2,1.6a4.85,4.85,0,0,0-2.1.8A6.41,6.41,0,0,1,84.7,62c-.4-.7-1.1-.4-1.7-.5-.6-.8-1.2-1.7-1.8-2.5A18.48,18.48,0,0,1,83.1,56.3Z" transform="translate(-15.43 -13.51)"/><g id="p1"><path class="cls-1" d="M55.8,129.2c1.8-4.4,2.7-9.1,4.3-13.6,1.1-3,1.8-6.1,2.9-9.1H81.3c-1.5,1.8-2.8,3.7-4.4,5.4-1.2,1.2-2.2,2.5-3.3,3.8-2.9,3.3-5.7,6.6-8.6,9.9-2.7,3.1-5.5,6.3-8.2,9.5a1,1,0,0,1-.9.6v-5.6C56,129.8,56.1,129.5,55.8,129.2Z" transform="translate(-15.43 -13.51)"/><path class="cls-1" d="M55.8,121c.3-.4.2-.8.2-1.3V106.5h5.5a17.63,17.63,0,0,1-1.3,4.3c-.8,2.3-1.4,4.6-2.1,6.9a27.59,27.59,0,0,0-.8,2.7C57.1,121.4,56.5,121.4,55.8,121Z" transform="translate(-15.43 -13.51)"/></g><g id="shoe11"><path class="cls-1" d="M58.9,87.8l-.3-3.3a43.08,43.08,0,0,0,8.8-.9c.3.1.7.3,1,.4-.4,1.3-.8,2.7-1.1,4-.2-.4-.6-.3-.9-.3C63.9,87.8,61.4,87.8,58.9,87.8Z" transform="translate(-15.43 -13.51)"/><path class="cls-1" d="M70,84.8c1.5,1,3.2,1.7,4.8,2.9-2.1.2-4-.1-5.8.2A12.44,12.44,0,0,1,70,84.8Z" transform="translate(-15.43 -13.51)"/></g><g id="box_cap" data-name="box cap"><path class="cls-1" d="M114.9,53.9h10.7a11.73,11.73,0,0,1-6.4,1A10.43,10.43,0,0,1,114.9,53.9Z" transform="translate(-15.43 -13.51)"/><g id="cap"><path class="cls-1" d="M139.2,60.1a56.08,56.08,0,0,0-.1,7.1c0,1-.2,1.5-1.4,1.3a.76.76,0,0,0-.4.2,2,2,0,0,0-1.3-.2H115.3c0-4.1,0-8.2.2-12.3,0-.7.4-.6.9-.5,4.3.8,8.3.8,12-1.9h9.5c.9,0,1.3.2,1.2,1.1-.1,1.3,0,2.7,0,4A1.29,1.29,0,0,0,139.2,60.1Z" transform="translate(-15.43 -13.51)"/><path class="cls-1" d="M90,60c1.3-.4.6-1,.2-1.6a20.5,20.5,0,0,0,3.4-4.5h17.1c1.1.6,2.1,1.2,3.2,1.7.4.2.3.5.3.8-.1,4-.2,8.1-.3,12.2H91.2c-1.1.2-1.4-.2-1.4-1.3.1-2,0-4,0-6C89.8,60.8,89.7,60.4,90,60Z" transform="translate(-15.43 -13.51)"/><path class="cls-1" d="M89.8,56.8v-1c0-1.9,0-1.9,2-1.9A6.35,6.35,0,0,1,89.8,56.8Z" transform="translate(-15.43 -13.51)"/></g></g><g id="t1-2" data-name="t1"><path class="cls-1" d="M222.1,25.6c-.3.6-.2,1,.6,1.1.3,0,.7.2,1,.2,1.5-.3,2,.6,2.4,1.7.7,1.9,1.5,3.8,2.2,5.6-.7.2-.6.9-.7,1.4-.4,1.6-.8,3.2-1.2,5-.6-.5-.7-1.2-1-1.7-1.8-3.2-3.6-6.4-5.2-9.6-.5-1.1-1.3-2-1.8-3.1a2.88,2.88,0,0,1,1.6-.3A6.65,6.65,0,0,0,222.1,25.6Z" transform="translate(-15.43 -13.51)"/><path class="cls-1" d="M229.8,27.9c-.4-.7-.6-1.1-.9-1.6-.6-1.2-.6-1.1.8-1.4.6-.1.9-.1.7.6A10.42,10.42,0,0,0,229.8,27.9Z" transform="translate(-15.43 -13.51)"/></g><path id="eye1" class="cls-4" d="M74.2,34.2c-.9.2-1.2-.6-1.8-1-.1,0,0-.3.1-.4s.4-.1.5.1C73.2,33.5,73.7,33.8,74.2,34.2Z" transform="translate(-15.43 -13.51)"/><path id="p6" class="cls-1" d="M145.7,106.6h13.8c-1.9,1.9-3.5,4-5.3,6-2.9,3.4-5.8,6.8-8.7,10.1-1.9,2.2-3.8,4.4-5.6,6.6a14.42,14.42,0,0,0-2.2,2.7h0c-.2,0-.4,0-.5.2-1.9.7-3.9,1.1-5.6,2.2a5.71,5.71,0,0,0-3.4,3.4,6.9,6.9,0,0,1-3.8,4.4c-.7.3-1.4.7-2.3,1.1,1.8.7,3.4.3,5,.5-.5,1.4-1.8,2.1-2.7,3.2-2,2.7-4.3,5.1-6.5,7.6l-8.1,9.3c-1,1.2-2.2,2.4-3.1,3.6a1.82,1.82,0,0,1-1.6.8H93.3c-.3,0-.6.1-.8-.1s.2-.6.4-.7a22.85,22.85,0,0,0,2.9-3.3c2.1-2.4,4.3-4.7,6.2-7.1,2.2-2.7,4.5-5.2,6.7-7.9,2.7-3.2,5.5-6.4,8.3-9.6s5.3-6.3,8.1-9.3c1.5-1.6,2.8-3.5,4.3-5.1,2.8-3,5.4-6.2,8.1-9.3,1.4-1.6,2.6-3.3,4.1-4.8A28.78,28.78,0,0,0,145.7,106.6Z" transform="translate(-15.43 -13.51)"/><path id="p89" class="cls-1" d="M166.9,114.5c-.7.3-2.9,9.8-3.6,10.1-.1.1-14.7,17.4-14.8,17.5-.4-.5-22,26-22.5,26l-19.5.2c.4-1.1,32.9-38.2,33.6-39.1,1.8-2.2,3.7-4.4,5.6-6.6,2.9-3.3,5.8-6.7,8.7-10.1,1.7-2,3.4-4.1,5.3-6h.9a49.87,49.87,0,0,1-1.7,12.2,20.69,20.69,0,0,1-2.1,5.7l-.2.2h0" transform="translate(-15.43 -13.51)"/><path id="b1" class="cls-1" d="M140.6,132c.8,1.9,2.2,3.5,3.1,5.4a23.11,23.11,0,0,1-8.2,4.7c-1.7-.9-2.4-2.1-1.9-4,.4-1.6-.4-2.8-1.8-3.7a22.51,22.51,0,0,1,5.6-2.2c.2,0,.4,0,.5-.2h0c.4,0,.9-.1,1.3-.1S140.1,131.6,140.6,132Z" transform="translate(-15.43 -13.51)"/><g id="box1_top" data-name="box1 top"><path class="cls-1" d="M61.5,106.6H46.7c.3-1.2.6-2.3.9-3.5a60.47,60.47,0,0,1,6.1.4c2.3.8,4.5,1.7,6.8,2.5A5.3,5.3,0,0,1,61.5,106.6Z" transform="translate(-15.43 -13.51)"/><path class="cls-1" d="M46.2,103.1c-.4,1.3-.8,2.5-1.2,3.7-.3-.4-.8-.3-1.2-.3H39.5c-.6,0-.9-.2-.9-.8V88.5c0-.4.1-.8.7-.8,2.6,0,5.2.1,7.8.1-.3,1.6-1.4,3-2,4.5a7.06,7.06,0,0,0-.5,3.8,2,2,0,0,0,.8,1.4c0,1.1-.1,2.2,0,3.2S45.4,102.5,46.2,103.1Z" transform="translate(-15.43 -13.51)"/><path class="cls-1" d="M67.3,88.1c-.8,2.9-1.6,5.8-2.6,8.7-.8,2.2-1.5,4.5-2.2,6.8a31.06,31.06,0,0,0-9.1-5,33.85,33.85,0,0,1,1.5-7.7c.3-1.1.7-2.1,1-3.2.9.5,2,.1,3,.2h7.5C66.7,87.8,67.1,87.7,67.3,88.1Z" transform="translate(-15.43 -13.51)"/><path class="cls-1" d="M58.1,103.9c1.4-.3,2.8.2,4.1.1,0,1-.3,1.5-1.5.9A15.67,15.67,0,0,0,58.1,103.9Z" transform="translate(-15.43 -13.51)"/><polygon class="cls-1" points="53.57 74.39 148.97 74.09 149.77 93.09 47.57 93.09 53.57 74.39"/></g><path id="b2" class="cls-1" d="M131.7,134.4c1.4.9,2.2,2.2,1.8,3.7a3.34,3.34,0,0,0,1.9,4,34,34,0,0,1-7.7,1.6c-.2,0-.4.1-.6.1-1.6-.1-3.2.3-5-.5.9-.4,1.6-.8,2.3-1.1a6.42,6.42,0,0,0,3.8-4.4A6.47,6.47,0,0,1,131.7,134.4Z" transform="translate(-15.43 -13.51)"/><path id="h32" class="cls-1" d="M152.7,133.8c1.5-.7,1.5-2.1,1.6-3.3.1-.8-.6-1.2-1.4-1.2h-2.3c-.5,0-1.1,0-1.1-.6s.5-.7,1.1-.7a11.52,11.52,0,0,0,5.2-1.4c1.3.3,2.3,1.2,3.5,1.6a5.09,5.09,0,0,0,2.1.6c-.1.4-.3.7-.2,1.1h0l-.2.2c-.2,1.6-1.1,2.4-2.9,2.7a4.8,4.8,0,0,0-2.5,1.4C154.5,134.8,153.6,134.2,152.7,133.8Z" transform="translate(-15.43 -13.51)"/><path id="p10" class="cls-1" d="M139.9,168.4a11.17,11.17,0,0,1,1.9-2.4c1.4-1.3,2.4-2.8,3.6-4.1,3.2-3.5,6.3-7.1,9.5-10.6,1-1.1,1.8-2.3,2.8-3.4s2-2.1,3.1-3.2c-.4,2.4-.7,4.7-1.2,7-1,5.3-2.2,10.7-3.2,16-.1.6-.3.7-.9.7Z" transform="translate(-15.43 -13.51)"/><g id="hair_3" data-name="hair 3"><path class="cls-1" d="M186.3,117.4" transform="translate(-15.43 -13.51)"/><path class="cls-1" d="M193.5,113.3" transform="translate(-15.43 -13.51)"/><path class="cls-1" d="M165.5,89c-.6.6-2.8,3.2-3.4,3.7a34.66,34.66,0,0,1-6.3,5c-.3-1.1-.1-2.2-.7-3.1h0v-.1c0-1.2-1-1.9-1.4-2.9.3,1,.5,1.9.8,2.9a17.73,17.73,0,0,1,.5,3.2c0,.2.1.5-.2.5-.5.1-.3-.3-.4-.5a13.32,13.32,0,0,0-.5-3.4,20.56,20.56,0,0,0-2.2-6.3c-.1-.3-.2-.6-.8-.3-1,.5-2.1.9-3.1,1.4-1.7.4-1.7.4-2.3-1.1a10.06,10.06,0,0,1,0-3c.2-.5.3-1.1,1-1.3a2.6,2.6,0,0,0,1.8-1.4c1.6-2.8,6-3.9,9.1-2.9a11.84,11.84,0,0,1,4.9,3.3,14.14,14.14,0,0,1,2.4,3.6,8.42,8.42,0,0,1,.8,2.7" transform="translate(-15.43 -13.51)"/><path class="cls-1" d="M172,112.2" transform="translate(-15.43 -13.51)"/><path class="cls-1" d="M171,117.7" transform="translate(-15.43 -13.51)"/></g><g id="brush"><path id="brush-2" data-name="brush" class="cls-1" d="M203.2,103.8a68.64,68.64,0,0,0,7.6-2.7c.7-.3,1.6-.2,2.1-.8,2.3-.5,4.4-1.5,6.6-2.2,1.8-.6,3.5-1.6,5.5-1.6,1,0,1.4.6,1.9,1.3s.2,1.1-.1,1.7c-.9,1.3-2.4,1.7-3.7,2.5a12.75,12.75,0,0,0-2.5,1.5,3.16,3.16,0,0,0-1.7.6,22.47,22.47,0,0,1-3.8,1.9,1.76,1.76,0,0,0-.9.8c-.1,0-.3-.1-.4,0-3.3,1.8-6.7,3.3-9.9,5.3-3.1,1.3-6.3,2.7-9.5,4.1-.3-1-.6-1.9-.8-2.9a2.11,2.11,0,0,0-.3-1.7,30.13,30.13,0,0,0-1.6-3.1A115.45,115.45,0,0,1,203.2,103.8Z" transform="translate(-15.43 -13.51)"/><g id="brush-3" data-name="brush"><path class="cls-1" d="M156.6,124.7c0,.7-.9,1.1-.7,1.9a11.52,11.52,0,0,1-5.2,1.4c-.6,0-1.1.2-1.1.7s.6.6,1.1.6H153c.9,0,1.5.4,1.4,1.2-.1,1.3-.2,2.6-1.6,3.3-3,1.2-6,2.5-9.1,3.7-.9-1.9-2.3-3.5-3.1-5.4.1-.2.1-.4.2-.5.6-.3,1.3-.6,2-.9,3.8-1.7,7.6-3.5,11.4-5.2A3.85,3.85,0,0,1,156.6,124.7Z" transform="translate(-15.43 -13.51)"/><path class="cls-1" d="M171,117.7a17,17,0,0,1,.4,2.2c0,1,.5.9,1.2.7a25.75,25.75,0,0,1,4-.8,1.23,1.23,0,0,1-.2,1.5c-1,1.2-2,2.4-3,3.5-.7-.8-.9-2.3-2.8-1.5-.6.3-1.4.9-2.4.2-.2-.1-.5.3-.4.6a1.88,1.88,0,0,0,.2.8h0c-.5-.1-1-.2-1.4-.3s-1-.3-1.2.1.4.7.7,1c.8.6,1.8.7,2.5,1.3a36.56,36.56,0,0,0-4.6,1.8,9.24,9.24,0,0,1-2.7.8,4.25,4.25,0,0,1,.2-1.1,25.8,25.8,0,0,1,1.8-3.2,16.74,16.74,0,0,0,2.3-5.3.22.22,0,0,1,.2-.2,7.84,7.84,0,0,0,4.4-2.3C170.5,117.4,170.7,117.7,171,117.7Z" transform="translate(-15.43 -13.51)"/></g></g><g id="curve2"><path class="cls-1" d="M142.7,60.2c2.7,0,5.5.1,8.2.1a2.93,2.93,0,0,0,1,.3,57.5,57.5,0,0,1,10.8,2.2,62.28,62.28,0,0,1,17.2,7.8,52.16,52.16,0,0,1,11.9,10.5A50.8,50.8,0,0,1,200,94.4a35.65,35.65,0,0,1,2.6,9c.1.3.2.6.5.7a96.23,96.23,0,0,0-11.5,4.8c-.2-.2-.4-.3-.6-.5-2.2-3.7-5.4-6.7-8.4-9.8A29.54,29.54,0,0,0,172,91.5a32,32,0,0,0-5.2-1.8c-1.1-.2-2-.4-1.8-1.8.1-.4-.3-1-.5-1.4a14.14,14.14,0,0,0-2.4-3.6,11.23,11.23,0,0,0-4.9-3.3c-3.1-1-7.5.1-9.1,2.9a2.6,2.6,0,0,1-1.8,1.4c-.7.1-.8.7-1,1.3a6.09,6.09,0,0,0,0,3h-8.1V85.3h3.9c-.8-1.1-1.4-2.1-2.2-3.2h2.2c-.9-1.3-1.8-2.5-2.6-3.7-.6-.9-.9-.6-1.4.1,0-3.1-.1-6.3-.1-9.4a.76.76,0,0,1,.4-.2c1.2.2,1.4-.3,1.4-1.3a55.82,55.82,0,0,1,.1-7.1,22.75,22.75,0,0,0,2.6-.2A3.78,3.78,0,0,0,142.7,60.2Zm46.5,36.4h6.4a5,5,0,0,1-1.2-1.4c-1.1-1.6-1.1-1.6.9-1.7a.35.35,0,0,0,.2-.1c-1-1.4-2-2.8-2.9-4.2a17.52,17.52,0,0,0-3.2,4.1c.6.3,1.3,0,1.9.3ZM169.5,78.3h6.4c-.7-1.1-1.8-1.9-2.2-3.2h2.4a34.57,34.57,0,0,1-3.4-4.4c-.8,1.7-2.4,2.7-3.2,4.5h2.3C171,76.3,169.9,77,169.5,78.3Z" transform="translate(-15.43 -13.51)"/><path class="cls-1" d="M203.8,112.1a73.44,73.44,0,0,1-.9,8.2,34.26,34.26,0,0,1-2.8,9.8,50.9,50.9,0,0,1-4.2,8,57.08,57.08,0,0,1-7.5,8.9,4.65,4.65,0,0,1-1.4-5.8c.8-1.6,1.6-3.3,2.3-4.9s1.1-3.1,1.8-4.6c1.1-2.6,1.2-5.4,2.6-7.9s1.2-5.1.7-7.8C197.5,114.8,200.7,113.5,203.8,112.1Z" transform="translate(-15.43 -13.51)"/><path class="cls-1" d="M179.3,154.4c-.5,0-.8.4-1.2.6-1.8,1.2-5.8,2.2-7.8,3.1.6-1.4.5-2.4,1-3.7.6-1.6,1.8-3.8,1.5-5.5-.2-1.3,1.1-2.7,2.5-3.8a47.75,47.75,0,0,0,3,7.4A11.4,11.4,0,0,0,179.3,154.4Z" transform="translate(-15.43 -13.51)"/></g><path id="h3" class="cls-1" d="M168,125.1a3.09,3.09,0,0,1-.2-.8c0-.3.3-.8.4-.6.9.7,1.8,0,2.4-.2,1.9-.8,2.1.7,2.8,1.5a8.28,8.28,0,0,1-1.1,1.5c-.8-.1-1.4.4-2.1.6a4.68,4.68,0,0,1-1.6.2c-.7-.7-1.8-.7-2.5-1.3-.3-.3-.9-.5-.7-1s.8-.2,1.2-.1a3.64,3.64,0,0,1,1.4.2.1.1,0,0,0,.1.1A.1.1,0,0,0,168,125.1Z" transform="translate(-15.43 -13.51)"/><g id="ribbon"><path class="cls-1" d="M128.4,53.8c-3.6,2.7-7.7,2.7-12,1.9-.5-.1-.9-.3-.9.5-.2,4.1-.2,8.2-.2,12.3a84.22,84.22,0,0,0-.2,8.7c0,1.1,0,2.2-.1,3.3,0,.4-.2.8-.8.7-.4-.1-.8-.2-.8-.8v-.7c0-3.7.1-7.5.4-11.2.1-4.1.2-8.1.3-12.2,0-.3.1-.5-.3-.8-1.1-.6-2.1-1.2-3.2-1.7-.8-.6-1.7-1.1-2.5-1.7a31.54,31.54,0,0,1-6.1-6,3.19,3.19,0,0,0-4-.9,5.24,5.24,0,0,0-3.1,3.4c-.5,1.7-.9,3.5-1.3,5.2-1.1,1.6-1.9,3.3-3.4,4.5a10.09,10.09,0,0,1-1.5-.7c.3-.5.9-.5,1.1-1h0a5.68,5.68,0,0,0,2-2.9c.2-.7.4-1.3.6-2a13,13,0,0,1,3.1-6.6c.4,0,.8.7,1.2.3s.2-.7-.1-1.1c.1,0,.1-.1.2-.1a7.71,7.71,0,0,1,2.6-.7,4.46,4.46,0,0,1,4.1,2.2,30.23,30.23,0,0,0,5.1,5c.1.1.2.2.3.2.1-.2.1-.3-.1-.4a22.89,22.89,0,0,1-2.5-7.5,6.44,6.44,0,0,1,.8-4.3c1.1-1.8,2.9-2.1,4.6-.7a10.42,10.42,0,0,1,2.4,3.5,18.43,18.43,0,0,1,.9,2.8c.5-.3.6-.9.8-1.4a6,6,0,0,1,2.9-3,3,3,0,0,1,4.1,1.4,8.05,8.05,0,0,1,.5,4.6c-.1.6.1.9.8.7a4,4,0,0,1,1.1,0c3.8.1,5.6,3,3.9,6.2C128.8,53.2,128.6,53.5,128.4,53.8Zm-2.8.1a3.17,3.17,0,0,0,2.5-3,2.36,2.36,0,0,0-1-2.4,5.2,5.2,0,0,0-5.1.4c-1.2,1-2.1,2.2-3.5,2.9l-3.6,1.8c-.2.1-.7.1-.1.4a10.43,10.43,0,0,0,4.3,1A13,13,0,0,0,125.6,53.9Zm-14.2-2.2a30.71,30.71,0,0,1,1.7-3.1,1.93,1.93,0,0,0,.3-1,14.67,14.67,0,0,0-1.5-7.1,4.28,4.28,0,0,0-1.5-1.8c-.9-.6-1.5-.5-2,.4a4.38,4.38,0,0,0-.7,1.9C107.3,45.1,109.3,48.4,111.4,51.7Zm3.1-.4c.2,0,.3,0,.4-.1a35,35,0,0,1,5.8-3.6,1.34,1.34,0,0,0,.6-.7,7,7,0,0,0-.2-5.3c-.3-.7-.9-.8-1.6-.5a4,4,0,0,0-2.1,1.9A24.15,24.15,0,0,0,114.5,51.3Z" transform="translate(-15.43 -13.51)"/><path class="cls-1" d="M83,61.4c.6.1,1.3-.1,1.7.5a14.17,14.17,0,0,0-4.4,4,.78.78,0,0,1-1,.3.61.61,0,0,1-.3-.9A5.55,5.55,0,0,1,80.7,63,18.82,18.82,0,0,0,83,61.4Z" transform="translate(-15.43 -13.51)"/></g><g id="face3"><path class="cls-1" d="M148.3,89.3l-.5-.5c1-.4,2.1-.9,3.1-1.4.5-.3.6,0,.8.3a20.56,20.56,0,0,1,2.2,6.3c-1.3-.3-2.5-.7-3.8-1-.8-.1-1-.8-1.1-1.5.5.2-1.4-2.9-.9-2.8" transform="translate(-15.43 -13.51)"/><path class="cls-1" d="M154.4,94.3c-.3-1-.5-1.9-.8-2.9.4,1,1.4,1.7,1.4,2.9Z" transform="translate(-15.43 -13.51)"/></g><g id="p34"><path id="p9" class="cls-1" d="M172.3,126.4c-1.9,2.3-3.6,4.8-5.6,7.1-1.2,1.3-2,2.9-3.1,4.2-1.9,2-2.2,4.5-2.8,7-1,1.1-2.1,2.1-3.1,3.2s-1.8,2.3-2.8,3.4c-3.1,3.6-6.3,7.1-9.5,10.6a35.21,35.21,0,0,1-3.6,4.1,8.76,8.76,0,0,0-1.9,2.4c-.1,0-.1,0-.2.1H127.4c-.3,0-.8.2-.9-.2s.2-.6.4-.8c2.5-2.9,5-5.9,7.7-8.8a33.57,33.57,0,0,0,2.4-2.9c3-3.4,5.9-6.9,8.9-10.3,2.8-3.2,5.7-6.4,8.4-9.6.4-.5,1.2-.8,1.3-1.6a5.72,5.72,0,0,1,2.5-1.4c1.7-.3,2.7-1.1,2.9-2.7l.2-.2h0a7.73,7.73,0,0,0,2.7-.8,23.15,23.15,0,0,1,4.6-1.8,2.85,2.85,0,0,0,1.6-.2A3.72,3.72,0,0,1,172.3,126.4Z" transform="translate(-15.43 -13.51)"/><path class="cls-1" d="M171.3,117.8c-.3,0-.5-.3-.8.1a8.18,8.18,0,0,1-4.4,2.3,80,80,0,0,0,2.6-12c.2.6.4,1.2.6,1.7a12.09,12.09,0,0,1,.5,1.8,28.43,28.43,0,0,0,1.6,5.7C171.3,117.4,171.3,117.6,171.3,117.8Z" transform="translate(-15.43 -13.51)"/></g><path id="wire" class="cls-5" d="M28,13.6s127.6,48.1,210.7,3" transform="translate(-15.43 -13.51)"/><g id="pant2"><path class="cls-1" d="M241.9,81.5c-3.8-11.5-3.8-11.8-3.8-11.5a3.88,3.88,0,0,0,.8-6.2c-3.2-3.5-11.7-3.7-11.7-3.7S224.1,69,237.3,101l6.6-.3s-1.2-3.8,1.9-1l4.7-3.3Z" transform="translate(-15.43 -13.51)"/><line class="cls-5" x1="228.27" y1="85.19" x2="225.87" y2="66.29"/></g><path id="shirt3" class="cls-1" d="M165.5,88.9s-6.5,5.5-5.4,23.2c0,0-2.5,12.2-4.2,14.4l5.5,2.2s6.1-9.9,7.1-20.4c0,0,3.1,10.2,2.9,11.5s.8.8.8.8,15.9-1.8,21.3-7.4C193.5,113.3,188.1,95.7,165.5,88.9Z" transform="translate(-15.43 -13.51)"/><path id="star1-2" data-name="star1" class="cls-2" d="M23.4,82.8a53.8,53.8,0,0,0,5.5-2.4c.4-.2.7-.5,1.3-.4a8.38,8.38,0,0,1-2.7,1.6A20.13,20.13,0,0,0,25,83c-.9.6-.9,1,.1,1.5,1.6.8,3.1,1.6,4.7,2.4.2.1.4.1.4.5C29,87.1,28.1,86.3,27,86a11.4,11.4,0,0,1-1.9-1c-1-.6-1.6-.3-1.6.8v4.7c0,.3.1.7-.4.7s-.4-.4-.4-.7V85.8c0-1-.5-1.3-1.5-.8-1.5.7-2.9,1.4-4.3,2.2a1.3,1.3,0,0,1-1.3.3,21.14,21.14,0,0,1,3.2-1.8,10.34,10.34,0,0,0,2.1-1.1c.8-.5.8-1.1,0-1.5-1.5-.8-2.9-1.5-4.4-2.3-.3-.2-.8-.2-.8-.8,1.4.7,2.6,1.3,3.9,1.9.5.3,1,.5,1.5.8.9.5,1.5.2,1.5-.8V77.8c0-.4-.4-1.1.4-1.2.6,0,.3.7.3,1.1v3.9c0,.5-.4,1.1,0,1.5-.4,0-.2-.2-.5-.1-.5.1.6-.3.5.1s-1.5.1-1,.3-.3.3,0,0C22.6,82.8,23.3,83.3,23.4,82.8Z" transform="translate(-15.43 -13.51)"/><polygon id="p123" class="cls-1" points="111.77 93.09 130.27 93.09 76.67 154.29 58.27 154.69 111.77 93.09"/><path id="p78" class="cls-1" d="M122.4,131.6c.1.3.3.5.4.8-.4.3-.9.1-1.3.2-2.5-.2-5.1,0-7.6-.1a3,3,0,0,1-1.3-.1c.9-1.1,1.7-2.2,2.5-3.3.3-.5,1.2-1.1.8-1.5s-1.2-.1-1.9-.2h-1.5a8.88,8.88,0,0,1,1.6-2.2c1-1.3,2-2.7,2.9-4.1.5-.8.9-.6,1.4,0,.9,1.2,1.8,2.5,2.6,3.8.5.8,1.4,1.4,1.8,2.4a13.13,13.13,0,0,1-2.8.1c-.6,0-.9.1-.4.7C120.6,129.2,121.2,130.6,122.4,131.6Z" transform="translate(-15.43 -13.51)"/><path id="t1-3" data-name="t1" class="cls-1" d="M104.2,152.1c.1.3.3.5.4.8-.4.3-.9.1-1.3.2-2.5-.2-5.1,0-7.6-.1a3,3,0,0,1-1.3-.1c.9-1.1,1.7-2.2,2.5-3.3.3-.5,1.2-1.1.8-1.5s-1.2-.1-1.9-.2H94.3a8.88,8.88,0,0,1,1.6-2.2c1-1.3,2-2.7,2.9-4.1.5-.8.9-.6,1.4,0,.9,1.2,1.8,2.5,2.6,3.8.5.8,1.4,1.4,1.8,2.4a13.13,13.13,0,0,1-2.8.1c-.6,0-.9.1-.4.7C102.4,149.7,103,151.1,104.2,152.1Z" transform="translate(-15.43 -13.51)"/><g id="pant3"><path class="cls-6" d="M155.6,171.3l6.7-31.2L175.1,121l16.4-10.8s5.5,8.6,1.8,15.4l-6.4,17.5L199.3,170l-11.7-.5L175.5,147l-1.8,1.7L171,159l-1.2,12.1H155.6Z" transform="translate(-15.43 -13.51)"/><line class="cls-7" x1="158.37" y1="135.29" x2="176.97" y2="114.59"/></g><g id="pant1"><path class="cls-6" d="M45.4,97.5s-2.6-3.2,1.7-9.7c0,0,3.6-11,4.2-12.4s.5-5.3-6.4-13-1.8-10.2-1.8-10.2l11,3.8,13.2,7.8A5.73,5.73,0,0,1,71,69.1L67.4,83.6l-8.8.9s-5.6,9-5.2,14.1Z" transform="translate(-15.43 -13.51)"/><path class="cls-1" d="M58.6,84.5s2.5-7,3.2-10.4L57.4,63.8,54.1,56" transform="translate(-15.43 -13.51)"/></g><line class="cls-8" x1="218.37" y1="21.79" x2="214.37" y2="14.39"/></svg>